<?xml version="1.0" encoding="UTF-8"?>
<svg xmlns="http://www.w3.org/2000/svg" xmlns:xlink="http://www.w3.org/1999/xlink" width="595.275591pt" height="841.889764pt" viewBox="0 0 595.275591 841.889764" version="1.2">
<g id="surface340947">
<rect x="0" y="0" width="595.275591" height="841.889764" style="fill:rgb(100%,100%,100%);fill-opacity:1;stroke:none;"/>
<path style="fill:none;stroke-width:28;stroke-linecap:round;stroke-linejoin:round;stroke:rgb(0%,0%,0%);stroke-opacity:1;stroke-miterlimit:10;" d="M 19544.010417 9400 L 19544.010417 30279.947917 " transform="matrix(0.015,0,0,0.015,0,0)"/>
<path style="fill:none;stroke-width:28;stroke-linecap:round;stroke-linejoin:round;stroke:rgb(0%,0%,0%);stroke-opacity:1;stroke-miterlimit:10;" d="M 22544.010417 22959.895833 L 22544.010417 21040.104167 " transform="matrix(0.015,0,0,0.015,0,0)"/>
<path style="fill:none;stroke-width:28;stroke-linecap:round;stroke-linejoin:round;stroke:rgb(0%,0%,0%);stroke-opacity:1;stroke-miterlimit:10;" d="M 28064.0625 29440.104167 L 28064.0625 27520.052083 " transform="matrix(0.015,0,0,0.015,0,0)"/>
<path style="fill:none;stroke-width:28;stroke-linecap:round;stroke-linejoin:round;stroke:rgb(0%,0%,0%);stroke-opacity:1;stroke-miterlimit:10;" d="M 28064.0625 20559.895833 L 28064.0625 18640.104167 " transform="matrix(0.015,0,0,0.015,0,0)"/>
<path style="fill:none;stroke-width:28;stroke-linecap:round;stroke-linejoin:round;stroke:rgb(0%,0%,0%);stroke-opacity:1;stroke-miterlimit:10;" d="M 35557.552083 12159.895833 C 35557.552083 12322.135417 35426.041667 12453.385417 35264.0625 12453.385417 C 35101.822917 12453.385417 34970.572917 12322.135417 34970.572917 12159.895833 C 34970.572917 11997.916667 35101.822917 11866.40625 35264.0625 11866.40625 C 35426.041667 11866.40625 35557.552083 11997.916667 35557.552083 12159.895833 Z M 35557.552083 12159.895833 " transform="matrix(0.015,0,0,0.015,0,0)"/>
<path style="fill:none;stroke-width:28;stroke-linecap:round;stroke-linejoin:round;stroke:rgb(0%,0%,0%);stroke-opacity:1;stroke-miterlimit:10;" d="M 36104.427083 8920.572917 C 36231.770833 8920.572917 36353.90625 8971.09375 36444.010417 9061.197917 C 36533.854167 9151.041667 36584.375 9273.177083 36584.375 9400.520833 " transform="matrix(0.015,0,0,0.015,0,0)"/>
<path style="fill:none;stroke-width:28;stroke-linecap:round;stroke-linejoin:round;stroke:rgb(0%,0%,0%);stroke-opacity:1;stroke-miterlimit:10;" d="M 35264.0625 13120.052083 L 35264.0625 11200 " transform="matrix(0.015,0,0,0.015,0,0)"/>
<path style="fill:none;stroke-width:28;stroke-linecap:round;stroke-linejoin:round;stroke:rgb(0%,0%,0%);stroke-opacity:1;stroke-miterlimit:10;" d="M 34303.90625 12159.895833 L 36223.958333 12159.895833 " transform="matrix(0.015,0,0,0.015,0,0)"/>
<path style="fill:none;stroke-width:28;stroke-linecap:round;stroke-linejoin:round;stroke:rgb(0%,0%,0%);stroke-opacity:1;stroke-miterlimit:10;" d="M 34804.947917 11096.09375 L 34804.947917 10529.947917 L 34994.010417 10934.114583 L 35183.072917 10529.947917 L 35183.072917 11096.09375 " transform="matrix(0.015,0,0,0.015,0,0)"/>
<path style="fill:none;stroke-width:28;stroke-linecap:round;stroke-linejoin:round;stroke:rgb(0%,0%,0%);stroke-opacity:1;stroke-miterlimit:10;" d="M 35398.958333 10529.947917 L 35750 10529.947917 L 35560.9375 10746.09375 L 35641.927083 10746.09375 L 35696.09375 10772.916667 L 35722.916667 10800 L 35750 10853.125 L 35750 10988.020833 L 35722.916667 11041.927083 L 35696.09375 11069.010417 L 35641.927083 11096.09375 L 35479.947917 11096.09375 L 35426.041667 11069.010417 L 35398.958333 11041.927083 " transform="matrix(0.015,0,0,0.015,0,0)"/>
<path style="fill:none;stroke-width:28;stroke-linecap:round;stroke-linejoin:round;stroke:rgb(0%,0%,0%);stroke-opacity:1;stroke-miterlimit:10;" d="M 34255.46875 19600 C 34255.46875 19839.84375 34127.604167 20061.458333 33919.791667 20181.510417 C 33711.979167 20301.5625 33455.989583 20301.5625 33248.177083 20181.510417 C 33040.364583 20061.458333 32912.5 19839.84375 32912.5 19600 C 32912.5 19360.15625 33040.364583 19138.541667 33248.177083 19018.489583 C 33455.989583 18898.4375 33711.979167 18898.4375 33919.791667 19018.489583 C 34127.604167 19138.541667 34255.46875 19360.15625 34255.46875 19600 Z M 34255.46875 19600 " transform="matrix(0.015,0,0,0.015,0,0)"/>
<path style="fill:none;stroke-width:28;stroke-linecap:round;stroke-linejoin:round;stroke:rgb(0%,0%,0%);stroke-opacity:1;stroke-miterlimit:10;" d="M 34160.416667 23679.947917 C 34160.416667 23885.9375 34050.520833 24076.302083 33872.135417 24179.166667 C 33694.010417 24282.291667 33474.21875 24282.291667 33295.833333 24179.166667 C 33117.447917 24076.302083 33007.552083 23885.9375 33007.552083 23679.947917 C 33007.552083 23473.958333 33117.447917 23283.59375 33295.833333 23180.729167 C 33474.21875 23077.864583 33694.010417 23077.864583 33872.135417 23180.729167 C 34050.520833 23283.59375 34160.416667 23473.958333 34160.416667 23679.947917 Z M 34160.416667 23679.947917 " transform="matrix(0.015,0,0,0.015,0,0)"/>
<path style="fill:none;stroke-width:28;stroke-linecap:round;stroke-linejoin:round;stroke:rgb(0%,0%,0%);stroke-opacity:1;stroke-miterlimit:10;" d="M 33584.114583 24640.104167 L 33584.114583 22720.052083 " transform="matrix(0.015,0,0,0.015,0,0)"/>
<path style="fill:none;stroke-width:28;stroke-linecap:round;stroke-linejoin:round;stroke:rgb(0%,0%,0%);stroke-opacity:1;stroke-miterlimit:10;" d="M 32623.958333 23679.947917 L 34544.010417 23679.947917 " transform="matrix(0.015,0,0,0.015,0,0)"/>
<path style="fill:none;stroke-width:28;stroke-linecap:round;stroke-linejoin:round;stroke:rgb(0%,0%,0%);stroke-opacity:1;stroke-miterlimit:10;" d="M 33584.114583 20559.895833 L 33584.114583 18640.104167 " transform="matrix(0.015,0,0,0.015,0,0)"/>
<path style="fill:none;stroke-width:28;stroke-linecap:round;stroke-linejoin:round;stroke:rgb(0%,0%,0%);stroke-opacity:1;stroke-miterlimit:10;" d="M 32623.958333 19600 L 34544.010417 19600 " transform="matrix(0.015,0,0,0.015,0,0)"/>
<path style="fill:none;stroke-width:28;stroke-linecap:round;stroke-linejoin:round;stroke:rgb(0%,0%,0%);stroke-opacity:1;stroke-miterlimit:10;" d="M 36584.114583 9400 L 36584.114583 30279.947917 " transform="matrix(0.015,0,0,0.015,0,0)"/>
<path style="fill:none;stroke-width:28;stroke-linecap:round;stroke-linejoin:round;stroke:rgb(0%,0%,0%);stroke-opacity:1;stroke-miterlimit:10;" d="M 36584.375 30280.46875 C 36584.375 30407.8125 36533.854167 30529.947917 36444.010417 30619.791667 C 36353.90625 30709.895833 36231.770833 30760.416667 36104.427083 30760.416667 " transform="matrix(0.015,0,0,0.015,0,0)"/>
<path style="fill:none;stroke-width:28;stroke-linecap:round;stroke-linejoin:round;stroke:rgb(0%,0%,0%);stroke-opacity:1;stroke-miterlimit:10;" d="M 35557.552083 28479.947917 C 35557.552083 28642.1875 35426.041667 28773.4375 35264.0625 28773.4375 C 35101.822917 28773.4375 34970.572917 28642.1875 34970.572917 28479.947917 C 34970.572917 28317.96875 35101.822917 28186.458333 35264.0625 28186.458333 C 35426.041667 28186.458333 35557.552083 28317.96875 35557.552083 28479.947917 Z M 35557.552083 28479.947917 " transform="matrix(0.015,0,0,0.015,0,0)"/>
<path style="fill:none;stroke-width:28;stroke-linecap:round;stroke-linejoin:round;stroke:rgb(0%,0%,0%);stroke-opacity:1;stroke-miterlimit:10;" d="M 34303.90625 28479.947917 L 36223.958333 28479.947917 " transform="matrix(0.015,0,0,0.015,0,0)"/>
<path style="fill:none;stroke-width:28;stroke-linecap:round;stroke-linejoin:round;stroke:rgb(0%,0%,0%);stroke-opacity:1;stroke-miterlimit:10;" d="M 33584.114583 16479.947917 L 33584.114583 14559.895833 " transform="matrix(0.015,0,0,0.015,0,0)"/>
<path style="fill:none;stroke-width:28;stroke-linecap:round;stroke-linejoin:round;stroke:rgb(0%,0%,0%);stroke-opacity:1;stroke-miterlimit:10;" d="M 33044.010417 17919.010417 L 33044.010417 18484.895833 " transform="matrix(0.015,0,0,0.015,0,0)"/>
<path style="fill:none;stroke-width:28;stroke-linecap:round;stroke-linejoin:round;stroke:rgb(0%,0%,0%);stroke-opacity:1;stroke-miterlimit:10;" d="M 33044.010417 17946.09375 L 33097.916667 17919.010417 L 33205.989583 17919.010417 L 33259.895833 17946.09375 L 33286.979167 17972.916667 L 33314.0625 18027.083333 L 33314.0625 18188.020833 L 33286.979167 18241.927083 L 33259.895833 18269.010417 L 33205.989583 18296.09375 L 33097.916667 18296.09375 L 33044.010417 18269.010417 " transform="matrix(0.015,0,0,0.015,0,0)"/>
<path style="fill:none;stroke-width:28;stroke-linecap:round;stroke-linejoin:round;stroke:rgb(0%,0%,0%);stroke-opacity:1;stroke-miterlimit:10;" d="M 33638.020833 18296.09375 L 33584.114583 18269.010417 L 33557.03125 18241.927083 L 33529.947917 18188.020833 L 33529.947917 18027.083333 L 33557.03125 17972.916667 L 33584.114583 17946.09375 L 33638.020833 17919.010417 L 33719.010417 17919.010417 L 33772.916667 17946.09375 L 33800 17972.916667 L 33827.083333 18027.083333 L 33827.083333 18188.020833 L 33800 18241.927083 L 33772.916667 18269.010417 L 33719.010417 18296.09375 L 33638.020833 18296.09375 " transform="matrix(0.015,0,0,0.015,0,0)"/>
<path style="fill:none;stroke-width:28;stroke-linecap:round;stroke-linejoin:round;stroke:rgb(0%,0%,0%);stroke-opacity:1;stroke-miterlimit:10;" d="M 33989.0625 17919.010417 L 34204.947917 17919.010417 " transform="matrix(0.015,0,0,0.015,0,0)"/>
<path style="fill:none;stroke-width:28;stroke-linecap:round;stroke-linejoin:round;stroke:rgb(0%,0%,0%);stroke-opacity:1;stroke-miterlimit:10;" d="M 34070.052083 17729.947917 L 34070.052083 18215.104167 L 34096.875 18269.010417 L 34151.041667 18296.09375 L 34204.947917 18296.09375 " transform="matrix(0.015,0,0,0.015,0,0)"/>
<path style="fill:none;stroke-width:28;stroke-linecap:round;stroke-linejoin:round;stroke:rgb(0%,0%,0%);stroke-opacity:1;stroke-miterlimit:10;" d="M 34255.46875 15520.052083 C 34255.46875 15759.895833 34127.604167 15981.510417 33919.791667 16101.5625 C 33711.979167 16221.614583 33455.989583 16221.614583 33248.177083 16101.5625 C 33040.364583 15981.510417 32912.5 15759.895833 32912.5 15520.052083 C 32912.5 15280.208333 33040.364583 15058.333333 33248.177083 14938.541667 C 33455.989583 14818.489583 33711.979167 14818.489583 33919.791667 14938.541667 C 34127.604167 15058.333333 34255.46875 15280.208333 34255.46875 15520.052083 Z M 34255.46875 15520.052083 " transform="matrix(0.015,0,0,0.015,0,0)"/>
<path style="fill:none;stroke-width:28;stroke-linecap:round;stroke-linejoin:round;stroke:rgb(0%,0%,0%);stroke-opacity:1;stroke-miterlimit:10;" d="M 19544.53125 9400.520833 C 19544.53125 9273.177083 19595.052083 9151.041667 19685.15625 9061.197917 C 19775 8971.09375 19897.135417 8920.572917 20024.479167 8920.572917 " transform="matrix(0.015,0,0,0.015,0,0)"/>
<path style="fill:none;stroke-width:28;stroke-linecap:round;stroke-linejoin:round;stroke:rgb(0%,0%,0%);stroke-opacity:1;stroke-miterlimit:10;" d="M 21157.552083 12159.895833 C 21157.552083 12322.135417 21026.041667 12453.385417 20864.0625 12453.385417 C 20701.822917 12453.385417 20570.572917 12322.135417 20570.572917 12159.895833 C 20570.572917 11997.916667 20701.822917 11866.40625 20864.0625 11866.40625 C 21026.041667 11866.40625 21157.552083 11997.916667 21157.552083 12159.895833 Z M 21157.552083 12159.895833 " transform="matrix(0.015,0,0,0.015,0,0)"/>
<path style="fill:none;stroke-width:28;stroke-linecap:round;stroke-linejoin:round;stroke:rgb(0%,0%,0%);stroke-opacity:1;stroke-miterlimit:10;" d="M 20864.0625 13120.052083 L 20864.0625 11200 " transform="matrix(0.015,0,0,0.015,0,0)"/>
<path style="fill:none;stroke-width:28;stroke-linecap:round;stroke-linejoin:round;stroke:rgb(0%,0%,0%);stroke-opacity:1;stroke-miterlimit:10;" d="M 19903.90625 12159.895833 L 21823.958333 12159.895833 " transform="matrix(0.015,0,0,0.015,0,0)"/>
<path style="fill:none;stroke-width:28;stroke-linecap:round;stroke-linejoin:round;stroke:rgb(0%,0%,0%);stroke-opacity:1;stroke-miterlimit:10;" d="M 20404.947917 11096.09375 L 20404.947917 10529.947917 L 20594.010417 10934.114583 L 20783.072917 10529.947917 L 20783.072917 11096.09375 " transform="matrix(0.015,0,0,0.015,0,0)"/>
<path style="fill:none;stroke-width:28;stroke-linecap:round;stroke-linejoin:round;stroke:rgb(0%,0%,0%);stroke-opacity:1;stroke-miterlimit:10;" d="M 20998.958333 10529.947917 L 21350 10529.947917 L 21160.9375 10746.09375 L 21241.927083 10746.09375 L 21296.09375 10772.916667 L 21322.916667 10800 L 21350 10853.125 L 21350 10988.020833 L 21322.916667 11041.927083 L 21296.09375 11069.010417 L 21241.927083 11096.09375 L 21079.947917 11096.09375 L 21026.041667 11069.010417 L 20998.958333 11041.927083 " transform="matrix(0.015,0,0,0.015,0,0)"/>
<path style="fill:none;stroke-width:28;stroke-linecap:round;stroke-linejoin:round;stroke:rgb(0%,0%,0%);stroke-opacity:1;stroke-miterlimit:10;" d="M 22544.010417 18879.947917 L 22544.010417 16959.895833 " transform="matrix(0.015,0,0,0.015,0,0)"/>
<path style="fill:none;stroke-width:28;stroke-linecap:round;stroke-linejoin:round;stroke:rgb(0%,0%,0%);stroke-opacity:1;stroke-miterlimit:10;" d="M 23215.625 17920.052083 C 23215.625 18159.895833 23087.5 18381.510417 22879.6875 18501.5625 C 22671.875 18621.614583 22415.885417 18621.614583 22208.333333 18501.5625 C 22000.520833 18381.510417 21872.395833 18159.895833 21872.395833 17920.052083 C 21872.395833 17680.208333 22000.520833 17458.333333 22208.333333 17338.541667 C 22415.885417 17218.489583 22671.875 17218.489583 22879.6875 17338.541667 C 23087.5 17458.333333 23215.625 17680.208333 23215.625 17920.052083 Z M 23215.625 17920.052083 " transform="matrix(0.015,0,0,0.015,0,0)"/>
<path style="fill:none;stroke-width:28;stroke-linecap:round;stroke-linejoin:round;stroke:rgb(0%,0%,0%);stroke-opacity:1;stroke-miterlimit:10;" d="M 21584.114583 17920.052083 L 23503.90625 17920.052083 " transform="matrix(0.015,0,0,0.015,0,0)"/>
<path style="fill:none;stroke-width:28;stroke-linecap:round;stroke-linejoin:round;stroke:rgb(0%,0%,0%);stroke-opacity:1;stroke-miterlimit:10;" d="M 28064.0625 16479.947917 L 28064.0625 14559.895833 " transform="matrix(0.015,0,0,0.015,0,0)"/>
<path style="fill:none;stroke-width:28;stroke-linecap:round;stroke-linejoin:round;stroke:rgb(0%,0%,0%);stroke-opacity:1;stroke-miterlimit:10;" d="M 22003.90625 16239.0625 L 22003.90625 16804.947917 " transform="matrix(0.015,0,0,0.015,0,0)"/>
<path style="fill:none;stroke-width:28;stroke-linecap:round;stroke-linejoin:round;stroke:rgb(0%,0%,0%);stroke-opacity:1;stroke-miterlimit:10;" d="M 22003.90625 16265.885417 L 22058.072917 16239.0625 L 22165.885417 16239.0625 L 22220.052083 16265.885417 L 22246.875 16292.96875 L 22273.958333 16346.875 L 22273.958333 16508.072917 L 22246.875 16561.979167 L 22220.052083 16589.0625 L 22165.885417 16615.885417 L 22058.072917 16615.885417 L 22003.90625 16589.0625 " transform="matrix(0.015,0,0,0.015,0,0)"/>
<path style="fill:none;stroke-width:28;stroke-linecap:round;stroke-linejoin:round;stroke:rgb(0%,0%,0%);stroke-opacity:1;stroke-miterlimit:10;" d="M 22597.916667 16615.885417 L 22544.010417 16589.0625 L 22516.927083 16561.979167 L 22490.104167 16508.072917 L 22490.104167 16346.875 L 22516.927083 16292.96875 L 22544.010417 16265.885417 L 22597.916667 16239.0625 L 22678.90625 16239.0625 L 22733.072917 16265.885417 L 22759.895833 16292.96875 L 22786.979167 16346.875 L 22786.979167 16508.072917 L 22759.895833 16561.979167 L 22733.072917 16589.0625 L 22678.90625 16615.885417 L 22597.916667 16615.885417 " transform="matrix(0.015,0,0,0.015,0,0)"/>
<path style="fill:none;stroke-width:28;stroke-linecap:round;stroke-linejoin:round;stroke:rgb(0%,0%,0%);stroke-opacity:1;stroke-miterlimit:10;" d="M 22948.958333 16239.0625 L 23165.104167 16239.0625 " transform="matrix(0.015,0,0,0.015,0,0)"/>
<path style="fill:none;stroke-width:28;stroke-linecap:round;stroke-linejoin:round;stroke:rgb(0%,0%,0%);stroke-opacity:1;stroke-miterlimit:10;" d="M 23029.947917 16050 L 23029.947917 16534.895833 L 23057.03125 16589.0625 L 23110.9375 16615.885417 L 23165.104167 16615.885417 " transform="matrix(0.015,0,0,0.015,0,0)"/>
<path style="fill:none;stroke-width:28;stroke-linecap:round;stroke-linejoin:round;stroke:rgb(0%,0%,0%);stroke-opacity:1;stroke-miterlimit:10;" d="M 27523.958333 17919.010417 L 27523.958333 18484.895833 " transform="matrix(0.015,0,0,0.015,0,0)"/>
<path style="fill:none;stroke-width:28;stroke-linecap:round;stroke-linejoin:round;stroke:rgb(0%,0%,0%);stroke-opacity:1;stroke-miterlimit:10;" d="M 27523.958333 17946.09375 L 27578.125 17919.010417 L 27685.9375 17919.010417 L 27740.104167 17946.09375 L 27766.927083 17972.916667 L 27794.010417 18027.083333 L 27794.010417 18188.020833 L 27766.927083 18241.927083 L 27740.104167 18269.010417 L 27685.9375 18296.09375 L 27578.125 18296.09375 L 27523.958333 18269.010417 " transform="matrix(0.015,0,0,0.015,0,0)"/>
<path style="fill:none;stroke-width:28;stroke-linecap:round;stroke-linejoin:round;stroke:rgb(0%,0%,0%);stroke-opacity:1;stroke-miterlimit:10;" d="M 28117.96875 18296.09375 L 28064.0625 18269.010417 L 28036.979167 18241.927083 L 28009.895833 18188.020833 L 28009.895833 18027.083333 L 28036.979167 17972.916667 L 28064.0625 17946.09375 L 28117.96875 17919.010417 L 28198.958333 17919.010417 L 28253.125 17946.09375 L 28279.947917 17972.916667 L 28307.03125 18027.083333 L 28307.03125 18188.020833 L 28279.947917 18241.927083 L 28253.125 18269.010417 L 28198.958333 18296.09375 L 28117.96875 18296.09375 " transform="matrix(0.015,0,0,0.015,0,0)"/>
<path style="fill:none;stroke-width:28;stroke-linecap:round;stroke-linejoin:round;stroke:rgb(0%,0%,0%);stroke-opacity:1;stroke-miterlimit:10;" d="M 28469.010417 17919.010417 L 28684.895833 17919.010417 " transform="matrix(0.015,0,0,0.015,0,0)"/>
<path style="fill:none;stroke-width:28;stroke-linecap:round;stroke-linejoin:round;stroke:rgb(0%,0%,0%);stroke-opacity:1;stroke-miterlimit:10;" d="M 28550 17729.947917 L 28550 18215.104167 L 28577.083333 18269.010417 L 28630.989583 18296.09375 L 28684.895833 18296.09375 " transform="matrix(0.015,0,0,0.015,0,0)"/>
<path style="fill:none;stroke-width:28;stroke-linecap:round;stroke-linejoin:round;stroke:rgb(0%,0%,0%);stroke-opacity:1;stroke-miterlimit:10;" d="M 28735.416667 15520.052083 C 28735.416667 15759.895833 28607.552083 15981.510417 28399.739583 16101.5625 C 28191.927083 16221.614583 27935.9375 16221.614583 27728.125 16101.5625 C 27520.572917 15981.510417 27392.447917 15759.895833 27392.447917 15520.052083 C 27392.447917 15280.208333 27520.572917 15058.333333 27728.125 14938.541667 C 27935.9375 14818.489583 28191.927083 14818.489583 28399.739583 14938.541667 C 28607.552083 15058.333333 28735.416667 15280.208333 28735.416667 15520.052083 Z M 28735.416667 15520.052083 " transform="matrix(0.015,0,0,0.015,0,0)"/>
<path style="fill:none;stroke-width:28;stroke-linecap:round;stroke-linejoin:round;stroke:rgb(0%,0%,0%);stroke-opacity:1;stroke-miterlimit:10;" d="M 20023.958333 8920.052083 L 36103.90625 8920.052083 " transform="matrix(0.015,0,0,0.015,0,0)"/>
<path style="fill:none;stroke-width:28;stroke-linecap:round;stroke-linejoin:round;stroke:rgb(0%,0%,0%);stroke-opacity:1;stroke-miterlimit:10;" d="M 27103.90625 15520.052083 L 29023.958333 15520.052083 " transform="matrix(0.015,0,0,0.015,0,0)"/>
<path style="fill:none;stroke-width:28;stroke-linecap:round;stroke-linejoin:round;stroke:rgb(0%,0%,0%);stroke-opacity:1;stroke-miterlimit:10;" d="M 27523.958333 13839.0625 L 27523.958333 14404.947917 " transform="matrix(0.015,0,0,0.015,0,0)"/>
<path style="fill:none;stroke-width:28;stroke-linecap:round;stroke-linejoin:round;stroke:rgb(0%,0%,0%);stroke-opacity:1;stroke-miterlimit:10;" d="M 27523.958333 13865.885417 L 27578.125 13839.0625 L 27685.9375 13839.0625 L 27740.104167 13865.885417 L 27766.927083 13892.96875 L 27794.010417 13946.875 L 27794.010417 14108.072917 L 27766.927083 14161.979167 L 27740.104167 14189.0625 L 27685.9375 14215.885417 L 27578.125 14215.885417 L 27523.958333 14189.0625 " transform="matrix(0.015,0,0,0.015,0,0)"/>
<path style="fill:none;stroke-width:28;stroke-linecap:round;stroke-linejoin:round;stroke:rgb(0%,0%,0%);stroke-opacity:1;stroke-miterlimit:10;" d="M 28117.96875 14215.885417 L 28064.0625 14189.0625 L 28036.979167 14161.979167 L 28009.895833 14108.072917 L 28009.895833 13946.875 L 28036.979167 13892.96875 L 28064.0625 13865.885417 L 28117.96875 13839.0625 L 28198.958333 13839.0625 L 28253.125 13865.885417 L 28279.947917 13892.96875 L 28307.03125 13946.875 L 28307.03125 14108.072917 L 28279.947917 14161.979167 L 28253.125 14189.0625 L 28198.958333 14215.885417 L 28117.96875 14215.885417 " transform="matrix(0.015,0,0,0.015,0,0)"/>
<path style="fill:none;stroke-width:28;stroke-linecap:round;stroke-linejoin:round;stroke:rgb(0%,0%,0%);stroke-opacity:1;stroke-miterlimit:10;" d="M 28469.010417 13839.0625 L 28684.895833 13839.0625 " transform="matrix(0.015,0,0,0.015,0,0)"/>
<path style="fill:none;stroke-width:28;stroke-linecap:round;stroke-linejoin:round;stroke:rgb(0%,0%,0%);stroke-opacity:1;stroke-miterlimit:10;" d="M 28550 13650 L 28550 14134.895833 L 28577.083333 14189.0625 L 28630.989583 14215.885417 L 28684.895833 14215.885417 " transform="matrix(0.015,0,0,0.015,0,0)"/>
<path style="fill:none;stroke-width:28;stroke-linecap:round;stroke-linejoin:round;stroke:rgb(0%,0%,0%);stroke-opacity:1;stroke-miterlimit:10;" d="M 32623.958333 15520.052083 L 34544.010417 15520.052083 " transform="matrix(0.015,0,0,0.015,0,0)"/>
<path style="fill:none;stroke-width:28;stroke-linecap:round;stroke-linejoin:round;stroke:rgb(0%,0%,0%);stroke-opacity:1;stroke-miterlimit:10;" d="M 33044.010417 13839.0625 L 33044.010417 14404.947917 " transform="matrix(0.015,0,0,0.015,0,0)"/>
<path style="fill:none;stroke-width:28;stroke-linecap:round;stroke-linejoin:round;stroke:rgb(0%,0%,0%);stroke-opacity:1;stroke-miterlimit:10;" d="M 33044.010417 13865.885417 L 33097.916667 13839.0625 L 33205.989583 13839.0625 L 33259.895833 13865.885417 L 33286.979167 13892.96875 L 33314.0625 13946.875 L 33314.0625 14108.072917 L 33286.979167 14161.979167 L 33259.895833 14189.0625 L 33205.989583 14215.885417 L 33097.916667 14215.885417 L 33044.010417 14189.0625 " transform="matrix(0.015,0,0,0.015,0,0)"/>
<path style="fill:none;stroke-width:28;stroke-linecap:round;stroke-linejoin:round;stroke:rgb(0%,0%,0%);stroke-opacity:1;stroke-miterlimit:10;" d="M 33638.020833 14215.885417 L 33584.114583 14189.0625 L 33557.03125 14161.979167 L 33529.947917 14108.072917 L 33529.947917 13946.875 L 33557.03125 13892.96875 L 33584.114583 13865.885417 L 33638.020833 13839.0625 L 33719.010417 13839.0625 L 33772.916667 13865.885417 L 33800 13892.96875 L 33827.083333 13946.875 L 33827.083333 14108.072917 L 33800 14161.979167 L 33772.916667 14189.0625 L 33719.010417 14215.885417 L 33638.020833 14215.885417 " transform="matrix(0.015,0,0,0.015,0,0)"/>
<path style="fill:none;stroke-width:28;stroke-linecap:round;stroke-linejoin:round;stroke:rgb(0%,0%,0%);stroke-opacity:1;stroke-miterlimit:10;" d="M 33989.0625 13839.0625 L 34204.947917 13839.0625 " transform="matrix(0.015,0,0,0.015,0,0)"/>
<path style="fill:none;stroke-width:28;stroke-linecap:round;stroke-linejoin:round;stroke:rgb(0%,0%,0%);stroke-opacity:1;stroke-miterlimit:10;" d="M 34070.052083 13650 L 34070.052083 14134.895833 L 34096.875 14189.0625 L 34151.041667 14215.885417 L 34204.947917 14215.885417 " transform="matrix(0.015,0,0,0.015,0,0)"/>
<path style="fill:none;stroke-width:28;stroke-linecap:round;stroke-linejoin:round;stroke:rgb(0%,0%,0%);stroke-opacity:1;stroke-miterlimit:10;" d="M 24365.104167 9896.09375 L 24365.104167 9329.947917 " transform="matrix(0.015,0,0,0.015,0,0)"/>
<path style="fill:none;stroke-width:28;stroke-linecap:round;stroke-linejoin:round;stroke:rgb(0%,0%,0%);stroke-opacity:1;stroke-miterlimit:10;" d="M 24365.104167 9600 L 24689.0625 9600 " transform="matrix(0.015,0,0,0.015,0,0)"/>
<path style="fill:none;stroke-width:28;stroke-linecap:round;stroke-linejoin:round;stroke:rgb(0%,0%,0%);stroke-opacity:1;stroke-miterlimit:10;" d="M 24689.0625 9896.09375 L 24689.0625 9329.947917 " transform="matrix(0.015,0,0,0.015,0,0)"/>
<path style="fill:none;stroke-width:28;stroke-linecap:round;stroke-linejoin:round;stroke:rgb(0%,0%,0%);stroke-opacity:1;stroke-miterlimit:10;" d="M 25202.083333 9896.09375 L 25202.083333 9600 L 25175 9546.09375 L 25121.09375 9519.010417 L 25013.020833 9519.010417 L 24959.114583 9546.09375 " transform="matrix(0.015,0,0,0.015,0,0)"/>
<path style="fill:none;stroke-width:28;stroke-linecap:round;stroke-linejoin:round;stroke:rgb(0%,0%,0%);stroke-opacity:1;stroke-miterlimit:10;" d="M 25202.083333 9869.010417 L 25147.916667 9896.09375 L 25013.020833 9896.09375 L 24959.114583 9869.010417 L 24932.03125 9815.104167 L 24932.03125 9760.9375 L 24959.114583 9707.03125 L 25013.020833 9679.947917 L 25147.916667 9679.947917 L 25202.083333 9653.125 " transform="matrix(0.015,0,0,0.015,0,0)"/>
<path style="fill:none;stroke-width:28;stroke-linecap:round;stroke-linejoin:round;stroke:rgb(0%,0%,0%);stroke-opacity:1;stroke-miterlimit:10;" d="M 25471.875 9896.09375 L 25471.875 9519.010417 " transform="matrix(0.015,0,0,0.015,0,0)"/>
<path style="fill:none;stroke-width:28;stroke-linecap:round;stroke-linejoin:round;stroke:rgb(0%,0%,0%);stroke-opacity:1;stroke-miterlimit:10;" d="M 25471.875 9572.916667 L 25498.958333 9546.09375 L 25553.125 9519.010417 L 25634.114583 9519.010417 L 25688.020833 9546.09375 L 25715.104167 9600 L 25715.104167 9896.09375 " transform="matrix(0.015,0,0,0.015,0,0)"/>
<path style="fill:none;stroke-width:28;stroke-linecap:round;stroke-linejoin:round;stroke:rgb(0%,0%,0%);stroke-opacity:1;stroke-miterlimit:10;" d="M 25715.104167 9600 L 25741.927083 9546.09375 L 25796.09375 9519.010417 L 25877.083333 9519.010417 L 25930.989583 9546.09375 L 25958.072917 9600 L 25958.072917 9896.09375 " transform="matrix(0.015,0,0,0.015,0,0)"/>
<path style="fill:none;stroke-width:28;stroke-linecap:round;stroke-linejoin:round;stroke:rgb(0%,0%,0%);stroke-opacity:1;stroke-miterlimit:10;" d="M 26309.114583 9896.09375 L 26254.947917 9869.010417 L 26228.125 9841.927083 L 26201.041667 9788.020833 L 26201.041667 9627.083333 L 26228.125 9572.916667 L 26254.947917 9546.09375 L 26309.114583 9519.010417 L 26390.104167 9519.010417 L 26444.010417 9546.09375 L 26471.09375 9572.916667 L 26497.916667 9627.083333 L 26497.916667 9788.020833 L 26471.09375 9841.927083 L 26444.010417 9869.010417 L 26390.104167 9896.09375 L 26309.114583 9896.09375 " transform="matrix(0.015,0,0,0.015,0,0)"/>
<path style="fill:none;stroke-width:28;stroke-linecap:round;stroke-linejoin:round;stroke:rgb(0%,0%,0%);stroke-opacity:1;stroke-miterlimit:10;" d="M 26740.885417 9519.010417 L 26740.885417 9896.09375 " transform="matrix(0.015,0,0,0.015,0,0)"/>
<path style="fill:none;stroke-width:28;stroke-linecap:round;stroke-linejoin:round;stroke:rgb(0%,0%,0%);stroke-opacity:1;stroke-miterlimit:10;" d="M 26740.885417 9572.916667 L 26767.96875 9546.09375 L 26821.875 9519.010417 L 26903.125 9519.010417 L 26957.03125 9546.09375 L 26984.114583 9600 L 26984.114583 9896.09375 " transform="matrix(0.015,0,0,0.015,0,0)"/>
<path style="fill:none;stroke-width:28;stroke-linecap:round;stroke-linejoin:round;stroke:rgb(0%,0%,0%);stroke-opacity:1;stroke-miterlimit:10;" d="M 27496.875 9896.09375 L 27496.875 9329.947917 " transform="matrix(0.015,0,0,0.015,0,0)"/>
<path style="fill:none;stroke-width:28;stroke-linecap:round;stroke-linejoin:round;stroke:rgb(0%,0%,0%);stroke-opacity:1;stroke-miterlimit:10;" d="M 27496.875 9869.010417 L 27442.96875 9896.09375 L 27334.895833 9896.09375 L 27280.989583 9869.010417 L 27253.90625 9841.927083 L 27227.083333 9788.020833 L 27227.083333 9627.083333 L 27253.90625 9572.916667 L 27280.989583 9546.09375 L 27334.895833 9519.010417 L 27442.96875 9519.010417 L 27496.875 9546.09375 " transform="matrix(0.015,0,0,0.015,0,0)"/>
<path style="fill:none;stroke-width:28;stroke-linecap:round;stroke-linejoin:round;stroke:rgb(0%,0%,0%);stroke-opacity:1;stroke-miterlimit:10;" d="M 28496.09375 9896.09375 L 28171.875 9896.09375 " transform="matrix(0.015,0,0,0.015,0,0)"/>
<path style="fill:none;stroke-width:28;stroke-linecap:round;stroke-linejoin:round;stroke:rgb(0%,0%,0%);stroke-opacity:1;stroke-miterlimit:10;" d="M 28334.114583 9896.09375 L 28334.114583 9329.947917 L 28279.947917 9410.9375 L 28226.041667 9465.104167 L 28171.875 9491.927083 " transform="matrix(0.015,0,0,0.015,0,0)"/>
<path style="fill:none;stroke-width:28;stroke-linecap:round;stroke-linejoin:round;stroke:rgb(0%,0%,0%);stroke-opacity:1;stroke-miterlimit:10;" d="M 29009.114583 9329.947917 L 28739.0625 9329.947917 L 28711.979167 9600 L 28739.0625 9572.916667 L 28792.96875 9546.09375 L 28928.125 9546.09375 L 28982.03125 9572.916667 L 29009.114583 9600 L 29035.9375 9653.125 L 29035.9375 9788.020833 L 29009.114583 9841.927083 L 28982.03125 9869.010417 L 28928.125 9896.09375 L 28792.96875 9896.09375 L 28739.0625 9869.010417 L 28711.979167 9841.927083 " transform="matrix(0.015,0,0,0.015,0,0)"/>
<path style="fill:none;stroke-width:28;stroke-linecap:round;stroke-linejoin:round;stroke:rgb(0%,0%,0%);stroke-opacity:1;stroke-miterlimit:10;" d="M 29305.989583 9896.09375 L 29414.0625 9896.09375 L 29467.96875 9869.010417 L 29495.052083 9841.927083 L 29548.958333 9760.9375 L 29576.041667 9653.125 L 29576.041667 9438.020833 L 29548.958333 9384.114583 L 29521.875 9357.03125 L 29467.96875 9329.947917 L 29359.895833 9329.947917 L 29305.989583 9357.03125 L 29278.90625 9384.114583 L 29252.083333 9438.020833 L 29252.083333 9572.916667 L 29278.90625 9627.083333 L 29305.989583 9653.125 L 29359.895833 9679.947917 L 29467.96875 9679.947917 L 29521.875 9653.125 L 29548.958333 9627.083333 L 29576.041667 9572.916667 " transform="matrix(0.015,0,0,0.015,0,0)"/>
<path style="fill:none;stroke-width:28;stroke-linecap:round;stroke-linejoin:round;stroke:rgb(0%,0%,0%);stroke-opacity:1;stroke-miterlimit:10;" d="M 29927.083333 9329.947917 L 29980.989583 9329.947917 L 30034.895833 9357.03125 L 30061.979167 9384.114583 L 30089.0625 9438.020833 L 30115.885417 9546.09375 L 30115.885417 9679.947917 L 30089.0625 9788.020833 L 30061.979167 9841.927083 L 30034.895833 9869.010417 L 29980.989583 9896.09375 L 29927.083333 9896.09375 L 29872.916667 9869.010417 L 29846.09375 9841.927083 L 29819.010417 9788.020833 L 29791.927083 9679.947917 L 29791.927083 9546.09375 L 29819.010417 9438.020833 L 29846.09375 9384.114583 L 29872.916667 9357.03125 L 29927.083333 9329.947917 " transform="matrix(0.015,0,0,0.015,0,0)"/>
<path style="fill:none;stroke-width:28;stroke-linecap:round;stroke-linejoin:round;stroke:rgb(0%,0%,0%);stroke-opacity:1;stroke-miterlimit:10;" d="M 30547.916667 9600 L 30628.90625 9627.083333 L 30655.989583 9653.125 L 30683.072917 9707.03125 L 30683.072917 9788.020833 L 30655.989583 9841.927083 L 30628.90625 9869.010417 L 30575 9896.09375 L 30359.114583 9896.09375 L 30359.114583 9329.947917 L 30547.916667 9329.947917 L 30602.083333 9357.03125 L 30628.90625 9384.114583 L 30655.989583 9438.020833 L 30655.989583 9491.927083 L 30628.90625 9546.09375 L 30602.083333 9572.916667 L 30547.916667 9600 L 30359.114583 9600 " transform="matrix(0.015,0,0,0.015,0,0)"/>
<path style="fill:none;stroke-width:28;stroke-linecap:round;stroke-linejoin:round;stroke:rgb(0%,0%,0%);stroke-opacity:1;stroke-miterlimit:10;" d="M 31115.104167 9600 L 31196.09375 9627.083333 L 31222.916667 9653.125 L 31250 9707.03125 L 31250 9788.020833 L 31222.916667 9841.927083 L 31196.09375 9869.010417 L 31141.927083 9896.09375 L 30926.041667 9896.09375 L 30926.041667 9329.947917 L 31115.104167 9329.947917 L 31169.010417 9357.03125 L 31196.09375 9384.114583 L 31222.916667 9438.020833 L 31222.916667 9491.927083 L 31196.09375 9546.09375 L 31169.010417 9572.916667 L 31115.104167 9600 L 30926.041667 9600 " transform="matrix(0.015,0,0,0.015,0,0)"/>
<path style="fill:none;stroke-width:28;stroke-linecap:round;stroke-linejoin:round;stroke:rgb(0%,0%,0%);stroke-opacity:1;stroke-miterlimit:10;" d="M 31465.885417 9869.010417 L 31546.875 9896.09375 L 31682.03125 9896.09375 L 31735.9375 9869.010417 L 31763.020833 9841.927083 L 31790.104167 9788.020833 L 31790.104167 9734.114583 L 31763.020833 9679.947917 L 31735.9375 9653.125 L 31682.03125 9627.083333 L 31573.958333 9600 L 31520.052083 9572.916667 L 31492.96875 9546.09375 L 31465.885417 9491.927083 L 31465.885417 9438.020833 L 31492.96875 9384.114583 L 31520.052083 9357.03125 L 31573.958333 9329.947917 L 31709.114583 9329.947917 L 31790.104167 9357.03125 " transform="matrix(0.015,0,0,0.015,0,0)"/>
<path style="fill:none;stroke-width:28;stroke-linecap:round;stroke-linejoin:round;stroke:rgb(0%,0%,0%);stroke-opacity:1;stroke-miterlimit:10;" d="M 25666.40625 28479.947917 C 25666.40625 28652.34375 25574.479167 28811.71875 25425.260417 28897.916667 C 25276.041667 28984.114583 25091.927083 28984.114583 24942.708333 28897.916667 C 24793.489583 28811.71875 24701.5625 28652.34375 24701.5625 28479.947917 C 24701.5625 28307.552083 24793.489583 28148.4375 24942.708333 28062.239583 C 25091.927083 27976.041667 25276.041667 27976.041667 25425.260417 28062.239583 C 25574.479167 28148.4375 25666.40625 28307.552083 25666.40625 28479.947917 Z M 25666.40625 28479.947917 " transform="matrix(0.015,0,0,0.015,0,0)"/>
<path style="fill:none;stroke-width:28;stroke-linecap:round;stroke-linejoin:round;stroke:rgb(0%,0%,0%);stroke-opacity:1;stroke-miterlimit:10;" d="M 20024.479167 30760.416667 C 19897.135417 30760.416667 19775 30709.895833 19685.15625 30619.791667 C 19595.052083 30529.947917 19544.53125 30407.8125 19544.53125 30280.46875 " transform="matrix(0.015,0,0,0.015,0,0)"/>
<path style="fill:none;stroke-width:28;stroke-linecap:round;stroke-linejoin:round;stroke:rgb(0%,0%,0%);stroke-opacity:1;stroke-miterlimit:10;" d="M 21157.552083 28479.947917 C 21157.552083 28642.1875 21026.041667 28773.4375 20864.0625 28773.4375 C 20701.822917 28773.4375 20570.572917 28642.1875 20570.572917 28479.947917 C 20570.572917 28317.96875 20701.822917 28186.458333 20864.0625 28186.458333 C 21026.041667 28186.458333 21157.552083 28317.96875 21157.552083 28479.947917 Z M 21157.552083 28479.947917 " transform="matrix(0.015,0,0,0.015,0,0)"/>
<path style="fill:none;stroke-width:28;stroke-linecap:round;stroke-linejoin:round;stroke:rgb(0%,0%,0%);stroke-opacity:1;stroke-miterlimit:10;" d="M 19903.90625 28479.947917 L 21823.958333 28479.947917 " transform="matrix(0.015,0,0,0.015,0,0)"/>
<path style="fill:none;stroke-width:28;stroke-linecap:round;stroke-linejoin:round;stroke:rgb(0%,0%,0%);stroke-opacity:1;stroke-miterlimit:10;" d="M 24223.958333 28479.947917 L 26144.010417 28479.947917 " transform="matrix(0.015,0,0,0.015,0,0)"/>
<path style="fill:none;stroke-width:28;stroke-linecap:round;stroke-linejoin:round;stroke:rgb(0%,0%,0%);stroke-opacity:1;stroke-miterlimit:10;" d="M 23215.625 22000 C 23215.625 22239.84375 23087.5 22461.458333 22879.6875 22581.510417 C 22671.875 22701.5625 22415.885417 22701.5625 22208.333333 22581.510417 C 22000.520833 22461.458333 21872.395833 22239.84375 21872.395833 22000 C 21872.395833 21760.15625 22000.520833 21538.541667 22208.333333 21418.489583 C 22415.885417 21298.4375 22671.875 21298.4375 22879.6875 21418.489583 C 23087.5 21538.541667 23215.625 21760.15625 23215.625 22000 Z M 23215.625 22000 " transform="matrix(0.015,0,0,0.015,0,0)"/>
<path style="fill:none;stroke-width:28;stroke-linecap:round;stroke-linejoin:round;stroke:rgb(0%,0%,0%);stroke-opacity:1;stroke-miterlimit:10;" d="M 21584.114583 22000 L 23503.90625 22000 " transform="matrix(0.015,0,0,0.015,0,0)"/>
<path style="fill:none;stroke-width:28;stroke-linecap:round;stroke-linejoin:round;stroke:rgb(0%,0%,0%);stroke-opacity:1;stroke-miterlimit:10;" d="M 20864.0625 29440.104167 L 20864.0625 27520.052083 " transform="matrix(0.015,0,0,0.015,0,0)"/>
<path style="fill:none;stroke-width:28;stroke-linecap:round;stroke-linejoin:round;stroke:rgb(0%,0%,0%);stroke-opacity:1;stroke-miterlimit:10;" d="M 25184.114583 29440.104167 L 25184.114583 27520.052083 " transform="matrix(0.015,0,0,0.015,0,0)"/>
<path style="fill:none;stroke-width:28;stroke-linecap:round;stroke-linejoin:round;stroke:rgb(0%,0%,0%);stroke-opacity:1;stroke-miterlimit:10;" d="M 22003.90625 20319.010417 L 22003.90625 20884.895833 " transform="matrix(0.015,0,0,0.015,0,0)"/>
<path style="fill:none;stroke-width:28;stroke-linecap:round;stroke-linejoin:round;stroke:rgb(0%,0%,0%);stroke-opacity:1;stroke-miterlimit:10;" d="M 22003.90625 20346.09375 L 22058.072917 20319.010417 L 22165.885417 20319.010417 L 22220.052083 20346.09375 L 22246.875 20372.916667 L 22273.958333 20427.083333 L 22273.958333 20588.020833 L 22246.875 20641.927083 L 22220.052083 20669.010417 L 22165.885417 20696.09375 L 22058.072917 20696.09375 L 22003.90625 20669.010417 " transform="matrix(0.015,0,0,0.015,0,0)"/>
<path style="fill:none;stroke-width:28;stroke-linecap:round;stroke-linejoin:round;stroke:rgb(0%,0%,0%);stroke-opacity:1;stroke-miterlimit:10;" d="M 22597.916667 20696.09375 L 22544.010417 20669.010417 L 22516.927083 20641.927083 L 22490.104167 20588.020833 L 22490.104167 20427.083333 L 22516.927083 20372.916667 L 22544.010417 20346.09375 L 22597.916667 20319.010417 L 22678.90625 20319.010417 L 22733.072917 20346.09375 L 22759.895833 20372.916667 L 22786.979167 20427.083333 L 22786.979167 20588.020833 L 22759.895833 20641.927083 L 22733.072917 20669.010417 L 22678.90625 20696.09375 L 22597.916667 20696.09375 " transform="matrix(0.015,0,0,0.015,0,0)"/>
<path style="fill:none;stroke-width:28;stroke-linecap:round;stroke-linejoin:round;stroke:rgb(0%,0%,0%);stroke-opacity:1;stroke-miterlimit:10;" d="M 22948.958333 20319.010417 L 23165.104167 20319.010417 " transform="matrix(0.015,0,0,0.015,0,0)"/>
<path style="fill:none;stroke-width:28;stroke-linecap:round;stroke-linejoin:round;stroke:rgb(0%,0%,0%);stroke-opacity:1;stroke-miterlimit:10;" d="M 23029.947917 20129.947917 L 23029.947917 20615.104167 L 23057.03125 20669.010417 L 23110.9375 20696.09375 L 23165.104167 20696.09375 " transform="matrix(0.015,0,0,0.015,0,0)"/>
<path style="fill:none;stroke-width:28;stroke-linecap:round;stroke-linejoin:round;stroke:rgb(0%,0%,0%);stroke-opacity:1;stroke-miterlimit:10;" d="M 28835.416667 28479.947917 C 28835.416667 28755.729167 28688.541667 29010.416667 28449.739583 29148.177083 C 28210.9375 29285.9375 27916.927083 29285.9375 27678.125 29148.177083 C 27439.583333 29010.416667 27292.447917 28755.729167 27292.447917 28479.947917 C 27292.447917 28204.427083 27439.583333 27949.739583 27678.125 27811.979167 C 27916.927083 27673.958333 28210.9375 27673.958333 28449.739583 27811.979167 C 28688.541667 27949.739583 28835.416667 28204.427083 28835.416667 28479.947917 Z M 28835.416667 28479.947917 " transform="matrix(0.015,0,0,0.015,0,0)"/>
<path style="fill:none;stroke-width:28;stroke-linecap:round;stroke-linejoin:round;stroke:rgb(0%,0%,0%);stroke-opacity:1;stroke-miterlimit:10;" d="M 20023.958333 30759.895833 L 36103.90625 30759.895833 " transform="matrix(0.015,0,0,0.015,0,0)"/>
<path style="fill:none;stroke-width:28;stroke-linecap:round;stroke-linejoin:round;stroke:rgb(0%,0%,0%);stroke-opacity:1;stroke-miterlimit:10;" d="M 27103.90625 28479.947917 L 29023.958333 28479.947917 " transform="matrix(0.015,0,0,0.015,0,0)"/>
<path style="fill:none;stroke-width:28;stroke-linecap:round;stroke-linejoin:round;stroke:rgb(0%,0%,0%);stroke-opacity:1;stroke-miterlimit:10;" d="M 35264.0625 29440.104167 L 35264.0625 27520.052083 " transform="matrix(0.015,0,0,0.015,0,0)"/>
<path style="fill:none;stroke-width:28;stroke-linecap:round;stroke-linejoin:round;stroke:rgb(0%,0%,0%);stroke-opacity:1;stroke-miterlimit:10;" d="M 34804.947917 27415.885417 L 34804.947917 26850 L 34994.010417 27253.90625 L 35183.072917 26850 L 35183.072917 27415.885417 " transform="matrix(0.015,0,0,0.015,0,0)"/>
<path style="fill:none;stroke-width:28;stroke-linecap:round;stroke-linejoin:round;stroke:rgb(0%,0%,0%);stroke-opacity:1;stroke-miterlimit:10;" d="M 35398.958333 26850 L 35750 26850 L 35560.9375 27065.885417 L 35641.927083 27065.885417 L 35696.09375 27092.96875 L 35722.916667 27120.052083 L 35750 27172.916667 L 35750 27308.072917 L 35722.916667 27361.979167 L 35696.09375 27389.0625 L 35641.927083 27415.885417 L 35479.947917 27415.885417 L 35426.041667 27389.0625 L 35398.958333 27361.979167 " transform="matrix(0.015,0,0,0.015,0,0)"/>
<path style="fill:none;stroke-width:28;stroke-linecap:round;stroke-linejoin:round;stroke:rgb(0%,0%,0%);stroke-opacity:1;stroke-miterlimit:10;" d="M 20404.947917 27415.885417 L 20404.947917 26850 L 20594.010417 27253.90625 L 20783.072917 26850 L 20783.072917 27415.885417 " transform="matrix(0.015,0,0,0.015,0,0)"/>
<path style="fill:none;stroke-width:28;stroke-linecap:round;stroke-linejoin:round;stroke:rgb(0%,0%,0%);stroke-opacity:1;stroke-miterlimit:10;" d="M 20998.958333 26850 L 21350 26850 L 21160.9375 27065.885417 L 21241.927083 27065.885417 L 21296.09375 27092.96875 L 21322.916667 27120.052083 L 21350 27172.916667 L 21350 27308.072917 L 21322.916667 27361.979167 L 21296.09375 27389.0625 L 21241.927083 27415.885417 L 21079.947917 27415.885417 L 21026.041667 27389.0625 L 20998.958333 27361.979167 " transform="matrix(0.015,0,0,0.015,0,0)"/>
<path style="fill:none;stroke-width:28;stroke-linecap:round;stroke-linejoin:round;stroke:rgb(0%,0%,0%);stroke-opacity:1;stroke-miterlimit:10;" d="M 23578.125 26850 L 23308.072917 26850 L 23280.989583 27120.052083 L 23308.072917 27092.96875 L 23361.979167 27065.885417 L 23496.875 27065.885417 L 23551.041667 27092.96875 L 23578.125 27120.052083 L 23604.947917 27172.916667 L 23604.947917 27308.072917 L 23578.125 27361.979167 L 23551.041667 27389.0625 L 23496.875 27415.885417 L 23361.979167 27415.885417 L 23308.072917 27389.0625 L 23280.989583 27361.979167 " transform="matrix(0.015,0,0,0.015,0,0)"/>
<path style="fill:none;stroke-width:28;stroke-linecap:round;stroke-linejoin:round;stroke:rgb(0%,0%,0%);stroke-opacity:1;stroke-miterlimit:10;" d="M 23847.916667 27415.885417 L 23847.916667 27039.0625 " transform="matrix(0.015,0,0,0.015,0,0)"/>
<path style="fill:none;stroke-width:28;stroke-linecap:round;stroke-linejoin:round;stroke:rgb(0%,0%,0%);stroke-opacity:1;stroke-miterlimit:10;" d="M 23847.916667 27092.96875 L 23875 27065.885417 L 23928.90625 27039.0625 L 24009.895833 27039.0625 L 24064.0625 27065.885417 L 24090.885417 27120.052083 L 24090.885417 27415.885417 " transform="matrix(0.015,0,0,0.015,0,0)"/>
<path style="fill:none;stroke-width:28;stroke-linecap:round;stroke-linejoin:round;stroke:rgb(0%,0%,0%);stroke-opacity:1;stroke-miterlimit:10;" d="M 24090.885417 27120.052083 L 24117.96875 27065.885417 L 24171.875 27039.0625 L 24253.125 27039.0625 L 24307.03125 27065.885417 L 24334.114583 27120.052083 L 24334.114583 27415.885417 " transform="matrix(0.015,0,0,0.015,0,0)"/>
<path style="fill:none;stroke-width:28;stroke-linecap:round;stroke-linejoin:round;stroke:rgb(0%,0%,0%);stroke-opacity:1;stroke-miterlimit:10;" d="M 24603.90625 27415.885417 L 24603.90625 27039.0625 " transform="matrix(0.015,0,0,0.015,0,0)"/>
<path style="fill:none;stroke-width:28;stroke-linecap:round;stroke-linejoin:round;stroke:rgb(0%,0%,0%);stroke-opacity:1;stroke-miterlimit:10;" d="M 24603.90625 27092.96875 L 24630.989583 27065.885417 L 24684.895833 27039.0625 L 24765.885417 27039.0625 L 24820.052083 27065.885417 L 24846.875 27120.052083 L 24846.875 27415.885417 " transform="matrix(0.015,0,0,0.015,0,0)"/>
<path style="fill:none;stroke-width:28;stroke-linecap:round;stroke-linejoin:round;stroke:rgb(0%,0%,0%);stroke-opacity:1;stroke-miterlimit:10;" d="M 24846.875 27120.052083 L 24873.958333 27065.885417 L 24928.125 27039.0625 L 25009.114583 27039.0625 L 25063.020833 27065.885417 L 25090.104167 27120.052083 L 25090.104167 27415.885417 " transform="matrix(0.015,0,0,0.015,0,0)"/>
<path style="fill:none;stroke-width:28;stroke-linecap:round;stroke-linejoin:round;stroke:rgb(0%,0%,0%);stroke-opacity:1;stroke-miterlimit:10;" d="M 26060.9375 27415.885417 L 25790.885417 27415.885417 L 25790.885417 26850 " transform="matrix(0.015,0,0,0.015,0,0)"/>
<path style="fill:none;stroke-width:28;stroke-linecap:round;stroke-linejoin:round;stroke:rgb(0%,0%,0%);stroke-opacity:1;stroke-miterlimit:10;" d="M 26250 27120.052083 L 26439.0625 27120.052083 " transform="matrix(0.015,0,0,0.015,0,0)"/>
<path style="fill:none;stroke-width:28;stroke-linecap:round;stroke-linejoin:round;stroke:rgb(0%,0%,0%);stroke-opacity:1;stroke-miterlimit:10;" d="M 26520.052083 27415.885417 L 26250 27415.885417 L 26250 26850 L 26520.052083 26850 " transform="matrix(0.015,0,0,0.015,0,0)"/>
<path style="fill:none;stroke-width:28;stroke-linecap:round;stroke-linejoin:round;stroke:rgb(0%,0%,0%);stroke-opacity:1;stroke-miterlimit:10;" d="M 26763.020833 27415.885417 L 26763.020833 26850 L 26897.916667 26850 L 26978.90625 26877.083333 L 27033.072917 26930.989583 L 27059.895833 26984.895833 L 27086.979167 27092.96875 L 27086.979167 27172.916667 L 27059.895833 27280.989583 L 27033.072917 27334.895833 L 26978.90625 27389.0625 L 26897.916667 27415.885417 L 26763.020833 27415.885417 " transform="matrix(0.015,0,0,0.015,0,0)"/>
<path style="fill:none;stroke-width:28;stroke-linecap:round;stroke-linejoin:round;stroke:rgb(0%,0%,0%);stroke-opacity:1;stroke-miterlimit:10;" d="M 25958.072917 29919.010417 L 26173.958333 29919.010417 " transform="matrix(0.015,0,0,0.015,0,0)"/>
<path style="fill:none;stroke-width:28;stroke-linecap:round;stroke-linejoin:round;stroke:rgb(0%,0%,0%);stroke-opacity:1;stroke-miterlimit:10;" d="M 26039.0625 30296.09375 L 26039.0625 29810.9375 L 26065.885417 29757.03125 L 26120.052083 29729.947917 L 26173.958333 29729.947917 " transform="matrix(0.015,0,0,0.015,0,0)"/>
<path style="fill:none;stroke-width:28;stroke-linecap:round;stroke-linejoin:round;stroke:rgb(0%,0%,0%);stroke-opacity:1;stroke-miterlimit:10;" d="M 26444.010417 30296.09375 L 26390.104167 30269.010417 L 26363.020833 30241.927083 L 26335.9375 30188.020833 L 26335.9375 30027.083333 L 26363.020833 29972.916667 L 26390.104167 29946.09375 L 26444.010417 29919.010417 L 26525 29919.010417 L 26578.90625 29946.09375 L 26605.989583 29972.916667 L 26633.072917 30027.083333 L 26633.072917 30188.020833 L 26605.989583 30241.927083 L 26578.90625 30269.010417 L 26525 30296.09375 L 26444.010417 30296.09375 " transform="matrix(0.015,0,0,0.015,0,0)"/>
<path style="fill:none;stroke-width:28;stroke-linecap:round;stroke-linejoin:round;stroke:rgb(0%,0%,0%);stroke-opacity:1;stroke-miterlimit:10;" d="M 26957.03125 30296.09375 L 26903.125 30269.010417 L 26876.041667 30241.927083 L 26848.958333 30188.020833 L 26848.958333 30027.083333 L 26876.041667 29972.916667 L 26903.125 29946.09375 L 26957.03125 29919.010417 L 27038.020833 29919.010417 L 27091.927083 29946.09375 L 27119.010417 29972.916667 L 27146.09375 30027.083333 L 27146.09375 30188.020833 L 27119.010417 30241.927083 L 27091.927083 30269.010417 L 27038.020833 30296.09375 L 26957.03125 30296.09375 " transform="matrix(0.015,0,0,0.015,0,0)"/>
<path style="fill:none;stroke-width:28;stroke-linecap:round;stroke-linejoin:round;stroke:rgb(0%,0%,0%);stroke-opacity:1;stroke-miterlimit:10;" d="M 27308.072917 29919.010417 L 27523.958333 29919.010417 " transform="matrix(0.015,0,0,0.015,0,0)"/>
<path style="fill:none;stroke-width:28;stroke-linecap:round;stroke-linejoin:round;stroke:rgb(0%,0%,0%);stroke-opacity:1;stroke-miterlimit:10;" d="M 27389.0625 29729.947917 L 27389.0625 30215.104167 L 27415.885417 30269.010417 L 27470.052083 30296.09375 L 27523.958333 30296.09375 " transform="matrix(0.015,0,0,0.015,0,0)"/>
<path style="fill:none;stroke-width:28;stroke-linecap:round;stroke-linejoin:round;stroke:rgb(0%,0%,0%);stroke-opacity:1;stroke-miterlimit:10;" d="M 27685.9375 30269.010417 L 27740.104167 30296.09375 L 27847.916667 30296.09375 L 27902.083333 30269.010417 L 27928.90625 30215.104167 L 27928.90625 30188.020833 L 27902.083333 30134.114583 L 27847.916667 30107.03125 L 27766.927083 30107.03125 L 27713.020833 30079.947917 L 27685.9375 30027.083333 L 27685.9375 30000 L 27713.020833 29946.09375 L 27766.927083 29919.010417 L 27847.916667 29919.010417 L 27902.083333 29946.09375 " transform="matrix(0.015,0,0,0.015,0,0)"/>
<path style="fill:none;stroke-width:28;stroke-linecap:round;stroke-linejoin:round;stroke:rgb(0%,0%,0%);stroke-opacity:1;stroke-miterlimit:10;" d="M 28117.96875 29919.010417 L 28226.041667 30296.09375 L 28334.114583 30027.083333 L 28441.927083 30296.09375 L 28550 29919.010417 " transform="matrix(0.015,0,0,0.015,0,0)"/>
<path style="fill:none;stroke-width:28;stroke-linecap:round;stroke-linejoin:round;stroke:rgb(0%,0%,0%);stroke-opacity:1;stroke-miterlimit:10;" d="M 28765.885417 30296.09375 L 28765.885417 29919.010417 " transform="matrix(0.015,0,0,0.015,0,0)"/>
<path style="fill:none;stroke-width:28;stroke-linecap:round;stroke-linejoin:round;stroke:rgb(0%,0%,0%);stroke-opacity:1;stroke-miterlimit:10;" d="M 28765.885417 29729.947917 L 28739.0625 29757.03125 L 28765.885417 29784.114583 L 28792.96875 29757.03125 L 28765.885417 29729.947917 L 28765.885417 29784.114583 " transform="matrix(0.015,0,0,0.015,0,0)"/>
<path style="fill:none;stroke-width:28;stroke-linecap:round;stroke-linejoin:round;stroke:rgb(0%,0%,0%);stroke-opacity:1;stroke-miterlimit:10;" d="M 28954.947917 29919.010417 L 29171.09375 29919.010417 " transform="matrix(0.015,0,0,0.015,0,0)"/>
<path style="fill:none;stroke-width:28;stroke-linecap:round;stroke-linejoin:round;stroke:rgb(0%,0%,0%);stroke-opacity:1;stroke-miterlimit:10;" d="M 29035.9375 29729.947917 L 29035.9375 30215.104167 L 29063.020833 30269.010417 L 29116.927083 30296.09375 L 29171.09375 30296.09375 " transform="matrix(0.015,0,0,0.015,0,0)"/>
<path style="fill:none;stroke-width:28;stroke-linecap:round;stroke-linejoin:round;stroke:rgb(0%,0%,0%);stroke-opacity:1;stroke-miterlimit:10;" d="M 29603.125 30269.010417 L 29548.958333 30296.09375 L 29440.885417 30296.09375 L 29386.979167 30269.010417 L 29359.895833 30241.927083 L 29333.072917 30188.020833 L 29333.072917 30027.083333 L 29359.895833 29972.916667 L 29386.979167 29946.09375 L 29440.885417 29919.010417 L 29548.958333 29919.010417 L 29603.125 29946.09375 " transform="matrix(0.015,0,0,0.015,0,0)"/>
<path style="fill:none;stroke-width:28;stroke-linecap:round;stroke-linejoin:round;stroke:rgb(0%,0%,0%);stroke-opacity:1;stroke-miterlimit:10;" d="M 29846.09375 30296.09375 L 29846.09375 29729.947917 " transform="matrix(0.015,0,0,0.015,0,0)"/>
<path style="fill:none;stroke-width:28;stroke-linecap:round;stroke-linejoin:round;stroke:rgb(0%,0%,0%);stroke-opacity:1;stroke-miterlimit:10;" d="M 30089.0625 30296.09375 L 30089.0625 30000 L 30061.979167 29946.09375 L 30008.072917 29919.010417 L 29927.083333 29919.010417 L 29872.916667 29946.09375 L 29846.09375 29972.916667 " transform="matrix(0.015,0,0,0.015,0,0)"/>
<path style="fill:none;stroke-width:28;stroke-linecap:round;stroke-linejoin:round;stroke:rgb(0%,0%,0%);stroke-opacity:1;stroke-miterlimit:10;" d="M 28735.416667 19600 C 28735.416667 19839.84375 28607.552083 20061.458333 28399.739583 20181.510417 C 28191.927083 20301.5625 27935.9375 20301.5625 27728.125 20181.510417 C 27520.572917 20061.458333 27392.447917 19839.84375 27392.447917 19600 C 27392.447917 19360.15625 27520.572917 19138.541667 27728.125 19018.489583 C 27935.9375 18898.4375 28191.927083 18898.4375 28399.739583 19018.489583 C 28607.552083 19138.541667 28735.416667 19360.15625 28735.416667 19600 Z M 28735.416667 19600 " transform="matrix(0.015,0,0,0.015,0,0)"/>
<path style="fill:none;stroke-width:28;stroke-linecap:round;stroke-linejoin:round;stroke:rgb(0%,0%,0%);stroke-opacity:1;stroke-miterlimit:10;" d="M 28735.416667 23679.947917 C 28735.416667 23919.791667 28607.552083 24141.666667 28399.739583 24261.458333 C 28191.927083 24381.510417 27935.9375 24381.510417 27728.125 24261.458333 C 27520.572917 24141.666667 27392.447917 23919.791667 27392.447917 23679.947917 C 27392.447917 23440.104167 27520.572917 23218.489583 27728.125 23098.4375 C 27935.9375 22978.385417 28191.927083 22978.385417 28399.739583 23098.4375 C 28607.552083 23218.489583 28735.416667 23440.104167 28735.416667 23679.947917 Z M 28735.416667 23679.947917 " transform="matrix(0.015,0,0,0.015,0,0)"/>
<path style="fill:none;stroke-width:28;stroke-linecap:round;stroke-linejoin:round;stroke:rgb(0%,0%,0%);stroke-opacity:1;stroke-miterlimit:10;" d="M 28064.0625 24640.104167 L 28064.0625 22720.052083 " transform="matrix(0.015,0,0,0.015,0,0)"/>
<path style="fill:none;stroke-width:28;stroke-linecap:round;stroke-linejoin:round;stroke:rgb(0%,0%,0%);stroke-opacity:1;stroke-miterlimit:10;" d="M 27103.90625 23679.947917 L 29023.958333 23679.947917 " transform="matrix(0.015,0,0,0.015,0,0)"/>
<path style="fill:none;stroke-width:28;stroke-linecap:round;stroke-linejoin:round;stroke:rgb(0%,0%,0%);stroke-opacity:1;stroke-miterlimit:10;" d="M 27103.90625 19600 L 29023.958333 19600 " transform="matrix(0.015,0,0,0.015,0,0)"/>
<path style="fill:none;stroke-width:28;stroke-linecap:round;stroke-linejoin:round;stroke:rgb(0%,0%,0%);stroke-opacity:1;stroke-miterlimit:10;" d="M 32315.104167 21559.114583 L 32530.989583 21559.114583 " transform="matrix(0.015,0,0,0.015,0,0)"/>
<path style="fill:none;stroke-width:28;stroke-linecap:round;stroke-linejoin:round;stroke:rgb(0%,0%,0%);stroke-opacity:1;stroke-miterlimit:10;" d="M 32396.09375 21370.052083 L 32396.09375 21855.989583 L 32422.916667 21909.895833 L 32477.083333 21936.979167 L 32530.989583 21936.979167 " transform="matrix(0.015,0,0,0.015,0,0)"/>
<path style="fill:none;stroke-width:28;stroke-linecap:round;stroke-linejoin:round;stroke:rgb(0%,0%,0%);stroke-opacity:1;stroke-miterlimit:10;" d="M 32801.041667 21936.979167 L 32746.875 21909.895833 L 32720.052083 21883.072917 L 32692.96875 21828.90625 L 32692.96875 21666.927083 L 32720.052083 21613.020833 L 32746.875 21585.9375 L 32801.041667 21559.114583 L 32882.03125 21559.114583 L 32935.9375 21585.9375 L 32963.020833 21613.020833 L 32990.104167 21666.927083 L 32990.104167 21828.90625 L 32963.020833 21883.072917 L 32935.9375 21909.895833 L 32882.03125 21936.979167 L 32801.041667 21936.979167 " transform="matrix(0.015,0,0,0.015,0,0)"/>
<path style="fill:none;stroke-width:28;stroke-linecap:round;stroke-linejoin:round;stroke:rgb(0%,0%,0%);stroke-opacity:1;stroke-miterlimit:10;" d="M 33476.041667 21559.114583 L 33476.041667 22017.96875 L 33448.958333 22071.875 L 33421.875 22098.958333 L 33367.96875 22126.041667 L 33286.979167 22126.041667 L 33233.072917 22098.958333 " transform="matrix(0.015,0,0,0.015,0,0)"/>
<path style="fill:none;stroke-width:28;stroke-linecap:round;stroke-linejoin:round;stroke:rgb(0%,0%,0%);stroke-opacity:1;stroke-miterlimit:10;" d="M 33476.041667 21909.895833 L 33421.875 21936.979167 L 33314.0625 21936.979167 L 33259.895833 21909.895833 L 33233.072917 21883.072917 L 33205.989583 21828.90625 L 33205.989583 21666.927083 L 33233.072917 21613.020833 L 33259.895833 21585.9375 L 33314.0625 21559.114583 L 33421.875 21559.114583 L 33476.041667 21585.9375 " transform="matrix(0.015,0,0,0.015,0,0)"/>
<path style="fill:none;stroke-width:28;stroke-linecap:round;stroke-linejoin:round;stroke:rgb(0%,0%,0%);stroke-opacity:1;stroke-miterlimit:10;" d="M 33989.0625 21559.114583 L 33989.0625 22017.96875 L 33961.979167 22071.875 L 33934.895833 22098.958333 L 33880.989583 22126.041667 L 33800 22126.041667 L 33746.09375 22098.958333 " transform="matrix(0.015,0,0,0.015,0,0)"/>
<path style="fill:none;stroke-width:28;stroke-linecap:round;stroke-linejoin:round;stroke:rgb(0%,0%,0%);stroke-opacity:1;stroke-miterlimit:10;" d="M 33989.0625 21909.895833 L 33934.895833 21936.979167 L 33827.083333 21936.979167 L 33772.916667 21909.895833 L 33746.09375 21883.072917 L 33719.010417 21828.90625 L 33719.010417 21666.927083 L 33746.09375 21613.020833 L 33772.916667 21585.9375 L 33827.083333 21559.114583 L 33934.895833 21559.114583 L 33989.0625 21585.9375 " transform="matrix(0.015,0,0,0.015,0,0)"/>
<path style="fill:none;stroke-width:28;stroke-linecap:round;stroke-linejoin:round;stroke:rgb(0%,0%,0%);stroke-opacity:1;stroke-miterlimit:10;" d="M 34340.104167 21936.979167 L 34285.9375 21909.895833 L 34259.114583 21855.989583 L 34259.114583 21370.052083 " transform="matrix(0.015,0,0,0.015,0,0)"/>
<path style="fill:none;stroke-width:28;stroke-linecap:round;stroke-linejoin:round;stroke:rgb(0%,0%,0%);stroke-opacity:1;stroke-miterlimit:10;" d="M 34771.875 21909.895833 L 34717.96875 21936.979167 L 34609.895833 21936.979167 L 34555.989583 21909.895833 L 34528.90625 21855.989583 L 34528.90625 21640.104167 L 34555.989583 21585.9375 L 34609.895833 21559.114583 L 34717.96875 21559.114583 L 34771.875 21585.9375 L 34798.958333 21640.104167 L 34798.958333 21694.010417 L 34528.90625 21747.916667 " transform="matrix(0.015,0,0,0.015,0,0)"/>
<path style="fill:none;stroke-width:28;stroke-linecap:round;stroke-linejoin:round;stroke:rgb(0%,0%,0%);stroke-opacity:1;stroke-miterlimit:10;" d="M 32369.010417 22789.0625 L 32422.916667 22815.885417 L 32530.989583 22815.885417 L 32584.895833 22789.0625 L 32611.979167 22734.895833 L 32611.979167 22708.072917 L 32584.895833 22653.90625 L 32530.989583 22627.083333 L 32450 22627.083333 L 32396.09375 22600 L 32369.010417 22546.09375 L 32369.010417 22519.010417 L 32396.09375 22465.104167 L 32450 22438.020833 L 32530.989583 22438.020833 L 32584.895833 22465.104167 " transform="matrix(0.015,0,0,0.015,0,0)"/>
<path style="fill:none;stroke-width:28;stroke-linecap:round;stroke-linejoin:round;stroke:rgb(0%,0%,0%);stroke-opacity:1;stroke-miterlimit:10;" d="M 32801.041667 22438.020833 L 32909.114583 22815.885417 L 33016.927083 22546.09375 L 33125 22815.885417 L 33233.072917 22438.020833 " transform="matrix(0.015,0,0,0.015,0,0)"/>
<path style="fill:none;stroke-width:28;stroke-linecap:round;stroke-linejoin:round;stroke:rgb(0%,0%,0%);stroke-opacity:1;stroke-miterlimit:10;" d="M 33448.958333 22815.885417 L 33448.958333 22438.020833 " transform="matrix(0.015,0,0,0.015,0,0)"/>
<path style="fill:none;stroke-width:28;stroke-linecap:round;stroke-linejoin:round;stroke:rgb(0%,0%,0%);stroke-opacity:1;stroke-miterlimit:10;" d="M 33448.958333 22248.958333 L 33421.875 22276.041667 L 33448.958333 22303.125 L 33476.041667 22276.041667 L 33448.958333 22248.958333 L 33448.958333 22303.125 " transform="matrix(0.015,0,0,0.015,0,0)"/>
<path style="fill:none;stroke-width:28;stroke-linecap:round;stroke-linejoin:round;stroke:rgb(0%,0%,0%);stroke-opacity:1;stroke-miterlimit:10;" d="M 33638.020833 22438.020833 L 33853.90625 22438.020833 " transform="matrix(0.015,0,0,0.015,0,0)"/>
<path style="fill:none;stroke-width:28;stroke-linecap:round;stroke-linejoin:round;stroke:rgb(0%,0%,0%);stroke-opacity:1;stroke-miterlimit:10;" d="M 33719.010417 22248.958333 L 33719.010417 22734.895833 L 33746.09375 22789.0625 L 33800 22815.885417 L 33853.90625 22815.885417 " transform="matrix(0.015,0,0,0.015,0,0)"/>
<path style="fill:none;stroke-width:28;stroke-linecap:round;stroke-linejoin:round;stroke:rgb(0%,0%,0%);stroke-opacity:1;stroke-miterlimit:10;" d="M 34285.9375 22789.0625 L 34232.03125 22815.885417 L 34123.958333 22815.885417 L 34070.052083 22789.0625 L 34042.96875 22761.979167 L 34015.885417 22708.072917 L 34015.885417 22546.09375 L 34042.96875 22491.927083 L 34070.052083 22465.104167 L 34123.958333 22438.020833 L 34232.03125 22438.020833 L 34285.9375 22465.104167 " transform="matrix(0.015,0,0,0.015,0,0)"/>
<path style="fill:none;stroke-width:28;stroke-linecap:round;stroke-linejoin:round;stroke:rgb(0%,0%,0%);stroke-opacity:1;stroke-miterlimit:10;" d="M 34528.90625 22815.885417 L 34528.90625 22248.958333 " transform="matrix(0.015,0,0,0.015,0,0)"/>
<path style="fill:none;stroke-width:28;stroke-linecap:round;stroke-linejoin:round;stroke:rgb(0%,0%,0%);stroke-opacity:1;stroke-miterlimit:10;" d="M 34771.875 22815.885417 L 34771.875 22519.010417 L 34745.052083 22465.104167 L 34690.885417 22438.020833 L 34609.895833 22438.020833 L 34555.989583 22465.104167 L 34528.90625 22491.927083 " transform="matrix(0.015,0,0,0.015,0,0)"/>
<path style="fill:none;stroke-width:28;stroke-linecap:round;stroke-linejoin:round;stroke:rgb(0%,0%,0%);stroke-opacity:1;stroke-miterlimit:10;" d="M 27523.958333 21998.958333 L 27523.958333 22565.104167 " transform="matrix(0.015,0,0,0.015,0,0)"/>
<path style="fill:none;stroke-width:28;stroke-linecap:round;stroke-linejoin:round;stroke:rgb(0%,0%,0%);stroke-opacity:1;stroke-miterlimit:10;" d="M 27523.958333 22026.041667 L 27578.125 21998.958333 L 27685.9375 21998.958333 L 27740.104167 22026.041667 L 27766.927083 22053.125 L 27794.010417 22107.03125 L 27794.010417 22267.96875 L 27766.927083 22321.875 L 27740.104167 22348.958333 L 27685.9375 22376.041667 L 27578.125 22376.041667 L 27523.958333 22348.958333 " transform="matrix(0.015,0,0,0.015,0,0)"/>
<path style="fill:none;stroke-width:28;stroke-linecap:round;stroke-linejoin:round;stroke:rgb(0%,0%,0%);stroke-opacity:1;stroke-miterlimit:10;" d="M 28117.96875 22376.041667 L 28064.0625 22348.958333 L 28036.979167 22321.875 L 28009.895833 22267.96875 L 28009.895833 22107.03125 L 28036.979167 22053.125 L 28064.0625 22026.041667 L 28117.96875 21998.958333 L 28198.958333 21998.958333 L 28253.125 22026.041667 L 28279.947917 22053.125 L 28307.03125 22107.03125 L 28307.03125 22267.96875 L 28279.947917 22321.875 L 28253.125 22348.958333 L 28198.958333 22376.041667 L 28117.96875 22376.041667 " transform="matrix(0.015,0,0,0.015,0,0)"/>
<path style="fill:none;stroke-width:28;stroke-linecap:round;stroke-linejoin:round;stroke:rgb(0%,0%,0%);stroke-opacity:1;stroke-miterlimit:10;" d="M 28469.010417 21998.958333 L 28684.895833 21998.958333 " transform="matrix(0.015,0,0,0.015,0,0)"/>
<path style="fill:none;stroke-width:28;stroke-linecap:round;stroke-linejoin:round;stroke:rgb(0%,0%,0%);stroke-opacity:1;stroke-miterlimit:10;" d="M 28550 21809.895833 L 28550 22295.052083 L 28577.083333 22348.958333 L 28630.989583 22376.041667 L 28684.895833 22376.041667 " transform="matrix(0.015,0,0,0.015,0,0)"/>
</g>
</svg>
