G04 #@! TF.GenerationSoftware,KiCad,Pcbnew,5.1.10-88a1d61d58~90~ubuntu20.04.1*
G04 #@! TF.CreationDate,2021-07-12T15:05:42-04:00*
G04 #@! TF.ProjectId,whooshy_sound_drill_guide,77686f6f-7368-4795-9f73-6f756e645f64,0*
G04 #@! TF.SameCoordinates,Original*
G04 #@! TF.FileFunction,OtherDrawing,Comment*
%FSLAX46Y46*%
G04 Gerber Fmt 4.6, Leading zero omitted, Abs format (unit mm)*
G04 Created by KiCad (PCBNEW 5.1.10-88a1d61d58~90~ubuntu20.04.1) date 2021-07-12 15:05:42*
%MOMM*%
%LPD*%
G01*
G04 APERTURE LIST*
%ADD10C,0.150000*%
G04 APERTURE END LIST*
D10*
X88352857Y-49832142D02*
X88924285Y-49832142D01*
X89210000Y-49689285D01*
X89352857Y-49546428D01*
X89638571Y-49117857D01*
X89781428Y-48546428D01*
X89781428Y-47403571D01*
X89638571Y-47117857D01*
X89495714Y-46975000D01*
X89210000Y-46832142D01*
X88638571Y-46832142D01*
X88352857Y-46975000D01*
X88210000Y-47117857D01*
X88067142Y-47403571D01*
X88067142Y-48117857D01*
X88210000Y-48403571D01*
X88352857Y-48546428D01*
X88638571Y-48689285D01*
X89210000Y-48689285D01*
X89495714Y-48546428D01*
X89638571Y-48403571D01*
X89781428Y-48117857D01*
X90781428Y-47832142D02*
X91495714Y-49832142D01*
X92210000Y-47832142D01*
X94638571Y-49832142D02*
X94638571Y-46832142D01*
X94638571Y-49689285D02*
X94352857Y-49832142D01*
X93781428Y-49832142D01*
X93495714Y-49689285D01*
X93352857Y-49546428D01*
X93210000Y-49260714D01*
X93210000Y-48403571D01*
X93352857Y-48117857D01*
X93495714Y-47975000D01*
X93781428Y-47832142D01*
X94352857Y-47832142D01*
X94638571Y-47975000D01*
X97352857Y-49689285D02*
X97067142Y-49832142D01*
X96495714Y-49832142D01*
X96210000Y-49689285D01*
X96067142Y-49546428D01*
X95924285Y-49260714D01*
X95924285Y-48403571D01*
X96067142Y-48117857D01*
X96210000Y-47975000D01*
X96495714Y-47832142D01*
X97067142Y-47832142D01*
X97352857Y-47975000D01*
X88852857Y-52482142D02*
X88852857Y-55053571D01*
X88710000Y-55339285D01*
X88424285Y-55482142D01*
X88281428Y-55482142D01*
X88852857Y-51482142D02*
X88710000Y-51625000D01*
X88852857Y-51767857D01*
X88995714Y-51625000D01*
X88852857Y-51482142D01*
X88852857Y-51767857D01*
X91567142Y-54482142D02*
X91567142Y-52910714D01*
X91424285Y-52625000D01*
X91138571Y-52482142D01*
X90567142Y-52482142D01*
X90281428Y-52625000D01*
X91567142Y-54339285D02*
X91281428Y-54482142D01*
X90567142Y-54482142D01*
X90281428Y-54339285D01*
X90138571Y-54053571D01*
X90138571Y-53767857D01*
X90281428Y-53482142D01*
X90567142Y-53339285D01*
X91281428Y-53339285D01*
X91567142Y-53196428D01*
X94281428Y-54339285D02*
X93995714Y-54482142D01*
X93424285Y-54482142D01*
X93138571Y-54339285D01*
X92995714Y-54196428D01*
X92852857Y-53910714D01*
X92852857Y-53053571D01*
X92995714Y-52767857D01*
X93138571Y-52625000D01*
X93424285Y-52482142D01*
X93995714Y-52482142D01*
X94281428Y-52625000D01*
X95567142Y-54482142D02*
X95567142Y-51482142D01*
X95852857Y-53339285D02*
X96710000Y-54482142D01*
X96710000Y-52482142D02*
X95567142Y-53625000D01*
X105355714Y-57237142D02*
X103641428Y-57237142D01*
X104498571Y-57237142D02*
X104498571Y-54237142D01*
X104212857Y-54665714D01*
X103927142Y-54951428D01*
X103641428Y-55094285D01*
X108784285Y-54094285D02*
X106212857Y-57951428D01*
X111070000Y-55237142D02*
X111070000Y-57237142D01*
X110355714Y-54094285D02*
X109641428Y-56237142D01*
X111498571Y-56237142D01*
X112498571Y-54237142D02*
X112498571Y-54808571D01*
X113641428Y-54237142D02*
X113641428Y-54808571D01*
X117212857Y-55237142D02*
X117212857Y-57808571D01*
X117070000Y-58094285D01*
X116784285Y-58237142D01*
X116641428Y-58237142D01*
X117212857Y-54237142D02*
X117070000Y-54380000D01*
X117212857Y-54522857D01*
X117355714Y-54380000D01*
X117212857Y-54237142D01*
X117212857Y-54522857D01*
X119927142Y-57237142D02*
X119927142Y-55665714D01*
X119784285Y-55380000D01*
X119498571Y-55237142D01*
X118927142Y-55237142D01*
X118641428Y-55380000D01*
X119927142Y-57094285D02*
X119641428Y-57237142D01*
X118927142Y-57237142D01*
X118641428Y-57094285D01*
X118498571Y-56808571D01*
X118498571Y-56522857D01*
X118641428Y-56237142D01*
X118927142Y-56094285D01*
X119641428Y-56094285D01*
X119927142Y-55951428D01*
X122641428Y-57094285D02*
X122355714Y-57237142D01*
X121784285Y-57237142D01*
X121498571Y-57094285D01*
X121355714Y-56951428D01*
X121212857Y-56665714D01*
X121212857Y-55808571D01*
X121355714Y-55522857D01*
X121498571Y-55380000D01*
X121784285Y-55237142D01*
X122355714Y-55237142D01*
X122641428Y-55380000D01*
X123927142Y-57237142D02*
X123927142Y-54237142D01*
X124212857Y-56094285D02*
X125070000Y-57237142D01*
X125070000Y-55237142D02*
X123927142Y-56380000D01*
X126212857Y-57094285D02*
X126498571Y-57237142D01*
X127070000Y-57237142D01*
X127355714Y-57094285D01*
X127498571Y-56808571D01*
X127498571Y-56665714D01*
X127355714Y-56380000D01*
X127070000Y-56237142D01*
X126641428Y-56237142D01*
X126355714Y-56094285D01*
X126212857Y-55808571D01*
X126212857Y-55665714D01*
X126355714Y-55380000D01*
X126641428Y-55237142D01*
X127070000Y-55237142D01*
X127355714Y-55380000D01*
X60905714Y-57237142D02*
X59191428Y-57237142D01*
X60048571Y-57237142D02*
X60048571Y-54237142D01*
X59762857Y-54665714D01*
X59477142Y-54951428D01*
X59191428Y-55094285D01*
X64334285Y-54094285D02*
X61762857Y-57951428D01*
X66620000Y-55237142D02*
X66620000Y-57237142D01*
X65905714Y-54094285D02*
X65191428Y-56237142D01*
X67048571Y-56237142D01*
X68048571Y-54237142D02*
X68048571Y-54808571D01*
X69191428Y-54237142D02*
X69191428Y-54808571D01*
X72762857Y-55237142D02*
X72762857Y-57808571D01*
X72620000Y-58094285D01*
X72334285Y-58237142D01*
X72191428Y-58237142D01*
X72762857Y-54237142D02*
X72620000Y-54380000D01*
X72762857Y-54522857D01*
X72905714Y-54380000D01*
X72762857Y-54237142D01*
X72762857Y-54522857D01*
X75477142Y-57237142D02*
X75477142Y-55665714D01*
X75334285Y-55380000D01*
X75048571Y-55237142D01*
X74477142Y-55237142D01*
X74191428Y-55380000D01*
X75477142Y-57094285D02*
X75191428Y-57237142D01*
X74477142Y-57237142D01*
X74191428Y-57094285D01*
X74048571Y-56808571D01*
X74048571Y-56522857D01*
X74191428Y-56237142D01*
X74477142Y-56094285D01*
X75191428Y-56094285D01*
X75477142Y-55951428D01*
X78191428Y-57094285D02*
X77905714Y-57237142D01*
X77334285Y-57237142D01*
X77048571Y-57094285D01*
X76905714Y-56951428D01*
X76762857Y-56665714D01*
X76762857Y-55808571D01*
X76905714Y-55522857D01*
X77048571Y-55380000D01*
X77334285Y-55237142D01*
X77905714Y-55237142D01*
X78191428Y-55380000D01*
X79477142Y-57237142D02*
X79477142Y-54237142D01*
X79762857Y-56094285D02*
X80620000Y-57237142D01*
X80620000Y-55237142D02*
X79477142Y-56380000D01*
X81762857Y-57094285D02*
X82048571Y-57237142D01*
X82620000Y-57237142D01*
X82905714Y-57094285D01*
X83048571Y-56808571D01*
X83048571Y-56665714D01*
X82905714Y-56380000D01*
X82620000Y-56237142D01*
X82191428Y-56237142D01*
X81905714Y-56094285D01*
X81762857Y-55808571D01*
X81762857Y-55665714D01*
X81905714Y-55380000D01*
X82191428Y-55237142D01*
X82620000Y-55237142D01*
X82905714Y-55380000D01*
X111480000Y-48260000D02*
G75*
G03*
X111480000Y-48260000I-4800000J0D01*
G01*
X83540000Y-48260000D02*
G75*
G03*
X83540000Y-48260000I-4800000J0D01*
G01*
X67030000Y-48260000D02*
G75*
G03*
X67030000Y-48260000I-4800000J0D01*
G01*
X127990000Y-48260000D02*
G75*
G03*
X127990000Y-48260000I-4800000J0D01*
G01*
X89535001Y-45084999D02*
G75*
G02*
X95884999Y-45084999I3174999J4444999D01*
G01*
X89535001Y-45084999D02*
X95885000Y-45085000D01*
X128270000Y-33020000D02*
X57150000Y-33020000D01*
X57150000Y-33020000D02*
X57150000Y-33020000D01*
X123190000Y-48260000D02*
X123190000Y-42545000D01*
X78740000Y-48260000D02*
X78740000Y-42545000D01*
X67945000Y-48260000D02*
X56515000Y-48260000D01*
X62230000Y-48260000D02*
X62230000Y-53975000D01*
X62230000Y-48260000D02*
X62230000Y-42545000D01*
X99060000Y-40640000D02*
X86360000Y-40640000D01*
X92710000Y-40640000D02*
X92710000Y-46990000D01*
X92710000Y-40640000D02*
X92710000Y-34290000D01*
X123190000Y-48260000D02*
X123190000Y-53975000D01*
X128905000Y-48260000D02*
X117475000Y-48260000D01*
X112395000Y-48260000D02*
X100965000Y-48260000D01*
X106680000Y-48260000D02*
X106680000Y-53975000D01*
X106680000Y-48260000D02*
X106680000Y-42545000D01*
X84455000Y-48260000D02*
X73025000Y-48260000D01*
X78740000Y-48260000D02*
X78740000Y-53975000D01*
X133350000Y-53340000D02*
G75*
G02*
X128270000Y-58420000I-5080000J0D01*
G01*
X57150000Y-58420000D02*
G75*
G02*
X52070000Y-53340000I0J5080000D01*
G01*
X128270000Y-33020000D02*
G75*
G02*
X133350000Y-38100000I0J-5080000D01*
G01*
X133350000Y-53340000D02*
X133350000Y-38100000D01*
X52070000Y-38100000D02*
G75*
G02*
X57150000Y-33020000I5080000J0D01*
G01*
X57150000Y-58420000D02*
X128270000Y-58420000D01*
X52070000Y-38100000D02*
X52070000Y-53340000D01*
X73138571Y-74382142D02*
X73138571Y-71382142D01*
X73138571Y-72810714D02*
X74852857Y-72810714D01*
X74852857Y-74382142D02*
X74852857Y-71382142D01*
X77567142Y-74382142D02*
X77567142Y-72810714D01*
X77424285Y-72525000D01*
X77138571Y-72382142D01*
X76567142Y-72382142D01*
X76281428Y-72525000D01*
X77567142Y-74239285D02*
X77281428Y-74382142D01*
X76567142Y-74382142D01*
X76281428Y-74239285D01*
X76138571Y-73953571D01*
X76138571Y-73667857D01*
X76281428Y-73382142D01*
X76567142Y-73239285D01*
X77281428Y-73239285D01*
X77567142Y-73096428D01*
X78995714Y-74382142D02*
X78995714Y-72382142D01*
X78995714Y-72667857D02*
X79138571Y-72525000D01*
X79424285Y-72382142D01*
X79852857Y-72382142D01*
X80138571Y-72525000D01*
X80281428Y-72810714D01*
X80281428Y-74382142D01*
X80281428Y-72810714D02*
X80424285Y-72525000D01*
X80710000Y-72382142D01*
X81138571Y-72382142D01*
X81424285Y-72525000D01*
X81567142Y-72810714D01*
X81567142Y-74382142D01*
X83424285Y-74382142D02*
X83138571Y-74239285D01*
X82995714Y-74096428D01*
X82852857Y-73810714D01*
X82852857Y-72953571D01*
X82995714Y-72667857D01*
X83138571Y-72525000D01*
X83424285Y-72382142D01*
X83852857Y-72382142D01*
X84138571Y-72525000D01*
X84281428Y-72667857D01*
X84424285Y-72953571D01*
X84424285Y-73810714D01*
X84281428Y-74096428D01*
X84138571Y-74239285D01*
X83852857Y-74382142D01*
X83424285Y-74382142D01*
X85710000Y-72382142D02*
X85710000Y-74382142D01*
X85710000Y-72667857D02*
X85852857Y-72525000D01*
X86138571Y-72382142D01*
X86567142Y-72382142D01*
X86852857Y-72525000D01*
X86995714Y-72810714D01*
X86995714Y-74382142D01*
X89710000Y-74382142D02*
X89710000Y-71382142D01*
X89710000Y-74239285D02*
X89424285Y-74382142D01*
X88852857Y-74382142D01*
X88567142Y-74239285D01*
X88424285Y-74096428D01*
X88281428Y-73810714D01*
X88281428Y-72953571D01*
X88424285Y-72667857D01*
X88567142Y-72525000D01*
X88852857Y-72382142D01*
X89424285Y-72382142D01*
X89710000Y-72525000D01*
X94995714Y-74382142D02*
X93281428Y-74382142D01*
X94138571Y-74382142D02*
X94138571Y-71382142D01*
X93852857Y-71810714D01*
X93567142Y-72096428D01*
X93281428Y-72239285D01*
X97710000Y-71382142D02*
X96281428Y-71382142D01*
X96138571Y-72810714D01*
X96281428Y-72667857D01*
X96567142Y-72525000D01*
X97281428Y-72525000D01*
X97567142Y-72667857D01*
X97710000Y-72810714D01*
X97852857Y-73096428D01*
X97852857Y-73810714D01*
X97710000Y-74096428D01*
X97567142Y-74239285D01*
X97281428Y-74382142D01*
X96567142Y-74382142D01*
X96281428Y-74239285D01*
X96138571Y-74096428D01*
X99281428Y-74382142D02*
X99852857Y-74382142D01*
X100138571Y-74239285D01*
X100281428Y-74096428D01*
X100567142Y-73667857D01*
X100710000Y-73096428D01*
X100710000Y-71953571D01*
X100567142Y-71667857D01*
X100424285Y-71525000D01*
X100138571Y-71382142D01*
X99567142Y-71382142D01*
X99281428Y-71525000D01*
X99138571Y-71667857D01*
X98995714Y-71953571D01*
X98995714Y-72667857D01*
X99138571Y-72953571D01*
X99281428Y-73096428D01*
X99567142Y-73239285D01*
X100138571Y-73239285D01*
X100424285Y-73096428D01*
X100567142Y-72953571D01*
X100710000Y-72667857D01*
X102567142Y-71382142D02*
X102852857Y-71382142D01*
X103138571Y-71525000D01*
X103281428Y-71667857D01*
X103424285Y-71953571D01*
X103567142Y-72525000D01*
X103567142Y-73239285D01*
X103424285Y-73810714D01*
X103281428Y-74096428D01*
X103138571Y-74239285D01*
X102852857Y-74382142D01*
X102567142Y-74382142D01*
X102281428Y-74239285D01*
X102138571Y-74096428D01*
X101995714Y-73810714D01*
X101852857Y-73239285D01*
X101852857Y-72525000D01*
X101995714Y-71953571D01*
X102138571Y-71667857D01*
X102281428Y-71525000D01*
X102567142Y-71382142D01*
X105852857Y-72810714D02*
X106281428Y-72953571D01*
X106424285Y-73096428D01*
X106567142Y-73382142D01*
X106567142Y-73810714D01*
X106424285Y-74096428D01*
X106281428Y-74239285D01*
X105995714Y-74382142D01*
X104852857Y-74382142D01*
X104852857Y-71382142D01*
X105852857Y-71382142D01*
X106138571Y-71525000D01*
X106281428Y-71667857D01*
X106424285Y-71953571D01*
X106424285Y-72239285D01*
X106281428Y-72525000D01*
X106138571Y-72667857D01*
X105852857Y-72810714D01*
X104852857Y-72810714D01*
X108852857Y-72810714D02*
X109281428Y-72953571D01*
X109424285Y-73096428D01*
X109567142Y-73382142D01*
X109567142Y-73810714D01*
X109424285Y-74096428D01*
X109281428Y-74239285D01*
X108995714Y-74382142D01*
X107852857Y-74382142D01*
X107852857Y-71382142D01*
X108852857Y-71382142D01*
X109138571Y-71525000D01*
X109281428Y-71667857D01*
X109424285Y-71953571D01*
X109424285Y-72239285D01*
X109281428Y-72525000D01*
X109138571Y-72667857D01*
X108852857Y-72810714D01*
X107852857Y-72810714D01*
X110710000Y-74239285D02*
X111138571Y-74382142D01*
X111852857Y-74382142D01*
X112138571Y-74239285D01*
X112281428Y-74096428D01*
X112424285Y-73810714D01*
X112424285Y-73525000D01*
X112281428Y-73239285D01*
X112138571Y-73096428D01*
X111852857Y-72953571D01*
X111281428Y-72810714D01*
X110995714Y-72667857D01*
X110852857Y-72525000D01*
X110710000Y-72239285D01*
X110710000Y-71953571D01*
X110852857Y-71667857D01*
X110995714Y-71525000D01*
X111281428Y-71382142D01*
X111995714Y-71382142D01*
X112424285Y-71525000D01*
X119062857Y-95242142D02*
X119062857Y-98242142D01*
X119062857Y-95385000D02*
X119348571Y-95242142D01*
X119920000Y-95242142D01*
X120205714Y-95385000D01*
X120348571Y-95527857D01*
X120491428Y-95813571D01*
X120491428Y-96670714D01*
X120348571Y-96956428D01*
X120205714Y-97099285D01*
X119920000Y-97242142D01*
X119348571Y-97242142D01*
X119062857Y-97099285D01*
X122205714Y-97242142D02*
X121920000Y-97099285D01*
X121777142Y-96956428D01*
X121634285Y-96670714D01*
X121634285Y-95813571D01*
X121777142Y-95527857D01*
X121920000Y-95385000D01*
X122205714Y-95242142D01*
X122634285Y-95242142D01*
X122920000Y-95385000D01*
X123062857Y-95527857D01*
X123205714Y-95813571D01*
X123205714Y-96670714D01*
X123062857Y-96956428D01*
X122920000Y-97099285D01*
X122634285Y-97242142D01*
X122205714Y-97242142D01*
X124062857Y-95242142D02*
X125205714Y-95242142D01*
X124491428Y-94242142D02*
X124491428Y-96813571D01*
X124634285Y-97099285D01*
X124920000Y-97242142D01*
X125205714Y-97242142D01*
X119062857Y-116832142D02*
X119062857Y-119832142D01*
X119062857Y-116975000D02*
X119348571Y-116832142D01*
X119920000Y-116832142D01*
X120205714Y-116975000D01*
X120348571Y-117117857D01*
X120491428Y-117403571D01*
X120491428Y-118260714D01*
X120348571Y-118546428D01*
X120205714Y-118689285D01*
X119920000Y-118832142D01*
X119348571Y-118832142D01*
X119062857Y-118689285D01*
X122205714Y-118832142D02*
X121920000Y-118689285D01*
X121777142Y-118546428D01*
X121634285Y-118260714D01*
X121634285Y-117403571D01*
X121777142Y-117117857D01*
X121920000Y-116975000D01*
X122205714Y-116832142D01*
X122634285Y-116832142D01*
X122920000Y-116975000D01*
X123062857Y-117117857D01*
X123205714Y-117403571D01*
X123205714Y-118260714D01*
X123062857Y-118546428D01*
X122920000Y-118689285D01*
X122634285Y-118832142D01*
X122205714Y-118832142D01*
X124062857Y-116832142D02*
X125205714Y-116832142D01*
X124491428Y-115832142D02*
X124491428Y-118403571D01*
X124634285Y-118689285D01*
X124920000Y-118832142D01*
X125205714Y-118832142D01*
X89852857Y-138422142D02*
X89852857Y-141422142D01*
X89852857Y-138565000D02*
X90138571Y-138422142D01*
X90710000Y-138422142D01*
X90995714Y-138565000D01*
X91138571Y-138707857D01*
X91281428Y-138993571D01*
X91281428Y-139850714D01*
X91138571Y-140136428D01*
X90995714Y-140279285D01*
X90710000Y-140422142D01*
X90138571Y-140422142D01*
X89852857Y-140279285D01*
X92995714Y-140422142D02*
X92710000Y-140279285D01*
X92567142Y-140136428D01*
X92424285Y-139850714D01*
X92424285Y-138993571D01*
X92567142Y-138707857D01*
X92710000Y-138565000D01*
X92995714Y-138422142D01*
X93424285Y-138422142D01*
X93710000Y-138565000D01*
X93852857Y-138707857D01*
X93995714Y-138993571D01*
X93995714Y-139850714D01*
X93852857Y-140136428D01*
X93710000Y-140279285D01*
X93424285Y-140422142D01*
X92995714Y-140422142D01*
X94852857Y-138422142D02*
X95995714Y-138422142D01*
X95281428Y-137422142D02*
X95281428Y-139993571D01*
X95424285Y-140279285D01*
X95710000Y-140422142D01*
X95995714Y-140422142D01*
X89852857Y-116832142D02*
X89852857Y-119832142D01*
X89852857Y-116975000D02*
X90138571Y-116832142D01*
X90710000Y-116832142D01*
X90995714Y-116975000D01*
X91138571Y-117117857D01*
X91281428Y-117403571D01*
X91281428Y-118260714D01*
X91138571Y-118546428D01*
X90995714Y-118689285D01*
X90710000Y-118832142D01*
X90138571Y-118832142D01*
X89852857Y-118689285D01*
X92995714Y-118832142D02*
X92710000Y-118689285D01*
X92567142Y-118546428D01*
X92424285Y-118260714D01*
X92424285Y-117403571D01*
X92567142Y-117117857D01*
X92710000Y-116975000D01*
X92995714Y-116832142D01*
X93424285Y-116832142D01*
X93710000Y-116975000D01*
X93852857Y-117117857D01*
X93995714Y-117403571D01*
X93995714Y-118260714D01*
X93852857Y-118546428D01*
X93710000Y-118689285D01*
X93424285Y-118832142D01*
X92995714Y-118832142D01*
X94852857Y-116832142D02*
X95995714Y-116832142D01*
X95281428Y-115832142D02*
X95281428Y-118403571D01*
X95424285Y-118689285D01*
X95710000Y-118832142D01*
X95995714Y-118832142D01*
X89852857Y-95242142D02*
X89852857Y-98242142D01*
X89852857Y-95385000D02*
X90138571Y-95242142D01*
X90710000Y-95242142D01*
X90995714Y-95385000D01*
X91138571Y-95527857D01*
X91281428Y-95813571D01*
X91281428Y-96670714D01*
X91138571Y-96956428D01*
X90995714Y-97099285D01*
X90710000Y-97242142D01*
X90138571Y-97242142D01*
X89852857Y-97099285D01*
X92995714Y-97242142D02*
X92710000Y-97099285D01*
X92567142Y-96956428D01*
X92424285Y-96670714D01*
X92424285Y-95813571D01*
X92567142Y-95527857D01*
X92710000Y-95385000D01*
X92995714Y-95242142D01*
X93424285Y-95242142D01*
X93710000Y-95385000D01*
X93852857Y-95527857D01*
X93995714Y-95813571D01*
X93995714Y-96670714D01*
X93852857Y-96956428D01*
X93710000Y-97099285D01*
X93424285Y-97242142D01*
X92995714Y-97242142D01*
X94852857Y-95242142D02*
X95995714Y-95242142D01*
X95281428Y-94242142D02*
X95281428Y-96813571D01*
X95424285Y-97099285D01*
X95710000Y-97242142D01*
X95995714Y-97242142D01*
X60642857Y-129532142D02*
X60642857Y-132532142D01*
X60642857Y-129675000D02*
X60928571Y-129532142D01*
X61500000Y-129532142D01*
X61785714Y-129675000D01*
X61928571Y-129817857D01*
X62071428Y-130103571D01*
X62071428Y-130960714D01*
X61928571Y-131246428D01*
X61785714Y-131389285D01*
X61500000Y-131532142D01*
X60928571Y-131532142D01*
X60642857Y-131389285D01*
X63785714Y-131532142D02*
X63500000Y-131389285D01*
X63357142Y-131246428D01*
X63214285Y-130960714D01*
X63214285Y-130103571D01*
X63357142Y-129817857D01*
X63500000Y-129675000D01*
X63785714Y-129532142D01*
X64214285Y-129532142D01*
X64500000Y-129675000D01*
X64642857Y-129817857D01*
X64785714Y-130103571D01*
X64785714Y-130960714D01*
X64642857Y-131246428D01*
X64500000Y-131389285D01*
X64214285Y-131532142D01*
X63785714Y-131532142D01*
X65642857Y-129532142D02*
X66785714Y-129532142D01*
X66071428Y-128532142D02*
X66071428Y-131103571D01*
X66214285Y-131389285D01*
X66500000Y-131532142D01*
X66785714Y-131532142D01*
X60642857Y-107942142D02*
X60642857Y-110942142D01*
X60642857Y-108085000D02*
X60928571Y-107942142D01*
X61500000Y-107942142D01*
X61785714Y-108085000D01*
X61928571Y-108227857D01*
X62071428Y-108513571D01*
X62071428Y-109370714D01*
X61928571Y-109656428D01*
X61785714Y-109799285D01*
X61500000Y-109942142D01*
X60928571Y-109942142D01*
X60642857Y-109799285D01*
X63785714Y-109942142D02*
X63500000Y-109799285D01*
X63357142Y-109656428D01*
X63214285Y-109370714D01*
X63214285Y-108513571D01*
X63357142Y-108227857D01*
X63500000Y-108085000D01*
X63785714Y-107942142D01*
X64214285Y-107942142D01*
X64500000Y-108085000D01*
X64642857Y-108227857D01*
X64785714Y-108513571D01*
X64785714Y-109370714D01*
X64642857Y-109656428D01*
X64500000Y-109799285D01*
X64214285Y-109942142D01*
X63785714Y-109942142D01*
X65642857Y-107942142D02*
X66785714Y-107942142D01*
X66071428Y-106942142D02*
X66071428Y-109513571D01*
X66214285Y-109799285D01*
X66500000Y-109942142D01*
X66785714Y-109942142D01*
X115205714Y-136097142D02*
X116348571Y-136097142D01*
X115634285Y-135097142D02*
X115634285Y-137668571D01*
X115777142Y-137954285D01*
X116062857Y-138097142D01*
X116348571Y-138097142D01*
X117777142Y-138097142D02*
X117491428Y-137954285D01*
X117348571Y-137811428D01*
X117205714Y-137525714D01*
X117205714Y-136668571D01*
X117348571Y-136382857D01*
X117491428Y-136240000D01*
X117777142Y-136097142D01*
X118205714Y-136097142D01*
X118491428Y-136240000D01*
X118634285Y-136382857D01*
X118777142Y-136668571D01*
X118777142Y-137525714D01*
X118634285Y-137811428D01*
X118491428Y-137954285D01*
X118205714Y-138097142D01*
X117777142Y-138097142D01*
X121348571Y-136097142D02*
X121348571Y-138525714D01*
X121205714Y-138811428D01*
X121062857Y-138954285D01*
X120777142Y-139097142D01*
X120348571Y-139097142D01*
X120062857Y-138954285D01*
X121348571Y-137954285D02*
X121062857Y-138097142D01*
X120491428Y-138097142D01*
X120205714Y-137954285D01*
X120062857Y-137811428D01*
X119920000Y-137525714D01*
X119920000Y-136668571D01*
X120062857Y-136382857D01*
X120205714Y-136240000D01*
X120491428Y-136097142D01*
X121062857Y-136097142D01*
X121348571Y-136240000D01*
X124062857Y-136097142D02*
X124062857Y-138525714D01*
X123920000Y-138811428D01*
X123777142Y-138954285D01*
X123491428Y-139097142D01*
X123062857Y-139097142D01*
X122777142Y-138954285D01*
X124062857Y-137954285D02*
X123777142Y-138097142D01*
X123205714Y-138097142D01*
X122920000Y-137954285D01*
X122777142Y-137811428D01*
X122634285Y-137525714D01*
X122634285Y-136668571D01*
X122777142Y-136382857D01*
X122920000Y-136240000D01*
X123205714Y-136097142D01*
X123777142Y-136097142D01*
X124062857Y-136240000D01*
X125920000Y-138097142D02*
X125634285Y-137954285D01*
X125491428Y-137668571D01*
X125491428Y-135097142D01*
X128205714Y-137954285D02*
X127920000Y-138097142D01*
X127348571Y-138097142D01*
X127062857Y-137954285D01*
X126920000Y-137668571D01*
X126920000Y-136525714D01*
X127062857Y-136240000D01*
X127348571Y-136097142D01*
X127920000Y-136097142D01*
X128205714Y-136240000D01*
X128348571Y-136525714D01*
X128348571Y-136811428D01*
X126920000Y-137097142D01*
X115491428Y-142604285D02*
X115777142Y-142747142D01*
X116348571Y-142747142D01*
X116634285Y-142604285D01*
X116777142Y-142318571D01*
X116777142Y-142175714D01*
X116634285Y-141890000D01*
X116348571Y-141747142D01*
X115920000Y-141747142D01*
X115634285Y-141604285D01*
X115491428Y-141318571D01*
X115491428Y-141175714D01*
X115634285Y-140890000D01*
X115920000Y-140747142D01*
X116348571Y-140747142D01*
X116634285Y-140890000D01*
X117777142Y-140747142D02*
X118348571Y-142747142D01*
X118920000Y-141318571D01*
X119491428Y-142747142D01*
X120062857Y-140747142D01*
X121205714Y-142747142D02*
X121205714Y-140747142D01*
X121205714Y-139747142D02*
X121062857Y-139890000D01*
X121205714Y-140032857D01*
X121348571Y-139890000D01*
X121205714Y-139747142D01*
X121205714Y-140032857D01*
X122205714Y-140747142D02*
X123348571Y-140747142D01*
X122634285Y-139747142D02*
X122634285Y-142318571D01*
X122777142Y-142604285D01*
X123062857Y-142747142D01*
X123348571Y-142747142D01*
X125634285Y-142604285D02*
X125348571Y-142747142D01*
X124777142Y-142747142D01*
X124491428Y-142604285D01*
X124348571Y-142461428D01*
X124205714Y-142175714D01*
X124205714Y-141318571D01*
X124348571Y-141032857D01*
X124491428Y-140890000D01*
X124777142Y-140747142D01*
X125348571Y-140747142D01*
X125634285Y-140890000D01*
X126920000Y-142747142D02*
X126920000Y-139747142D01*
X128205714Y-142747142D02*
X128205714Y-141175714D01*
X128062857Y-140890000D01*
X127777142Y-140747142D01*
X127348571Y-140747142D01*
X127062857Y-140890000D01*
X126920000Y-141032857D01*
X81567142Y-180332142D02*
X82710000Y-180332142D01*
X81995714Y-182332142D02*
X81995714Y-179760714D01*
X82138571Y-179475000D01*
X82424285Y-179332142D01*
X82710000Y-179332142D01*
X84138571Y-182332142D02*
X83852857Y-182189285D01*
X83710000Y-182046428D01*
X83567142Y-181760714D01*
X83567142Y-180903571D01*
X83710000Y-180617857D01*
X83852857Y-180475000D01*
X84138571Y-180332142D01*
X84567142Y-180332142D01*
X84852857Y-180475000D01*
X84995714Y-180617857D01*
X85138571Y-180903571D01*
X85138571Y-181760714D01*
X84995714Y-182046428D01*
X84852857Y-182189285D01*
X84567142Y-182332142D01*
X84138571Y-182332142D01*
X86852857Y-182332142D02*
X86567142Y-182189285D01*
X86424285Y-182046428D01*
X86281428Y-181760714D01*
X86281428Y-180903571D01*
X86424285Y-180617857D01*
X86567142Y-180475000D01*
X86852857Y-180332142D01*
X87281428Y-180332142D01*
X87567142Y-180475000D01*
X87710000Y-180617857D01*
X87852857Y-180903571D01*
X87852857Y-181760714D01*
X87710000Y-182046428D01*
X87567142Y-182189285D01*
X87281428Y-182332142D01*
X86852857Y-182332142D01*
X88710000Y-180332142D02*
X89852857Y-180332142D01*
X89138571Y-179332142D02*
X89138571Y-181903571D01*
X89281428Y-182189285D01*
X89567142Y-182332142D01*
X89852857Y-182332142D01*
X90710000Y-182189285D02*
X90995714Y-182332142D01*
X91567142Y-182332142D01*
X91852857Y-182189285D01*
X91995714Y-181903571D01*
X91995714Y-181760714D01*
X91852857Y-181475000D01*
X91567142Y-181332142D01*
X91138571Y-181332142D01*
X90852857Y-181189285D01*
X90710000Y-180903571D01*
X90710000Y-180760714D01*
X90852857Y-180475000D01*
X91138571Y-180332142D01*
X91567142Y-180332142D01*
X91852857Y-180475000D01*
X92995714Y-180332142D02*
X93567142Y-182332142D01*
X94138571Y-180903571D01*
X94710000Y-182332142D01*
X95281428Y-180332142D01*
X96424285Y-182332142D02*
X96424285Y-180332142D01*
X96424285Y-179332142D02*
X96281428Y-179475000D01*
X96424285Y-179617857D01*
X96567142Y-179475000D01*
X96424285Y-179332142D01*
X96424285Y-179617857D01*
X97424285Y-180332142D02*
X98567142Y-180332142D01*
X97852857Y-179332142D02*
X97852857Y-181903571D01*
X97995714Y-182189285D01*
X98281428Y-182332142D01*
X98567142Y-182332142D01*
X100852857Y-182189285D02*
X100567142Y-182332142D01*
X99995714Y-182332142D01*
X99710000Y-182189285D01*
X99567142Y-182046428D01*
X99424285Y-181760714D01*
X99424285Y-180903571D01*
X99567142Y-180617857D01*
X99710000Y-180475000D01*
X99995714Y-180332142D01*
X100567142Y-180332142D01*
X100852857Y-180475000D01*
X102138571Y-182332142D02*
X102138571Y-179332142D01*
X103424285Y-182332142D02*
X103424285Y-180760714D01*
X103281428Y-180475000D01*
X102995714Y-180332142D01*
X102567142Y-180332142D01*
X102281428Y-180475000D01*
X102138571Y-180617857D01*
X68970000Y-164092142D02*
X67541428Y-164092142D01*
X67398571Y-165520714D01*
X67541428Y-165377857D01*
X67827142Y-165235000D01*
X68541428Y-165235000D01*
X68827142Y-165377857D01*
X68970000Y-165520714D01*
X69112857Y-165806428D01*
X69112857Y-166520714D01*
X68970000Y-166806428D01*
X68827142Y-166949285D01*
X68541428Y-167092142D01*
X67827142Y-167092142D01*
X67541428Y-166949285D01*
X67398571Y-166806428D01*
X70398571Y-167092142D02*
X70398571Y-165092142D01*
X70398571Y-165377857D02*
X70541428Y-165235000D01*
X70827142Y-165092142D01*
X71255714Y-165092142D01*
X71541428Y-165235000D01*
X71684285Y-165520714D01*
X71684285Y-167092142D01*
X71684285Y-165520714D02*
X71827142Y-165235000D01*
X72112857Y-165092142D01*
X72541428Y-165092142D01*
X72827142Y-165235000D01*
X72970000Y-165520714D01*
X72970000Y-167092142D01*
X74398571Y-167092142D02*
X74398571Y-165092142D01*
X74398571Y-165377857D02*
X74541428Y-165235000D01*
X74827142Y-165092142D01*
X75255714Y-165092142D01*
X75541428Y-165235000D01*
X75684285Y-165520714D01*
X75684285Y-167092142D01*
X75684285Y-165520714D02*
X75827142Y-165235000D01*
X76112857Y-165092142D01*
X76541428Y-165092142D01*
X76827142Y-165235000D01*
X76970000Y-165520714D01*
X76970000Y-167092142D01*
X82112857Y-167092142D02*
X80684285Y-167092142D01*
X80684285Y-164092142D01*
X83112857Y-165520714D02*
X84112857Y-165520714D01*
X84541428Y-167092142D02*
X83112857Y-167092142D01*
X83112857Y-164092142D01*
X84541428Y-164092142D01*
X85827142Y-167092142D02*
X85827142Y-164092142D01*
X86541428Y-164092142D01*
X86970000Y-164235000D01*
X87255714Y-164520714D01*
X87398571Y-164806428D01*
X87541428Y-165377857D01*
X87541428Y-165806428D01*
X87398571Y-166377857D01*
X87255714Y-166663571D01*
X86970000Y-166949285D01*
X86541428Y-167092142D01*
X85827142Y-167092142D01*
X52181428Y-167092142D02*
X52181428Y-164092142D01*
X53181428Y-166235000D01*
X54181428Y-164092142D01*
X54181428Y-167092142D01*
X55324285Y-164092142D02*
X57181428Y-164092142D01*
X56181428Y-165235000D01*
X56610000Y-165235000D01*
X56895714Y-165377857D01*
X57038571Y-165520714D01*
X57181428Y-165806428D01*
X57181428Y-166520714D01*
X57038571Y-166806428D01*
X56895714Y-166949285D01*
X56610000Y-167092142D01*
X55752857Y-167092142D01*
X55467142Y-166949285D01*
X55324285Y-166806428D01*
X128381428Y-167092142D02*
X128381428Y-164092142D01*
X129381428Y-166235000D01*
X130381428Y-164092142D01*
X130381428Y-167092142D01*
X131524285Y-164092142D02*
X133381428Y-164092142D01*
X132381428Y-165235000D01*
X132810000Y-165235000D01*
X133095714Y-165377857D01*
X133238571Y-165520714D01*
X133381428Y-165806428D01*
X133381428Y-166520714D01*
X133238571Y-166806428D01*
X133095714Y-166949285D01*
X132810000Y-167092142D01*
X131952857Y-167092142D01*
X131667142Y-166949285D01*
X131524285Y-166806428D01*
X128381428Y-80732142D02*
X128381428Y-77732142D01*
X129381428Y-79875000D01*
X130381428Y-77732142D01*
X130381428Y-80732142D01*
X131524285Y-77732142D02*
X133381428Y-77732142D01*
X132381428Y-78875000D01*
X132810000Y-78875000D01*
X133095714Y-79017857D01*
X133238571Y-79160714D01*
X133381428Y-79446428D01*
X133381428Y-80160714D01*
X133238571Y-80446428D01*
X133095714Y-80589285D01*
X132810000Y-80732142D01*
X131952857Y-80732142D01*
X131667142Y-80589285D01*
X131524285Y-80446428D01*
X52181428Y-80732142D02*
X52181428Y-77732142D01*
X53181428Y-79875000D01*
X54181428Y-77732142D01*
X54181428Y-80732142D01*
X55324285Y-77732142D02*
X57181428Y-77732142D01*
X56181428Y-78875000D01*
X56610000Y-78875000D01*
X56895714Y-79017857D01*
X57038571Y-79160714D01*
X57181428Y-79446428D01*
X57181428Y-80160714D01*
X57038571Y-80446428D01*
X56895714Y-80589285D01*
X56610000Y-80732142D01*
X55752857Y-80732142D01*
X55467142Y-80589285D01*
X55324285Y-80446428D01*
X49530000Y-86360000D02*
X59690000Y-86360000D01*
X54610000Y-91440000D02*
X54610000Y-81280000D01*
X125730000Y-86360000D02*
X135890000Y-86360000D01*
X130810000Y-91440000D02*
X130810000Y-81280000D01*
X116840000Y-104140000D02*
X127000000Y-104140000D01*
X121920000Y-109220000D02*
X121920000Y-99060000D01*
X87630000Y-104140000D02*
X97790000Y-104140000D01*
X92710000Y-109220000D02*
X92710000Y-99060000D01*
X58420000Y-116840000D02*
X68580000Y-116840000D01*
X63500000Y-121920000D02*
X63500000Y-111760000D01*
X116840000Y-125730000D02*
X127000000Y-125730000D01*
X121920000Y-130810000D02*
X121920000Y-120650000D01*
X87630000Y-125730000D02*
X97790000Y-125730000D01*
X92710000Y-130810000D02*
X92710000Y-120650000D01*
X87630000Y-147320000D02*
X97790000Y-147320000D01*
X92710000Y-152400000D02*
X92710000Y-142240000D01*
X116840000Y-147320000D02*
X127000000Y-147320000D01*
X121920000Y-152400000D02*
X121920000Y-142240000D01*
X125730000Y-172720000D02*
X135890000Y-172720000D01*
X130810000Y-177800000D02*
X130810000Y-167640000D01*
X87630000Y-172720000D02*
X97790000Y-172720000D01*
X92710000Y-177800000D02*
X92710000Y-167640000D01*
X72390000Y-172720000D02*
X82550000Y-172720000D01*
X77470000Y-177800000D02*
X77470000Y-167640000D01*
X49530000Y-172720000D02*
X59690000Y-172720000D01*
X54610000Y-177800000D02*
X54610000Y-167640000D01*
X63500000Y-143510000D02*
X63500000Y-133350000D01*
X58420000Y-138430000D02*
X68580000Y-138430000D01*
X80020000Y-172720000D02*
G75*
G03*
X80020000Y-172720000I-2550000J0D01*
G01*
X132360000Y-86360000D02*
G75*
G03*
X132360000Y-86360000I-1550000J0D01*
G01*
X56160000Y-86360000D02*
G75*
G03*
X56160000Y-86360000I-1550000J0D01*
G01*
X56160000Y-172720000D02*
G75*
G03*
X56160000Y-172720000I-1550000J0D01*
G01*
X132360000Y-172720000D02*
G75*
G03*
X132360000Y-172720000I-1550000J0D01*
G01*
X135255000Y-69215000D02*
G75*
G02*
X137795000Y-71755000I0J-2540000D01*
G01*
X137795000Y-182245000D02*
G75*
G02*
X135255000Y-184785000I-2540000J0D01*
G01*
X50165000Y-184785000D02*
G75*
G02*
X47625000Y-182245000I0J2540000D01*
G01*
X47625000Y-71755000D02*
G75*
G02*
X50165000Y-69215000I2540000J0D01*
G01*
X50165000Y-184785000D02*
X135255000Y-184785000D01*
X47625000Y-71755000D02*
X47625000Y-182245000D01*
X137795000Y-71755000D02*
X137795000Y-182245000D01*
X50165000Y-69215000D02*
X135255000Y-69215000D01*
X96790000Y-172720000D02*
G75*
G03*
X96790000Y-172720000I-4080000J0D01*
G01*
X96260000Y-147320000D02*
G75*
G03*
X96260000Y-147320000I-3550000J0D01*
G01*
X67050000Y-138430000D02*
G75*
G03*
X67050000Y-138430000I-3550000J0D01*
G01*
X124970000Y-147320000D02*
G75*
G03*
X124970000Y-147320000I-3050000J0D01*
G01*
X125470000Y-125730000D02*
G75*
G03*
X125470000Y-125730000I-3550000J0D01*
G01*
X96260000Y-125730000D02*
G75*
G03*
X96260000Y-125730000I-3550000J0D01*
G01*
X67050000Y-116840000D02*
G75*
G03*
X67050000Y-116840000I-3550000J0D01*
G01*
X96260000Y-104140000D02*
G75*
G03*
X96260000Y-104140000I-3550000J0D01*
G01*
X125470000Y-104140000D02*
G75*
G03*
X125470000Y-104140000I-3550000J0D01*
G01*
M02*
