<?xml version="1.0" encoding="UTF-8"?>
<svg xmlns="http://www.w3.org/2000/svg" xmlns:xlink="http://www.w3.org/1999/xlink" width="611.999983pt" height="791.999983pt" viewBox="0 0 611.999983 791.999983" version="1.2">
<g id="surface65179">
<rect x="0" y="0" width="611.999983" height="791.999983" style="fill:rgb(100%,100%,100%);fill-opacity:1;stroke:none;"/>
<path style="fill:none;stroke-width:28;stroke-linecap:round;stroke-linejoin:round;stroke:rgb(0%,0%,0%);stroke-opacity:1;stroke-miterlimit:10;" d="M 29947.395833 8940.104167 C 29947.395833 9264.322917 29774.479167 9563.802083 29493.75 9726.041667 C 29213.020833 9888.020833 28866.927083 9888.020833 28586.197917 9726.041667 C 28305.46875 9563.802083 28132.552083 9264.322917 28132.552083 8940.104167 C 28132.552083 8615.885417 28305.46875 8316.145833 28586.197917 8154.166667 C 28866.927083 7991.927083 29213.020833 7991.927083 29493.75 8154.166667 C 29774.479167 8316.145833 29947.395833 8615.885417 29947.395833 8940.104167 Z M 29947.395833 8940.104167 " transform="matrix(0.015,0,0,0.015,0,0)"/>
<path style="fill:none;stroke-width:28;stroke-linecap:round;stroke-linejoin:round;stroke:rgb(0%,0%,0%);stroke-opacity:1;stroke-miterlimit:10;" d="M 25800 8340.104167 L 27000 8340.104167 " transform="matrix(0.015,0,0,0.015,0,0)"/>
<path style="fill:none;stroke-width:28;stroke-linecap:round;stroke-linejoin:round;stroke:rgb(0%,0%,0%);stroke-opacity:1;stroke-miterlimit:10;" d="M 30120.052083 8940.104167 L 27959.895833 8940.104167 " transform="matrix(0.015,0,0,0.015,0,0)"/>
<path style="fill:none;stroke-width:28;stroke-linecap:round;stroke-linejoin:round;stroke:rgb(0%,0%,0%);stroke-opacity:1;stroke-miterlimit:10;" d="M 29040.104167 8940.104167 L 29040.104167 10020.052083 " transform="matrix(0.015,0,0,0.015,0,0)"/>
<path style="fill:none;stroke-width:28;stroke-linecap:round;stroke-linejoin:round;stroke:rgb(0%,0%,0%);stroke-opacity:1;stroke-miterlimit:10;" d="M 33120.052083 6059.895833 L 19679.947917 6059.895833 " transform="matrix(0.015,0,0,0.015,0,0)"/>
<path style="fill:none;stroke-width:28;stroke-linecap:round;stroke-linejoin:round;stroke:rgb(0%,0%,0%);stroke-opacity:1;stroke-miterlimit:10;" d="M 32159.895833 8940.104167 L 32159.895833 7859.895833 " transform="matrix(0.015,0,0,0.015,0,0)"/>
<path style="fill:none;stroke-width:28;stroke-linecap:round;stroke-linejoin:round;stroke:rgb(0%,0%,0%);stroke-opacity:1;stroke-miterlimit:10;" d="M 26400 7500 L 26400 8700 " transform="matrix(0.015,0,0,0.015,0,0)"/>
<path style="fill:none;stroke-width:28;stroke-linecap:round;stroke-linejoin:round;stroke:rgb(0%,0%,0%);stroke-opacity:1;stroke-miterlimit:10;" d="M 29040.104167 8940.104167 L 29040.104167 7859.895833 " transform="matrix(0.015,0,0,0.015,0,0)"/>
<path style="fill:none;stroke-width:28;stroke-linecap:round;stroke-linejoin:round;stroke:rgb(0%,0%,0%);stroke-opacity:1;stroke-miterlimit:10;" d="M 19679.947917 10859.895833 L 33120.052083 10859.895833 " transform="matrix(0.015,0,0,0.015,0,0)"/>
<path style="fill:none;stroke-width:28;stroke-linecap:round;stroke-linejoin:round;stroke:rgb(0%,0%,0%);stroke-opacity:1;stroke-miterlimit:10;" d="M 25577.083333 9236.979167 L 25684.895833 9236.979167 L 25739.0625 9209.895833 L 25765.885417 9183.072917 L 25820.052083 9102.083333 L 25846.875 8994.010417 L 25846.875 8778.125 L 25820.052083 8723.958333 L 25792.96875 8696.875 L 25739.0625 8670.052083 L 25630.989583 8670.052083 L 25577.083333 8696.875 L 25550 8723.958333 L 25522.916667 8778.125 L 25522.916667 8913.020833 L 25550 8966.927083 L 25577.083333 8994.010417 L 25630.989583 9021.09375 L 25739.0625 9021.09375 L 25792.96875 8994.010417 L 25820.052083 8966.927083 L 25846.875 8913.020833 " transform="matrix(0.015,0,0,0.015,0,0)"/>
<path style="fill:none;stroke-width:28;stroke-linecap:round;stroke-linejoin:round;stroke:rgb(0%,0%,0%);stroke-opacity:1;stroke-miterlimit:10;" d="M 26035.9375 8859.114583 L 26171.09375 9236.979167 L 26305.989583 8859.114583 " transform="matrix(0.015,0,0,0.015,0,0)"/>
<path style="fill:none;stroke-width:28;stroke-linecap:round;stroke-linejoin:round;stroke:rgb(0%,0%,0%);stroke-opacity:1;stroke-miterlimit:10;" d="M 26764.0625 9236.979167 L 26764.0625 8670.052083 " transform="matrix(0.015,0,0,0.015,0,0)"/>
<path style="fill:none;stroke-width:28;stroke-linecap:round;stroke-linejoin:round;stroke:rgb(0%,0%,0%);stroke-opacity:1;stroke-miterlimit:10;" d="M 26764.0625 9209.895833 L 26709.895833 9236.979167 L 26602.083333 9236.979167 L 26547.916667 9209.895833 L 26521.09375 9183.072917 L 26494.010417 9128.90625 L 26494.010417 8966.927083 L 26521.09375 8913.020833 L 26547.916667 8885.9375 L 26602.083333 8859.114583 L 26709.895833 8859.114583 L 26764.0625 8885.9375 " transform="matrix(0.015,0,0,0.015,0,0)"/>
<path style="fill:none;stroke-width:28;stroke-linecap:round;stroke-linejoin:round;stroke:rgb(0%,0%,0%);stroke-opacity:1;stroke-miterlimit:10;" d="M 27277.083333 9209.895833 L 27222.916667 9236.979167 L 27115.104167 9236.979167 L 27060.9375 9209.895833 L 27034.114583 9183.072917 L 27007.03125 9128.90625 L 27007.03125 8966.927083 L 27034.114583 8913.020833 L 27060.9375 8885.9375 L 27115.104167 8859.114583 L 27222.916667 8859.114583 L 27277.083333 8885.9375 " transform="matrix(0.015,0,0,0.015,0,0)"/>
<path style="fill:none;stroke-width:28;stroke-linecap:round;stroke-linejoin:round;stroke:rgb(0%,0%,0%);stroke-opacity:1;stroke-miterlimit:10;" d="M 25671.09375 9738.020833 L 25671.09375 10223.958333 L 25644.010417 10278.125 L 25590.104167 10304.947917 L 25563.020833 10304.947917 " transform="matrix(0.015,0,0,0.015,0,0)"/>
<path style="fill:none;stroke-width:28;stroke-linecap:round;stroke-linejoin:round;stroke:rgb(0%,0%,0%);stroke-opacity:1;stroke-miterlimit:10;" d="M 25671.09375 9548.958333 L 25644.010417 9576.041667 L 25671.09375 9603.125 L 25697.916667 9576.041667 L 25671.09375 9548.958333 L 25671.09375 9603.125 " transform="matrix(0.015,0,0,0.015,0,0)"/>
<path style="fill:none;stroke-width:28;stroke-linecap:round;stroke-linejoin:round;stroke:rgb(0%,0%,0%);stroke-opacity:1;stroke-miterlimit:10;" d="M 26184.114583 10115.885417 L 26184.114583 9819.010417 L 26157.03125 9765.104167 L 26103.125 9738.020833 L 25995.052083 9738.020833 L 25940.885417 9765.104167 " transform="matrix(0.015,0,0,0.015,0,0)"/>
<path style="fill:none;stroke-width:28;stroke-linecap:round;stroke-linejoin:round;stroke:rgb(0%,0%,0%);stroke-opacity:1;stroke-miterlimit:10;" d="M 26184.114583 10089.0625 L 26129.947917 10115.885417 L 25995.052083 10115.885417 L 25940.885417 10089.0625 L 25914.0625 10034.895833 L 25914.0625 9980.989583 L 25940.885417 9927.083333 L 25995.052083 9900 L 26129.947917 9900 L 26184.114583 9872.916667 " transform="matrix(0.015,0,0,0.015,0,0)"/>
<path style="fill:none;stroke-width:28;stroke-linecap:round;stroke-linejoin:round;stroke:rgb(0%,0%,0%);stroke-opacity:1;stroke-miterlimit:10;" d="M 26696.875 10089.0625 L 26642.96875 10115.885417 L 26534.895833 10115.885417 L 26480.989583 10089.0625 L 26453.90625 10061.979167 L 26427.083333 10008.072917 L 26427.083333 9846.09375 L 26453.90625 9791.927083 L 26480.989583 9765.104167 L 26534.895833 9738.020833 L 26642.96875 9738.020833 L 26696.875 9765.104167 " transform="matrix(0.015,0,0,0.015,0,0)"/>
<path style="fill:none;stroke-width:28;stroke-linecap:round;stroke-linejoin:round;stroke:rgb(0%,0%,0%);stroke-opacity:1;stroke-miterlimit:10;" d="M 26940.104167 10115.885417 L 26940.104167 9548.958333 " transform="matrix(0.015,0,0,0.015,0,0)"/>
<path style="fill:none;stroke-width:28;stroke-linecap:round;stroke-linejoin:round;stroke:rgb(0%,0%,0%);stroke-opacity:1;stroke-miterlimit:10;" d="M 26994.010417 9900 L 27155.989583 10115.885417 " transform="matrix(0.015,0,0,0.015,0,0)"/>
<path style="fill:none;stroke-width:28;stroke-linecap:round;stroke-linejoin:round;stroke:rgb(0%,0%,0%);stroke-opacity:1;stroke-miterlimit:10;" d="M 27155.989583 9738.020833 L 26940.104167 9953.90625 " transform="matrix(0.015,0,0,0.015,0,0)"/>
<path style="fill:none;stroke-width:28;stroke-linecap:round;stroke-linejoin:round;stroke:rgb(0%,0%,0%);stroke-opacity:1;stroke-miterlimit:10;" d="M 25800.520833 8340.625 C 25561.71875 8169.791667 25406.770833 7905.729167 25374.479167 7613.802083 C 25342.1875 7322.135417 25435.677083 7030.46875 25631.510417 6811.71875 C 25827.34375 6593.229167 26107.03125 6468.229167 26400.520833 6468.229167 C 26694.010417 6468.229167 26973.697917 6593.229167 27169.53125 6811.71875 C 27365.364583 7030.46875 27458.854167 7322.135417 27426.5625 7613.802083 C 27394.270833 7905.729167 27239.322917 8169.791667 27000.520833 8340.625 " transform="matrix(0.015,0,0,0.015,0,0)"/>
<path style="fill:none;stroke-width:28;stroke-linecap:round;stroke-linejoin:round;stroke:rgb(0%,0%,0%);stroke-opacity:1;stroke-miterlimit:10;" d="M 27600 7500 L 25200 7500 " transform="matrix(0.015,0,0,0.015,0,0)"/>
<path style="fill:none;stroke-width:28;stroke-linecap:round;stroke-linejoin:round;stroke:rgb(0%,0%,0%);stroke-opacity:1;stroke-miterlimit:10;" d="M 26400 7500 L 26400 6300 " transform="matrix(0.015,0,0,0.015,0,0)"/>
<path style="fill:none;stroke-width:28;stroke-linecap:round;stroke-linejoin:round;stroke:rgb(0%,0%,0%);stroke-opacity:1;stroke-miterlimit:10;" d="M 24840.104167 8940.104167 L 22679.947917 8940.104167 " transform="matrix(0.015,0,0,0.015,0,0)"/>
<path style="fill:none;stroke-width:28;stroke-linecap:round;stroke-linejoin:round;stroke:rgb(0%,0%,0%);stroke-opacity:1;stroke-miterlimit:10;" d="M 23759.895833 8940.104167 L 23759.895833 10020.052083 " transform="matrix(0.015,0,0,0.015,0,0)"/>
<path style="fill:none;stroke-width:28;stroke-linecap:round;stroke-linejoin:round;stroke:rgb(0%,0%,0%);stroke-opacity:1;stroke-miterlimit:10;" d="M 28790.104167 10635.9375 L 28465.885417 10635.9375 " transform="matrix(0.015,0,0,0.015,0,0)"/>
<path style="fill:none;stroke-width:28;stroke-linecap:round;stroke-linejoin:round;stroke:rgb(0%,0%,0%);stroke-opacity:1;stroke-miterlimit:10;" d="M 28628.125 10635.9375 L 28628.125 10070.052083 L 28573.958333 10151.041667 L 28520.052083 10204.947917 L 28465.885417 10232.03125 " transform="matrix(0.015,0,0,0.015,0,0)"/>
<path style="fill:none;stroke-width:28;stroke-linecap:round;stroke-linejoin:round;stroke:rgb(0%,0%,0%);stroke-opacity:1;stroke-miterlimit:10;" d="M 29438.020833 10042.96875 L 28952.083333 10771.09375 " transform="matrix(0.015,0,0,0.015,0,0)"/>
<path style="fill:none;stroke-width:28;stroke-linecap:round;stroke-linejoin:round;stroke:rgb(0%,0%,0%);stroke-opacity:1;stroke-miterlimit:10;" d="M 29870.052083 10259.114583 L 29870.052083 10635.9375 " transform="matrix(0.015,0,0,0.015,0,0)"/>
<path style="fill:none;stroke-width:28;stroke-linecap:round;stroke-linejoin:round;stroke:rgb(0%,0%,0%);stroke-opacity:1;stroke-miterlimit:10;" d="M 29734.895833 10042.96875 L 29600 10446.875 L 29951.041667 10446.875 " transform="matrix(0.015,0,0,0.015,0,0)"/>
<path style="fill:none;stroke-width:28;stroke-linecap:round;stroke-linejoin:round;stroke:rgb(0%,0%,0%);stroke-opacity:1;stroke-miterlimit:10;" d="M 30140.104167 10070.052083 L 30140.104167 10178.125 " transform="matrix(0.015,0,0,0.015,0,0)"/>
<path style="fill:none;stroke-width:28;stroke-linecap:round;stroke-linejoin:round;stroke:rgb(0%,0%,0%);stroke-opacity:1;stroke-miterlimit:10;" d="M 30355.989583 10070.052083 L 30355.989583 10178.125 " transform="matrix(0.015,0,0,0.015,0,0)"/>
<path style="fill:none;stroke-width:28;stroke-linecap:round;stroke-linejoin:round;stroke:rgb(0%,0%,0%);stroke-opacity:1;stroke-miterlimit:10;" d="M 31029.947917 10259.114583 L 31029.947917 10744.010417 L 31003.125 10797.916667 L 30948.958333 10825 L 30921.875 10825 " transform="matrix(0.015,0,0,0.015,0,0)"/>
<path style="fill:none;stroke-width:28;stroke-linecap:round;stroke-linejoin:round;stroke:rgb(0%,0%,0%);stroke-opacity:1;stroke-miterlimit:10;" d="M 31029.947917 10070.052083 L 31003.125 10096.875 L 31029.947917 10123.958333 L 31057.03125 10096.875 L 31029.947917 10070.052083 L 31029.947917 10123.958333 " transform="matrix(0.015,0,0,0.015,0,0)"/>
<path style="fill:none;stroke-width:28;stroke-linecap:round;stroke-linejoin:round;stroke:rgb(0%,0%,0%);stroke-opacity:1;stroke-miterlimit:10;" d="M 31542.96875 10635.9375 L 31542.96875 10340.104167 L 31515.885417 10285.9375 L 31461.979167 10259.114583 L 31353.90625 10259.114583 L 31300 10285.9375 " transform="matrix(0.015,0,0,0.015,0,0)"/>
<path style="fill:none;stroke-width:28;stroke-linecap:round;stroke-linejoin:round;stroke:rgb(0%,0%,0%);stroke-opacity:1;stroke-miterlimit:10;" d="M 31542.96875 10609.114583 L 31489.0625 10635.9375 L 31353.90625 10635.9375 L 31300 10609.114583 L 31272.916667 10554.947917 L 31272.916667 10501.041667 L 31300 10446.875 L 31353.90625 10420.052083 L 31489.0625 10420.052083 L 31542.96875 10392.96875 " transform="matrix(0.015,0,0,0.015,0,0)"/>
<path style="fill:none;stroke-width:28;stroke-linecap:round;stroke-linejoin:round;stroke:rgb(0%,0%,0%);stroke-opacity:1;stroke-miterlimit:10;" d="M 32055.989583 10609.114583 L 32002.083333 10635.9375 L 31894.010417 10635.9375 L 31840.104167 10609.114583 L 31813.020833 10582.03125 L 31785.9375 10528.125 L 31785.9375 10366.927083 L 31813.020833 10313.020833 L 31840.104167 10285.9375 L 31894.010417 10259.114583 L 32002.083333 10259.114583 L 32055.989583 10285.9375 " transform="matrix(0.015,0,0,0.015,0,0)"/>
<path style="fill:none;stroke-width:28;stroke-linecap:round;stroke-linejoin:round;stroke:rgb(0%,0%,0%);stroke-opacity:1;stroke-miterlimit:10;" d="M 32298.958333 10635.9375 L 32298.958333 10070.052083 " transform="matrix(0.015,0,0,0.015,0,0)"/>
<path style="fill:none;stroke-width:28;stroke-linecap:round;stroke-linejoin:round;stroke:rgb(0%,0%,0%);stroke-opacity:1;stroke-miterlimit:10;" d="M 32353.125 10420.052083 L 32515.104167 10635.9375 " transform="matrix(0.015,0,0,0.015,0,0)"/>
<path style="fill:none;stroke-width:28;stroke-linecap:round;stroke-linejoin:round;stroke:rgb(0%,0%,0%);stroke-opacity:1;stroke-miterlimit:10;" d="M 32515.104167 10259.114583 L 32298.958333 10473.958333 " transform="matrix(0.015,0,0,0.015,0,0)"/>
<path style="fill:none;stroke-width:28;stroke-linecap:round;stroke-linejoin:round;stroke:rgb(0%,0%,0%);stroke-opacity:1;stroke-miterlimit:10;" d="M 32730.989583 10609.114583 L 32784.895833 10635.9375 L 32892.96875 10635.9375 L 32946.875 10609.114583 L 32973.958333 10554.947917 L 32973.958333 10528.125 L 32946.875 10473.958333 L 32892.96875 10446.875 L 32811.979167 10446.875 L 32758.072917 10420.052083 L 32730.989583 10366.927083 L 32730.989583 10340.104167 L 32758.072917 10285.9375 L 32811.979167 10259.114583 L 32892.96875 10259.114583 L 32946.875 10285.9375 " transform="matrix(0.015,0,0,0.015,0,0)"/>
<path style="fill:none;stroke-width:28;stroke-linecap:round;stroke-linejoin:round;stroke:rgb(0%,0%,0%);stroke-opacity:1;stroke-miterlimit:10;" d="M 33067.447917 8940.104167 C 33067.447917 9264.322917 32894.53125 9563.802083 32613.802083 9726.041667 C 32333.072917 9888.020833 31986.979167 9888.020833 31706.25 9726.041667 C 31425.520833 9563.802083 31252.604167 9264.322917 31252.604167 8940.104167 C 31252.604167 8615.885417 31425.520833 8316.145833 31706.25 8154.166667 C 31986.979167 7991.927083 32333.072917 7991.927083 32613.802083 8154.166667 C 32894.53125 8316.145833 33067.447917 8615.885417 33067.447917 8940.104167 Z M 33067.447917 8940.104167 " transform="matrix(0.015,0,0,0.015,0,0)"/>
<path style="fill:none;stroke-width:28;stroke-linecap:round;stroke-linejoin:round;stroke:rgb(0%,0%,0%);stroke-opacity:1;stroke-miterlimit:10;" d="M 32159.895833 8940.104167 L 32159.895833 10020.052083 " transform="matrix(0.015,0,0,0.015,0,0)"/>
<path style="fill:none;stroke-width:28;stroke-linecap:round;stroke-linejoin:round;stroke:rgb(0%,0%,0%);stroke-opacity:1;stroke-miterlimit:10;" d="M 33240.104167 8940.104167 L 31079.947917 8940.104167 " transform="matrix(0.015,0,0,0.015,0,0)"/>
<path style="fill:none;stroke-width:28;stroke-linecap:round;stroke-linejoin:round;stroke:rgb(0%,0%,0%);stroke-opacity:1;stroke-miterlimit:10;" d="M 34080.46875 9900.520833 C 34080.46875 10155.208333 33979.427083 10399.21875 33799.21875 10579.427083 C 33619.270833 10759.375 33375 10860.416667 33120.572917 10860.416667 " transform="matrix(0.015,0,0,0.015,0,0)"/>
<path style="fill:none;stroke-width:28;stroke-linecap:round;stroke-linejoin:round;stroke:rgb(0%,0%,0%);stroke-opacity:1;stroke-miterlimit:10;" d="M 33120.572917 6060.416667 C 33375 6060.416667 33619.270833 6161.71875 33799.21875 6341.666667 C 33979.427083 6521.614583 34080.46875 6765.885417 34080.46875 7020.572917 " transform="matrix(0.015,0,0,0.015,0,0)"/>
<path style="fill:none;stroke-width:28;stroke-linecap:round;stroke-linejoin:round;stroke:rgb(0%,0%,0%);stroke-opacity:1;stroke-miterlimit:10;" d="M 34079.947917 9900 L 34079.947917 7020.052083 " transform="matrix(0.015,0,0,0.015,0,0)"/>
<path style="fill:none;stroke-width:28;stroke-linecap:round;stroke-linejoin:round;stroke:rgb(0%,0%,0%);stroke-opacity:1;stroke-miterlimit:10;" d="M 21547.395833 8940.104167 C 21547.395833 9264.322917 21374.479167 9563.802083 21093.75 9726.041667 C 20813.020833 9888.020833 20466.927083 9888.020833 20186.197917 9726.041667 C 19905.46875 9563.802083 19732.552083 9264.322917 19732.552083 8940.104167 C 19732.552083 8615.885417 19905.46875 8316.145833 20186.197917 8154.166667 C 20466.927083 7991.927083 20813.020833 7991.927083 21093.75 8154.166667 C 21374.479167 8316.145833 21547.395833 8615.885417 21547.395833 8940.104167 Z M 21547.395833 8940.104167 " transform="matrix(0.015,0,0,0.015,0,0)"/>
<path style="fill:none;stroke-width:28;stroke-linecap:round;stroke-linejoin:round;stroke:rgb(0%,0%,0%);stroke-opacity:1;stroke-miterlimit:10;" d="M 19679.947917 6059.895833 L 19679.947917 6059.895833 " transform="matrix(0.015,0,0,0.015,0,0)"/>
<path style="fill:none;stroke-width:28;stroke-linecap:round;stroke-linejoin:round;stroke:rgb(0%,0%,0%);stroke-opacity:1;stroke-miterlimit:10;" d="M 21720.052083 8940.104167 L 19559.895833 8940.104167 " transform="matrix(0.015,0,0,0.015,0,0)"/>
<path style="fill:none;stroke-width:28;stroke-linecap:round;stroke-linejoin:round;stroke:rgb(0%,0%,0%);stroke-opacity:1;stroke-miterlimit:10;" d="M 20640.104167 8940.104167 L 20640.104167 10020.052083 " transform="matrix(0.015,0,0,0.015,0,0)"/>
<path style="fill:none;stroke-width:28;stroke-linecap:round;stroke-linejoin:round;stroke:rgb(0%,0%,0%);stroke-opacity:1;stroke-miterlimit:10;" d="M 19680.46875 10860.416667 C 19425.78125 10860.416667 19181.770833 10759.375 19001.5625 10579.427083 C 18821.614583 10399.21875 18720.572917 10155.208333 18720.572917 9900.520833 " transform="matrix(0.015,0,0,0.015,0,0)"/>
<path style="fill:none;stroke-width:28;stroke-linecap:round;stroke-linejoin:round;stroke:rgb(0%,0%,0%);stroke-opacity:1;stroke-miterlimit:10;" d="M 18720.572917 7020.572917 C 18720.572917 6765.885417 18821.614583 6521.614583 19001.5625 6341.666667 C 19181.770833 6161.71875 19425.78125 6060.416667 19680.46875 6060.416667 " transform="matrix(0.015,0,0,0.015,0,0)"/>
<path style="fill:none;stroke-width:28;stroke-linecap:round;stroke-linejoin:round;stroke:rgb(0%,0%,0%);stroke-opacity:1;stroke-miterlimit:10;" d="M 18720.052083 7020.052083 L 18720.052083 9900 " transform="matrix(0.015,0,0,0.015,0,0)"/>
<path style="fill:none;stroke-width:28;stroke-linecap:round;stroke-linejoin:round;stroke:rgb(0%,0%,0%);stroke-opacity:1;stroke-miterlimit:10;" d="M 20390.104167 10635.9375 L 20065.885417 10635.9375 " transform="matrix(0.015,0,0,0.015,0,0)"/>
<path style="fill:none;stroke-width:28;stroke-linecap:round;stroke-linejoin:round;stroke:rgb(0%,0%,0%);stroke-opacity:1;stroke-miterlimit:10;" d="M 20228.125 10635.9375 L 20228.125 10070.052083 L 20173.958333 10151.041667 L 20120.052083 10204.947917 L 20065.885417 10232.03125 " transform="matrix(0.015,0,0,0.015,0,0)"/>
<path style="fill:none;stroke-width:28;stroke-linecap:round;stroke-linejoin:round;stroke:rgb(0%,0%,0%);stroke-opacity:1;stroke-miterlimit:10;" d="M 21038.020833 10042.96875 L 20552.083333 10771.09375 " transform="matrix(0.015,0,0,0.015,0,0)"/>
<path style="fill:none;stroke-width:28;stroke-linecap:round;stroke-linejoin:round;stroke:rgb(0%,0%,0%);stroke-opacity:1;stroke-miterlimit:10;" d="M 21470.052083 10259.114583 L 21470.052083 10635.9375 " transform="matrix(0.015,0,0,0.015,0,0)"/>
<path style="fill:none;stroke-width:28;stroke-linecap:round;stroke-linejoin:round;stroke:rgb(0%,0%,0%);stroke-opacity:1;stroke-miterlimit:10;" d="M 21334.895833 10042.96875 L 21200 10446.875 L 21551.041667 10446.875 " transform="matrix(0.015,0,0,0.015,0,0)"/>
<path style="fill:none;stroke-width:28;stroke-linecap:round;stroke-linejoin:round;stroke:rgb(0%,0%,0%);stroke-opacity:1;stroke-miterlimit:10;" d="M 21740.104167 10070.052083 L 21740.104167 10178.125 " transform="matrix(0.015,0,0,0.015,0,0)"/>
<path style="fill:none;stroke-width:28;stroke-linecap:round;stroke-linejoin:round;stroke:rgb(0%,0%,0%);stroke-opacity:1;stroke-miterlimit:10;" d="M 21955.989583 10070.052083 L 21955.989583 10178.125 " transform="matrix(0.015,0,0,0.015,0,0)"/>
<path style="fill:none;stroke-width:28;stroke-linecap:round;stroke-linejoin:round;stroke:rgb(0%,0%,0%);stroke-opacity:1;stroke-miterlimit:10;" d="M 22629.947917 10259.114583 L 22629.947917 10744.010417 L 22603.125 10797.916667 L 22548.958333 10825 L 22521.875 10825 " transform="matrix(0.015,0,0,0.015,0,0)"/>
<path style="fill:none;stroke-width:28;stroke-linecap:round;stroke-linejoin:round;stroke:rgb(0%,0%,0%);stroke-opacity:1;stroke-miterlimit:10;" d="M 22629.947917 10070.052083 L 22603.125 10096.875 L 22629.947917 10123.958333 L 22657.03125 10096.875 L 22629.947917 10070.052083 L 22629.947917 10123.958333 " transform="matrix(0.015,0,0,0.015,0,0)"/>
<path style="fill:none;stroke-width:28;stroke-linecap:round;stroke-linejoin:round;stroke:rgb(0%,0%,0%);stroke-opacity:1;stroke-miterlimit:10;" d="M 23142.96875 10635.9375 L 23142.96875 10340.104167 L 23115.885417 10285.9375 L 23061.979167 10259.114583 L 22953.90625 10259.114583 L 22900 10285.9375 " transform="matrix(0.015,0,0,0.015,0,0)"/>
<path style="fill:none;stroke-width:28;stroke-linecap:round;stroke-linejoin:round;stroke:rgb(0%,0%,0%);stroke-opacity:1;stroke-miterlimit:10;" d="M 23142.96875 10609.114583 L 23089.0625 10635.9375 L 22953.90625 10635.9375 L 22900 10609.114583 L 22872.916667 10554.947917 L 22872.916667 10501.041667 L 22900 10446.875 L 22953.90625 10420.052083 L 23089.0625 10420.052083 L 23142.96875 10392.96875 " transform="matrix(0.015,0,0,0.015,0,0)"/>
<path style="fill:none;stroke-width:28;stroke-linecap:round;stroke-linejoin:round;stroke:rgb(0%,0%,0%);stroke-opacity:1;stroke-miterlimit:10;" d="M 23655.989583 10609.114583 L 23602.083333 10635.9375 L 23494.010417 10635.9375 L 23440.104167 10609.114583 L 23413.020833 10582.03125 L 23385.9375 10528.125 L 23385.9375 10366.927083 L 23413.020833 10313.020833 L 23440.104167 10285.9375 L 23494.010417 10259.114583 L 23602.083333 10259.114583 L 23655.989583 10285.9375 " transform="matrix(0.015,0,0,0.015,0,0)"/>
<path style="fill:none;stroke-width:28;stroke-linecap:round;stroke-linejoin:round;stroke:rgb(0%,0%,0%);stroke-opacity:1;stroke-miterlimit:10;" d="M 23898.958333 10635.9375 L 23898.958333 10070.052083 " transform="matrix(0.015,0,0,0.015,0,0)"/>
<path style="fill:none;stroke-width:28;stroke-linecap:round;stroke-linejoin:round;stroke:rgb(0%,0%,0%);stroke-opacity:1;stroke-miterlimit:10;" d="M 23953.125 10420.052083 L 24115.104167 10635.9375 " transform="matrix(0.015,0,0,0.015,0,0)"/>
<path style="fill:none;stroke-width:28;stroke-linecap:round;stroke-linejoin:round;stroke:rgb(0%,0%,0%);stroke-opacity:1;stroke-miterlimit:10;" d="M 24115.104167 10259.114583 L 23898.958333 10473.958333 " transform="matrix(0.015,0,0,0.015,0,0)"/>
<path style="fill:none;stroke-width:28;stroke-linecap:round;stroke-linejoin:round;stroke:rgb(0%,0%,0%);stroke-opacity:1;stroke-miterlimit:10;" d="M 24330.989583 10609.114583 L 24384.895833 10635.9375 L 24492.96875 10635.9375 L 24546.875 10609.114583 L 24573.958333 10554.947917 L 24573.958333 10528.125 L 24546.875 10473.958333 L 24492.96875 10446.875 L 24411.979167 10446.875 L 24358.072917 10420.052083 L 24330.989583 10366.927083 L 24330.989583 10340.104167 L 24358.072917 10285.9375 L 24411.979167 10259.114583 L 24492.96875 10259.114583 L 24546.875 10285.9375 " transform="matrix(0.015,0,0,0.015,0,0)"/>
<path style="fill:none;stroke-width:28;stroke-linecap:round;stroke-linejoin:round;stroke:rgb(0%,0%,0%);stroke-opacity:1;stroke-miterlimit:10;" d="M 24667.447917 8940.104167 C 24667.447917 9264.322917 24494.53125 9563.802083 24213.802083 9726.041667 C 23933.072917 9888.020833 23586.979167 9888.020833 23306.25 9726.041667 C 23025.520833 9563.802083 22852.604167 9264.322917 22852.604167 8940.104167 C 22852.604167 8615.885417 23025.520833 8316.145833 23306.25 8154.166667 C 23586.979167 7991.927083 23933.072917 7991.927083 24213.802083 8154.166667 C 24494.53125 8316.145833 24667.447917 8615.885417 24667.447917 8940.104167 Z M 24667.447917 8940.104167 " transform="matrix(0.015,0,0,0.015,0,0)"/>
<path style="fill:none;stroke-width:28;stroke-linecap:round;stroke-linejoin:round;stroke:rgb(0%,0%,0%);stroke-opacity:1;stroke-miterlimit:10;" d="M 23759.895833 8940.104167 L 23759.895833 7859.895833 " transform="matrix(0.015,0,0,0.015,0,0)"/>
<path style="fill:none;stroke-width:28;stroke-linecap:round;stroke-linejoin:round;stroke:rgb(0%,0%,0%);stroke-opacity:1;stroke-miterlimit:10;" d="M 20640.104167 8940.104167 L 20640.104167 7859.895833 " transform="matrix(0.015,0,0,0.015,0,0)"/>
<path style="fill:none;stroke-width:28;stroke-linecap:round;stroke-linejoin:round;stroke:rgb(0%,0%,0%);stroke-opacity:1;stroke-miterlimit:10;" d="M 20340.104167 20219.010417 L 20340.104167 20784.895833 " transform="matrix(0.015,0,0,0.015,0,0)"/>
<path style="fill:none;stroke-width:28;stroke-linecap:round;stroke-linejoin:round;stroke:rgb(0%,0%,0%);stroke-opacity:1;stroke-miterlimit:10;" d="M 20340.104167 20246.09375 L 20394.010417 20219.010417 L 20502.083333 20219.010417 L 20555.989583 20246.09375 L 20583.072917 20272.916667 L 20609.895833 20327.083333 L 20609.895833 20488.020833 L 20583.072917 20541.927083 L 20555.989583 20569.010417 L 20502.083333 20596.09375 L 20394.010417 20596.09375 L 20340.104167 20569.010417 " transform="matrix(0.015,0,0,0.015,0,0)"/>
<path style="fill:none;stroke-width:28;stroke-linecap:round;stroke-linejoin:round;stroke:rgb(0%,0%,0%);stroke-opacity:1;stroke-miterlimit:10;" d="M 20934.114583 20596.09375 L 20879.947917 20569.010417 L 20853.125 20541.927083 L 20826.041667 20488.020833 L 20826.041667 20327.083333 L 20853.125 20272.916667 L 20879.947917 20246.09375 L 20934.114583 20219.010417 L 21015.104167 20219.010417 L 21069.010417 20246.09375 L 21096.09375 20272.916667 L 21122.916667 20327.083333 L 21122.916667 20488.020833 L 21096.09375 20541.927083 L 21069.010417 20569.010417 L 21015.104167 20596.09375 L 20934.114583 20596.09375 " transform="matrix(0.015,0,0,0.015,0,0)"/>
<path style="fill:none;stroke-width:28;stroke-linecap:round;stroke-linejoin:round;stroke:rgb(0%,0%,0%);stroke-opacity:1;stroke-miterlimit:10;" d="M 21284.895833 20219.010417 L 21501.041667 20219.010417 " transform="matrix(0.015,0,0,0.015,0,0)"/>
<path style="fill:none;stroke-width:28;stroke-linecap:round;stroke-linejoin:round;stroke:rgb(0%,0%,0%);stroke-opacity:1;stroke-miterlimit:10;" d="M 21365.885417 20029.947917 L 21365.885417 20515.104167 L 21392.96875 20569.010417 L 21446.875 20596.09375 L 21501.041667 20596.09375 " transform="matrix(0.015,0,0,0.015,0,0)"/>
<path style="fill:none;stroke-width:28;stroke-linecap:round;stroke-linejoin:round;stroke:rgb(0%,0%,0%);stroke-opacity:1;stroke-miterlimit:10;" d="M 19920.052083 21900 L 21840.104167 21900 " transform="matrix(0.015,0,0,0.015,0,0)"/>
<path style="fill:none;stroke-width:28;stroke-linecap:round;stroke-linejoin:round;stroke:rgb(0%,0%,0%);stroke-opacity:1;stroke-miterlimit:10;" d="M 20879.947917 22859.895833 L 20879.947917 20940.104167 " transform="matrix(0.015,0,0,0.015,0,0)"/>
<path style="fill:none;stroke-width:28;stroke-linecap:round;stroke-linejoin:round;stroke:rgb(0%,0%,0%);stroke-opacity:1;stroke-miterlimit:10;" d="M 21551.5625 21900 C 21551.5625 22139.84375 21423.4375 22361.458333 21215.625 22481.510417 C 21008.072917 22601.5625 20752.083333 22601.5625 20544.270833 22481.510417 C 20336.458333 22361.458333 20208.59375 22139.84375 20208.59375 21900 C 20208.59375 21660.15625 20336.458333 21438.541667 20544.270833 21318.489583 C 20752.083333 21198.4375 21008.072917 21198.4375 21215.625 21318.489583 C 21423.4375 21438.541667 21551.5625 21660.15625 21551.5625 21900 Z M 21551.5625 21900 " transform="matrix(0.015,0,0,0.015,0,0)"/>
<path style="fill:none;stroke-width:28;stroke-linecap:round;stroke-linejoin:round;stroke:rgb(0%,0%,0%);stroke-opacity:1;stroke-miterlimit:10;" d="M 31379.947917 17819.010417 L 31379.947917 18384.895833 " transform="matrix(0.015,0,0,0.015,0,0)"/>
<path style="fill:none;stroke-width:28;stroke-linecap:round;stroke-linejoin:round;stroke:rgb(0%,0%,0%);stroke-opacity:1;stroke-miterlimit:10;" d="M 31379.947917 17846.09375 L 31434.114583 17819.010417 L 31541.927083 17819.010417 L 31596.09375 17846.09375 L 31622.916667 17872.916667 L 31650 17927.083333 L 31650 18088.020833 L 31622.916667 18141.927083 L 31596.09375 18169.010417 L 31541.927083 18196.09375 L 31434.114583 18196.09375 L 31379.947917 18169.010417 " transform="matrix(0.015,0,0,0.015,0,0)"/>
<path style="fill:none;stroke-width:28;stroke-linecap:round;stroke-linejoin:round;stroke:rgb(0%,0%,0%);stroke-opacity:1;stroke-miterlimit:10;" d="M 31973.958333 18196.09375 L 31920.052083 18169.010417 L 31892.96875 18141.927083 L 31865.885417 18088.020833 L 31865.885417 17927.083333 L 31892.96875 17872.916667 L 31920.052083 17846.09375 L 31973.958333 17819.010417 L 32054.947917 17819.010417 L 32109.114583 17846.09375 L 32135.9375 17872.916667 L 32163.020833 17927.083333 L 32163.020833 18088.020833 L 32135.9375 18141.927083 L 32109.114583 18169.010417 L 32054.947917 18196.09375 L 31973.958333 18196.09375 " transform="matrix(0.015,0,0,0.015,0,0)"/>
<path style="fill:none;stroke-width:28;stroke-linecap:round;stroke-linejoin:round;stroke:rgb(0%,0%,0%);stroke-opacity:1;stroke-miterlimit:10;" d="M 32325 17819.010417 L 32540.885417 17819.010417 " transform="matrix(0.015,0,0,0.015,0,0)"/>
<path style="fill:none;stroke-width:28;stroke-linecap:round;stroke-linejoin:round;stroke:rgb(0%,0%,0%);stroke-opacity:1;stroke-miterlimit:10;" d="M 32405.989583 17629.947917 L 32405.989583 18115.104167 L 32433.072917 18169.010417 L 32486.979167 18196.09375 L 32540.885417 18196.09375 " transform="matrix(0.015,0,0,0.015,0,0)"/>
<path style="fill:none;stroke-width:28;stroke-linecap:round;stroke-linejoin:round;stroke:rgb(0%,0%,0%);stroke-opacity:1;stroke-miterlimit:10;" d="M 33140.885417 15076.041667 L 33140.885417 14509.895833 L 33329.947917 14914.0625 L 33519.010417 14509.895833 L 33519.010417 15076.041667 " transform="matrix(0.015,0,0,0.015,0,0)"/>
<path style="fill:none;stroke-width:28;stroke-linecap:round;stroke-linejoin:round;stroke:rgb(0%,0%,0%);stroke-opacity:1;stroke-miterlimit:10;" d="M 33734.895833 14509.895833 L 34085.9375 14509.895833 L 33896.875 14726.041667 L 33978.125 14726.041667 L 34032.03125 14753.125 L 34059.114583 14779.947917 L 34085.9375 14833.072917 L 34085.9375 14967.96875 L 34059.114583 15021.875 L 34032.03125 15048.958333 L 33978.125 15076.041667 L 33815.885417 15076.041667 L 33761.979167 15048.958333 L 33734.895833 15021.875 " transform="matrix(0.015,0,0,0.015,0,0)"/>
<path style="fill:none;stroke-width:28;stroke-linecap:round;stroke-linejoin:round;stroke:rgb(0%,0%,0%);stroke-opacity:1;stroke-miterlimit:10;" d="M 32640.104167 16140.104167 L 34559.895833 16140.104167 " transform="matrix(0.015,0,0,0.015,0,0)"/>
<path style="fill:none;stroke-width:28;stroke-linecap:round;stroke-linejoin:round;stroke:rgb(0%,0%,0%);stroke-opacity:1;stroke-miterlimit:10;" d="M 33600 17100 L 33600 15179.947917 " transform="matrix(0.015,0,0,0.015,0,0)"/>
<path style="fill:none;stroke-width:28;stroke-linecap:round;stroke-linejoin:round;stroke:rgb(0%,0%,0%);stroke-opacity:1;stroke-miterlimit:10;" d="M 30959.895833 19500 L 32879.947917 19500 " transform="matrix(0.015,0,0,0.015,0,0)"/>
<path style="fill:none;stroke-width:28;stroke-linecap:round;stroke-linejoin:round;stroke:rgb(0%,0%,0%);stroke-opacity:1;stroke-miterlimit:10;" d="M 33893.489583 16140.104167 C 33893.489583 16302.083333 33761.979167 16433.59375 33600 16433.59375 C 33438.020833 16433.59375 33306.510417 16302.083333 33306.510417 16140.104167 C 33306.510417 15977.864583 33438.020833 15846.614583 33600 15846.614583 C 33761.979167 15846.614583 33893.489583 15977.864583 33893.489583 16140.104167 Z M 33893.489583 16140.104167 " transform="matrix(0.015,0,0,0.015,0,0)"/>
<path style="fill:none;stroke-width:28;stroke-linecap:round;stroke-linejoin:round;stroke:rgb(0%,0%,0%);stroke-opacity:1;stroke-miterlimit:10;" d="M 34440.625 12900.520833 C 34567.708333 12900.520833 34689.84375 12951.041667 34779.947917 13041.145833 C 34870.052083 13130.989583 34920.572917 13253.125 34920.572917 13380.46875 " transform="matrix(0.015,0,0,0.015,0,0)"/>
<path style="fill:none;stroke-width:28;stroke-linecap:round;stroke-linejoin:round;stroke:rgb(0%,0%,0%);stroke-opacity:1;stroke-miterlimit:10;" d="M 22701.041667 13876.041667 L 22701.041667 13309.895833 " transform="matrix(0.015,0,0,0.015,0,0)"/>
<path style="fill:none;stroke-width:28;stroke-linecap:round;stroke-linejoin:round;stroke:rgb(0%,0%,0%);stroke-opacity:1;stroke-miterlimit:10;" d="M 22701.041667 13579.947917 L 23025 13579.947917 " transform="matrix(0.015,0,0,0.015,0,0)"/>
<path style="fill:none;stroke-width:28;stroke-linecap:round;stroke-linejoin:round;stroke:rgb(0%,0%,0%);stroke-opacity:1;stroke-miterlimit:10;" d="M 23025 13876.041667 L 23025 13309.895833 " transform="matrix(0.015,0,0,0.015,0,0)"/>
<path style="fill:none;stroke-width:28;stroke-linecap:round;stroke-linejoin:round;stroke:rgb(0%,0%,0%);stroke-opacity:1;stroke-miterlimit:10;" d="M 23538.020833 13876.041667 L 23538.020833 13579.947917 L 23510.9375 13526.041667 L 23457.03125 13498.958333 L 23348.958333 13498.958333 L 23295.052083 13526.041667 " transform="matrix(0.015,0,0,0.015,0,0)"/>
<path style="fill:none;stroke-width:28;stroke-linecap:round;stroke-linejoin:round;stroke:rgb(0%,0%,0%);stroke-opacity:1;stroke-miterlimit:10;" d="M 23538.020833 13848.958333 L 23484.114583 13876.041667 L 23348.958333 13876.041667 L 23295.052083 13848.958333 L 23267.96875 13795.052083 L 23267.96875 13740.885417 L 23295.052083 13686.979167 L 23348.958333 13659.895833 L 23484.114583 13659.895833 L 23538.020833 13633.072917 " transform="matrix(0.015,0,0,0.015,0,0)"/>
<path style="fill:none;stroke-width:28;stroke-linecap:round;stroke-linejoin:round;stroke:rgb(0%,0%,0%);stroke-opacity:1;stroke-miterlimit:10;" d="M 23808.072917 13876.041667 L 23808.072917 13498.958333 " transform="matrix(0.015,0,0,0.015,0,0)"/>
<path style="fill:none;stroke-width:28;stroke-linecap:round;stroke-linejoin:round;stroke:rgb(0%,0%,0%);stroke-opacity:1;stroke-miterlimit:10;" d="M 23808.072917 13553.125 L 23834.895833 13526.041667 L 23889.0625 13498.958333 L 23970.052083 13498.958333 L 24023.958333 13526.041667 L 24051.041667 13579.947917 L 24051.041667 13876.041667 " transform="matrix(0.015,0,0,0.015,0,0)"/>
<path style="fill:none;stroke-width:28;stroke-linecap:round;stroke-linejoin:round;stroke:rgb(0%,0%,0%);stroke-opacity:1;stroke-miterlimit:10;" d="M 24051.041667 13579.947917 L 24078.125 13526.041667 L 24132.03125 13498.958333 L 24213.020833 13498.958333 L 24266.927083 13526.041667 L 24294.010417 13579.947917 L 24294.010417 13876.041667 " transform="matrix(0.015,0,0,0.015,0,0)"/>
<path style="fill:none;stroke-width:28;stroke-linecap:round;stroke-linejoin:round;stroke:rgb(0%,0%,0%);stroke-opacity:1;stroke-miterlimit:10;" d="M 24645.052083 13876.041667 L 24590.885417 13848.958333 L 24564.0625 13821.875 L 24536.979167 13767.96875 L 24536.979167 13607.03125 L 24564.0625 13553.125 L 24590.885417 13526.041667 L 24645.052083 13498.958333 L 24726.041667 13498.958333 L 24779.947917 13526.041667 L 24807.03125 13553.125 L 24834.114583 13607.03125 L 24834.114583 13767.96875 L 24807.03125 13821.875 L 24779.947917 13848.958333 L 24726.041667 13876.041667 L 24645.052083 13876.041667 " transform="matrix(0.015,0,0,0.015,0,0)"/>
<path style="fill:none;stroke-width:28;stroke-linecap:round;stroke-linejoin:round;stroke:rgb(0%,0%,0%);stroke-opacity:1;stroke-miterlimit:10;" d="M 25077.083333 13498.958333 L 25077.083333 13876.041667 " transform="matrix(0.015,0,0,0.015,0,0)"/>
<path style="fill:none;stroke-width:28;stroke-linecap:round;stroke-linejoin:round;stroke:rgb(0%,0%,0%);stroke-opacity:1;stroke-miterlimit:10;" d="M 25077.083333 13553.125 L 25103.90625 13526.041667 L 25158.072917 13498.958333 L 25239.0625 13498.958333 L 25292.96875 13526.041667 L 25320.052083 13579.947917 L 25320.052083 13876.041667 " transform="matrix(0.015,0,0,0.015,0,0)"/>
<path style="fill:none;stroke-width:28;stroke-linecap:round;stroke-linejoin:round;stroke:rgb(0%,0%,0%);stroke-opacity:1;stroke-miterlimit:10;" d="M 25833.072917 13876.041667 L 25833.072917 13309.895833 " transform="matrix(0.015,0,0,0.015,0,0)"/>
<path style="fill:none;stroke-width:28;stroke-linecap:round;stroke-linejoin:round;stroke:rgb(0%,0%,0%);stroke-opacity:1;stroke-miterlimit:10;" d="M 25833.072917 13848.958333 L 25778.90625 13876.041667 L 25671.09375 13876.041667 L 25616.927083 13848.958333 L 25590.104167 13821.875 L 25563.020833 13767.96875 L 25563.020833 13607.03125 L 25590.104167 13553.125 L 25616.927083 13526.041667 L 25671.09375 13498.958333 L 25778.90625 13498.958333 L 25833.072917 13526.041667 " transform="matrix(0.015,0,0,0.015,0,0)"/>
<path style="fill:none;stroke-width:28;stroke-linecap:round;stroke-linejoin:round;stroke:rgb(0%,0%,0%);stroke-opacity:1;stroke-miterlimit:10;" d="M 26832.03125 13876.041667 L 26508.072917 13876.041667 " transform="matrix(0.015,0,0,0.015,0,0)"/>
<path style="fill:none;stroke-width:28;stroke-linecap:round;stroke-linejoin:round;stroke:rgb(0%,0%,0%);stroke-opacity:1;stroke-miterlimit:10;" d="M 26670.052083 13876.041667 L 26670.052083 13309.895833 L 26615.885417 13390.885417 L 26561.979167 13445.052083 L 26508.072917 13471.875 " transform="matrix(0.015,0,0,0.015,0,0)"/>
<path style="fill:none;stroke-width:28;stroke-linecap:round;stroke-linejoin:round;stroke:rgb(0%,0%,0%);stroke-opacity:1;stroke-miterlimit:10;" d="M 27345.052083 13309.895833 L 27075 13309.895833 L 27047.916667 13579.947917 L 27075 13553.125 L 27128.90625 13526.041667 L 27264.0625 13526.041667 L 27317.96875 13553.125 L 27345.052083 13579.947917 L 27371.875 13633.072917 L 27371.875 13767.96875 L 27345.052083 13821.875 L 27317.96875 13848.958333 L 27264.0625 13876.041667 L 27128.90625 13876.041667 L 27075 13848.958333 L 27047.916667 13821.875 " transform="matrix(0.015,0,0,0.015,0,0)"/>
<path style="fill:none;stroke-width:28;stroke-linecap:round;stroke-linejoin:round;stroke:rgb(0%,0%,0%);stroke-opacity:1;stroke-miterlimit:10;" d="M 27641.927083 13876.041667 L 27750 13876.041667 L 27803.90625 13848.958333 L 27830.989583 13821.875 L 27884.895833 13740.885417 L 27911.979167 13633.072917 L 27911.979167 13417.96875 L 27884.895833 13364.0625 L 27858.072917 13336.979167 L 27803.90625 13309.895833 L 27696.09375 13309.895833 L 27641.927083 13336.979167 L 27615.104167 13364.0625 L 27588.020833 13417.96875 L 27588.020833 13553.125 L 27615.104167 13607.03125 L 27641.927083 13633.072917 L 27696.09375 13659.895833 L 27803.90625 13659.895833 L 27858.072917 13633.072917 L 27884.895833 13607.03125 L 27911.979167 13553.125 " transform="matrix(0.015,0,0,0.015,0,0)"/>
<path style="fill:none;stroke-width:28;stroke-linecap:round;stroke-linejoin:round;stroke:rgb(0%,0%,0%);stroke-opacity:1;stroke-miterlimit:10;" d="M 28263.020833 13309.895833 L 28316.927083 13309.895833 L 28371.09375 13336.979167 L 28397.916667 13364.0625 L 28425 13417.96875 L 28452.083333 13526.041667 L 28452.083333 13659.895833 L 28425 13767.96875 L 28397.916667 13821.875 L 28371.09375 13848.958333 L 28316.927083 13876.041667 L 28263.020833 13876.041667 L 28209.114583 13848.958333 L 28182.03125 13821.875 L 28154.947917 13767.96875 L 28128.125 13659.895833 L 28128.125 13526.041667 L 28154.947917 13417.96875 L 28182.03125 13364.0625 L 28209.114583 13336.979167 L 28263.020833 13309.895833 " transform="matrix(0.015,0,0,0.015,0,0)"/>
<path style="fill:none;stroke-width:28;stroke-linecap:round;stroke-linejoin:round;stroke:rgb(0%,0%,0%);stroke-opacity:1;stroke-miterlimit:10;" d="M 28884.114583 13579.947917 L 28965.104167 13607.03125 L 28991.927083 13633.072917 L 29019.010417 13686.979167 L 29019.010417 13767.96875 L 28991.927083 13821.875 L 28965.104167 13848.958333 L 28910.9375 13876.041667 L 28695.052083 13876.041667 L 28695.052083 13309.895833 L 28884.114583 13309.895833 L 28938.020833 13336.979167 L 28965.104167 13364.0625 L 28991.927083 13417.96875 L 28991.927083 13471.875 L 28965.104167 13526.041667 L 28938.020833 13553.125 L 28884.114583 13579.947917 L 28695.052083 13579.947917 " transform="matrix(0.015,0,0,0.015,0,0)"/>
<path style="fill:none;stroke-width:28;stroke-linecap:round;stroke-linejoin:round;stroke:rgb(0%,0%,0%);stroke-opacity:1;stroke-miterlimit:10;" d="M 29451.041667 13579.947917 L 29532.03125 13607.03125 L 29559.114583 13633.072917 L 29585.9375 13686.979167 L 29585.9375 13767.96875 L 29559.114583 13821.875 L 29532.03125 13848.958333 L 29478.125 13876.041667 L 29261.979167 13876.041667 L 29261.979167 13309.895833 L 29451.041667 13309.895833 L 29504.947917 13336.979167 L 29532.03125 13364.0625 L 29559.114583 13417.96875 L 29559.114583 13471.875 L 29532.03125 13526.041667 L 29504.947917 13553.125 L 29451.041667 13579.947917 L 29261.979167 13579.947917 " transform="matrix(0.015,0,0,0.015,0,0)"/>
<path style="fill:none;stroke-width:28;stroke-linecap:round;stroke-linejoin:round;stroke:rgb(0%,0%,0%);stroke-opacity:1;stroke-miterlimit:10;" d="M 29802.083333 13848.958333 L 29883.072917 13876.041667 L 30017.96875 13876.041667 L 30071.875 13848.958333 L 30098.958333 13821.875 L 30126.041667 13767.96875 L 30126.041667 13714.0625 L 30098.958333 13659.895833 L 30071.875 13633.072917 L 30017.96875 13607.03125 L 29909.895833 13579.947917 L 29855.989583 13553.125 L 29828.90625 13526.041667 L 29802.083333 13471.875 L 29802.083333 13417.96875 L 29828.90625 13364.0625 L 29855.989583 13336.979167 L 29909.895833 13309.895833 L 30045.052083 13309.895833 L 30126.041667 13336.979167 " transform="matrix(0.015,0,0,0.015,0,0)"/>
<path style="fill:none;stroke-width:28;stroke-linecap:round;stroke-linejoin:round;stroke:rgb(0%,0%,0%);stroke-opacity:1;stroke-miterlimit:10;" d="M 25859.895833 17819.010417 L 25859.895833 18384.895833 " transform="matrix(0.015,0,0,0.015,0,0)"/>
<path style="fill:none;stroke-width:28;stroke-linecap:round;stroke-linejoin:round;stroke:rgb(0%,0%,0%);stroke-opacity:1;stroke-miterlimit:10;" d="M 25859.895833 17846.09375 L 25914.0625 17819.010417 L 26021.875 17819.010417 L 26076.041667 17846.09375 L 26103.125 17872.916667 L 26129.947917 17927.083333 L 26129.947917 18088.020833 L 26103.125 18141.927083 L 26076.041667 18169.010417 L 26021.875 18196.09375 L 25914.0625 18196.09375 L 25859.895833 18169.010417 " transform="matrix(0.015,0,0,0.015,0,0)"/>
<path style="fill:none;stroke-width:28;stroke-linecap:round;stroke-linejoin:round;stroke:rgb(0%,0%,0%);stroke-opacity:1;stroke-miterlimit:10;" d="M 26453.90625 18196.09375 L 26400 18169.010417 L 26372.916667 18141.927083 L 26346.09375 18088.020833 L 26346.09375 17927.083333 L 26372.916667 17872.916667 L 26400 17846.09375 L 26453.90625 17819.010417 L 26534.895833 17819.010417 L 26589.0625 17846.09375 L 26615.885417 17872.916667 L 26642.96875 17927.083333 L 26642.96875 18088.020833 L 26615.885417 18141.927083 L 26589.0625 18169.010417 L 26534.895833 18196.09375 L 26453.90625 18196.09375 " transform="matrix(0.015,0,0,0.015,0,0)"/>
<path style="fill:none;stroke-width:28;stroke-linecap:round;stroke-linejoin:round;stroke:rgb(0%,0%,0%);stroke-opacity:1;stroke-miterlimit:10;" d="M 26804.947917 17819.010417 L 27021.09375 17819.010417 " transform="matrix(0.015,0,0,0.015,0,0)"/>
<path style="fill:none;stroke-width:28;stroke-linecap:round;stroke-linejoin:round;stroke:rgb(0%,0%,0%);stroke-opacity:1;stroke-miterlimit:10;" d="M 26885.9375 17629.947917 L 26885.9375 18115.104167 L 26913.020833 18169.010417 L 26966.927083 18196.09375 L 27021.09375 18196.09375 " transform="matrix(0.015,0,0,0.015,0,0)"/>
<path style="fill:none;stroke-width:28;stroke-linecap:round;stroke-linejoin:round;stroke:rgb(0%,0%,0%);stroke-opacity:1;stroke-miterlimit:10;" d="M 31920.052083 20459.895833 L 31920.052083 18540.104167 " transform="matrix(0.015,0,0,0.015,0,0)"/>
<path style="fill:none;stroke-width:28;stroke-linecap:round;stroke-linejoin:round;stroke:rgb(0%,0%,0%);stroke-opacity:1;stroke-miterlimit:10;" d="M 25440.104167 19500 L 27359.895833 19500 " transform="matrix(0.015,0,0,0.015,0,0)"/>
<path style="fill:none;stroke-width:28;stroke-linecap:round;stroke-linejoin:round;stroke:rgb(0%,0%,0%);stroke-opacity:1;stroke-miterlimit:10;" d="M 26400 20459.895833 L 26400 18540.104167 " transform="matrix(0.015,0,0,0.015,0,0)"/>
<path style="fill:none;stroke-width:28;stroke-linecap:round;stroke-linejoin:round;stroke:rgb(0%,0%,0%);stroke-opacity:1;stroke-miterlimit:10;" d="M 18359.895833 12900 L 34440.104167 12900 " transform="matrix(0.015,0,0,0.015,0,0)"/>
<path style="fill:none;stroke-width:28;stroke-linecap:round;stroke-linejoin:round;stroke:rgb(0%,0%,0%);stroke-opacity:1;stroke-miterlimit:10;" d="M 27071.614583 19500 C 27071.614583 19739.84375 26943.489583 19961.458333 26735.677083 20081.510417 C 26527.864583 20201.5625 26272.135417 20201.5625 26064.322917 20081.510417 C 25856.510417 19961.458333 25728.385417 19739.84375 25728.385417 19500 C 25728.385417 19260.15625 25856.510417 19038.541667 26064.322917 18918.489583 C 26272.135417 18798.4375 26527.864583 18798.4375 26735.677083 18918.489583 C 26943.489583 19038.541667 27071.614583 19260.15625 27071.614583 19500 Z M 27071.614583 19500 " transform="matrix(0.015,0,0,0.015,0,0)"/>
<path style="fill:none;stroke-width:28;stroke-linecap:round;stroke-linejoin:round;stroke:rgb(0%,0%,0%);stroke-opacity:1;stroke-miterlimit:10;" d="M 32591.40625 19500 C 32591.40625 19739.84375 32463.541667 19961.458333 32255.729167 20081.510417 C 32047.916667 20201.5625 31791.927083 20201.5625 31584.375 20081.510417 C 31376.5625 19961.458333 31248.4375 19739.84375 31248.4375 19500 C 31248.4375 19260.15625 31376.5625 19038.541667 31584.375 18918.489583 C 31791.927083 18798.4375 32047.916667 18798.4375 32255.729167 18918.489583 C 32463.541667 19038.541667 32591.40625 19260.15625 32591.40625 19500 Z M 32591.40625 19500 " transform="matrix(0.015,0,0,0.015,0,0)"/>
<path style="fill:none;stroke-width:28;stroke-linecap:round;stroke-linejoin:round;stroke:rgb(0%,0%,0%);stroke-opacity:1;stroke-miterlimit:10;" d="M 18740.885417 15076.041667 L 18740.885417 14509.895833 L 18929.947917 14914.0625 L 19119.010417 14509.895833 L 19119.010417 15076.041667 " transform="matrix(0.015,0,0,0.015,0,0)"/>
<path style="fill:none;stroke-width:28;stroke-linecap:round;stroke-linejoin:round;stroke:rgb(0%,0%,0%);stroke-opacity:1;stroke-miterlimit:10;" d="M 19334.895833 14509.895833 L 19685.9375 14509.895833 L 19496.875 14726.041667 L 19578.125 14726.041667 L 19632.03125 14753.125 L 19659.114583 14779.947917 L 19685.9375 14833.072917 L 19685.9375 14967.96875 L 19659.114583 15021.875 L 19632.03125 15048.958333 L 19578.125 15076.041667 L 19415.885417 15076.041667 L 19361.979167 15048.958333 L 19334.895833 15021.875 " transform="matrix(0.015,0,0,0.015,0,0)"/>
<path style="fill:none;stroke-width:28;stroke-linecap:round;stroke-linejoin:round;stroke:rgb(0%,0%,0%);stroke-opacity:1;stroke-miterlimit:10;" d="M 18240.104167 16140.104167 L 20159.895833 16140.104167 " transform="matrix(0.015,0,0,0.015,0,0)"/>
<path style="fill:none;stroke-width:28;stroke-linecap:round;stroke-linejoin:round;stroke:rgb(0%,0%,0%);stroke-opacity:1;stroke-miterlimit:10;" d="M 19200 17100 L 19200 15179.947917 " transform="matrix(0.015,0,0,0.015,0,0)"/>
<path style="fill:none;stroke-width:28;stroke-linecap:round;stroke-linejoin:round;stroke:rgb(0%,0%,0%);stroke-opacity:1;stroke-miterlimit:10;" d="M 19493.489583 16140.104167 C 19493.489583 16302.083333 19361.979167 16433.59375 19200 16433.59375 C 19038.020833 16433.59375 18906.510417 16302.083333 18906.510417 16140.104167 C 18906.510417 15977.864583 19038.020833 15846.614583 19200 15846.614583 C 19361.979167 15846.614583 19493.489583 15977.864583 19493.489583 16140.104167 Z M 19493.489583 16140.104167 " transform="matrix(0.015,0,0,0.015,0,0)"/>
<path style="fill:none;stroke-width:28;stroke-linecap:round;stroke-linejoin:round;stroke:rgb(0%,0%,0%);stroke-opacity:1;stroke-miterlimit:10;" d="M 17880.46875 13380.46875 C 17880.46875 13253.125 17930.989583 13130.989583 18021.09375 13041.145833 C 18111.197917 12951.041667 18233.072917 12900.520833 18360.416667 12900.520833 " transform="matrix(0.015,0,0,0.015,0,0)"/>
<path style="fill:none;stroke-width:28;stroke-linecap:round;stroke-linejoin:round;stroke:rgb(0%,0%,0%);stroke-opacity:1;stroke-miterlimit:10;" d="M 31379.947917 21898.958333 L 31379.947917 22465.104167 " transform="matrix(0.015,0,0,0.015,0,0)"/>
<path style="fill:none;stroke-width:28;stroke-linecap:round;stroke-linejoin:round;stroke:rgb(0%,0%,0%);stroke-opacity:1;stroke-miterlimit:10;" d="M 31379.947917 21926.041667 L 31434.114583 21898.958333 L 31541.927083 21898.958333 L 31596.09375 21926.041667 L 31622.916667 21953.125 L 31650 22007.03125 L 31650 22167.96875 L 31622.916667 22221.875 L 31596.09375 22248.958333 L 31541.927083 22276.041667 L 31434.114583 22276.041667 L 31379.947917 22248.958333 " transform="matrix(0.015,0,0,0.015,0,0)"/>
<path style="fill:none;stroke-width:28;stroke-linecap:round;stroke-linejoin:round;stroke:rgb(0%,0%,0%);stroke-opacity:1;stroke-miterlimit:10;" d="M 31973.958333 22276.041667 L 31920.052083 22248.958333 L 31892.96875 22221.875 L 31865.885417 22167.96875 L 31865.885417 22007.03125 L 31892.96875 21953.125 L 31920.052083 21926.041667 L 31973.958333 21898.958333 L 32054.947917 21898.958333 L 32109.114583 21926.041667 L 32135.9375 21953.125 L 32163.020833 22007.03125 L 32163.020833 22167.96875 L 32135.9375 22221.875 L 32109.114583 22248.958333 L 32054.947917 22276.041667 L 31973.958333 22276.041667 " transform="matrix(0.015,0,0,0.015,0,0)"/>
<path style="fill:none;stroke-width:28;stroke-linecap:round;stroke-linejoin:round;stroke:rgb(0%,0%,0%);stroke-opacity:1;stroke-miterlimit:10;" d="M 32325 21898.958333 L 32540.885417 21898.958333 " transform="matrix(0.015,0,0,0.015,0,0)"/>
<path style="fill:none;stroke-width:28;stroke-linecap:round;stroke-linejoin:round;stroke:rgb(0%,0%,0%);stroke-opacity:1;stroke-miterlimit:10;" d="M 32405.989583 21709.895833 L 32405.989583 22195.052083 L 32433.072917 22248.958333 L 32486.979167 22276.041667 L 32540.885417 22276.041667 " transform="matrix(0.015,0,0,0.015,0,0)"/>
<path style="fill:none;stroke-width:28;stroke-linecap:round;stroke-linejoin:round;stroke:rgb(0%,0%,0%);stroke-opacity:1;stroke-miterlimit:10;" d="M 25859.895833 21898.958333 L 25859.895833 22465.104167 " transform="matrix(0.015,0,0,0.015,0,0)"/>
<path style="fill:none;stroke-width:28;stroke-linecap:round;stroke-linejoin:round;stroke:rgb(0%,0%,0%);stroke-opacity:1;stroke-miterlimit:10;" d="M 25859.895833 21926.041667 L 25914.0625 21898.958333 L 26021.875 21898.958333 L 26076.041667 21926.041667 L 26103.125 21953.125 L 26129.947917 22007.03125 L 26129.947917 22167.96875 L 26103.125 22221.875 L 26076.041667 22248.958333 L 26021.875 22276.041667 L 25914.0625 22276.041667 L 25859.895833 22248.958333 " transform="matrix(0.015,0,0,0.015,0,0)"/>
<path style="fill:none;stroke-width:28;stroke-linecap:round;stroke-linejoin:round;stroke:rgb(0%,0%,0%);stroke-opacity:1;stroke-miterlimit:10;" d="M 26453.90625 22276.041667 L 26400 22248.958333 L 26372.916667 22221.875 L 26346.09375 22167.96875 L 26346.09375 22007.03125 L 26372.916667 21953.125 L 26400 21926.041667 L 26453.90625 21898.958333 L 26534.895833 21898.958333 L 26589.0625 21926.041667 L 26615.885417 21953.125 L 26642.96875 22007.03125 L 26642.96875 22167.96875 L 26615.885417 22221.875 L 26589.0625 22248.958333 L 26534.895833 22276.041667 L 26453.90625 22276.041667 " transform="matrix(0.015,0,0,0.015,0,0)"/>
<path style="fill:none;stroke-width:28;stroke-linecap:round;stroke-linejoin:round;stroke:rgb(0%,0%,0%);stroke-opacity:1;stroke-miterlimit:10;" d="M 26804.947917 21898.958333 L 27021.09375 21898.958333 " transform="matrix(0.015,0,0,0.015,0,0)"/>
<path style="fill:none;stroke-width:28;stroke-linecap:round;stroke-linejoin:round;stroke:rgb(0%,0%,0%);stroke-opacity:1;stroke-miterlimit:10;" d="M 26885.9375 21709.895833 L 26885.9375 22195.052083 L 26913.020833 22248.958333 L 26966.927083 22276.041667 L 27021.09375 22276.041667 " transform="matrix(0.015,0,0,0.015,0,0)"/>
<path style="fill:none;stroke-width:28;stroke-linecap:round;stroke-linejoin:round;stroke:rgb(0%,0%,0%);stroke-opacity:1;stroke-miterlimit:10;" d="M 25440.104167 23579.947917 L 27359.895833 23579.947917 " transform="matrix(0.015,0,0,0.015,0,0)"/>
<path style="fill:none;stroke-width:28;stroke-linecap:round;stroke-linejoin:round;stroke:rgb(0%,0%,0%);stroke-opacity:1;stroke-miterlimit:10;" d="M 26400 24540.104167 L 26400 22620.052083 " transform="matrix(0.015,0,0,0.015,0,0)"/>
<path style="fill:none;stroke-width:28;stroke-linecap:round;stroke-linejoin:round;stroke:rgb(0%,0%,0%);stroke-opacity:1;stroke-miterlimit:10;" d="M 25440.104167 27659.895833 L 27359.895833 27659.895833 " transform="matrix(0.015,0,0,0.015,0,0)"/>
<path style="fill:none;stroke-width:28;stroke-linecap:round;stroke-linejoin:round;stroke:rgb(0%,0%,0%);stroke-opacity:1;stroke-miterlimit:10;" d="M 27071.614583 23579.947917 C 27071.614583 23819.791667 26943.489583 24041.666667 26735.677083 24161.458333 C 26527.864583 24281.510417 26272.135417 24281.510417 26064.322917 24161.458333 C 25856.510417 24041.666667 25728.385417 23819.791667 25728.385417 23579.947917 C 25728.385417 23340.104167 25856.510417 23118.489583 26064.322917 22998.4375 C 26272.135417 22878.385417 26527.864583 22878.385417 26735.677083 22998.4375 C 26943.489583 23118.489583 27071.614583 23340.104167 27071.614583 23579.947917 Z M 27071.614583 23579.947917 " transform="matrix(0.015,0,0,0.015,0,0)"/>
<path style="fill:none;stroke-width:28;stroke-linecap:round;stroke-linejoin:round;stroke:rgb(0%,0%,0%);stroke-opacity:1;stroke-miterlimit:10;" d="M 25859.895833 25978.90625 L 25859.895833 26545.052083 " transform="matrix(0.015,0,0,0.015,0,0)"/>
<path style="fill:none;stroke-width:28;stroke-linecap:round;stroke-linejoin:round;stroke:rgb(0%,0%,0%);stroke-opacity:1;stroke-miterlimit:10;" d="M 25859.895833 26005.989583 L 25914.0625 25978.90625 L 26021.875 25978.90625 L 26076.041667 26005.989583 L 26103.125 26033.072917 L 26129.947917 26086.979167 L 26129.947917 26247.916667 L 26103.125 26302.083333 L 26076.041667 26328.90625 L 26021.875 26355.989583 L 25914.0625 26355.989583 L 25859.895833 26328.90625 " transform="matrix(0.015,0,0,0.015,0,0)"/>
<path style="fill:none;stroke-width:28;stroke-linecap:round;stroke-linejoin:round;stroke:rgb(0%,0%,0%);stroke-opacity:1;stroke-miterlimit:10;" d="M 26453.90625 26355.989583 L 26400 26328.90625 L 26372.916667 26302.083333 L 26346.09375 26247.916667 L 26346.09375 26086.979167 L 26372.916667 26033.072917 L 26400 26005.989583 L 26453.90625 25978.90625 L 26534.895833 25978.90625 L 26589.0625 26005.989583 L 26615.885417 26033.072917 L 26642.96875 26086.979167 L 26642.96875 26247.916667 L 26615.885417 26302.083333 L 26589.0625 26328.90625 L 26534.895833 26355.989583 L 26453.90625 26355.989583 " transform="matrix(0.015,0,0,0.015,0,0)"/>
<path style="fill:none;stroke-width:28;stroke-linecap:round;stroke-linejoin:round;stroke:rgb(0%,0%,0%);stroke-opacity:1;stroke-miterlimit:10;" d="M 26804.947917 25978.90625 L 27021.09375 25978.90625 " transform="matrix(0.015,0,0,0.015,0,0)"/>
<path style="fill:none;stroke-width:28;stroke-linecap:round;stroke-linejoin:round;stroke:rgb(0%,0%,0%);stroke-opacity:1;stroke-miterlimit:10;" d="M 26885.9375 25790.104167 L 26885.9375 26275 L 26913.020833 26328.90625 L 26966.927083 26355.989583 L 27021.09375 26355.989583 " transform="matrix(0.015,0,0,0.015,0,0)"/>
<path style="fill:none;stroke-width:28;stroke-linecap:round;stroke-linejoin:round;stroke:rgb(0%,0%,0%);stroke-opacity:1;stroke-miterlimit:10;" d="M 20340.104167 24298.958333 L 20340.104167 24865.104167 " transform="matrix(0.015,0,0,0.015,0,0)"/>
<path style="fill:none;stroke-width:28;stroke-linecap:round;stroke-linejoin:round;stroke:rgb(0%,0%,0%);stroke-opacity:1;stroke-miterlimit:10;" d="M 20340.104167 24326.041667 L 20394.010417 24298.958333 L 20502.083333 24298.958333 L 20555.989583 24326.041667 L 20583.072917 24353.125 L 20609.895833 24407.03125 L 20609.895833 24567.96875 L 20583.072917 24621.875 L 20555.989583 24648.958333 L 20502.083333 24676.041667 L 20394.010417 24676.041667 L 20340.104167 24648.958333 " transform="matrix(0.015,0,0,0.015,0,0)"/>
<path style="fill:none;stroke-width:28;stroke-linecap:round;stroke-linejoin:round;stroke:rgb(0%,0%,0%);stroke-opacity:1;stroke-miterlimit:10;" d="M 20934.114583 24676.041667 L 20879.947917 24648.958333 L 20853.125 24621.875 L 20826.041667 24567.96875 L 20826.041667 24407.03125 L 20853.125 24353.125 L 20879.947917 24326.041667 L 20934.114583 24298.958333 L 21015.104167 24298.958333 L 21069.010417 24326.041667 L 21096.09375 24353.125 L 21122.916667 24407.03125 L 21122.916667 24567.96875 L 21096.09375 24621.875 L 21069.010417 24648.958333 L 21015.104167 24676.041667 L 20934.114583 24676.041667 " transform="matrix(0.015,0,0,0.015,0,0)"/>
<path style="fill:none;stroke-width:28;stroke-linecap:round;stroke-linejoin:round;stroke:rgb(0%,0%,0%);stroke-opacity:1;stroke-miterlimit:10;" d="M 21284.895833 24298.958333 L 21501.041667 24298.958333 " transform="matrix(0.015,0,0,0.015,0,0)"/>
<path style="fill:none;stroke-width:28;stroke-linecap:round;stroke-linejoin:round;stroke:rgb(0%,0%,0%);stroke-opacity:1;stroke-miterlimit:10;" d="M 21365.885417 24109.895833 L 21365.885417 24595.052083 L 21392.96875 24648.958333 L 21446.875 24676.041667 L 21501.041667 24676.041667 " transform="matrix(0.015,0,0,0.015,0,0)"/>
<path style="fill:none;stroke-width:28;stroke-linecap:round;stroke-linejoin:round;stroke:rgb(0%,0%,0%);stroke-opacity:1;stroke-miterlimit:10;" d="M 26400 28620.052083 L 26400 26700 " transform="matrix(0.015,0,0,0.015,0,0)"/>
<path style="fill:none;stroke-width:28;stroke-linecap:round;stroke-linejoin:round;stroke:rgb(0%,0%,0%);stroke-opacity:1;stroke-miterlimit:10;" d="M 20879.947917 26940.104167 L 20879.947917 25020.052083 " transform="matrix(0.015,0,0,0.015,0,0)"/>
<path style="fill:none;stroke-width:28;stroke-linecap:round;stroke-linejoin:round;stroke:rgb(0%,0%,0%);stroke-opacity:1;stroke-miterlimit:10;" d="M 19920.052083 25979.947917 L 21840.104167 25979.947917 " transform="matrix(0.015,0,0,0.015,0,0)"/>
<path style="fill:none;stroke-width:28;stroke-linecap:round;stroke-linejoin:round;stroke:rgb(0%,0%,0%);stroke-opacity:1;stroke-miterlimit:10;" d="M 27071.614583 27659.895833 C 27071.614583 27900 26943.489583 28121.614583 26735.677083 28241.40625 C 26527.864583 28361.458333 26272.135417 28361.458333 26064.322917 28241.40625 C 25856.510417 28121.614583 25728.385417 27900 25728.385417 27659.895833 C 25728.385417 27420.052083 25856.510417 27198.4375 26064.322917 27078.385417 C 26272.135417 26958.59375 26527.864583 26958.59375 26735.677083 27078.385417 C 26943.489583 27198.4375 27071.614583 27420.052083 27071.614583 27659.895833 Z M 27071.614583 27659.895833 " transform="matrix(0.015,0,0,0.015,0,0)"/>
<path style="fill:none;stroke-width:28;stroke-linecap:round;stroke-linejoin:round;stroke:rgb(0%,0%,0%);stroke-opacity:1;stroke-miterlimit:10;" d="M 21551.5625 25979.947917 C 21551.5625 26219.791667 21423.4375 26441.666667 21215.625 26561.458333 C 21008.072917 26681.510417 20752.083333 26681.510417 20544.270833 26561.458333 C 20336.458333 26441.666667 20208.59375 26219.791667 20208.59375 25979.947917 C 20208.59375 25740.104167 20336.458333 25518.489583 20544.270833 25398.4375 C 20752.083333 25278.385417 21008.072917 25278.385417 21215.625 25398.4375 C 21423.4375 25518.489583 21551.5625 25740.104167 21551.5625 25979.947917 Z M 21551.5625 25979.947917 " transform="matrix(0.015,0,0,0.015,0,0)"/>
<path style="fill:none;stroke-width:28;stroke-linecap:round;stroke-linejoin:round;stroke:rgb(0%,0%,0%);stroke-opacity:1;stroke-miterlimit:10;" d="M 30651.041667 25539.0625 L 30866.927083 25539.0625 " transform="matrix(0.015,0,0,0.015,0,0)"/>
<path style="fill:none;stroke-width:28;stroke-linecap:round;stroke-linejoin:round;stroke:rgb(0%,0%,0%);stroke-opacity:1;stroke-miterlimit:10;" d="M 30732.03125 25350 L 30732.03125 25835.9375 L 30759.114583 25890.104167 L 30813.020833 25916.927083 L 30866.927083 25916.927083 " transform="matrix(0.015,0,0,0.015,0,0)"/>
<path style="fill:none;stroke-width:28;stroke-linecap:round;stroke-linejoin:round;stroke:rgb(0%,0%,0%);stroke-opacity:1;stroke-miterlimit:10;" d="M 31136.979167 25916.927083 L 31083.072917 25890.104167 L 31055.989583 25863.020833 L 31028.90625 25809.114583 L 31028.90625 25646.875 L 31055.989583 25592.96875 L 31083.072917 25565.885417 L 31136.979167 25539.0625 L 31217.96875 25539.0625 L 31271.875 25565.885417 L 31298.958333 25592.96875 L 31326.041667 25646.875 L 31326.041667 25809.114583 L 31298.958333 25863.020833 L 31271.875 25890.104167 L 31217.96875 25916.927083 L 31136.979167 25916.927083 " transform="matrix(0.015,0,0,0.015,0,0)"/>
<path style="fill:none;stroke-width:28;stroke-linecap:round;stroke-linejoin:round;stroke:rgb(0%,0%,0%);stroke-opacity:1;stroke-miterlimit:10;" d="M 31811.979167 25539.0625 L 31811.979167 25997.916667 L 31784.895833 26052.083333 L 31758.072917 26078.90625 L 31703.90625 26105.989583 L 31622.916667 26105.989583 L 31569.010417 26078.90625 " transform="matrix(0.015,0,0,0.015,0,0)"/>
<path style="fill:none;stroke-width:28;stroke-linecap:round;stroke-linejoin:round;stroke:rgb(0%,0%,0%);stroke-opacity:1;stroke-miterlimit:10;" d="M 31811.979167 25890.104167 L 31758.072917 25916.927083 L 31650 25916.927083 L 31596.09375 25890.104167 L 31569.010417 25863.020833 L 31541.927083 25809.114583 L 31541.927083 25646.875 L 31569.010417 25592.96875 L 31596.09375 25565.885417 L 31650 25539.0625 L 31758.072917 25539.0625 L 31811.979167 25565.885417 " transform="matrix(0.015,0,0,0.015,0,0)"/>
<path style="fill:none;stroke-width:28;stroke-linecap:round;stroke-linejoin:round;stroke:rgb(0%,0%,0%);stroke-opacity:1;stroke-miterlimit:10;" d="M 32325 25539.0625 L 32325 25997.916667 L 32297.916667 26052.083333 L 32271.09375 26078.90625 L 32216.927083 26105.989583 L 32135.9375 26105.989583 L 32082.03125 26078.90625 " transform="matrix(0.015,0,0,0.015,0,0)"/>
<path style="fill:none;stroke-width:28;stroke-linecap:round;stroke-linejoin:round;stroke:rgb(0%,0%,0%);stroke-opacity:1;stroke-miterlimit:10;" d="M 32325 25890.104167 L 32271.09375 25916.927083 L 32163.020833 25916.927083 L 32109.114583 25890.104167 L 32082.03125 25863.020833 L 32054.947917 25809.114583 L 32054.947917 25646.875 L 32082.03125 25592.96875 L 32109.114583 25565.885417 L 32163.020833 25539.0625 L 32271.09375 25539.0625 L 32325 25565.885417 " transform="matrix(0.015,0,0,0.015,0,0)"/>
<path style="fill:none;stroke-width:28;stroke-linecap:round;stroke-linejoin:round;stroke:rgb(0%,0%,0%);stroke-opacity:1;stroke-miterlimit:10;" d="M 32676.041667 25916.927083 L 32621.875 25890.104167 L 32595.052083 25835.9375 L 32595.052083 25350 " transform="matrix(0.015,0,0,0.015,0,0)"/>
<path style="fill:none;stroke-width:28;stroke-linecap:round;stroke-linejoin:round;stroke:rgb(0%,0%,0%);stroke-opacity:1;stroke-miterlimit:10;" d="M 33108.072917 25890.104167 L 33053.90625 25916.927083 L 32946.09375 25916.927083 L 32891.927083 25890.104167 L 32865.104167 25835.9375 L 32865.104167 25620.052083 L 32891.927083 25565.885417 L 32946.09375 25539.0625 L 33053.90625 25539.0625 L 33108.072917 25565.885417 L 33134.895833 25620.052083 L 33134.895833 25673.958333 L 32865.104167 25728.125 " transform="matrix(0.015,0,0,0.015,0,0)"/>
<path style="fill:none;stroke-width:28;stroke-linecap:round;stroke-linejoin:round;stroke:rgb(0%,0%,0%);stroke-opacity:1;stroke-miterlimit:10;" d="M 30704.947917 26769.010417 L 30759.114583 26796.09375 L 30866.927083 26796.09375 L 30921.09375 26769.010417 L 30947.916667 26715.104167 L 30947.916667 26688.020833 L 30921.09375 26634.114583 L 30866.927083 26607.03125 L 30785.9375 26607.03125 L 30732.03125 26579.947917 L 30704.947917 26526.041667 L 30704.947917 26498.958333 L 30732.03125 26445.052083 L 30785.9375 26417.96875 L 30866.927083 26417.96875 L 30921.09375 26445.052083 " transform="matrix(0.015,0,0,0.015,0,0)"/>
<path style="fill:none;stroke-width:28;stroke-linecap:round;stroke-linejoin:round;stroke:rgb(0%,0%,0%);stroke-opacity:1;stroke-miterlimit:10;" d="M 31136.979167 26417.96875 L 31245.052083 26796.09375 L 31353.125 26526.041667 L 31460.9375 26796.09375 L 31569.010417 26417.96875 " transform="matrix(0.015,0,0,0.015,0,0)"/>
<path style="fill:none;stroke-width:28;stroke-linecap:round;stroke-linejoin:round;stroke:rgb(0%,0%,0%);stroke-opacity:1;stroke-miterlimit:10;" d="M 31784.895833 26796.09375 L 31784.895833 26417.96875 " transform="matrix(0.015,0,0,0.015,0,0)"/>
<path style="fill:none;stroke-width:28;stroke-linecap:round;stroke-linejoin:round;stroke:rgb(0%,0%,0%);stroke-opacity:1;stroke-miterlimit:10;" d="M 31784.895833 26228.90625 L 31758.072917 26255.989583 L 31784.895833 26283.072917 L 31811.979167 26255.989583 L 31784.895833 26228.90625 L 31784.895833 26283.072917 " transform="matrix(0.015,0,0,0.015,0,0)"/>
<path style="fill:none;stroke-width:28;stroke-linecap:round;stroke-linejoin:round;stroke:rgb(0%,0%,0%);stroke-opacity:1;stroke-miterlimit:10;" d="M 31973.958333 26417.96875 L 32190.104167 26417.96875 " transform="matrix(0.015,0,0,0.015,0,0)"/>
<path style="fill:none;stroke-width:28;stroke-linecap:round;stroke-linejoin:round;stroke:rgb(0%,0%,0%);stroke-opacity:1;stroke-miterlimit:10;" d="M 32054.947917 26228.90625 L 32054.947917 26715.104167 L 32082.03125 26769.010417 L 32135.9375 26796.09375 L 32190.104167 26796.09375 " transform="matrix(0.015,0,0,0.015,0,0)"/>
<path style="fill:none;stroke-width:28;stroke-linecap:round;stroke-linejoin:round;stroke:rgb(0%,0%,0%);stroke-opacity:1;stroke-miterlimit:10;" d="M 32621.875 26769.010417 L 32567.96875 26796.09375 L 32459.895833 26796.09375 L 32405.989583 26769.010417 L 32378.90625 26741.927083 L 32352.083333 26688.020833 L 32352.083333 26526.041667 L 32378.90625 26471.875 L 32405.989583 26445.052083 L 32459.895833 26417.96875 L 32567.96875 26417.96875 L 32621.875 26445.052083 " transform="matrix(0.015,0,0,0.015,0,0)"/>
<path style="fill:none;stroke-width:28;stroke-linecap:round;stroke-linejoin:round;stroke:rgb(0%,0%,0%);stroke-opacity:1;stroke-miterlimit:10;" d="M 32865.104167 26796.09375 L 32865.104167 26228.90625 " transform="matrix(0.015,0,0,0.015,0,0)"/>
<path style="fill:none;stroke-width:28;stroke-linecap:round;stroke-linejoin:round;stroke:rgb(0%,0%,0%);stroke-opacity:1;stroke-miterlimit:10;" d="M 33108.072917 26796.09375 L 33108.072917 26498.958333 L 33080.989583 26445.052083 L 33027.083333 26417.96875 L 32946.09375 26417.96875 L 32891.927083 26445.052083 L 32865.104167 26471.875 " transform="matrix(0.015,0,0,0.015,0,0)"/>
<path style="fill:none;stroke-width:28;stroke-linecap:round;stroke-linejoin:round;stroke:rgb(0%,0%,0%);stroke-opacity:1;stroke-miterlimit:10;" d="M 30959.895833 23579.947917 L 32879.947917 23579.947917 " transform="matrix(0.015,0,0,0.015,0,0)"/>
<path style="fill:none;stroke-width:28;stroke-linecap:round;stroke-linejoin:round;stroke:rgb(0%,0%,0%);stroke-opacity:1;stroke-miterlimit:10;" d="M 31920.052083 24540.104167 L 31920.052083 22620.052083 " transform="matrix(0.015,0,0,0.015,0,0)"/>
<path style="fill:none;stroke-width:28;stroke-linecap:round;stroke-linejoin:round;stroke:rgb(0%,0%,0%);stroke-opacity:1;stroke-miterlimit:10;" d="M 30959.895833 27659.895833 L 32879.947917 27659.895833 " transform="matrix(0.015,0,0,0.015,0,0)"/>
<path style="fill:none;stroke-width:28;stroke-linecap:round;stroke-linejoin:round;stroke:rgb(0%,0%,0%);stroke-opacity:1;stroke-miterlimit:10;" d="M 31920.052083 28620.052083 L 31920.052083 26700 " transform="matrix(0.015,0,0,0.015,0,0)"/>
<path style="fill:none;stroke-width:28;stroke-linecap:round;stroke-linejoin:round;stroke:rgb(0%,0%,0%);stroke-opacity:1;stroke-miterlimit:10;" d="M 32496.614583 27659.895833 C 32496.614583 27865.885417 32386.71875 28056.25 32208.333333 28159.375 C 32029.947917 28262.239583 31810.15625 28262.239583 31631.770833 28159.375 C 31453.385417 28056.25 31343.489583 27865.885417 31343.489583 27659.895833 C 31343.489583 27453.90625 31453.385417 27263.802083 31631.770833 27160.677083 C 31810.15625 27057.8125 32029.947917 27057.8125 32208.333333 27160.677083 C 32386.71875 27263.802083 32496.614583 27453.90625 32496.614583 27659.895833 Z M 32496.614583 27659.895833 " transform="matrix(0.015,0,0,0.015,0,0)"/>
<path style="fill:none;stroke-width:28;stroke-linecap:round;stroke-linejoin:round;stroke:rgb(0%,0%,0%);stroke-opacity:1;stroke-miterlimit:10;" d="M 32591.40625 23579.947917 C 32591.40625 23819.791667 32463.541667 24041.666667 32255.729167 24161.458333 C 32047.916667 24281.510417 31791.927083 24281.510417 31584.375 24161.458333 C 31376.5625 24041.666667 31248.4375 23819.791667 31248.4375 23579.947917 C 31248.4375 23340.104167 31376.5625 23118.489583 31584.375 22998.4375 C 31791.927083 22878.385417 32047.916667 22878.385417 32255.729167 22998.4375 C 32463.541667 23118.489583 32591.40625 23340.104167 32591.40625 23579.947917 Z M 32591.40625 23579.947917 " transform="matrix(0.015,0,0,0.015,0,0)"/>
<path style="fill:none;stroke-width:28;stroke-linecap:round;stroke-linejoin:round;stroke:rgb(0%,0%,0%);stroke-opacity:1;stroke-miterlimit:10;" d="M 24294.010417 33898.958333 L 24509.895833 33898.958333 " transform="matrix(0.015,0,0,0.015,0,0)"/>
<path style="fill:none;stroke-width:28;stroke-linecap:round;stroke-linejoin:round;stroke:rgb(0%,0%,0%);stroke-opacity:1;stroke-miterlimit:10;" d="M 24375 34276.041667 L 24375 33790.885417 L 24402.083333 33736.979167 L 24455.989583 33709.895833 L 24509.895833 33709.895833 " transform="matrix(0.015,0,0,0.015,0,0)"/>
<path style="fill:none;stroke-width:28;stroke-linecap:round;stroke-linejoin:round;stroke:rgb(0%,0%,0%);stroke-opacity:1;stroke-miterlimit:10;" d="M 24779.947917 34276.041667 L 24726.041667 34248.958333 L 24698.958333 34221.875 L 24671.875 34167.96875 L 24671.875 34007.03125 L 24698.958333 33953.125 L 24726.041667 33926.041667 L 24779.947917 33898.958333 L 24860.9375 33898.958333 L 24915.104167 33926.041667 L 24941.927083 33953.125 L 24969.010417 34007.03125 L 24969.010417 34167.96875 L 24941.927083 34221.875 L 24915.104167 34248.958333 L 24860.9375 34276.041667 L 24779.947917 34276.041667 " transform="matrix(0.015,0,0,0.015,0,0)"/>
<path style="fill:none;stroke-width:28;stroke-linecap:round;stroke-linejoin:round;stroke:rgb(0%,0%,0%);stroke-opacity:1;stroke-miterlimit:10;" d="M 25292.96875 34276.041667 L 25239.0625 34248.958333 L 25211.979167 34221.875 L 25184.895833 34167.96875 L 25184.895833 34007.03125 L 25211.979167 33953.125 L 25239.0625 33926.041667 L 25292.96875 33898.958333 L 25373.958333 33898.958333 L 25428.125 33926.041667 L 25454.947917 33953.125 L 25482.03125 34007.03125 L 25482.03125 34167.96875 L 25454.947917 34221.875 L 25428.125 34248.958333 L 25373.958333 34276.041667 L 25292.96875 34276.041667 " transform="matrix(0.015,0,0,0.015,0,0)"/>
<path style="fill:none;stroke-width:28;stroke-linecap:round;stroke-linejoin:round;stroke:rgb(0%,0%,0%);stroke-opacity:1;stroke-miterlimit:10;" d="M 25644.010417 33898.958333 L 25859.895833 33898.958333 " transform="matrix(0.015,0,0,0.015,0,0)"/>
<path style="fill:none;stroke-width:28;stroke-linecap:round;stroke-linejoin:round;stroke:rgb(0%,0%,0%);stroke-opacity:1;stroke-miterlimit:10;" d="M 25725 33709.895833 L 25725 34195.052083 L 25752.083333 34248.958333 L 25805.989583 34276.041667 L 25859.895833 34276.041667 " transform="matrix(0.015,0,0,0.015,0,0)"/>
<path style="fill:none;stroke-width:28;stroke-linecap:round;stroke-linejoin:round;stroke:rgb(0%,0%,0%);stroke-opacity:1;stroke-miterlimit:10;" d="M 26021.875 34248.958333 L 26076.041667 34276.041667 L 26184.114583 34276.041667 L 26238.020833 34248.958333 L 26265.104167 34195.052083 L 26265.104167 34167.96875 L 26238.020833 34114.0625 L 26184.114583 34086.979167 L 26103.125 34086.979167 L 26048.958333 34059.895833 L 26021.875 34007.03125 L 26021.875 33979.947917 L 26048.958333 33926.041667 L 26103.125 33898.958333 L 26184.114583 33898.958333 L 26238.020833 33926.041667 " transform="matrix(0.015,0,0,0.015,0,0)"/>
<path style="fill:none;stroke-width:28;stroke-linecap:round;stroke-linejoin:round;stroke:rgb(0%,0%,0%);stroke-opacity:1;stroke-miterlimit:10;" d="M 26453.90625 33898.958333 L 26561.979167 34276.041667 L 26670.052083 34007.03125 L 26778.125 34276.041667 L 26885.9375 33898.958333 " transform="matrix(0.015,0,0,0.015,0,0)"/>
<path style="fill:none;stroke-width:28;stroke-linecap:round;stroke-linejoin:round;stroke:rgb(0%,0%,0%);stroke-opacity:1;stroke-miterlimit:10;" d="M 27102.083333 34276.041667 L 27102.083333 33898.958333 " transform="matrix(0.015,0,0,0.015,0,0)"/>
<path style="fill:none;stroke-width:28;stroke-linecap:round;stroke-linejoin:round;stroke:rgb(0%,0%,0%);stroke-opacity:1;stroke-miterlimit:10;" d="M 27102.083333 33709.895833 L 27075 33736.979167 L 27102.083333 33764.0625 L 27128.90625 33736.979167 L 27102.083333 33709.895833 L 27102.083333 33764.0625 " transform="matrix(0.015,0,0,0.015,0,0)"/>
<path style="fill:none;stroke-width:28;stroke-linecap:round;stroke-linejoin:round;stroke:rgb(0%,0%,0%);stroke-opacity:1;stroke-miterlimit:10;" d="M 27290.885417 33898.958333 L 27507.03125 33898.958333 " transform="matrix(0.015,0,0,0.015,0,0)"/>
<path style="fill:none;stroke-width:28;stroke-linecap:round;stroke-linejoin:round;stroke:rgb(0%,0%,0%);stroke-opacity:1;stroke-miterlimit:10;" d="M 27371.875 33709.895833 L 27371.875 34195.052083 L 27398.958333 34248.958333 L 27453.125 34276.041667 L 27507.03125 34276.041667 " transform="matrix(0.015,0,0,0.015,0,0)"/>
<path style="fill:none;stroke-width:28;stroke-linecap:round;stroke-linejoin:round;stroke:rgb(0%,0%,0%);stroke-opacity:1;stroke-miterlimit:10;" d="M 27939.0625 34248.958333 L 27884.895833 34276.041667 L 27777.083333 34276.041667 L 27722.916667 34248.958333 L 27696.09375 34221.875 L 27669.010417 34167.96875 L 27669.010417 34007.03125 L 27696.09375 33953.125 L 27722.916667 33926.041667 L 27777.083333 33898.958333 L 27884.895833 33898.958333 L 27939.0625 33926.041667 " transform="matrix(0.015,0,0,0.015,0,0)"/>
<path style="fill:none;stroke-width:28;stroke-linecap:round;stroke-linejoin:round;stroke:rgb(0%,0%,0%);stroke-opacity:1;stroke-miterlimit:10;" d="M 28182.03125 34276.041667 L 28182.03125 33709.895833 " transform="matrix(0.015,0,0,0.015,0,0)"/>
<path style="fill:none;stroke-width:28;stroke-linecap:round;stroke-linejoin:round;stroke:rgb(0%,0%,0%);stroke-opacity:1;stroke-miterlimit:10;" d="M 28425 34276.041667 L 28425 33979.947917 L 28397.916667 33926.041667 L 28344.010417 33898.958333 L 28263.020833 33898.958333 L 28209.114583 33926.041667 L 28182.03125 33953.125 " transform="matrix(0.015,0,0,0.015,0,0)"/>
<path style="fill:none;stroke-width:28;stroke-linecap:round;stroke-linejoin:round;stroke:rgb(0%,0%,0%);stroke-opacity:1;stroke-miterlimit:10;" d="M 25440.104167 32459.895833 L 27359.895833 32459.895833 " transform="matrix(0.015,0,0,0.015,0,0)"/>
<path style="fill:none;stroke-width:28;stroke-linecap:round;stroke-linejoin:round;stroke:rgb(0%,0%,0%);stroke-opacity:1;stroke-miterlimit:10;" d="M 26400 33420.052083 L 26400 31500 " transform="matrix(0.015,0,0,0.015,0,0)"/>
<path style="fill:none;stroke-width:28;stroke-linecap:round;stroke-linejoin:round;stroke:rgb(0%,0%,0%);stroke-opacity:1;stroke-miterlimit:10;" d="M 18359.895833 34740.104167 L 34440.104167 34740.104167 " transform="matrix(0.015,0,0,0.015,0,0)"/>
<path style="fill:none;stroke-width:28;stroke-linecap:round;stroke-linejoin:round;stroke:rgb(0%,0%,0%);stroke-opacity:1;stroke-miterlimit:10;" d="M 27171.614583 32459.895833 C 27171.614583 32735.677083 27024.479167 32990.364583 26785.677083 33128.125 C 26547.135417 33265.885417 26252.864583 33265.885417 26014.322917 33128.125 C 25775.520833 32990.364583 25628.385417 32735.677083 25628.385417 32459.895833 C 25628.385417 32184.375 25775.520833 31929.6875 26014.322917 31791.927083 C 26252.864583 31654.166667 26547.135417 31654.166667 26785.677083 31791.927083 C 27024.479167 31929.6875 27171.614583 32184.375 27171.614583 32459.895833 Z M 27171.614583 32459.895833 " transform="matrix(0.015,0,0,0.015,0,0)"/>
<path style="fill:none;stroke-width:28;stroke-linecap:round;stroke-linejoin:round;stroke:rgb(0%,0%,0%);stroke-opacity:1;stroke-miterlimit:10;" d="M 18740.885417 31396.09375 L 18740.885417 30829.947917 L 18929.947917 31234.114583 L 19119.010417 30829.947917 L 19119.010417 31396.09375 " transform="matrix(0.015,0,0,0.015,0,0)"/>
<path style="fill:none;stroke-width:28;stroke-linecap:round;stroke-linejoin:round;stroke:rgb(0%,0%,0%);stroke-opacity:1;stroke-miterlimit:10;" d="M 19334.895833 30829.947917 L 19685.9375 30829.947917 L 19496.875 31046.09375 L 19578.125 31046.09375 L 19632.03125 31072.916667 L 19659.114583 31100 L 19685.9375 31153.125 L 19685.9375 31288.020833 L 19659.114583 31341.927083 L 19632.03125 31369.010417 L 19578.125 31396.09375 L 19415.885417 31396.09375 L 19361.979167 31369.010417 L 19334.895833 31341.927083 " transform="matrix(0.015,0,0,0.015,0,0)"/>
<path style="fill:none;stroke-width:28;stroke-linecap:round;stroke-linejoin:round;stroke:rgb(0%,0%,0%);stroke-opacity:1;stroke-miterlimit:10;" d="M 18240.104167 32459.895833 L 20159.895833 32459.895833 " transform="matrix(0.015,0,0,0.015,0,0)"/>
<path style="fill:none;stroke-width:28;stroke-linecap:round;stroke-linejoin:round;stroke:rgb(0%,0%,0%);stroke-opacity:1;stroke-miterlimit:10;" d="M 19200 33420.052083 L 19200 31500 " transform="matrix(0.015,0,0,0.015,0,0)"/>
<path style="fill:none;stroke-width:28;stroke-linecap:round;stroke-linejoin:round;stroke:rgb(0%,0%,0%);stroke-opacity:1;stroke-miterlimit:10;" d="M 19493.489583 32459.895833 C 19493.489583 32622.135417 19361.979167 32753.385417 19200 32753.385417 C 19038.020833 32753.385417 18906.510417 32622.135417 18906.510417 32459.895833 C 18906.510417 32297.916667 19038.020833 32166.40625 19200 32166.40625 C 19361.979167 32166.40625 19493.489583 32297.916667 19493.489583 32459.895833 Z M 19493.489583 32459.895833 " transform="matrix(0.015,0,0,0.015,0,0)"/>
<path style="fill:none;stroke-width:28;stroke-linecap:round;stroke-linejoin:round;stroke:rgb(0%,0%,0%);stroke-opacity:1;stroke-miterlimit:10;" d="M 18360.416667 34740.625 C 18233.072917 34740.625 18111.197917 34689.84375 18021.09375 34600 C 17930.989583 34509.895833 17880.46875 34387.760417 17880.46875 34260.416667 " transform="matrix(0.015,0,0,0.015,0,0)"/>
<path style="fill:none;stroke-width:28;stroke-linecap:round;stroke-linejoin:round;stroke:rgb(0%,0%,0%);stroke-opacity:1;stroke-miterlimit:10;" d="M 17879.947917 13379.947917 L 17879.947917 34259.895833 " transform="matrix(0.015,0,0,0.015,0,0)"/>
<path style="fill:none;stroke-width:28;stroke-linecap:round;stroke-linejoin:round;stroke:rgb(0%,0%,0%);stroke-opacity:1;stroke-miterlimit:10;" d="M 34920.052083 13379.947917 L 34920.052083 34259.895833 " transform="matrix(0.015,0,0,0.015,0,0)"/>
<path style="fill:none;stroke-width:28;stroke-linecap:round;stroke-linejoin:round;stroke:rgb(0%,0%,0%);stroke-opacity:1;stroke-miterlimit:10;" d="M 33140.885417 31396.09375 L 33140.885417 30829.947917 L 33329.947917 31234.114583 L 33519.010417 30829.947917 L 33519.010417 31396.09375 " transform="matrix(0.015,0,0,0.015,0,0)"/>
<path style="fill:none;stroke-width:28;stroke-linecap:round;stroke-linejoin:round;stroke:rgb(0%,0%,0%);stroke-opacity:1;stroke-miterlimit:10;" d="M 33734.895833 30829.947917 L 34085.9375 30829.947917 L 33896.875 31046.09375 L 33978.125 31046.09375 L 34032.03125 31072.916667 L 34059.114583 31100 L 34085.9375 31153.125 L 34085.9375 31288.020833 L 34059.114583 31341.927083 L 34032.03125 31369.010417 L 33978.125 31396.09375 L 33815.885417 31396.09375 L 33761.979167 31369.010417 L 33734.895833 31341.927083 " transform="matrix(0.015,0,0,0.015,0,0)"/>
<path style="fill:none;stroke-width:28;stroke-linecap:round;stroke-linejoin:round;stroke:rgb(0%,0%,0%);stroke-opacity:1;stroke-miterlimit:10;" d="M 32640.104167 32459.895833 L 34559.895833 32459.895833 " transform="matrix(0.015,0,0,0.015,0,0)"/>
<path style="fill:none;stroke-width:28;stroke-linecap:round;stroke-linejoin:round;stroke:rgb(0%,0%,0%);stroke-opacity:1;stroke-miterlimit:10;" d="M 33600 33420.052083 L 33600 31500 " transform="matrix(0.015,0,0,0.015,0,0)"/>
<path style="fill:none;stroke-width:28;stroke-linecap:round;stroke-linejoin:round;stroke:rgb(0%,0%,0%);stroke-opacity:1;stroke-miterlimit:10;" d="M 33893.489583 32459.895833 C 33893.489583 32622.135417 33761.979167 32753.385417 33600 32753.385417 C 33438.020833 32753.385417 33306.510417 32622.135417 33306.510417 32459.895833 C 33306.510417 32297.916667 33438.020833 32166.40625 33600 32166.40625 C 33761.979167 32166.40625 33893.489583 32297.916667 33893.489583 32459.895833 Z M 33893.489583 32459.895833 " transform="matrix(0.015,0,0,0.015,0,0)"/>
<path style="fill:none;stroke-width:28;stroke-linecap:round;stroke-linejoin:round;stroke:rgb(0%,0%,0%);stroke-opacity:1;stroke-miterlimit:10;" d="M 34920.572917 34260.416667 C 34920.572917 34387.760417 34870.052083 34509.895833 34779.947917 34600 C 34689.84375 34689.84375 34567.708333 34740.625 34440.625 34740.625 " transform="matrix(0.015,0,0,0.015,0,0)"/>
<path style="fill:none;stroke-width:28;stroke-linecap:round;stroke-linejoin:round;stroke:rgb(0%,0%,0%);stroke-opacity:1;stroke-miterlimit:10;" d="M 21914.0625 30829.947917 L 21644.010417 30829.947917 L 21616.927083 31100 L 21644.010417 31072.916667 L 21697.916667 31046.09375 L 21833.072917 31046.09375 L 21886.979167 31072.916667 L 21914.0625 31100 L 21940.885417 31153.125 L 21940.885417 31288.020833 L 21914.0625 31341.927083 L 21886.979167 31369.010417 L 21833.072917 31396.09375 L 21697.916667 31396.09375 L 21644.010417 31369.010417 L 21616.927083 31341.927083 " transform="matrix(0.015,0,0,0.015,0,0)"/>
<path style="fill:none;stroke-width:28;stroke-linecap:round;stroke-linejoin:round;stroke:rgb(0%,0%,0%);stroke-opacity:1;stroke-miterlimit:10;" d="M 22184.114583 31396.09375 L 22184.114583 31019.010417 " transform="matrix(0.015,0,0,0.015,0,0)"/>
<path style="fill:none;stroke-width:28;stroke-linecap:round;stroke-linejoin:round;stroke:rgb(0%,0%,0%);stroke-opacity:1;stroke-miterlimit:10;" d="M 22184.114583 31072.916667 L 22210.9375 31046.09375 L 22265.104167 31019.010417 L 22346.09375 31019.010417 L 22400 31046.09375 L 22427.083333 31100 L 22427.083333 31396.09375 " transform="matrix(0.015,0,0,0.015,0,0)"/>
<path style="fill:none;stroke-width:28;stroke-linecap:round;stroke-linejoin:round;stroke:rgb(0%,0%,0%);stroke-opacity:1;stroke-miterlimit:10;" d="M 22427.083333 31100 L 22453.90625 31046.09375 L 22508.072917 31019.010417 L 22589.0625 31019.010417 L 22642.96875 31046.09375 L 22670.052083 31100 L 22670.052083 31396.09375 " transform="matrix(0.015,0,0,0.015,0,0)"/>
<path style="fill:none;stroke-width:28;stroke-linecap:round;stroke-linejoin:round;stroke:rgb(0%,0%,0%);stroke-opacity:1;stroke-miterlimit:10;" d="M 22940.104167 31396.09375 L 22940.104167 31019.010417 " transform="matrix(0.015,0,0,0.015,0,0)"/>
<path style="fill:none;stroke-width:28;stroke-linecap:round;stroke-linejoin:round;stroke:rgb(0%,0%,0%);stroke-opacity:1;stroke-miterlimit:10;" d="M 22940.104167 31072.916667 L 22966.927083 31046.09375 L 23021.09375 31019.010417 L 23102.083333 31019.010417 L 23155.989583 31046.09375 L 23183.072917 31100 L 23183.072917 31396.09375 " transform="matrix(0.015,0,0,0.015,0,0)"/>
<path style="fill:none;stroke-width:28;stroke-linecap:round;stroke-linejoin:round;stroke:rgb(0%,0%,0%);stroke-opacity:1;stroke-miterlimit:10;" d="M 23183.072917 31100 L 23209.895833 31046.09375 L 23264.0625 31019.010417 L 23345.052083 31019.010417 L 23398.958333 31046.09375 L 23426.041667 31100 L 23426.041667 31396.09375 " transform="matrix(0.015,0,0,0.015,0,0)"/>
<path style="fill:none;stroke-width:28;stroke-linecap:round;stroke-linejoin:round;stroke:rgb(0%,0%,0%);stroke-opacity:1;stroke-miterlimit:10;" d="M 24396.875 31396.09375 L 24127.083333 31396.09375 L 24127.083333 30829.947917 " transform="matrix(0.015,0,0,0.015,0,0)"/>
<path style="fill:none;stroke-width:28;stroke-linecap:round;stroke-linejoin:round;stroke:rgb(0%,0%,0%);stroke-opacity:1;stroke-miterlimit:10;" d="M 24585.9375 31100 L 24775 31100 " transform="matrix(0.015,0,0,0.015,0,0)"/>
<path style="fill:none;stroke-width:28;stroke-linecap:round;stroke-linejoin:round;stroke:rgb(0%,0%,0%);stroke-opacity:1;stroke-miterlimit:10;" d="M 24855.989583 31396.09375 L 24585.9375 31396.09375 L 24585.9375 30829.947917 L 24855.989583 30829.947917 " transform="matrix(0.015,0,0,0.015,0,0)"/>
<path style="fill:none;stroke-width:28;stroke-linecap:round;stroke-linejoin:round;stroke:rgb(0%,0%,0%);stroke-opacity:1;stroke-miterlimit:10;" d="M 25098.958333 31396.09375 L 25098.958333 30829.947917 L 25234.114583 30829.947917 L 25315.104167 30857.03125 L 25369.010417 30910.9375 L 25396.09375 30965.104167 L 25422.916667 31072.916667 L 25422.916667 31153.125 L 25396.09375 31260.9375 L 25369.010417 31315.104167 L 25315.104167 31369.010417 L 25234.114583 31396.09375 L 25098.958333 31396.09375 " transform="matrix(0.015,0,0,0.015,0,0)"/>
<path style="fill:none;stroke-width:28;stroke-linecap:round;stroke-linejoin:round;stroke:rgb(0%,0%,0%);stroke-opacity:1;stroke-miterlimit:10;" d="M 22559.895833 32459.895833 L 24479.947917 32459.895833 " transform="matrix(0.015,0,0,0.015,0,0)"/>
<path style="fill:none;stroke-width:28;stroke-linecap:round;stroke-linejoin:round;stroke:rgb(0%,0%,0%);stroke-opacity:1;stroke-miterlimit:10;" d="M 23520.052083 33420.052083 L 23520.052083 31500 " transform="matrix(0.015,0,0,0.015,0,0)"/>
<path style="fill:none;stroke-width:28;stroke-linecap:round;stroke-linejoin:round;stroke:rgb(0%,0%,0%);stroke-opacity:1;stroke-miterlimit:10;" d="M 24002.604167 32459.895833 C 24002.604167 32632.291667 23910.416667 32791.666667 23761.197917 32877.864583 C 23611.979167 32964.0625 23428.125 32964.0625 23278.645833 32877.864583 C 23129.427083 32791.666667 23037.5 32632.291667 23037.5 32459.895833 C 23037.5 32287.5 23129.427083 32128.385417 23278.645833 32042.1875 C 23428.125 31955.989583 23611.979167 31955.989583 23761.197917 32042.1875 C 23910.416667 32128.385417 24002.604167 32287.5 24002.604167 32459.895833 Z M 24002.604167 32459.895833 " transform="matrix(0.015,0,0,0.015,0,0)"/>
</g>
</svg>
