%FSLAX45Y45*%
G04 Gerber Fmt 4.5, Leading zero omitted, Abs format (unit mm)*
G04 Created by KiCad (PCBNEW 5.1.10-88a1d61d58~88~ubuntu20.04.1) date 2021-06-29 16:29:38*
%MOMM*%
%LPD*%
G01*
G04 APERTURE LIST*
%TA.AperFunction,Profile*%
%ADD10C,0.050000*%
%TD*%
%ADD11C,0.200000*%
%ADD12C,0.300000*%
G04 APERTURE END LIST*
D10*
X10415000Y-12700000D02*
G75*
G03*
X10415000Y-12700000I-255000J0D01*
G01*
X12164000Y-12700000D02*
G75*
G03*
X12164000Y-12700000I-480000J0D01*
G01*
X12039000Y-10160000D02*
G75*
G03*
X12039000Y-10160000I-355000J0D01*
G01*
X9118000Y-9271000D02*
G75*
G03*
X9118000Y-9271000I-355000J0D01*
G01*
X14910000Y-10160000D02*
G75*
G03*
X14910000Y-10160000I-305000J0D01*
G01*
X14960000Y-8001000D02*
G75*
G03*
X14960000Y-8001000I-355000J0D01*
G01*
X12039000Y-8001000D02*
G75*
G03*
X12039000Y-8001000I-355000J0D01*
G01*
X9118000Y-7112000D02*
G75*
G03*
X9118000Y-7112000I-355000J0D01*
G01*
X12039000Y-5842000D02*
G75*
G03*
X12039000Y-5842000I-355000J0D01*
G01*
X14960000Y-5842000D02*
G75*
G03*
X14960000Y-5842000I-355000J0D01*
G01*
X15494000Y-3556000D02*
G75*
G02*
X16002000Y-4064000I0J-508000D01*
G01*
X16002000Y-13208000D02*
G75*
G02*
X15494000Y-13716000I-508000J0D01*
G01*
X7874000Y-13716000D02*
G75*
G02*
X7366000Y-13208000I0J508000D01*
G01*
X7366000Y-4064000D02*
G75*
G02*
X7874000Y-3556000I508000J0D01*
G01*
X15494000Y-3556000D02*
X7874000Y-3556000D01*
X16002000Y-13208000D02*
X16002000Y-4064000D01*
X7874000Y-13716000D02*
X15494000Y-13716000D01*
X7366000Y-4064000D02*
X7366000Y-13208000D01*
D11*
D12*
X7649928Y-14184214D02*
X7649928Y-13884214D01*
X7721357Y-13884214D01*
X7764214Y-13898500D01*
X7792786Y-13927071D01*
X7807071Y-13955643D01*
X7821357Y-14012786D01*
X7821357Y-14055643D01*
X7807071Y-14112786D01*
X7792786Y-14141357D01*
X7764214Y-14169929D01*
X7721357Y-14184214D01*
X7649928Y-14184214D01*
X7949928Y-14184214D02*
X7949928Y-13984214D01*
X7949928Y-14041357D02*
X7964214Y-14012786D01*
X7978500Y-13998500D01*
X8007071Y-13984214D01*
X8035643Y-13984214D01*
X8135643Y-14184214D02*
X8135643Y-13984214D01*
X8135643Y-13884214D02*
X8121357Y-13898500D01*
X8135643Y-13912786D01*
X8149928Y-13898500D01*
X8135643Y-13884214D01*
X8135643Y-13912786D01*
X8321357Y-14184214D02*
X8292786Y-14169929D01*
X8278500Y-14141357D01*
X8278500Y-13884214D01*
X8478500Y-14184214D02*
X8449928Y-14169929D01*
X8435643Y-14141357D01*
X8435643Y-13884214D01*
X8821357Y-14184214D02*
X8821357Y-13884214D01*
X8921357Y-14098500D01*
X9021357Y-13884214D01*
X9021357Y-14184214D01*
X9292786Y-14184214D02*
X9292786Y-14027071D01*
X9278500Y-13998500D01*
X9249928Y-13984214D01*
X9192786Y-13984214D01*
X9164214Y-13998500D01*
X9292786Y-14169929D02*
X9264214Y-14184214D01*
X9192786Y-14184214D01*
X9164214Y-14169929D01*
X9149928Y-14141357D01*
X9149928Y-14112786D01*
X9164214Y-14084214D01*
X9192786Y-14069929D01*
X9264214Y-14069929D01*
X9292786Y-14055643D01*
X9435643Y-13984214D02*
X9435643Y-14284214D01*
X9435643Y-13998500D02*
X9464214Y-13984214D01*
X9521357Y-13984214D01*
X9549928Y-13998500D01*
X9564214Y-14012786D01*
X9578500Y-14041357D01*
X9578500Y-14127071D01*
X9564214Y-14155643D01*
X9549928Y-14169929D01*
X9521357Y-14184214D01*
X9464214Y-14184214D01*
X9435643Y-14169929D01*
X9707071Y-14155643D02*
X9721357Y-14169929D01*
X9707071Y-14184214D01*
X9692786Y-14169929D01*
X9707071Y-14155643D01*
X9707071Y-14184214D01*
X9707071Y-13998500D02*
X9721357Y-14012786D01*
X9707071Y-14027071D01*
X9692786Y-14012786D01*
X9707071Y-13998500D01*
X9707071Y-14027071D01*
M02*
