G04 #@! TF.GenerationSoftware,KiCad,Pcbnew,5.1.10-88a1d61d58~88~ubuntu20.04.1*
G04 #@! TF.CreationDate,2021-06-29T16:29:24-04:00*
G04 #@! TF.ProjectId,whooshy_sound_front_panel,77686f6f-7368-4795-9f73-6f756e645f66,0*
G04 #@! TF.SameCoordinates,Original*
G04 #@! TF.FileFunction,Legend,Bot*
G04 #@! TF.FilePolarity,Positive*
%FSLAX46Y46*%
G04 Gerber Fmt 4.6, Leading zero omitted, Abs format (unit mm)*
G04 Created by KiCad (PCBNEW 5.1.10-88a1d61d58~88~ubuntu20.04.1) date 2021-06-29 16:29:24*
%MOMM*%
%LPD*%
G01*
G04 APERTURE LIST*
%ADD10C,0.200000*%
%ADD11C,6.500000*%
%ADD12C,0.900000*%
G04 APERTURE END LIST*
D10*
X126078095Y-39544761D02*
X126078095Y-40973333D01*
X126173333Y-41259047D01*
X126363809Y-41449523D01*
X126649523Y-41544761D01*
X126840000Y-41544761D01*
X124173333Y-41544761D02*
X125125714Y-41544761D01*
X125125714Y-39544761D01*
X122363809Y-41354285D02*
X122459047Y-41449523D01*
X122744761Y-41544761D01*
X122935238Y-41544761D01*
X123220952Y-41449523D01*
X123411428Y-41259047D01*
X123506666Y-41068571D01*
X123601904Y-40687619D01*
X123601904Y-40401904D01*
X123506666Y-40020952D01*
X123411428Y-39830476D01*
X123220952Y-39640000D01*
X122935238Y-39544761D01*
X122744761Y-39544761D01*
X122459047Y-39640000D01*
X122363809Y-39735238D01*
X120935238Y-39544761D02*
X120935238Y-40973333D01*
X121030476Y-41259047D01*
X121220952Y-41449523D01*
X121506666Y-41544761D01*
X121697142Y-41544761D01*
X119030476Y-41544761D02*
X119982857Y-41544761D01*
X119982857Y-39544761D01*
X117220952Y-41354285D02*
X117316190Y-41449523D01*
X117601904Y-41544761D01*
X117792380Y-41544761D01*
X118078095Y-41449523D01*
X118268571Y-41259047D01*
X118363809Y-41068571D01*
X118459047Y-40687619D01*
X118459047Y-40401904D01*
X118363809Y-40020952D01*
X118268571Y-39830476D01*
X118078095Y-39640000D01*
X117792380Y-39544761D01*
X117601904Y-39544761D01*
X117316190Y-39640000D01*
X117220952Y-39735238D01*
X115792380Y-39544761D02*
X115792380Y-40973333D01*
X115887619Y-41259047D01*
X116078095Y-41449523D01*
X116363809Y-41544761D01*
X116554285Y-41544761D01*
X113887619Y-41544761D02*
X114840000Y-41544761D01*
X114840000Y-39544761D01*
X112078095Y-41354285D02*
X112173333Y-41449523D01*
X112459047Y-41544761D01*
X112649523Y-41544761D01*
X112935238Y-41449523D01*
X113125714Y-41259047D01*
X113220952Y-41068571D01*
X113316190Y-40687619D01*
X113316190Y-40401904D01*
X113220952Y-40020952D01*
X113125714Y-39830476D01*
X112935238Y-39640000D01*
X112649523Y-39544761D01*
X112459047Y-39544761D01*
X112173333Y-39640000D01*
X112078095Y-39735238D01*
X110649523Y-39544761D02*
X110649523Y-40973333D01*
X110744761Y-41259047D01*
X110935238Y-41449523D01*
X111220952Y-41544761D01*
X111411428Y-41544761D01*
X108744761Y-41544761D02*
X109697142Y-41544761D01*
X109697142Y-39544761D01*
X106935238Y-41354285D02*
X107030476Y-41449523D01*
X107316190Y-41544761D01*
X107506666Y-41544761D01*
X107792380Y-41449523D01*
X107982857Y-41259047D01*
X108078095Y-41068571D01*
X108173333Y-40687619D01*
X108173333Y-40401904D01*
X108078095Y-40020952D01*
X107982857Y-39830476D01*
X107792380Y-39640000D01*
X107506666Y-39544761D01*
X107316190Y-39544761D01*
X107030476Y-39640000D01*
X106935238Y-39735238D01*
%LPC*%
D11*
X154940000Y-40640000D03*
D12*
X157340000Y-40640000D03*
X156637056Y-42337056D03*
X154940000Y-43040000D03*
X153242944Y-42337056D03*
X152540000Y-40640000D03*
X153242944Y-38942944D03*
X154940000Y-38240000D03*
X156637056Y-38942944D03*
D11*
X78740000Y-40640000D03*
D12*
X81140000Y-40640000D03*
X80437056Y-42337056D03*
X78740000Y-43040000D03*
X77042944Y-42337056D03*
X76340000Y-40640000D03*
X77042944Y-38942944D03*
X78740000Y-38240000D03*
X80437056Y-38942944D03*
X156637056Y-125302944D03*
X154940000Y-124600000D03*
X153242944Y-125302944D03*
X152540000Y-127000000D03*
X153242944Y-128697056D03*
X154940000Y-129400000D03*
X156637056Y-128697056D03*
X157340000Y-127000000D03*
D11*
X154940000Y-127000000D03*
D12*
X80437056Y-125302944D03*
X78740000Y-124600000D03*
X77042944Y-125302944D03*
X76340000Y-127000000D03*
X77042944Y-128697056D03*
X78740000Y-129400000D03*
X80437056Y-128697056D03*
X81140000Y-127000000D03*
D11*
X78740000Y-127000000D03*
M02*
