G04 #@! TF.GenerationSoftware,KiCad,Pcbnew,5.1.10-88a1d61d58~88~ubuntu20.04.1*
G04 #@! TF.CreationDate,2021-06-29T16:29:24-04:00*
G04 #@! TF.ProjectId,whooshy_sound_front_panel,77686f6f-7368-4795-9f73-6f756e645f66,0*
G04 #@! TF.SameCoordinates,Original*
G04 #@! TF.FileFunction,Legend,Top*
G04 #@! TF.FilePolarity,Positive*
%FSLAX46Y46*%
G04 Gerber Fmt 4.6, Leading zero omitted, Abs format (unit mm)*
G04 Created by KiCad (PCBNEW 5.1.10-88a1d61d58~88~ubuntu20.04.1) date 2021-06-29 16:29:24*
%MOMM*%
%LPD*%
G01*
G04 APERTURE LIST*
%ADD10C,0.500000*%
%ADD11C,0.120000*%
%ADD12C,6.500000*%
%ADD13C,0.900000*%
G04 APERTURE END LIST*
D10*
X140407142Y-94607142D02*
X140407142Y-96607142D01*
X140407142Y-94892857D02*
X140550000Y-94750000D01*
X140835714Y-94607142D01*
X141264285Y-94607142D01*
X141550000Y-94750000D01*
X141692857Y-95035714D01*
X141692857Y-96607142D01*
X143550000Y-96607142D02*
X143264285Y-96464285D01*
X143121428Y-96321428D01*
X142978571Y-96035714D01*
X142978571Y-95178571D01*
X143121428Y-94892857D01*
X143264285Y-94750000D01*
X143550000Y-94607142D01*
X143978571Y-94607142D01*
X144264285Y-94750000D01*
X144407142Y-94892857D01*
X144550000Y-95178571D01*
X144550000Y-96035714D01*
X144407142Y-96321428D01*
X144264285Y-96464285D01*
X143978571Y-96607142D01*
X143550000Y-96607142D01*
X145835714Y-96607142D02*
X145835714Y-94607142D01*
X145835714Y-95178571D02*
X145978571Y-94892857D01*
X146121428Y-94750000D01*
X146407142Y-94607142D01*
X146692857Y-94607142D01*
X147692857Y-96607142D02*
X147692857Y-94607142D01*
X147692857Y-94892857D02*
X147835714Y-94750000D01*
X148121428Y-94607142D01*
X148550000Y-94607142D01*
X148835714Y-94750000D01*
X148978571Y-95035714D01*
X148978571Y-96607142D01*
X148978571Y-95035714D02*
X149121428Y-94750000D01*
X149407142Y-94607142D01*
X149835714Y-94607142D01*
X150121428Y-94750000D01*
X150264285Y-95035714D01*
X150264285Y-96607142D01*
X151692857Y-96321428D02*
X151835714Y-96464285D01*
X151692857Y-96607142D01*
X151550000Y-96464285D01*
X151692857Y-96321428D01*
X151692857Y-96607142D01*
X77630000Y-62134523D02*
X77630000Y-59467857D01*
X77630000Y-59848809D02*
X77820476Y-59658333D01*
X78201428Y-59467857D01*
X78772857Y-59467857D01*
X79153809Y-59658333D01*
X79344285Y-60039285D01*
X79344285Y-62134523D01*
X79344285Y-60039285D02*
X79534761Y-59658333D01*
X79915714Y-59467857D01*
X80487142Y-59467857D01*
X80868095Y-59658333D01*
X81058571Y-60039285D01*
X81058571Y-62134523D01*
X84677619Y-62134523D02*
X84677619Y-60039285D01*
X84487142Y-59658333D01*
X84106190Y-59467857D01*
X83344285Y-59467857D01*
X82963333Y-59658333D01*
X84677619Y-61944047D02*
X84296666Y-62134523D01*
X83344285Y-62134523D01*
X82963333Y-61944047D01*
X82772857Y-61563095D01*
X82772857Y-61182142D01*
X82963333Y-60801190D01*
X83344285Y-60610714D01*
X84296666Y-60610714D01*
X84677619Y-60420238D01*
X86582380Y-59467857D02*
X86582380Y-62134523D01*
X86582380Y-59848809D02*
X86772857Y-59658333D01*
X87153809Y-59467857D01*
X87725238Y-59467857D01*
X88106190Y-59658333D01*
X88296666Y-60039285D01*
X88296666Y-62134523D01*
X91915714Y-59467857D02*
X91915714Y-62134523D01*
X90201428Y-59467857D02*
X90201428Y-61563095D01*
X90391904Y-61944047D01*
X90772857Y-62134523D01*
X91344285Y-62134523D01*
X91725238Y-61944047D01*
X91915714Y-61753571D01*
X95534761Y-62134523D02*
X95534761Y-60039285D01*
X95344285Y-59658333D01*
X94963333Y-59467857D01*
X94201428Y-59467857D01*
X93820476Y-59658333D01*
X95534761Y-61944047D02*
X95153809Y-62134523D01*
X94201428Y-62134523D01*
X93820476Y-61944047D01*
X93630000Y-61563095D01*
X93630000Y-61182142D01*
X93820476Y-60801190D01*
X94201428Y-60610714D01*
X95153809Y-60610714D01*
X95534761Y-60420238D01*
X98010952Y-62134523D02*
X97630000Y-61944047D01*
X97439523Y-61563095D01*
X97439523Y-58134523D01*
X140478571Y-109307142D02*
X140478571Y-107307142D01*
X140478571Y-106307142D02*
X140335714Y-106450000D01*
X140478571Y-106592857D01*
X140621428Y-106450000D01*
X140478571Y-106307142D01*
X140478571Y-106592857D01*
X141907142Y-107307142D02*
X141907142Y-109307142D01*
X141907142Y-107592857D02*
X142050000Y-107450000D01*
X142335714Y-107307142D01*
X142764285Y-107307142D01*
X143050000Y-107450000D01*
X143192857Y-107735714D01*
X143192857Y-109307142D01*
X144335714Y-107307142D02*
X145050000Y-109307142D01*
X145764285Y-107307142D01*
X148050000Y-109164285D02*
X147764285Y-109307142D01*
X147192857Y-109307142D01*
X146907142Y-109164285D01*
X146764285Y-108878571D01*
X146764285Y-107735714D01*
X146907142Y-107450000D01*
X147192857Y-107307142D01*
X147764285Y-107307142D01*
X148050000Y-107450000D01*
X148192857Y-107735714D01*
X148192857Y-108021428D01*
X146764285Y-108307142D01*
X149478571Y-109307142D02*
X149478571Y-107307142D01*
X149478571Y-107878571D02*
X149621428Y-107592857D01*
X149764285Y-107450000D01*
X150050000Y-107307142D01*
X150335714Y-107307142D01*
X150907142Y-107307142D02*
X152050000Y-107307142D01*
X151335714Y-106307142D02*
X151335714Y-108878571D01*
X151478571Y-109164285D01*
X151764285Y-109307142D01*
X152050000Y-109307142D01*
X142526190Y-49244047D02*
X142145238Y-49434523D01*
X141383333Y-49434523D01*
X141002380Y-49244047D01*
X140811904Y-48863095D01*
X140811904Y-47339285D01*
X141002380Y-46958333D01*
X141383333Y-46767857D01*
X142145238Y-46767857D01*
X142526190Y-46958333D01*
X142716666Y-47339285D01*
X142716666Y-47720238D01*
X140811904Y-48101190D01*
X144430952Y-46767857D02*
X144430952Y-49434523D01*
X144430952Y-47148809D02*
X144621428Y-46958333D01*
X145002380Y-46767857D01*
X145573809Y-46767857D01*
X145954761Y-46958333D01*
X146145238Y-47339285D01*
X146145238Y-49434523D01*
X147669047Y-46767857D02*
X148621428Y-49434523D01*
X149573809Y-46767857D01*
X151097619Y-49053571D02*
X151288095Y-49244047D01*
X151097619Y-49434523D01*
X150907142Y-49244047D01*
X151097619Y-49053571D01*
X151097619Y-49434523D01*
X114363809Y-49434523D02*
X113982857Y-49244047D01*
X113792380Y-48863095D01*
X113792380Y-45434523D01*
X115316190Y-46767857D02*
X116840000Y-46767857D01*
X115887619Y-49434523D02*
X115887619Y-46005952D01*
X116078095Y-45625000D01*
X116459047Y-45434523D01*
X116840000Y-45434523D01*
X118744761Y-49434523D02*
X118363809Y-49244047D01*
X118173333Y-49053571D01*
X117982857Y-48672619D01*
X117982857Y-47529761D01*
X118173333Y-47148809D01*
X118363809Y-46958333D01*
X118744761Y-46767857D01*
X119316190Y-46767857D01*
X119697142Y-46958333D01*
X119887619Y-47148809D01*
X120078095Y-47529761D01*
X120078095Y-48672619D01*
X119887619Y-49053571D01*
X119697142Y-49244047D01*
X119316190Y-49434523D01*
X118744761Y-49434523D01*
X109220000Y-115570000D02*
G75*
G02*
X106680000Y-113030000I0J2540000D01*
G01*
X106680000Y-113030000D02*
X106680000Y-53340000D01*
X124460000Y-50800000D02*
G75*
G02*
X127000000Y-53340000I0J-2540000D01*
G01*
X106680000Y-53340000D02*
G75*
G02*
X109220000Y-50800000I2540000J0D01*
G01*
X109220000Y-50800000D02*
X124460000Y-50800000D01*
D11*
X109220000Y-115570000D02*
X109220000Y-115570000D01*
D10*
X127000000Y-53340000D02*
X127000000Y-113030000D01*
X127000000Y-113030000D02*
G75*
G02*
X124460000Y-115570000I-2540000J0D01*
G01*
X124460000Y-115570000D02*
X109220000Y-115570000D01*
X138430000Y-115570000D02*
G75*
G02*
X135890000Y-113030000I0J2540000D01*
G01*
X135890000Y-113030000D02*
X135890000Y-53340000D01*
X153670000Y-50800000D02*
G75*
G02*
X156210000Y-53340000I0J-2540000D01*
G01*
X135890000Y-53340000D02*
G75*
G02*
X138430000Y-50800000I2540000J0D01*
G01*
X138430000Y-50800000D02*
X153670000Y-50800000D01*
D11*
X138430000Y-115570000D02*
X138430000Y-115570000D01*
D10*
X156210000Y-53340000D02*
X156210000Y-113030000D01*
X156210000Y-113030000D02*
G75*
G02*
X153670000Y-115570000I-2540000J0D01*
G01*
X153670000Y-115570000D02*
X138430000Y-115570000D01*
X80010000Y-105410000D02*
G75*
G02*
X77470000Y-102870000I0J2540000D01*
G01*
X77470000Y-102870000D02*
X77470000Y-66040000D01*
X95250000Y-63500000D02*
G75*
G02*
X97790000Y-66040000I0J-2540000D01*
G01*
X77470000Y-66040000D02*
G75*
G02*
X80010000Y-63500000I2540000J0D01*
G01*
X80010000Y-63500000D02*
X95250000Y-63500000D01*
X97790000Y-66040000D02*
X97790000Y-102870000D01*
X97790000Y-102870000D02*
G75*
G02*
X95250000Y-105410000I-2540000J0D01*
G01*
X95250000Y-105410000D02*
X80010000Y-105410000D01*
X111220952Y-112299523D02*
X111220952Y-108299523D01*
X111220952Y-112109047D02*
X110840000Y-112299523D01*
X110078095Y-112299523D01*
X109697142Y-112109047D01*
X109506666Y-111918571D01*
X109316190Y-111537619D01*
X109316190Y-110394761D01*
X109506666Y-110013809D01*
X109697142Y-109823333D01*
X110078095Y-109632857D01*
X110840000Y-109632857D01*
X111220952Y-109823333D01*
X114649523Y-112109047D02*
X114268571Y-112299523D01*
X113506666Y-112299523D01*
X113125714Y-112109047D01*
X112935238Y-111728095D01*
X112935238Y-110204285D01*
X113125714Y-109823333D01*
X113506666Y-109632857D01*
X114268571Y-109632857D01*
X114649523Y-109823333D01*
X114840000Y-110204285D01*
X114840000Y-110585238D01*
X112935238Y-110966190D01*
X116554285Y-109632857D02*
X116554285Y-113632857D01*
X116554285Y-109823333D02*
X116935238Y-109632857D01*
X117697142Y-109632857D01*
X118078095Y-109823333D01*
X118268571Y-110013809D01*
X118459047Y-110394761D01*
X118459047Y-111537619D01*
X118268571Y-111918571D01*
X118078095Y-112109047D01*
X117697142Y-112299523D01*
X116935238Y-112299523D01*
X116554285Y-112109047D01*
X119601904Y-109632857D02*
X121125714Y-109632857D01*
X120173333Y-108299523D02*
X120173333Y-111728095D01*
X120363809Y-112109047D01*
X120744761Y-112299523D01*
X121125714Y-112299523D01*
X122459047Y-112299523D02*
X122459047Y-108299523D01*
X124173333Y-112299523D02*
X124173333Y-110204285D01*
X123982857Y-109823333D01*
X123601904Y-109632857D01*
X123030476Y-109632857D01*
X122649523Y-109823333D01*
X122459047Y-110013809D01*
X108840000Y-90519047D02*
X109220952Y-90709523D01*
X109982857Y-90709523D01*
X110363809Y-90519047D01*
X110554285Y-90138095D01*
X110554285Y-89947619D01*
X110363809Y-89566666D01*
X109982857Y-89376190D01*
X109411428Y-89376190D01*
X109030476Y-89185714D01*
X108840000Y-88804761D01*
X108840000Y-88614285D01*
X109030476Y-88233333D01*
X109411428Y-88042857D01*
X109982857Y-88042857D01*
X110363809Y-88233333D01*
X112268571Y-90709523D02*
X112268571Y-86709523D01*
X113982857Y-90709523D02*
X113982857Y-88614285D01*
X113792380Y-88233333D01*
X113411428Y-88042857D01*
X112840000Y-88042857D01*
X112459047Y-88233333D01*
X112268571Y-88423809D01*
X117601904Y-90709523D02*
X117601904Y-88614285D01*
X117411428Y-88233333D01*
X117030476Y-88042857D01*
X116268571Y-88042857D01*
X115887619Y-88233333D01*
X117601904Y-90519047D02*
X117220952Y-90709523D01*
X116268571Y-90709523D01*
X115887619Y-90519047D01*
X115697142Y-90138095D01*
X115697142Y-89757142D01*
X115887619Y-89376190D01*
X116268571Y-89185714D01*
X117220952Y-89185714D01*
X117601904Y-88995238D01*
X119506666Y-88042857D02*
X119506666Y-92042857D01*
X119506666Y-88233333D02*
X119887619Y-88042857D01*
X120649523Y-88042857D01*
X121030476Y-88233333D01*
X121220952Y-88423809D01*
X121411428Y-88804761D01*
X121411428Y-89947619D01*
X121220952Y-90328571D01*
X121030476Y-90519047D01*
X120649523Y-90709523D01*
X119887619Y-90709523D01*
X119506666Y-90519047D01*
X124649523Y-90519047D02*
X124268571Y-90709523D01*
X123506666Y-90709523D01*
X123125714Y-90519047D01*
X122935238Y-90138095D01*
X122935238Y-88614285D01*
X123125714Y-88233333D01*
X123506666Y-88042857D01*
X124268571Y-88042857D01*
X124649523Y-88233333D01*
X124840000Y-88614285D01*
X124840000Y-88995238D01*
X122935238Y-89376190D01*
X140526190Y-90709523D02*
X140145238Y-90519047D01*
X139954761Y-90138095D01*
X139954761Y-86709523D01*
X143573809Y-90519047D02*
X143192857Y-90709523D01*
X142430952Y-90709523D01*
X142050000Y-90519047D01*
X141859523Y-90138095D01*
X141859523Y-88614285D01*
X142050000Y-88233333D01*
X142430952Y-88042857D01*
X143192857Y-88042857D01*
X143573809Y-88233333D01*
X143764285Y-88614285D01*
X143764285Y-88995238D01*
X141859523Y-89376190D01*
X145097619Y-88042857D02*
X146050000Y-90709523D01*
X147002380Y-88042857D01*
X150050000Y-90519047D02*
X149669047Y-90709523D01*
X148907142Y-90709523D01*
X148526190Y-90519047D01*
X148335714Y-90138095D01*
X148335714Y-88614285D01*
X148526190Y-88233333D01*
X148907142Y-88042857D01*
X149669047Y-88042857D01*
X150050000Y-88233333D01*
X150240476Y-88614285D01*
X150240476Y-88995238D01*
X148335714Y-89376190D01*
X152526190Y-90709523D02*
X152145238Y-90519047D01*
X151954761Y-90138095D01*
X151954761Y-86709523D01*
X83058571Y-103409523D02*
X83058571Y-100742857D01*
X83058571Y-101504761D02*
X83249047Y-101123809D01*
X83439523Y-100933333D01*
X83820476Y-100742857D01*
X84201428Y-100742857D01*
X87058571Y-103219047D02*
X86677619Y-103409523D01*
X85915714Y-103409523D01*
X85534761Y-103219047D01*
X85344285Y-102838095D01*
X85344285Y-101314285D01*
X85534761Y-100933333D01*
X85915714Y-100742857D01*
X86677619Y-100742857D01*
X87058571Y-100933333D01*
X87249047Y-101314285D01*
X87249047Y-101695238D01*
X85344285Y-102076190D01*
X88772857Y-103219047D02*
X89153809Y-103409523D01*
X89915714Y-103409523D01*
X90296666Y-103219047D01*
X90487142Y-102838095D01*
X90487142Y-102647619D01*
X90296666Y-102266666D01*
X89915714Y-102076190D01*
X89344285Y-102076190D01*
X88963333Y-101885714D01*
X88772857Y-101504761D01*
X88772857Y-101314285D01*
X88963333Y-100933333D01*
X89344285Y-100742857D01*
X89915714Y-100742857D01*
X90296666Y-100933333D01*
X92201428Y-103028571D02*
X92391904Y-103219047D01*
X92201428Y-103409523D01*
X92010952Y-103219047D01*
X92201428Y-103028571D01*
X92201428Y-103409523D01*
X94554285Y-38512857D02*
X95316190Y-41179523D01*
X96078095Y-39274761D01*
X96839999Y-41179523D01*
X97601904Y-38512857D01*
X99125714Y-41179523D02*
X99125714Y-37179523D01*
X100839999Y-41179523D02*
X100839999Y-39084285D01*
X100649523Y-38703333D01*
X100268571Y-38512857D01*
X99697142Y-38512857D01*
X99316190Y-38703333D01*
X99125714Y-38893809D01*
X103316190Y-41179523D02*
X102935238Y-40989047D01*
X102744761Y-40798571D01*
X102554285Y-40417619D01*
X102554285Y-39274761D01*
X102744761Y-38893809D01*
X102935238Y-38703333D01*
X103316190Y-38512857D01*
X103887619Y-38512857D01*
X104268571Y-38703333D01*
X104459047Y-38893809D01*
X104649523Y-39274761D01*
X104649523Y-40417619D01*
X104459047Y-40798571D01*
X104268571Y-40989047D01*
X103887619Y-41179523D01*
X103316190Y-41179523D01*
X106935238Y-41179523D02*
X106554285Y-40989047D01*
X106363809Y-40798571D01*
X106173333Y-40417619D01*
X106173333Y-39274761D01*
X106363809Y-38893809D01*
X106554285Y-38703333D01*
X106935238Y-38512857D01*
X107506666Y-38512857D01*
X107887619Y-38703333D01*
X108078095Y-38893809D01*
X108268571Y-39274761D01*
X108268571Y-40417619D01*
X108078095Y-40798571D01*
X107887619Y-40989047D01*
X107506666Y-41179523D01*
X106935238Y-41179523D01*
X109792380Y-40989047D02*
X110173333Y-41179523D01*
X110935238Y-41179523D01*
X111316190Y-40989047D01*
X111506666Y-40608095D01*
X111506666Y-40417619D01*
X111316190Y-40036666D01*
X110935238Y-39846190D01*
X110363809Y-39846190D01*
X109982857Y-39655714D01*
X109792380Y-39274761D01*
X109792380Y-39084285D01*
X109982857Y-38703333D01*
X110363809Y-38512857D01*
X110935238Y-38512857D01*
X111316190Y-38703333D01*
X113220952Y-41179523D02*
X113220952Y-37179523D01*
X114935238Y-41179523D02*
X114935238Y-39084285D01*
X114744761Y-38703333D01*
X114363809Y-38512857D01*
X113792380Y-38512857D01*
X113411428Y-38703333D01*
X113220952Y-38893809D01*
X116459047Y-38512857D02*
X117411428Y-41179523D01*
X118363809Y-38512857D02*
X117411428Y-41179523D01*
X117030476Y-42131904D01*
X116839999Y-42322380D01*
X116459047Y-42512857D01*
X122744761Y-40989047D02*
X123125714Y-41179523D01*
X123887619Y-41179523D01*
X124268571Y-40989047D01*
X124459047Y-40608095D01*
X124459047Y-40417619D01*
X124268571Y-40036666D01*
X123887619Y-39846190D01*
X123316190Y-39846190D01*
X122935238Y-39655714D01*
X122744761Y-39274761D01*
X122744761Y-39084285D01*
X122935238Y-38703333D01*
X123316190Y-38512857D01*
X123887619Y-38512857D01*
X124268571Y-38703333D01*
X126744761Y-41179523D02*
X126363809Y-40989047D01*
X126173333Y-40798571D01*
X125982857Y-40417619D01*
X125982857Y-39274761D01*
X126173333Y-38893809D01*
X126363809Y-38703333D01*
X126744761Y-38512857D01*
X127316190Y-38512857D01*
X127697142Y-38703333D01*
X127887619Y-38893809D01*
X128078095Y-39274761D01*
X128078095Y-40417619D01*
X127887619Y-40798571D01*
X127697142Y-40989047D01*
X127316190Y-41179523D01*
X126744761Y-41179523D01*
X131506666Y-38512857D02*
X131506666Y-41179523D01*
X129792380Y-38512857D02*
X129792380Y-40608095D01*
X129982857Y-40989047D01*
X130363809Y-41179523D01*
X130935238Y-41179523D01*
X131316190Y-40989047D01*
X131506666Y-40798571D01*
X133411428Y-38512857D02*
X133411428Y-41179523D01*
X133411428Y-38893809D02*
X133601904Y-38703333D01*
X133982857Y-38512857D01*
X134554285Y-38512857D01*
X134935238Y-38703333D01*
X135125714Y-39084285D01*
X135125714Y-41179523D01*
X138744761Y-41179523D02*
X138744761Y-37179523D01*
X138744761Y-40989047D02*
X138363809Y-41179523D01*
X137601904Y-41179523D01*
X137220952Y-40989047D01*
X137030476Y-40798571D01*
X136840000Y-40417619D01*
X136840000Y-39274761D01*
X137030476Y-38893809D01*
X137220952Y-38703333D01*
X137601904Y-38512857D01*
X138363809Y-38512857D01*
X138744761Y-38703333D01*
X139478571Y-70389523D02*
X139478571Y-68294285D01*
X139288095Y-67913333D01*
X138907142Y-67722857D01*
X138145238Y-67722857D01*
X137764285Y-67913333D01*
X139478571Y-70199047D02*
X139097619Y-70389523D01*
X138145238Y-70389523D01*
X137764285Y-70199047D01*
X137573809Y-69818095D01*
X137573809Y-69437142D01*
X137764285Y-69056190D01*
X138145238Y-68865714D01*
X139097619Y-68865714D01*
X139478571Y-68675238D01*
X140811904Y-67722857D02*
X142335714Y-67722857D01*
X141383333Y-66389523D02*
X141383333Y-69818095D01*
X141573809Y-70199047D01*
X141954761Y-70389523D01*
X142335714Y-70389523D01*
X143097619Y-67722857D02*
X144621428Y-67722857D01*
X143669047Y-66389523D02*
X143669047Y-69818095D01*
X143859523Y-70199047D01*
X144240476Y-70389523D01*
X144621428Y-70389523D01*
X147669047Y-70389523D02*
X147669047Y-68294285D01*
X147478571Y-67913333D01*
X147097619Y-67722857D01*
X146335714Y-67722857D01*
X145954761Y-67913333D01*
X147669047Y-70199047D02*
X147288095Y-70389523D01*
X146335714Y-70389523D01*
X145954761Y-70199047D01*
X145764285Y-69818095D01*
X145764285Y-69437142D01*
X145954761Y-69056190D01*
X146335714Y-68865714D01*
X147288095Y-68865714D01*
X147669047Y-68675238D01*
X151288095Y-70199047D02*
X150907142Y-70389523D01*
X150145238Y-70389523D01*
X149764285Y-70199047D01*
X149573809Y-70008571D01*
X149383333Y-69627619D01*
X149383333Y-68484761D01*
X149573809Y-68103809D01*
X149764285Y-67913333D01*
X150145238Y-67722857D01*
X150907142Y-67722857D01*
X151288095Y-67913333D01*
X153002380Y-70389523D02*
X153002380Y-66389523D01*
X153383333Y-68865714D02*
X154526190Y-70389523D01*
X154526190Y-67722857D02*
X153002380Y-69246666D01*
X111887619Y-70389523D02*
X111887619Y-67722857D01*
X111887619Y-68484761D02*
X112078095Y-68103809D01*
X112268571Y-67913333D01*
X112649523Y-67722857D01*
X113030476Y-67722857D01*
X116078095Y-70389523D02*
X116078095Y-68294285D01*
X115887619Y-67913333D01*
X115506666Y-67722857D01*
X114744761Y-67722857D01*
X114363809Y-67913333D01*
X116078095Y-70199047D02*
X115697142Y-70389523D01*
X114744761Y-70389523D01*
X114363809Y-70199047D01*
X114173333Y-69818095D01*
X114173333Y-69437142D01*
X114363809Y-69056190D01*
X114744761Y-68865714D01*
X115697142Y-68865714D01*
X116078095Y-68675238D01*
X117411428Y-67722857D02*
X118935238Y-67722857D01*
X117982857Y-66389523D02*
X117982857Y-69818095D01*
X118173333Y-70199047D01*
X118554285Y-70389523D01*
X118935238Y-70389523D01*
X121792380Y-70199047D02*
X121411428Y-70389523D01*
X120649523Y-70389523D01*
X120268571Y-70199047D01*
X120078095Y-69818095D01*
X120078095Y-68294285D01*
X120268571Y-67913333D01*
X120649523Y-67722857D01*
X121411428Y-67722857D01*
X121792380Y-67913333D01*
X121982857Y-68294285D01*
X121982857Y-68675238D01*
X120078095Y-69056190D01*
X81153809Y-79152857D02*
X82677619Y-79152857D01*
X81725238Y-81819523D02*
X81725238Y-78390952D01*
X81915714Y-78010000D01*
X82296666Y-77819523D01*
X82677619Y-77819523D01*
X84010952Y-81819523D02*
X84010952Y-79152857D01*
X84010952Y-79914761D02*
X84201428Y-79533809D01*
X84391904Y-79343333D01*
X84772857Y-79152857D01*
X85153809Y-79152857D01*
X88010952Y-81629047D02*
X87630000Y-81819523D01*
X86868095Y-81819523D01*
X86487142Y-81629047D01*
X86296666Y-81248095D01*
X86296666Y-79724285D01*
X86487142Y-79343333D01*
X86868095Y-79152857D01*
X87630000Y-79152857D01*
X88010952Y-79343333D01*
X88201428Y-79724285D01*
X88201428Y-80105238D01*
X86296666Y-80486190D01*
X91630000Y-79152857D02*
X91630000Y-83152857D01*
X91630000Y-81629047D02*
X91249047Y-81819523D01*
X90487142Y-81819523D01*
X90106190Y-81629047D01*
X89915714Y-81438571D01*
X89725238Y-81057619D01*
X89725238Y-79914761D01*
X89915714Y-79533809D01*
X90106190Y-79343333D01*
X90487142Y-79152857D01*
X91249047Y-79152857D01*
X91630000Y-79343333D01*
X93534761Y-81438571D02*
X93725238Y-81629047D01*
X93534761Y-81819523D01*
X93344285Y-81629047D01*
X93534761Y-81438571D01*
X93534761Y-81819523D01*
%LPC*%
D12*
X154940000Y-40640000D03*
D13*
X157340000Y-40640000D03*
X156637056Y-42337056D03*
X154940000Y-43040000D03*
X153242944Y-42337056D03*
X152540000Y-40640000D03*
X153242944Y-38942944D03*
X154940000Y-38240000D03*
X156637056Y-38942944D03*
D12*
X78740000Y-40640000D03*
D13*
X81140000Y-40640000D03*
X80437056Y-42337056D03*
X78740000Y-43040000D03*
X77042944Y-42337056D03*
X76340000Y-40640000D03*
X77042944Y-38942944D03*
X78740000Y-38240000D03*
X80437056Y-38942944D03*
X156637056Y-125302944D03*
X154940000Y-124600000D03*
X153242944Y-125302944D03*
X152540000Y-127000000D03*
X153242944Y-128697056D03*
X154940000Y-129400000D03*
X156637056Y-128697056D03*
X157340000Y-127000000D03*
D12*
X154940000Y-127000000D03*
D13*
X80437056Y-125302944D03*
X78740000Y-124600000D03*
X77042944Y-125302944D03*
X76340000Y-127000000D03*
X77042944Y-128697056D03*
X78740000Y-129400000D03*
X80437056Y-128697056D03*
X81140000Y-127000000D03*
D12*
X78740000Y-127000000D03*
M02*
