M48
; DRILL file {KiCad 5.1.10-88a1d61d58~88~ubuntu20.04.1} date Tue Jun 29 16:29:37 2021
; FORMAT={-:-/ absolute / metric / decimal}
; #@! TF.CreationDate,2021-06-29T16:29:37-04:00
; #@! TF.GenerationSoftware,Kicad,Pcbnew,5.1.10-88a1d61d58~88~ubuntu20.04.1
; #@! TF.FileFunction,Plated,1,2,PTH
FMAT,2
METRIC
T1C0.500
T2C3.200
%
G90
G05
T1
X76.34Y-40.64
X76.34Y-127.0
X77.043Y-38.943
X77.043Y-42.337
X77.043Y-125.303
X77.043Y-128.697
X78.74Y-38.24
X78.74Y-43.04
X78.74Y-124.6
X78.74Y-129.4
X80.437Y-38.943
X80.437Y-42.337
X80.437Y-125.303
X80.437Y-128.697
X81.14Y-40.64
X81.14Y-127.0
X152.54Y-40.64
X152.54Y-127.0
X153.243Y-38.943
X153.243Y-42.337
X153.243Y-125.303
X153.243Y-128.697
X154.94Y-38.24
X154.94Y-43.04
X154.94Y-124.6
X154.94Y-129.4
X156.637Y-38.943
X156.637Y-42.337
X156.637Y-125.303
X156.637Y-128.697
X157.34Y-40.64
X157.34Y-127.0
T2
X78.74Y-40.64
X78.74Y-127.0
X154.94Y-40.64
X154.94Y-127.0
T0
M30
