%FSLAX45Y45*%
G04 Gerber Fmt 4.5, Leading zero omitted, Abs format (unit mm)*
G04 Created by KiCad (PCBNEW 5.1.10-88a1d61d58~90~ubuntu20.04.1) date 2021-07-20 14:54:35*
%MOMM*%
%LPD*%
G01*
G04 APERTURE LIST*
%TA.AperFunction,Profile*%
%ADD10C,0.050000*%
%TD*%
%ADD11C,0.200000*%
%ADD12C,0.300000*%
G04 APERTURE END LIST*
D10*
X21082000Y-14859000D02*
G75*
G02*
X20828000Y-15113000I-254000J0D01*
G01*
X18415000Y-15113000D02*
G75*
G02*
X18161000Y-14859000I0J254000D01*
G01*
X17907000Y-13525500D02*
G75*
G02*
X18161000Y-13779500I0J-254000D01*
G01*
X15621000Y-13779500D02*
G75*
G02*
X15875000Y-13525500I254000J0D01*
G01*
X15621000Y-14859000D02*
G75*
G02*
X15367000Y-15113000I-254000J0D01*
G01*
X12954000Y-15113000D02*
G75*
G02*
X12700000Y-14859000I0J254000D01*
G01*
X12700000Y-7366000D02*
G75*
G02*
X12954000Y-7112000I254000J0D01*
G01*
X20828000Y-7112000D02*
G75*
G02*
X21082000Y-7366000I0J-254000D01*
G01*
X21082000Y-14859000D02*
X21082000Y-13208000D01*
X18415000Y-15113000D02*
X20828000Y-15113000D01*
X18161000Y-13779500D02*
X18161000Y-14859000D01*
X15621000Y-14859000D02*
X15621000Y-13779500D01*
X12954000Y-15113000D02*
X15367000Y-15113000D01*
X12700000Y-7366000D02*
X12700000Y-14859000D01*
X17907000Y-13525500D02*
X15875000Y-13525500D01*
X21082000Y-7366000D02*
X21082000Y-13208000D01*
X12954000Y-7112000D02*
X20828000Y-7112000D01*
D11*
X13530900Y-13124500D02*
X13570900Y-13164500D01*
X13570900Y-13124500D02*
X13530900Y-13164500D01*
X13530900Y-13378500D02*
X13570900Y-13418500D01*
X13570900Y-13378500D02*
X13530900Y-13418500D01*
X13543600Y-13632500D02*
X13583600Y-13672500D01*
X13583600Y-13632500D02*
X13543600Y-13672500D01*
X13708700Y-14927900D02*
X13748700Y-14967900D01*
X13748700Y-14927900D02*
X13708700Y-14967900D01*
X13950000Y-9276400D02*
X13990000Y-9316400D01*
X13990000Y-9276400D02*
X13950000Y-9316400D01*
X13995720Y-13762040D02*
X14035720Y-13802040D01*
X14035720Y-13762040D02*
X13995720Y-13802040D01*
X14026200Y-13321350D02*
X14066200Y-13361350D01*
X14066200Y-13321350D02*
X14026200Y-13361350D01*
X14299250Y-14197650D02*
X14339250Y-14237650D01*
X14339250Y-14197650D02*
X14299250Y-14237650D01*
X14426250Y-13638850D02*
X14466250Y-13678850D01*
X14466250Y-13638850D02*
X14426250Y-13678850D01*
X14426250Y-13950000D02*
X14466250Y-13990000D01*
X14466250Y-13950000D02*
X14426250Y-13990000D01*
X14489750Y-14191300D02*
X14529750Y-14231300D01*
X14529750Y-14191300D02*
X14489750Y-14231300D01*
X14515150Y-12838750D02*
X14555150Y-12878750D01*
X14555150Y-12838750D02*
X14515150Y-12878750D01*
X14546900Y-9746300D02*
X14586900Y-9786300D01*
X14586900Y-9746300D02*
X14546900Y-9786300D01*
X14578650Y-14096050D02*
X14618650Y-14136050D01*
X14618650Y-14096050D02*
X14578650Y-14136050D01*
X14585000Y-10914701D02*
X14625000Y-10954701D01*
X14625000Y-10914701D02*
X14585000Y-10954701D01*
X14585000Y-14940600D02*
X14625000Y-14980600D01*
X14625000Y-14940600D02*
X14585000Y-14980600D01*
X14648500Y-10330500D02*
X14688500Y-10370500D01*
X14688500Y-10330500D02*
X14648500Y-10370500D01*
X14652176Y-12836076D02*
X14692176Y-12876076D01*
X14692176Y-12836076D02*
X14652176Y-12876076D01*
X14680250Y-14197650D02*
X14720250Y-14237650D01*
X14720250Y-14197650D02*
X14680250Y-14237650D01*
X14762800Y-8743000D02*
X14802800Y-8783000D01*
X14802800Y-8743000D02*
X14762800Y-8783000D01*
X14769150Y-13321350D02*
X14809150Y-13361350D01*
X14809150Y-13321350D02*
X14769150Y-13361350D01*
X14783120Y-13538520D02*
X14823120Y-13578520D01*
X14823120Y-13538520D02*
X14783120Y-13578520D01*
X14915200Y-9390700D02*
X14955200Y-9430700D01*
X14955200Y-9390700D02*
X14915200Y-9430700D01*
X14972350Y-11219749D02*
X15012350Y-11259749D01*
X15012350Y-11219749D02*
X14972350Y-11259749D01*
X15029500Y-14940600D02*
X15069500Y-14980600D01*
X15069500Y-14940600D02*
X15029500Y-14980600D01*
X15258100Y-12337100D02*
X15298100Y-12377100D01*
X15298100Y-12337100D02*
X15258100Y-12377100D01*
X15296200Y-12603800D02*
X15336200Y-12643800D01*
X15336200Y-12603800D02*
X15296200Y-12643800D01*
X15321600Y-12972100D02*
X15361600Y-13012100D01*
X15361600Y-12972100D02*
X15321600Y-13012100D01*
X15372400Y-13823000D02*
X15412400Y-13863000D01*
X15412400Y-13823000D02*
X15372400Y-13863000D01*
X15372400Y-14140500D02*
X15412400Y-14180500D01*
X15412400Y-14140500D02*
X15372400Y-14180500D01*
X15474000Y-14775500D02*
X15514000Y-14815500D01*
X15514000Y-14775500D02*
X15474000Y-14815500D01*
X15512100Y-14521500D02*
X15552100Y-14561500D01*
X15552100Y-14521500D02*
X15512100Y-14561500D01*
X15626900Y-12184200D02*
X15666900Y-12224200D01*
X15666900Y-12184200D02*
X15626900Y-12224200D01*
X15702600Y-9498650D02*
X15742600Y-9538650D01*
X15742600Y-9498650D02*
X15702600Y-9538650D01*
X15766100Y-11854500D02*
X15806100Y-11894500D01*
X15806100Y-11854500D02*
X15766100Y-11894500D01*
X15870876Y-11375075D02*
X15910876Y-11415075D01*
X15910876Y-11375075D02*
X15870876Y-11415075D01*
X15924850Y-9092250D02*
X15964850Y-9132250D01*
X15964850Y-9092250D02*
X15924850Y-9132250D01*
X15962950Y-10889300D02*
X16002950Y-10929300D01*
X16002950Y-10889300D02*
X15962950Y-10929300D01*
X16109000Y-10330500D02*
X16149000Y-10370500D01*
X16149000Y-10330500D02*
X16109000Y-10370500D01*
X16210600Y-9841550D02*
X16250600Y-9881550D01*
X16250600Y-9841550D02*
X16210600Y-9881550D01*
X16216950Y-9066850D02*
X16256950Y-9106850D01*
X16256950Y-9066850D02*
X16216950Y-9106850D01*
X16223300Y-12362500D02*
X16263300Y-12402500D01*
X16263300Y-12362500D02*
X16223300Y-12402500D01*
X16490000Y-11378499D02*
X16530000Y-11418499D01*
X16530000Y-11378499D02*
X16490000Y-11418499D01*
X16763050Y-9987600D02*
X16803050Y-10027600D01*
X16803050Y-9987600D02*
X16763050Y-10027600D01*
X16782100Y-10330500D02*
X16822100Y-10370500D01*
X16822100Y-10330500D02*
X16782100Y-10370500D01*
X16794800Y-12108500D02*
X16834800Y-12148500D01*
X16834800Y-12108500D02*
X16794800Y-12148500D01*
X16820200Y-9066601D02*
X16860200Y-9106601D01*
X16860200Y-9066601D02*
X16820200Y-9106601D01*
X16985300Y-12102150D02*
X17025300Y-12142150D01*
X17025300Y-12102150D02*
X16985300Y-12142150D01*
X16998000Y-9955850D02*
X17038000Y-9995850D01*
X17038000Y-9955850D02*
X16998000Y-9995850D01*
X17125000Y-12286300D02*
X17165000Y-12326300D01*
X17165000Y-12286300D02*
X17125000Y-12326300D01*
X17506000Y-9822500D02*
X17546000Y-9862500D01*
X17546000Y-9822500D02*
X17506000Y-9862500D01*
X17582200Y-9638350D02*
X17622200Y-9678350D01*
X17622200Y-9638350D02*
X17582200Y-9678350D01*
X17601250Y-8952550D02*
X17641250Y-8992550D01*
X17641250Y-8952550D02*
X17601250Y-8992550D01*
X17660000Y-9149649D02*
X17700000Y-9189649D01*
X17700000Y-9149649D02*
X17660000Y-9189649D01*
X17696500Y-13289600D02*
X17736500Y-13329600D01*
X17736500Y-13289600D02*
X17696500Y-13329600D01*
X17746800Y-11735803D02*
X17786800Y-11775803D01*
X17786800Y-11735803D02*
X17746800Y-11775803D01*
X17842550Y-8679500D02*
X17882550Y-8719500D01*
X17882550Y-8679500D02*
X17842550Y-8719500D01*
X17868645Y-11198066D02*
X17908645Y-11238066D01*
X17908645Y-11198066D02*
X17868645Y-11238066D01*
X17874300Y-12184700D02*
X17914300Y-12224700D01*
X17914300Y-12184700D02*
X17874300Y-12224700D01*
X17887000Y-10933750D02*
X17927000Y-10973750D01*
X17927000Y-10933750D02*
X17887000Y-10973750D01*
X17988600Y-11219500D02*
X18028600Y-11259500D01*
X18028600Y-11219500D02*
X17988600Y-11259500D01*
X18001300Y-11702100D02*
X18041300Y-11742100D01*
X18041300Y-11702100D02*
X18001300Y-11742100D01*
X18173601Y-11644099D02*
X18213601Y-11684099D01*
X18213601Y-11644099D02*
X18173601Y-11684099D01*
X18534699Y-10876600D02*
X18574699Y-10916600D01*
X18574699Y-10876600D02*
X18534699Y-10916600D01*
X18598200Y-10578150D02*
X18638200Y-10618150D01*
X18638200Y-10578150D02*
X18598200Y-10618150D01*
X18661700Y-14064300D02*
X18701700Y-14104300D01*
X18701700Y-14064300D02*
X18661700Y-14104300D01*
X18737900Y-8844600D02*
X18777900Y-8884600D01*
X18777900Y-8844600D02*
X18737900Y-8884600D01*
X18750600Y-14153200D02*
X18790600Y-14193200D01*
X18790600Y-14153200D02*
X18750600Y-14193200D01*
X18877600Y-10965500D02*
X18917600Y-11005500D01*
X18917600Y-10965500D02*
X18877600Y-11005500D01*
X18877600Y-13035600D02*
X18917600Y-13075600D01*
X18917600Y-13035600D02*
X18877600Y-13075600D01*
X18903000Y-14216700D02*
X18943000Y-14256700D01*
X18943000Y-14216700D02*
X18903000Y-14256700D01*
X18928400Y-9898700D02*
X18968400Y-9938700D01*
X18968400Y-9898700D02*
X18928400Y-9938700D01*
X19054898Y-9194352D02*
X19094898Y-9234352D01*
X19094898Y-9194352D02*
X19054898Y-9234352D01*
X19061750Y-11397300D02*
X19101750Y-11437300D01*
X19101750Y-11397300D02*
X19061750Y-11437300D01*
X19131600Y-13302300D02*
X19171600Y-13342300D01*
X19171600Y-13302300D02*
X19131600Y-13342300D01*
X19131600Y-13607100D02*
X19171600Y-13647100D01*
X19171600Y-13607100D02*
X19131600Y-13647100D01*
X19169700Y-14750100D02*
X19209700Y-14790100D01*
X19209700Y-14750100D02*
X19169700Y-14790100D01*
X19233200Y-14051600D02*
X19273200Y-14091600D01*
X19273200Y-14051600D02*
X19233200Y-14091600D01*
X19233200Y-14242100D02*
X19273200Y-14282100D01*
X19273200Y-14242100D02*
X19233200Y-14282100D01*
X19309400Y-9898700D02*
X19349400Y-9938700D01*
X19349400Y-9898700D02*
X19309400Y-9938700D01*
X19309400Y-12184700D02*
X19349400Y-12224700D01*
X19349400Y-12184700D02*
X19309400Y-12224700D01*
X19360200Y-14750100D02*
X19400200Y-14790100D01*
X19400200Y-14750100D02*
X19360200Y-14790100D01*
X19538000Y-14915200D02*
X19578000Y-14955200D01*
X19578000Y-14915200D02*
X19538000Y-14955200D01*
X19665000Y-12743500D02*
X19705000Y-12783500D01*
X19705000Y-12743500D02*
X19665000Y-12783500D01*
X19665000Y-12883200D02*
X19705000Y-12923200D01*
X19705000Y-12883200D02*
X19665000Y-12923200D01*
X19665000Y-13022900D02*
X19705000Y-13062900D01*
X19705000Y-13022900D02*
X19665000Y-13062900D01*
X19707800Y-12476800D02*
X19747800Y-12516800D01*
X19747800Y-12476800D02*
X19707800Y-12516800D01*
X19709450Y-10235499D02*
X19749450Y-10275499D01*
X19749450Y-10235499D02*
X19709450Y-10275499D01*
X19709450Y-10578150D02*
X19749450Y-10618150D01*
X19749450Y-10578150D02*
X19709450Y-10618150D01*
X19747550Y-8565200D02*
X19787550Y-8605200D01*
X19787550Y-8565200D02*
X19747550Y-8605200D01*
X19766600Y-10711500D02*
X19806600Y-10751500D01*
X19806600Y-10711500D02*
X19766600Y-10751500D01*
X19868200Y-8844600D02*
X19908200Y-8884600D01*
X19908200Y-8844600D02*
X19868200Y-8884600D01*
X19868200Y-11105200D02*
X19908200Y-11145200D01*
X19908200Y-11105200D02*
X19868200Y-11145200D01*
X19868200Y-12476800D02*
X19908200Y-12516800D01*
X19908200Y-12476800D02*
X19868200Y-12516800D01*
X20058100Y-12476800D02*
X20098100Y-12516800D01*
X20098100Y-12476800D02*
X20058100Y-12516800D01*
X20223800Y-12883200D02*
X20263800Y-12923200D01*
X20263800Y-12883200D02*
X20223800Y-12923200D01*
X20223800Y-13022900D02*
X20263800Y-13062900D01*
X20263800Y-13022900D02*
X20223800Y-13062900D01*
X20223800Y-13162600D02*
X20263800Y-13202600D01*
X20263800Y-13162600D02*
X20223800Y-13202600D01*
X20363500Y-12451400D02*
X20403500Y-12491400D01*
X20403500Y-12451400D02*
X20363500Y-12491400D01*
X20731800Y-13035600D02*
X20771800Y-13075600D01*
X20771800Y-13035600D02*
X20731800Y-13075600D01*
X20782600Y-12222800D02*
X20822600Y-12262800D01*
X20822600Y-12222800D02*
X20782600Y-12262800D01*
X20782600Y-12629200D02*
X20822600Y-12669200D01*
X20822600Y-12629200D02*
X20782600Y-12669200D01*
X20782600Y-12743500D02*
X20822600Y-12783500D01*
X20822600Y-12743500D02*
X20782600Y-12783500D01*
X19221000Y-7683500D02*
G75*
G03*
X19221000Y-7683500I-40000J0D01*
G01*
X19471000Y-7683500D02*
G75*
G03*
X19471000Y-7683500I-40000J0D01*
G01*
X20042500Y-8235950D02*
G75*
G03*
X20042500Y-8235950I-40000J0D01*
G01*
X20542500Y-8235950D02*
G75*
G03*
X20542500Y-8235950I-40000J0D01*
G01*
X20741000Y-9271000D02*
G75*
G03*
X20741000Y-9271000I-40000J0D01*
G01*
X20741000Y-9525000D02*
G75*
G03*
X20741000Y-9525000I-40000J0D01*
G01*
X20741000Y-9779000D02*
G75*
G03*
X20741000Y-9779000I-40000J0D01*
G01*
X20741000Y-10350500D02*
G75*
G03*
X20741000Y-10350500I-40000J0D01*
G01*
X20741000Y-10604500D02*
G75*
G03*
X20741000Y-10604500I-40000J0D01*
G01*
X20741000Y-10858500D02*
G75*
G03*
X20741000Y-10858500I-40000J0D01*
G01*
X20741000Y-11430000D02*
G75*
G03*
X20741000Y-11430000I-40000J0D01*
G01*
X20741000Y-11684000D02*
G75*
G03*
X20741000Y-11684000I-40000J0D01*
G01*
X20741000Y-11938000D02*
G75*
G03*
X20741000Y-11938000I-40000J0D01*
G01*
X18415000Y-14560000D02*
X18415000Y-14650000D01*
X18370000Y-14605000D02*
X18460000Y-14605000D01*
X18415000Y-14814000D02*
X18415000Y-14904000D01*
X18370000Y-14859000D02*
X18460000Y-14859000D01*
X13065556Y-8417356D02*
X13065556Y-8346644D01*
X12994844Y-8346644D01*
X12994844Y-8417356D01*
X13065556Y-8417356D01*
X13065556Y-8671356D02*
X13065556Y-8600644D01*
X12994844Y-8600644D01*
X12994844Y-8671356D01*
X13065556Y-8671356D01*
X13065556Y-8925356D02*
X13065556Y-8854644D01*
X12994844Y-8854644D01*
X12994844Y-8925356D01*
X13065556Y-8925356D01*
X13065556Y-9179356D02*
X13065556Y-9108644D01*
X12994844Y-9108644D01*
X12994844Y-9179356D01*
X13065556Y-9179356D01*
X13065556Y-12227356D02*
X13065556Y-12156644D01*
X12994844Y-12156644D01*
X12994844Y-12227356D01*
X13065556Y-12227356D01*
X13065556Y-12481356D02*
X13065556Y-12410644D01*
X12994844Y-12410644D01*
X12994844Y-12481356D01*
X13065556Y-12481356D01*
X13065556Y-12735356D02*
X13065556Y-12664644D01*
X12994844Y-12664644D01*
X12994844Y-12735356D01*
X13065556Y-12735356D01*
X13065556Y-12989356D02*
X13065556Y-12918644D01*
X12994844Y-12918644D01*
X12994844Y-12989356D01*
X13065556Y-12989356D01*
X13116356Y-14005356D02*
X13116356Y-13934644D01*
X13045644Y-13934644D01*
X13045644Y-14005356D01*
X13116356Y-14005356D01*
X13116356Y-14259356D02*
X13116356Y-14188644D01*
X13045644Y-14188644D01*
X13045644Y-14259356D01*
X13116356Y-14259356D01*
X13116356Y-14513356D02*
X13116356Y-14442644D01*
X13045644Y-14442644D01*
X13045644Y-14513356D01*
X13116356Y-14513356D01*
X13116356Y-14767356D02*
X13116356Y-14696644D01*
X13045644Y-14696644D01*
X13045644Y-14767356D01*
X13116356Y-14767356D01*
X13755356Y-8659356D02*
X13755356Y-8588644D01*
X13684644Y-8588644D01*
X13684644Y-8659356D01*
X13755356Y-8659356D01*
X13755356Y-10830356D02*
X13755356Y-10759644D01*
X13684644Y-10759644D01*
X13684644Y-10830356D01*
X13755356Y-10830356D01*
X14005356Y-8659356D02*
X14005356Y-8588644D01*
X13934644Y-8588644D01*
X13934644Y-8659356D01*
X14005356Y-8659356D01*
X14005356Y-10830356D02*
X14005356Y-10759644D01*
X13934644Y-10759644D01*
X13934644Y-10830356D01*
X14005356Y-10830356D01*
X14255356Y-8659356D02*
X14255356Y-8588644D01*
X14184644Y-8588644D01*
X14184644Y-8659356D01*
X14255356Y-8659356D01*
X14255356Y-10830356D02*
X14255356Y-10759644D01*
X14184644Y-10759644D01*
X14184644Y-10830356D01*
X14255356Y-10830356D01*
X14703856Y-7464856D02*
X14703856Y-7394144D01*
X14633144Y-7394144D01*
X14633144Y-7464856D01*
X14703856Y-7464856D01*
X14957856Y-7464856D02*
X14957856Y-7394144D01*
X14887144Y-7394144D01*
X14887144Y-7464856D01*
X14957856Y-7464856D01*
X15211856Y-7464856D02*
X15211856Y-7394144D01*
X15141144Y-7394144D01*
X15141144Y-7464856D01*
X15211856Y-7464856D01*
X15719856Y-7464856D02*
X15719856Y-7394144D01*
X15649144Y-7394144D01*
X15649144Y-7464856D01*
X15719856Y-7464856D01*
X15973856Y-7464856D02*
X15973856Y-7394144D01*
X15903144Y-7394144D01*
X15903144Y-7464856D01*
X15973856Y-7464856D01*
X16227856Y-7464856D02*
X16227856Y-7394144D01*
X16157144Y-7394144D01*
X16157144Y-7464856D01*
X16227856Y-7464856D01*
X16676356Y-8659356D02*
X16676356Y-8588644D01*
X16605644Y-8588644D01*
X16605644Y-8659356D01*
X16676356Y-8659356D01*
X16676356Y-10830356D02*
X16676356Y-10759644D01*
X16605644Y-10759644D01*
X16605644Y-10830356D01*
X16676356Y-10830356D01*
X16676356Y-12989356D02*
X16676356Y-12918644D01*
X16605644Y-12918644D01*
X16605644Y-12989356D01*
X16676356Y-12989356D01*
X16926356Y-8659356D02*
X16926356Y-8588644D01*
X16855644Y-8588644D01*
X16855644Y-8659356D01*
X16926356Y-8659356D01*
X16926356Y-10830356D02*
X16926356Y-10759644D01*
X16855644Y-10759644D01*
X16855644Y-10830356D01*
X16926356Y-10830356D01*
X16926356Y-12989356D02*
X16926356Y-12918644D01*
X16855644Y-12918644D01*
X16855644Y-12989356D01*
X16926356Y-12989356D01*
X17176356Y-8659356D02*
X17176356Y-8588644D01*
X17105644Y-8588644D01*
X17105644Y-8659356D01*
X17176356Y-8659356D01*
X17176356Y-10830356D02*
X17176356Y-10759644D01*
X17105644Y-10759644D01*
X17105644Y-10830356D01*
X17176356Y-10830356D01*
X17176356Y-12989356D02*
X17176356Y-12918644D01*
X17105644Y-12918644D01*
X17105644Y-12989356D01*
X17176356Y-12989356D01*
X18323356Y-7528356D02*
X18323356Y-7457644D01*
X18252644Y-7457644D01*
X18252644Y-7528356D01*
X18323356Y-7528356D01*
X18323356Y-7782356D02*
X18323356Y-7711644D01*
X18252644Y-7711644D01*
X18252644Y-7782356D01*
X18323356Y-7782356D01*
X18399556Y-8417356D02*
X18399556Y-8346644D01*
X18328844Y-8346644D01*
X18328844Y-8417356D01*
X18399556Y-8417356D01*
X18399556Y-8671356D02*
X18399556Y-8600644D01*
X18328844Y-8600644D01*
X18328844Y-8671356D01*
X18399556Y-8671356D01*
X18399556Y-8925356D02*
X18399556Y-8854644D01*
X18328844Y-8854644D01*
X18328844Y-8925356D01*
X18399556Y-8925356D01*
X18399556Y-9179356D02*
X18399556Y-9108644D01*
X18328844Y-9108644D01*
X18328844Y-9179356D01*
X18399556Y-9179356D01*
X18399556Y-11211356D02*
X18399556Y-11140644D01*
X18328844Y-11140644D01*
X18328844Y-11211356D01*
X18399556Y-11211356D01*
X18399556Y-11465356D02*
X18399556Y-11394644D01*
X18328844Y-11394644D01*
X18328844Y-11465356D01*
X18399556Y-11465356D01*
X18399556Y-11719356D02*
X18399556Y-11648644D01*
X18328844Y-11648644D01*
X18328844Y-11719356D01*
X18399556Y-11719356D01*
X18399556Y-11973356D02*
X18399556Y-11902644D01*
X18328844Y-11902644D01*
X18328844Y-11973356D01*
X18399556Y-11973356D01*
X18399556Y-12227356D02*
X18399556Y-12156644D01*
X18328844Y-12156644D01*
X18328844Y-12227356D01*
X18399556Y-12227356D01*
X18399556Y-12481356D02*
X18399556Y-12410644D01*
X18328844Y-12410644D01*
X18328844Y-12481356D01*
X18399556Y-12481356D01*
X18399556Y-12735356D02*
X18399556Y-12664644D01*
X18328844Y-12664644D01*
X18328844Y-12735356D01*
X18399556Y-12735356D01*
X18399556Y-12989356D02*
X18399556Y-12918644D01*
X18328844Y-12918644D01*
X18328844Y-12989356D01*
X18399556Y-12989356D01*
X18450356Y-13941856D02*
X18450356Y-13871144D01*
X18379644Y-13871144D01*
X18379644Y-13941856D01*
X18450356Y-13941856D01*
X18450356Y-14195856D02*
X18450356Y-14125144D01*
X18379644Y-14125144D01*
X18379644Y-14195856D01*
X18450356Y-14195856D01*
X19597356Y-9941356D02*
X19597356Y-9870644D01*
X19526644Y-9870644D01*
X19526644Y-9941356D01*
X19597356Y-9941356D01*
X19597356Y-12100356D02*
X19597356Y-12029644D01*
X19526644Y-12029644D01*
X19526644Y-12100356D01*
X19597356Y-12100356D01*
X19847356Y-9941356D02*
X19847356Y-9870644D01*
X19776644Y-9870644D01*
X19776644Y-9941356D01*
X19847356Y-9941356D01*
X19847356Y-12100356D02*
X19847356Y-12029644D01*
X19776644Y-12029644D01*
X19776644Y-12100356D01*
X19847356Y-12100356D01*
X20097356Y-9941356D02*
X20097356Y-9870644D01*
X20026644Y-9870644D01*
X20026644Y-9941356D01*
X20097356Y-9941356D01*
X20097356Y-12100356D02*
X20097356Y-12029644D01*
X20026644Y-12029644D01*
X20026644Y-12100356D01*
X20097356Y-12100356D01*
X20736356Y-7528356D02*
X20736356Y-7457644D01*
X20665644Y-7457644D01*
X20665644Y-7528356D01*
X20736356Y-7528356D01*
X20736356Y-7782356D02*
X20736356Y-7711644D01*
X20665644Y-7711644D01*
X20665644Y-7782356D01*
X20736356Y-7782356D01*
X20736356Y-14513356D02*
X20736356Y-14442644D01*
X20665644Y-14442644D01*
X20665644Y-14513356D01*
X20736356Y-14513356D01*
X20736356Y-14767356D02*
X20736356Y-14696644D01*
X20665644Y-14696644D01*
X20665644Y-14767356D01*
X20736356Y-14767356D01*
X13490000Y-7929000D02*
X13545000Y-7874000D01*
X13490000Y-7819000D01*
X13435000Y-7874000D01*
X13490000Y-7929000D01*
X13445000Y-7839000D02*
X13445000Y-7909000D01*
X13535000Y-7839000D02*
X13535000Y-7909000D01*
X13445000Y-7909000D02*
G75*
G03*
X13535000Y-7909000I45000J0D01*
G01*
X13535000Y-7839000D02*
G75*
G03*
X13445000Y-7839000I-45000J0D01*
G01*
X13490000Y-10100000D02*
X13545000Y-10045000D01*
X13490000Y-9990000D01*
X13435000Y-10045000D01*
X13490000Y-10100000D01*
X13445000Y-10010000D02*
X13445000Y-10080000D01*
X13535000Y-10010000D02*
X13535000Y-10080000D01*
X13445000Y-10080000D02*
G75*
G03*
X13535000Y-10080000I45000J0D01*
G01*
X13535000Y-10010000D02*
G75*
G03*
X13445000Y-10010000I-45000J0D01*
G01*
X14450000Y-7929000D02*
X14505000Y-7874000D01*
X14450000Y-7819000D01*
X14395000Y-7874000D01*
X14450000Y-7929000D01*
X14405000Y-7839000D02*
X14405000Y-7909000D01*
X14495000Y-7839000D02*
X14495000Y-7909000D01*
X14405000Y-7909000D02*
G75*
G03*
X14495000Y-7909000I45000J0D01*
G01*
X14495000Y-7839000D02*
G75*
G03*
X14405000Y-7839000I-45000J0D01*
G01*
X14450000Y-10100000D02*
X14505000Y-10045000D01*
X14450000Y-9990000D01*
X14395000Y-10045000D01*
X14450000Y-10100000D01*
X14405000Y-10010000D02*
X14405000Y-10080000D01*
X14495000Y-10010000D02*
X14495000Y-10080000D01*
X14405000Y-10080000D02*
G75*
G03*
X14495000Y-10080000I45000J0D01*
G01*
X14495000Y-10010000D02*
G75*
G03*
X14405000Y-10010000I-45000J0D01*
G01*
X16411000Y-7929000D02*
X16466000Y-7874000D01*
X16411000Y-7819000D01*
X16356000Y-7874000D01*
X16411000Y-7929000D01*
X16366000Y-7839000D02*
X16366000Y-7909000D01*
X16456000Y-7839000D02*
X16456000Y-7909000D01*
X16366000Y-7909000D02*
G75*
G03*
X16456000Y-7909000I45000J0D01*
G01*
X16456000Y-7839000D02*
G75*
G03*
X16366000Y-7839000I-45000J0D01*
G01*
X16411000Y-10100000D02*
X16466000Y-10045000D01*
X16411000Y-9990000D01*
X16356000Y-10045000D01*
X16411000Y-10100000D01*
X16366000Y-10010000D02*
X16366000Y-10080000D01*
X16456000Y-10010000D02*
X16456000Y-10080000D01*
X16366000Y-10080000D02*
G75*
G03*
X16456000Y-10080000I45000J0D01*
G01*
X16456000Y-10010000D02*
G75*
G03*
X16366000Y-10010000I-45000J0D01*
G01*
X16411000Y-12259000D02*
X16466000Y-12204000D01*
X16411000Y-12149000D01*
X16356000Y-12204000D01*
X16411000Y-12259000D01*
X16366000Y-12169000D02*
X16366000Y-12239000D01*
X16456000Y-12169000D02*
X16456000Y-12239000D01*
X16366000Y-12239000D02*
G75*
G03*
X16456000Y-12239000I45000J0D01*
G01*
X16456000Y-12169000D02*
G75*
G03*
X16366000Y-12169000I-45000J0D01*
G01*
X17371000Y-7929000D02*
X17426000Y-7874000D01*
X17371000Y-7819000D01*
X17316000Y-7874000D01*
X17371000Y-7929000D01*
X17326000Y-7839000D02*
X17326000Y-7909000D01*
X17416000Y-7839000D02*
X17416000Y-7909000D01*
X17326000Y-7909000D02*
G75*
G03*
X17416000Y-7909000I45000J0D01*
G01*
X17416000Y-7839000D02*
G75*
G03*
X17326000Y-7839000I-45000J0D01*
G01*
X17371000Y-10100000D02*
X17426000Y-10045000D01*
X17371000Y-9990000D01*
X17316000Y-10045000D01*
X17371000Y-10100000D01*
X17326000Y-10010000D02*
X17326000Y-10080000D01*
X17416000Y-10010000D02*
X17416000Y-10080000D01*
X17326000Y-10080000D02*
G75*
G03*
X17416000Y-10080000I45000J0D01*
G01*
X17416000Y-10010000D02*
G75*
G03*
X17326000Y-10010000I-45000J0D01*
G01*
X17371000Y-12259000D02*
X17426000Y-12204000D01*
X17371000Y-12149000D01*
X17316000Y-12204000D01*
X17371000Y-12259000D01*
X17326000Y-12169000D02*
X17326000Y-12239000D01*
X17416000Y-12169000D02*
X17416000Y-12239000D01*
X17326000Y-12239000D02*
G75*
G03*
X17416000Y-12239000I45000J0D01*
G01*
X17416000Y-12169000D02*
G75*
G03*
X17326000Y-12169000I-45000J0D01*
G01*
X19332000Y-9211000D02*
X19387000Y-9156000D01*
X19332000Y-9101000D01*
X19277000Y-9156000D01*
X19332000Y-9211000D01*
X19287000Y-9121000D02*
X19287000Y-9191000D01*
X19377000Y-9121000D02*
X19377000Y-9191000D01*
X19287000Y-9191000D02*
G75*
G03*
X19377000Y-9191000I45000J0D01*
G01*
X19377000Y-9121000D02*
G75*
G03*
X19287000Y-9121000I-45000J0D01*
G01*
X19332000Y-11370000D02*
X19387000Y-11315000D01*
X19332000Y-11260000D01*
X19277000Y-11315000D01*
X19332000Y-11370000D01*
X19287000Y-11280000D02*
X19287000Y-11350000D01*
X19377000Y-11280000D02*
X19377000Y-11350000D01*
X19287000Y-11350000D02*
G75*
G03*
X19377000Y-11350000I45000J0D01*
G01*
X19377000Y-11280000D02*
G75*
G03*
X19287000Y-11280000I-45000J0D01*
G01*
X20292000Y-9211000D02*
X20347000Y-9156000D01*
X20292000Y-9101000D01*
X20237000Y-9156000D01*
X20292000Y-9211000D01*
X20247000Y-9121000D02*
X20247000Y-9191000D01*
X20337000Y-9121000D02*
X20337000Y-9191000D01*
X20247000Y-9191000D02*
G75*
G03*
X20337000Y-9191000I45000J0D01*
G01*
X20337000Y-9121000D02*
G75*
G03*
X20247000Y-9121000I-45000J0D01*
G01*
X20292000Y-11370000D02*
X20347000Y-11315000D01*
X20292000Y-11260000D01*
X20237000Y-11315000D01*
X20292000Y-11370000D01*
X20247000Y-11280000D02*
X20247000Y-11350000D01*
X20337000Y-11280000D02*
X20337000Y-11350000D01*
X20247000Y-11350000D02*
G75*
G03*
X20337000Y-11350000I45000J0D01*
G01*
X20337000Y-11280000D02*
G75*
G03*
X20247000Y-11280000I-45000J0D01*
G01*
X13636000Y-11629500D02*
X13821000Y-11814500D01*
X13821000Y-11629500D02*
X13636000Y-11814500D01*
X13821000Y-11722000D02*
G75*
G03*
X13821000Y-11722000I-92500J0D01*
G01*
X13636000Y-12099500D02*
X13821000Y-12284500D01*
X13821000Y-12099500D02*
X13636000Y-12284500D01*
X13821000Y-12192000D02*
G75*
G03*
X13821000Y-12192000I-92500J0D01*
G01*
X13636000Y-12569500D02*
X13821000Y-12754500D01*
X13821000Y-12569500D02*
X13636000Y-12754500D01*
X13821000Y-12662000D02*
G75*
G03*
X13821000Y-12662000I-92500J0D01*
G01*
X14119000Y-11629500D02*
X14304000Y-11814500D01*
X14304000Y-11629500D02*
X14119000Y-11814500D01*
X14304000Y-11722000D02*
G75*
G03*
X14304000Y-11722000I-92500J0D01*
G01*
X14119000Y-12099500D02*
X14304000Y-12284500D01*
X14304000Y-12099500D02*
X14119000Y-12284500D01*
X14304000Y-12192000D02*
G75*
G03*
X14304000Y-12192000I-92500J0D01*
G01*
X14119000Y-12569500D02*
X14304000Y-12754500D01*
X14304000Y-12569500D02*
X14119000Y-12754500D01*
X14304000Y-12662000D02*
G75*
G03*
X14304000Y-12662000I-92500J0D01*
G01*
D12*
X12983928Y-15581214D02*
X12983928Y-15281214D01*
X13055357Y-15281214D01*
X13098214Y-15295500D01*
X13126786Y-15324071D01*
X13141071Y-15352643D01*
X13155357Y-15409786D01*
X13155357Y-15452643D01*
X13141071Y-15509786D01*
X13126786Y-15538357D01*
X13098214Y-15566929D01*
X13055357Y-15581214D01*
X12983928Y-15581214D01*
X13283928Y-15581214D02*
X13283928Y-15381214D01*
X13283928Y-15438357D02*
X13298214Y-15409786D01*
X13312500Y-15395500D01*
X13341071Y-15381214D01*
X13369643Y-15381214D01*
X13469643Y-15581214D02*
X13469643Y-15381214D01*
X13469643Y-15281214D02*
X13455357Y-15295500D01*
X13469643Y-15309786D01*
X13483928Y-15295500D01*
X13469643Y-15281214D01*
X13469643Y-15309786D01*
X13655357Y-15581214D02*
X13626786Y-15566929D01*
X13612500Y-15538357D01*
X13612500Y-15281214D01*
X13812500Y-15581214D02*
X13783928Y-15566929D01*
X13769643Y-15538357D01*
X13769643Y-15281214D01*
X14155357Y-15581214D02*
X14155357Y-15281214D01*
X14255357Y-15495500D01*
X14355357Y-15281214D01*
X14355357Y-15581214D01*
X14626786Y-15581214D02*
X14626786Y-15424071D01*
X14612500Y-15395500D01*
X14583928Y-15381214D01*
X14526786Y-15381214D01*
X14498214Y-15395500D01*
X14626786Y-15566929D02*
X14598214Y-15581214D01*
X14526786Y-15581214D01*
X14498214Y-15566929D01*
X14483928Y-15538357D01*
X14483928Y-15509786D01*
X14498214Y-15481214D01*
X14526786Y-15466929D01*
X14598214Y-15466929D01*
X14626786Y-15452643D01*
X14769643Y-15381214D02*
X14769643Y-15681214D01*
X14769643Y-15395500D02*
X14798214Y-15381214D01*
X14855357Y-15381214D01*
X14883928Y-15395500D01*
X14898214Y-15409786D01*
X14912500Y-15438357D01*
X14912500Y-15524071D01*
X14898214Y-15552643D01*
X14883928Y-15566929D01*
X14855357Y-15581214D01*
X14798214Y-15581214D01*
X14769643Y-15566929D01*
X15041071Y-15552643D02*
X15055357Y-15566929D01*
X15041071Y-15581214D01*
X15026786Y-15566929D01*
X15041071Y-15552643D01*
X15041071Y-15581214D01*
X15041071Y-15395500D02*
X15055357Y-15409786D01*
X15041071Y-15424071D01*
X15026786Y-15409786D01*
X15041071Y-15395500D01*
X15041071Y-15424071D01*
X12657500Y-16055500D02*
X12697500Y-16095500D01*
X12697500Y-16055500D02*
X12657500Y-16095500D01*
X13041071Y-15911214D02*
X13069643Y-15911214D01*
X13098214Y-15925500D01*
X13112500Y-15939786D01*
X13126786Y-15968357D01*
X13141071Y-16025500D01*
X13141071Y-16096929D01*
X13126786Y-16154071D01*
X13112500Y-16182643D01*
X13098214Y-16196929D01*
X13069643Y-16211214D01*
X13041071Y-16211214D01*
X13012500Y-16196929D01*
X12998214Y-16182643D01*
X12983928Y-16154071D01*
X12969643Y-16096929D01*
X12969643Y-16025500D01*
X12983928Y-15968357D01*
X12998214Y-15939786D01*
X13012500Y-15925500D01*
X13041071Y-15911214D01*
X13269643Y-16182643D02*
X13283928Y-16196929D01*
X13269643Y-16211214D01*
X13255357Y-16196929D01*
X13269643Y-16182643D01*
X13269643Y-16211214D01*
X13541071Y-16011214D02*
X13541071Y-16211214D01*
X13469643Y-15896929D02*
X13398214Y-16111214D01*
X13583928Y-16111214D01*
X13755357Y-15911214D02*
X13783928Y-15911214D01*
X13812500Y-15925500D01*
X13826786Y-15939786D01*
X13841071Y-15968357D01*
X13855357Y-16025500D01*
X13855357Y-16096929D01*
X13841071Y-16154071D01*
X13826786Y-16182643D01*
X13812500Y-16196929D01*
X13783928Y-16211214D01*
X13755357Y-16211214D01*
X13726786Y-16196929D01*
X13712500Y-16182643D01*
X13698214Y-16154071D01*
X13683928Y-16096929D01*
X13683928Y-16025500D01*
X13698214Y-15968357D01*
X13712500Y-15939786D01*
X13726786Y-15925500D01*
X13755357Y-15911214D01*
X14041071Y-15911214D02*
X14069643Y-15911214D01*
X14098214Y-15925500D01*
X14112500Y-15939786D01*
X14126786Y-15968357D01*
X14141071Y-16025500D01*
X14141071Y-16096929D01*
X14126786Y-16154071D01*
X14112500Y-16182643D01*
X14098214Y-16196929D01*
X14069643Y-16211214D01*
X14041071Y-16211214D01*
X14012500Y-16196929D01*
X13998214Y-16182643D01*
X13983928Y-16154071D01*
X13969643Y-16096929D01*
X13969643Y-16025500D01*
X13983928Y-15968357D01*
X13998214Y-15939786D01*
X14012500Y-15925500D01*
X14041071Y-15911214D01*
X14269643Y-16211214D02*
X14269643Y-16011214D01*
X14269643Y-16039786D02*
X14283928Y-16025500D01*
X14312500Y-16011214D01*
X14355357Y-16011214D01*
X14383928Y-16025500D01*
X14398214Y-16054071D01*
X14398214Y-16211214D01*
X14398214Y-16054071D02*
X14412500Y-16025500D01*
X14441071Y-16011214D01*
X14483928Y-16011214D01*
X14512500Y-16025500D01*
X14526786Y-16054071D01*
X14526786Y-16211214D01*
X14669643Y-16211214D02*
X14669643Y-16011214D01*
X14669643Y-16039786D02*
X14683928Y-16025500D01*
X14712500Y-16011214D01*
X14755357Y-16011214D01*
X14783928Y-16025500D01*
X14798214Y-16054071D01*
X14798214Y-16211214D01*
X14798214Y-16054071D02*
X14812500Y-16025500D01*
X14841071Y-16011214D01*
X14883928Y-16011214D01*
X14912500Y-16025500D01*
X14926786Y-16054071D01*
X14926786Y-16211214D01*
X15512500Y-15896929D02*
X15255357Y-16282643D01*
X15898214Y-15911214D02*
X15926786Y-15911214D01*
X15955357Y-15925500D01*
X15969643Y-15939786D01*
X15983928Y-15968357D01*
X15998214Y-16025500D01*
X15998214Y-16096929D01*
X15983928Y-16154071D01*
X15969643Y-16182643D01*
X15955357Y-16196929D01*
X15926786Y-16211214D01*
X15898214Y-16211214D01*
X15869643Y-16196929D01*
X15855357Y-16182643D01*
X15841071Y-16154071D01*
X15826786Y-16096929D01*
X15826786Y-16025500D01*
X15841071Y-15968357D01*
X15855357Y-15939786D01*
X15869643Y-15925500D01*
X15898214Y-15911214D01*
X16126786Y-16182643D02*
X16141071Y-16196929D01*
X16126786Y-16211214D01*
X16112500Y-16196929D01*
X16126786Y-16182643D01*
X16126786Y-16211214D01*
X16326786Y-15911214D02*
X16355357Y-15911214D01*
X16383928Y-15925500D01*
X16398214Y-15939786D01*
X16412500Y-15968357D01*
X16426786Y-16025500D01*
X16426786Y-16096929D01*
X16412500Y-16154071D01*
X16398214Y-16182643D01*
X16383928Y-16196929D01*
X16355357Y-16211214D01*
X16326786Y-16211214D01*
X16298214Y-16196929D01*
X16283928Y-16182643D01*
X16269643Y-16154071D01*
X16255357Y-16096929D01*
X16255357Y-16025500D01*
X16269643Y-15968357D01*
X16283928Y-15939786D01*
X16298214Y-15925500D01*
X16326786Y-15911214D01*
X16712500Y-16211214D02*
X16541071Y-16211214D01*
X16626786Y-16211214D02*
X16626786Y-15911214D01*
X16598214Y-15954071D01*
X16569643Y-15982643D01*
X16541071Y-15996929D01*
X16983928Y-15911214D02*
X16841071Y-15911214D01*
X16826786Y-16054071D01*
X16841071Y-16039786D01*
X16869643Y-16025500D01*
X16941071Y-16025500D01*
X16969643Y-16039786D01*
X16983928Y-16054071D01*
X16998214Y-16082643D01*
X16998214Y-16154071D01*
X16983928Y-16182643D01*
X16969643Y-16196929D01*
X16941071Y-16211214D01*
X16869643Y-16211214D01*
X16841071Y-16196929D01*
X16826786Y-16182643D01*
X17098214Y-15911214D02*
X17298214Y-15911214D01*
X17169643Y-16211214D01*
X17398214Y-15911214D02*
X17398214Y-15968357D01*
X17512500Y-15911214D02*
X17512500Y-15968357D01*
X17955357Y-16325500D02*
X17941071Y-16311214D01*
X17912500Y-16268357D01*
X17898214Y-16239786D01*
X17883928Y-16196929D01*
X17869643Y-16125500D01*
X17869643Y-16068357D01*
X17883928Y-15996929D01*
X17898214Y-15954071D01*
X17912500Y-15925500D01*
X17941071Y-15882643D01*
X17955357Y-15868357D01*
X18226786Y-16211214D02*
X18055357Y-16211214D01*
X18141071Y-16211214D02*
X18141071Y-15911214D01*
X18112500Y-15954071D01*
X18083928Y-15982643D01*
X18055357Y-15996929D01*
X18412500Y-15911214D02*
X18441071Y-15911214D01*
X18469643Y-15925500D01*
X18483928Y-15939786D01*
X18498214Y-15968357D01*
X18512500Y-16025500D01*
X18512500Y-16096929D01*
X18498214Y-16154071D01*
X18483928Y-16182643D01*
X18469643Y-16196929D01*
X18441071Y-16211214D01*
X18412500Y-16211214D01*
X18383928Y-16196929D01*
X18369643Y-16182643D01*
X18355357Y-16154071D01*
X18341071Y-16096929D01*
X18341071Y-16025500D01*
X18355357Y-15968357D01*
X18369643Y-15939786D01*
X18383928Y-15925500D01*
X18412500Y-15911214D01*
X18612500Y-15911214D02*
X18798214Y-15911214D01*
X18698214Y-16025500D01*
X18741071Y-16025500D01*
X18769643Y-16039786D01*
X18783928Y-16054071D01*
X18798214Y-16082643D01*
X18798214Y-16154071D01*
X18783928Y-16182643D01*
X18769643Y-16196929D01*
X18741071Y-16211214D01*
X18655357Y-16211214D01*
X18626786Y-16196929D01*
X18612500Y-16182643D01*
X19155357Y-16211214D02*
X19155357Y-15911214D01*
X19283928Y-16211214D02*
X19283928Y-16054071D01*
X19269643Y-16025500D01*
X19241071Y-16011214D01*
X19198214Y-16011214D01*
X19169643Y-16025500D01*
X19155357Y-16039786D01*
X19469643Y-16211214D02*
X19441071Y-16196929D01*
X19426786Y-16182643D01*
X19412500Y-16154071D01*
X19412500Y-16068357D01*
X19426786Y-16039786D01*
X19441071Y-16025500D01*
X19469643Y-16011214D01*
X19512500Y-16011214D01*
X19541071Y-16025500D01*
X19555357Y-16039786D01*
X19569643Y-16068357D01*
X19569643Y-16154071D01*
X19555357Y-16182643D01*
X19541071Y-16196929D01*
X19512500Y-16211214D01*
X19469643Y-16211214D01*
X19741071Y-16211214D02*
X19712500Y-16196929D01*
X19698214Y-16168357D01*
X19698214Y-15911214D01*
X19969643Y-16196929D02*
X19941071Y-16211214D01*
X19883928Y-16211214D01*
X19855357Y-16196929D01*
X19841071Y-16168357D01*
X19841071Y-16054071D01*
X19855357Y-16025500D01*
X19883928Y-16011214D01*
X19941071Y-16011214D01*
X19969643Y-16025500D01*
X19983928Y-16054071D01*
X19983928Y-16082643D01*
X19841071Y-16111214D01*
X20098214Y-16196929D02*
X20126786Y-16211214D01*
X20183928Y-16211214D01*
X20212500Y-16196929D01*
X20226786Y-16168357D01*
X20226786Y-16154071D01*
X20212500Y-16125500D01*
X20183928Y-16111214D01*
X20141071Y-16111214D01*
X20112500Y-16096929D01*
X20098214Y-16068357D01*
X20098214Y-16054071D01*
X20112500Y-16025500D01*
X20141071Y-16011214D01*
X20183928Y-16011214D01*
X20212500Y-16025500D01*
X20326786Y-16325500D02*
X20341071Y-16311214D01*
X20369643Y-16268357D01*
X20383928Y-16239786D01*
X20398214Y-16196929D01*
X20412500Y-16125500D01*
X20412500Y-16068357D01*
X20398214Y-15996929D01*
X20383928Y-15954071D01*
X20369643Y-15925500D01*
X20341071Y-15882643D01*
X20326786Y-15868357D01*
X12697500Y-16471500D02*
G75*
G03*
X12697500Y-16471500I-40000J0D01*
G01*
X13041071Y-16307214D02*
X13069643Y-16307214D01*
X13098214Y-16321500D01*
X13112500Y-16335786D01*
X13126786Y-16364357D01*
X13141071Y-16421500D01*
X13141071Y-16492929D01*
X13126786Y-16550071D01*
X13112500Y-16578643D01*
X13098214Y-16592929D01*
X13069643Y-16607214D01*
X13041071Y-16607214D01*
X13012500Y-16592929D01*
X12998214Y-16578643D01*
X12983928Y-16550071D01*
X12969643Y-16492929D01*
X12969643Y-16421500D01*
X12983928Y-16364357D01*
X12998214Y-16335786D01*
X13012500Y-16321500D01*
X13041071Y-16307214D01*
X13269643Y-16578643D02*
X13283928Y-16592929D01*
X13269643Y-16607214D01*
X13255357Y-16592929D01*
X13269643Y-16578643D01*
X13269643Y-16607214D01*
X13455357Y-16435786D02*
X13426786Y-16421500D01*
X13412500Y-16407214D01*
X13398214Y-16378643D01*
X13398214Y-16364357D01*
X13412500Y-16335786D01*
X13426786Y-16321500D01*
X13455357Y-16307214D01*
X13512500Y-16307214D01*
X13541071Y-16321500D01*
X13555357Y-16335786D01*
X13569643Y-16364357D01*
X13569643Y-16378643D01*
X13555357Y-16407214D01*
X13541071Y-16421500D01*
X13512500Y-16435786D01*
X13455357Y-16435786D01*
X13426786Y-16450071D01*
X13412500Y-16464357D01*
X13398214Y-16492929D01*
X13398214Y-16550071D01*
X13412500Y-16578643D01*
X13426786Y-16592929D01*
X13455357Y-16607214D01*
X13512500Y-16607214D01*
X13541071Y-16592929D01*
X13555357Y-16578643D01*
X13569643Y-16550071D01*
X13569643Y-16492929D01*
X13555357Y-16464357D01*
X13541071Y-16450071D01*
X13512500Y-16435786D01*
X13755357Y-16307214D02*
X13783928Y-16307214D01*
X13812500Y-16321500D01*
X13826786Y-16335786D01*
X13841071Y-16364357D01*
X13855357Y-16421500D01*
X13855357Y-16492929D01*
X13841071Y-16550071D01*
X13826786Y-16578643D01*
X13812500Y-16592929D01*
X13783928Y-16607214D01*
X13755357Y-16607214D01*
X13726786Y-16592929D01*
X13712500Y-16578643D01*
X13698214Y-16550071D01*
X13683928Y-16492929D01*
X13683928Y-16421500D01*
X13698214Y-16364357D01*
X13712500Y-16335786D01*
X13726786Y-16321500D01*
X13755357Y-16307214D01*
X14041071Y-16307214D02*
X14069643Y-16307214D01*
X14098214Y-16321500D01*
X14112500Y-16335786D01*
X14126786Y-16364357D01*
X14141071Y-16421500D01*
X14141071Y-16492929D01*
X14126786Y-16550071D01*
X14112500Y-16578643D01*
X14098214Y-16592929D01*
X14069643Y-16607214D01*
X14041071Y-16607214D01*
X14012500Y-16592929D01*
X13998214Y-16578643D01*
X13983928Y-16550071D01*
X13969643Y-16492929D01*
X13969643Y-16421500D01*
X13983928Y-16364357D01*
X13998214Y-16335786D01*
X14012500Y-16321500D01*
X14041071Y-16307214D01*
X14269643Y-16607214D02*
X14269643Y-16407214D01*
X14269643Y-16435786D02*
X14283928Y-16421500D01*
X14312500Y-16407214D01*
X14355357Y-16407214D01*
X14383928Y-16421500D01*
X14398214Y-16450071D01*
X14398214Y-16607214D01*
X14398214Y-16450071D02*
X14412500Y-16421500D01*
X14441071Y-16407214D01*
X14483928Y-16407214D01*
X14512500Y-16421500D01*
X14526786Y-16450071D01*
X14526786Y-16607214D01*
X14669643Y-16607214D02*
X14669643Y-16407214D01*
X14669643Y-16435786D02*
X14683928Y-16421500D01*
X14712500Y-16407214D01*
X14755357Y-16407214D01*
X14783928Y-16421500D01*
X14798214Y-16450071D01*
X14798214Y-16607214D01*
X14798214Y-16450071D02*
X14812500Y-16421500D01*
X14841071Y-16407214D01*
X14883928Y-16407214D01*
X14912500Y-16421500D01*
X14926786Y-16450071D01*
X14926786Y-16607214D01*
X15512500Y-16292929D02*
X15255357Y-16678643D01*
X15898214Y-16307214D02*
X15926786Y-16307214D01*
X15955357Y-16321500D01*
X15969643Y-16335786D01*
X15983928Y-16364357D01*
X15998214Y-16421500D01*
X15998214Y-16492929D01*
X15983928Y-16550071D01*
X15969643Y-16578643D01*
X15955357Y-16592929D01*
X15926786Y-16607214D01*
X15898214Y-16607214D01*
X15869643Y-16592929D01*
X15855357Y-16578643D01*
X15841071Y-16550071D01*
X15826786Y-16492929D01*
X15826786Y-16421500D01*
X15841071Y-16364357D01*
X15855357Y-16335786D01*
X15869643Y-16321500D01*
X15898214Y-16307214D01*
X16126786Y-16578643D02*
X16141071Y-16592929D01*
X16126786Y-16607214D01*
X16112500Y-16592929D01*
X16126786Y-16578643D01*
X16126786Y-16607214D01*
X16326786Y-16307214D02*
X16355357Y-16307214D01*
X16383928Y-16321500D01*
X16398214Y-16335786D01*
X16412500Y-16364357D01*
X16426786Y-16421500D01*
X16426786Y-16492929D01*
X16412500Y-16550071D01*
X16398214Y-16578643D01*
X16383928Y-16592929D01*
X16355357Y-16607214D01*
X16326786Y-16607214D01*
X16298214Y-16592929D01*
X16283928Y-16578643D01*
X16269643Y-16550071D01*
X16255357Y-16492929D01*
X16255357Y-16421500D01*
X16269643Y-16364357D01*
X16283928Y-16335786D01*
X16298214Y-16321500D01*
X16326786Y-16307214D01*
X16526786Y-16307214D02*
X16712500Y-16307214D01*
X16612500Y-16421500D01*
X16655357Y-16421500D01*
X16683928Y-16435786D01*
X16698214Y-16450071D01*
X16712500Y-16478643D01*
X16712500Y-16550071D01*
X16698214Y-16578643D01*
X16683928Y-16592929D01*
X16655357Y-16607214D01*
X16569643Y-16607214D01*
X16541071Y-16592929D01*
X16526786Y-16578643D01*
X16998214Y-16607214D02*
X16826786Y-16607214D01*
X16912500Y-16607214D02*
X16912500Y-16307214D01*
X16883928Y-16350071D01*
X16855357Y-16378643D01*
X16826786Y-16392929D01*
X17269643Y-16307214D02*
X17126786Y-16307214D01*
X17112500Y-16450071D01*
X17126786Y-16435786D01*
X17155357Y-16421500D01*
X17226786Y-16421500D01*
X17255357Y-16435786D01*
X17269643Y-16450071D01*
X17283928Y-16478643D01*
X17283928Y-16550071D01*
X17269643Y-16578643D01*
X17255357Y-16592929D01*
X17226786Y-16607214D01*
X17155357Y-16607214D01*
X17126786Y-16592929D01*
X17112500Y-16578643D01*
X17398214Y-16307214D02*
X17398214Y-16364357D01*
X17512500Y-16307214D02*
X17512500Y-16364357D01*
X17955357Y-16721500D02*
X17941071Y-16707214D01*
X17912500Y-16664357D01*
X17898214Y-16635786D01*
X17883928Y-16592929D01*
X17869643Y-16521500D01*
X17869643Y-16464357D01*
X17883928Y-16392929D01*
X17898214Y-16350071D01*
X17912500Y-16321500D01*
X17941071Y-16278643D01*
X17955357Y-16264357D01*
X18226786Y-16607214D02*
X18055357Y-16607214D01*
X18141071Y-16607214D02*
X18141071Y-16307214D01*
X18112500Y-16350071D01*
X18083928Y-16378643D01*
X18055357Y-16392929D01*
X18326786Y-16307214D02*
X18512500Y-16307214D01*
X18412500Y-16421500D01*
X18455357Y-16421500D01*
X18483928Y-16435786D01*
X18498214Y-16450071D01*
X18512500Y-16478643D01*
X18512500Y-16550071D01*
X18498214Y-16578643D01*
X18483928Y-16592929D01*
X18455357Y-16607214D01*
X18369643Y-16607214D01*
X18341071Y-16592929D01*
X18326786Y-16578643D01*
X18869643Y-16607214D02*
X18869643Y-16307214D01*
X18998214Y-16607214D02*
X18998214Y-16450071D01*
X18983928Y-16421500D01*
X18955357Y-16407214D01*
X18912500Y-16407214D01*
X18883928Y-16421500D01*
X18869643Y-16435786D01*
X19183928Y-16607214D02*
X19155357Y-16592929D01*
X19141071Y-16578643D01*
X19126786Y-16550071D01*
X19126786Y-16464357D01*
X19141071Y-16435786D01*
X19155357Y-16421500D01*
X19183928Y-16407214D01*
X19226786Y-16407214D01*
X19255357Y-16421500D01*
X19269643Y-16435786D01*
X19283928Y-16464357D01*
X19283928Y-16550071D01*
X19269643Y-16578643D01*
X19255357Y-16592929D01*
X19226786Y-16607214D01*
X19183928Y-16607214D01*
X19455357Y-16607214D02*
X19426786Y-16592929D01*
X19412500Y-16564357D01*
X19412500Y-16307214D01*
X19683928Y-16592929D02*
X19655357Y-16607214D01*
X19598214Y-16607214D01*
X19569643Y-16592929D01*
X19555357Y-16564357D01*
X19555357Y-16450071D01*
X19569643Y-16421500D01*
X19598214Y-16407214D01*
X19655357Y-16407214D01*
X19683928Y-16421500D01*
X19698214Y-16450071D01*
X19698214Y-16478643D01*
X19555357Y-16507214D01*
X19812500Y-16592929D02*
X19841071Y-16607214D01*
X19898214Y-16607214D01*
X19926786Y-16592929D01*
X19941071Y-16564357D01*
X19941071Y-16550071D01*
X19926786Y-16521500D01*
X19898214Y-16507214D01*
X19855357Y-16507214D01*
X19826786Y-16492929D01*
X19812500Y-16464357D01*
X19812500Y-16450071D01*
X19826786Y-16421500D01*
X19855357Y-16407214D01*
X19898214Y-16407214D01*
X19926786Y-16421500D01*
X20041071Y-16721500D02*
X20055357Y-16707214D01*
X20083928Y-16664357D01*
X20098214Y-16635786D01*
X20112500Y-16592929D01*
X20126786Y-16521500D01*
X20126786Y-16464357D01*
X20112500Y-16392929D01*
X20098214Y-16350071D01*
X20083928Y-16321500D01*
X20055357Y-16278643D01*
X20041071Y-16264357D01*
X12652500Y-16822500D02*
X12652500Y-16912500D01*
X12607500Y-16867500D02*
X12697500Y-16867500D01*
X13041071Y-16703214D02*
X13069643Y-16703214D01*
X13098214Y-16717500D01*
X13112500Y-16731786D01*
X13126786Y-16760357D01*
X13141071Y-16817500D01*
X13141071Y-16888929D01*
X13126786Y-16946072D01*
X13112500Y-16974643D01*
X13098214Y-16988929D01*
X13069643Y-17003214D01*
X13041071Y-17003214D01*
X13012500Y-16988929D01*
X12998214Y-16974643D01*
X12983928Y-16946072D01*
X12969643Y-16888929D01*
X12969643Y-16817500D01*
X12983928Y-16760357D01*
X12998214Y-16731786D01*
X13012500Y-16717500D01*
X13041071Y-16703214D01*
X13269643Y-16974643D02*
X13283928Y-16988929D01*
X13269643Y-17003214D01*
X13255357Y-16988929D01*
X13269643Y-16974643D01*
X13269643Y-17003214D01*
X13426786Y-17003214D02*
X13483928Y-17003214D01*
X13512500Y-16988929D01*
X13526786Y-16974643D01*
X13555357Y-16931786D01*
X13569643Y-16874643D01*
X13569643Y-16760357D01*
X13555357Y-16731786D01*
X13541071Y-16717500D01*
X13512500Y-16703214D01*
X13455357Y-16703214D01*
X13426786Y-16717500D01*
X13412500Y-16731786D01*
X13398214Y-16760357D01*
X13398214Y-16831786D01*
X13412500Y-16860357D01*
X13426786Y-16874643D01*
X13455357Y-16888929D01*
X13512500Y-16888929D01*
X13541071Y-16874643D01*
X13555357Y-16860357D01*
X13569643Y-16831786D01*
X13755357Y-16703214D02*
X13783928Y-16703214D01*
X13812500Y-16717500D01*
X13826786Y-16731786D01*
X13841071Y-16760357D01*
X13855357Y-16817500D01*
X13855357Y-16888929D01*
X13841071Y-16946072D01*
X13826786Y-16974643D01*
X13812500Y-16988929D01*
X13783928Y-17003214D01*
X13755357Y-17003214D01*
X13726786Y-16988929D01*
X13712500Y-16974643D01*
X13698214Y-16946072D01*
X13683928Y-16888929D01*
X13683928Y-16817500D01*
X13698214Y-16760357D01*
X13712500Y-16731786D01*
X13726786Y-16717500D01*
X13755357Y-16703214D01*
X14041071Y-16703214D02*
X14069643Y-16703214D01*
X14098214Y-16717500D01*
X14112500Y-16731786D01*
X14126786Y-16760357D01*
X14141071Y-16817500D01*
X14141071Y-16888929D01*
X14126786Y-16946072D01*
X14112500Y-16974643D01*
X14098214Y-16988929D01*
X14069643Y-17003214D01*
X14041071Y-17003214D01*
X14012500Y-16988929D01*
X13998214Y-16974643D01*
X13983928Y-16946072D01*
X13969643Y-16888929D01*
X13969643Y-16817500D01*
X13983928Y-16760357D01*
X13998214Y-16731786D01*
X14012500Y-16717500D01*
X14041071Y-16703214D01*
X14269643Y-17003214D02*
X14269643Y-16803214D01*
X14269643Y-16831786D02*
X14283928Y-16817500D01*
X14312500Y-16803214D01*
X14355357Y-16803214D01*
X14383928Y-16817500D01*
X14398214Y-16846072D01*
X14398214Y-17003214D01*
X14398214Y-16846072D02*
X14412500Y-16817500D01*
X14441071Y-16803214D01*
X14483928Y-16803214D01*
X14512500Y-16817500D01*
X14526786Y-16846072D01*
X14526786Y-17003214D01*
X14669643Y-17003214D02*
X14669643Y-16803214D01*
X14669643Y-16831786D02*
X14683928Y-16817500D01*
X14712500Y-16803214D01*
X14755357Y-16803214D01*
X14783928Y-16817500D01*
X14798214Y-16846072D01*
X14798214Y-17003214D01*
X14798214Y-16846072D02*
X14812500Y-16817500D01*
X14841071Y-16803214D01*
X14883928Y-16803214D01*
X14912500Y-16817500D01*
X14926786Y-16846072D01*
X14926786Y-17003214D01*
X15512500Y-16688929D02*
X15255357Y-17074643D01*
X15898214Y-16703214D02*
X15926786Y-16703214D01*
X15955357Y-16717500D01*
X15969643Y-16731786D01*
X15983928Y-16760357D01*
X15998214Y-16817500D01*
X15998214Y-16888929D01*
X15983928Y-16946072D01*
X15969643Y-16974643D01*
X15955357Y-16988929D01*
X15926786Y-17003214D01*
X15898214Y-17003214D01*
X15869643Y-16988929D01*
X15855357Y-16974643D01*
X15841071Y-16946072D01*
X15826786Y-16888929D01*
X15826786Y-16817500D01*
X15841071Y-16760357D01*
X15855357Y-16731786D01*
X15869643Y-16717500D01*
X15898214Y-16703214D01*
X16126786Y-16974643D02*
X16141071Y-16988929D01*
X16126786Y-17003214D01*
X16112500Y-16988929D01*
X16126786Y-16974643D01*
X16126786Y-17003214D01*
X16326786Y-16703214D02*
X16355357Y-16703214D01*
X16383928Y-16717500D01*
X16398214Y-16731786D01*
X16412500Y-16760357D01*
X16426786Y-16817500D01*
X16426786Y-16888929D01*
X16412500Y-16946072D01*
X16398214Y-16974643D01*
X16383928Y-16988929D01*
X16355357Y-17003214D01*
X16326786Y-17003214D01*
X16298214Y-16988929D01*
X16283928Y-16974643D01*
X16269643Y-16946072D01*
X16255357Y-16888929D01*
X16255357Y-16817500D01*
X16269643Y-16760357D01*
X16283928Y-16731786D01*
X16298214Y-16717500D01*
X16326786Y-16703214D01*
X16526786Y-16703214D02*
X16712500Y-16703214D01*
X16612500Y-16817500D01*
X16655357Y-16817500D01*
X16683928Y-16831786D01*
X16698214Y-16846072D01*
X16712500Y-16874643D01*
X16712500Y-16946072D01*
X16698214Y-16974643D01*
X16683928Y-16988929D01*
X16655357Y-17003214D01*
X16569643Y-17003214D01*
X16541071Y-16988929D01*
X16526786Y-16974643D01*
X16983928Y-16703214D02*
X16841071Y-16703214D01*
X16826786Y-16846072D01*
X16841071Y-16831786D01*
X16869643Y-16817500D01*
X16941071Y-16817500D01*
X16969643Y-16831786D01*
X16983928Y-16846072D01*
X16998214Y-16874643D01*
X16998214Y-16946072D01*
X16983928Y-16974643D01*
X16969643Y-16988929D01*
X16941071Y-17003214D01*
X16869643Y-17003214D01*
X16841071Y-16988929D01*
X16826786Y-16974643D01*
X17255357Y-16803214D02*
X17255357Y-17003214D01*
X17183928Y-16688929D02*
X17112500Y-16903214D01*
X17298214Y-16903214D01*
X17398214Y-16703214D02*
X17398214Y-16760357D01*
X17512500Y-16703214D02*
X17512500Y-16760357D01*
X17955357Y-17117500D02*
X17941071Y-17103214D01*
X17912500Y-17060357D01*
X17898214Y-17031786D01*
X17883928Y-16988929D01*
X17869643Y-16917500D01*
X17869643Y-16860357D01*
X17883928Y-16788929D01*
X17898214Y-16746071D01*
X17912500Y-16717500D01*
X17941071Y-16674643D01*
X17955357Y-16660357D01*
X18055357Y-16731786D02*
X18069643Y-16717500D01*
X18098214Y-16703214D01*
X18169643Y-16703214D01*
X18198214Y-16717500D01*
X18212500Y-16731786D01*
X18226786Y-16760357D01*
X18226786Y-16788929D01*
X18212500Y-16831786D01*
X18041071Y-17003214D01*
X18226786Y-17003214D01*
X18583928Y-17003214D02*
X18583928Y-16703214D01*
X18712500Y-17003214D02*
X18712500Y-16846072D01*
X18698214Y-16817500D01*
X18669643Y-16803214D01*
X18626786Y-16803214D01*
X18598214Y-16817500D01*
X18583928Y-16831786D01*
X18898214Y-17003214D02*
X18869643Y-16988929D01*
X18855357Y-16974643D01*
X18841071Y-16946072D01*
X18841071Y-16860357D01*
X18855357Y-16831786D01*
X18869643Y-16817500D01*
X18898214Y-16803214D01*
X18941071Y-16803214D01*
X18969643Y-16817500D01*
X18983928Y-16831786D01*
X18998214Y-16860357D01*
X18998214Y-16946072D01*
X18983928Y-16974643D01*
X18969643Y-16988929D01*
X18941071Y-17003214D01*
X18898214Y-17003214D01*
X19169643Y-17003214D02*
X19141071Y-16988929D01*
X19126786Y-16960357D01*
X19126786Y-16703214D01*
X19398214Y-16988929D02*
X19369643Y-17003214D01*
X19312500Y-17003214D01*
X19283928Y-16988929D01*
X19269643Y-16960357D01*
X19269643Y-16846072D01*
X19283928Y-16817500D01*
X19312500Y-16803214D01*
X19369643Y-16803214D01*
X19398214Y-16817500D01*
X19412500Y-16846072D01*
X19412500Y-16874643D01*
X19269643Y-16903214D01*
X19526786Y-16988929D02*
X19555357Y-17003214D01*
X19612500Y-17003214D01*
X19641071Y-16988929D01*
X19655357Y-16960357D01*
X19655357Y-16946072D01*
X19641071Y-16917500D01*
X19612500Y-16903214D01*
X19569643Y-16903214D01*
X19541071Y-16888929D01*
X19526786Y-16860357D01*
X19526786Y-16846072D01*
X19541071Y-16817500D01*
X19569643Y-16803214D01*
X19612500Y-16803214D01*
X19641071Y-16817500D01*
X19755357Y-17117500D02*
X19769643Y-17103214D01*
X19798214Y-17060357D01*
X19812500Y-17031786D01*
X19826786Y-16988929D01*
X19841071Y-16917500D01*
X19841071Y-16860357D01*
X19826786Y-16788929D01*
X19812500Y-16746071D01*
X19798214Y-16717500D01*
X19769643Y-16674643D01*
X19755357Y-16660357D01*
X12682856Y-17298856D02*
X12682856Y-17228144D01*
X12612144Y-17228144D01*
X12612144Y-17298856D01*
X12682856Y-17298856D01*
X13141071Y-17399214D02*
X12969643Y-17399214D01*
X13055357Y-17399214D02*
X13055357Y-17099214D01*
X13026786Y-17142072D01*
X12998214Y-17170643D01*
X12969643Y-17184929D01*
X13269643Y-17370643D02*
X13283928Y-17384929D01*
X13269643Y-17399214D01*
X13255357Y-17384929D01*
X13269643Y-17370643D01*
X13269643Y-17399214D01*
X13469643Y-17099214D02*
X13498214Y-17099214D01*
X13526786Y-17113500D01*
X13541071Y-17127786D01*
X13555357Y-17156357D01*
X13569643Y-17213500D01*
X13569643Y-17284929D01*
X13555357Y-17342072D01*
X13541071Y-17370643D01*
X13526786Y-17384929D01*
X13498214Y-17399214D01*
X13469643Y-17399214D01*
X13441071Y-17384929D01*
X13426786Y-17370643D01*
X13412500Y-17342072D01*
X13398214Y-17284929D01*
X13398214Y-17213500D01*
X13412500Y-17156357D01*
X13426786Y-17127786D01*
X13441071Y-17113500D01*
X13469643Y-17099214D01*
X13755357Y-17099214D02*
X13783928Y-17099214D01*
X13812500Y-17113500D01*
X13826786Y-17127786D01*
X13841071Y-17156357D01*
X13855357Y-17213500D01*
X13855357Y-17284929D01*
X13841071Y-17342072D01*
X13826786Y-17370643D01*
X13812500Y-17384929D01*
X13783928Y-17399214D01*
X13755357Y-17399214D01*
X13726786Y-17384929D01*
X13712500Y-17370643D01*
X13698214Y-17342072D01*
X13683928Y-17284929D01*
X13683928Y-17213500D01*
X13698214Y-17156357D01*
X13712500Y-17127786D01*
X13726786Y-17113500D01*
X13755357Y-17099214D01*
X14041071Y-17099214D02*
X14069643Y-17099214D01*
X14098214Y-17113500D01*
X14112500Y-17127786D01*
X14126786Y-17156357D01*
X14141071Y-17213500D01*
X14141071Y-17284929D01*
X14126786Y-17342072D01*
X14112500Y-17370643D01*
X14098214Y-17384929D01*
X14069643Y-17399214D01*
X14041071Y-17399214D01*
X14012500Y-17384929D01*
X13998214Y-17370643D01*
X13983928Y-17342072D01*
X13969643Y-17284929D01*
X13969643Y-17213500D01*
X13983928Y-17156357D01*
X13998214Y-17127786D01*
X14012500Y-17113500D01*
X14041071Y-17099214D01*
X14269643Y-17399214D02*
X14269643Y-17199214D01*
X14269643Y-17227786D02*
X14283928Y-17213500D01*
X14312500Y-17199214D01*
X14355357Y-17199214D01*
X14383928Y-17213500D01*
X14398214Y-17242072D01*
X14398214Y-17399214D01*
X14398214Y-17242072D02*
X14412500Y-17213500D01*
X14441071Y-17199214D01*
X14483928Y-17199214D01*
X14512500Y-17213500D01*
X14526786Y-17242072D01*
X14526786Y-17399214D01*
X14669643Y-17399214D02*
X14669643Y-17199214D01*
X14669643Y-17227786D02*
X14683928Y-17213500D01*
X14712500Y-17199214D01*
X14755357Y-17199214D01*
X14783928Y-17213500D01*
X14798214Y-17242072D01*
X14798214Y-17399214D01*
X14798214Y-17242072D02*
X14812500Y-17213500D01*
X14841071Y-17199214D01*
X14883928Y-17199214D01*
X14912500Y-17213500D01*
X14926786Y-17242072D01*
X14926786Y-17399214D01*
X15512500Y-17084929D02*
X15255357Y-17470643D01*
X15898214Y-17099214D02*
X15926786Y-17099214D01*
X15955357Y-17113500D01*
X15969643Y-17127786D01*
X15983928Y-17156357D01*
X15998214Y-17213500D01*
X15998214Y-17284929D01*
X15983928Y-17342072D01*
X15969643Y-17370643D01*
X15955357Y-17384929D01*
X15926786Y-17399214D01*
X15898214Y-17399214D01*
X15869643Y-17384929D01*
X15855357Y-17370643D01*
X15841071Y-17342072D01*
X15826786Y-17284929D01*
X15826786Y-17213500D01*
X15841071Y-17156357D01*
X15855357Y-17127786D01*
X15869643Y-17113500D01*
X15898214Y-17099214D01*
X16126786Y-17370643D02*
X16141071Y-17384929D01*
X16126786Y-17399214D01*
X16112500Y-17384929D01*
X16126786Y-17370643D01*
X16126786Y-17399214D01*
X16326786Y-17099214D02*
X16355357Y-17099214D01*
X16383928Y-17113500D01*
X16398214Y-17127786D01*
X16412500Y-17156357D01*
X16426786Y-17213500D01*
X16426786Y-17284929D01*
X16412500Y-17342072D01*
X16398214Y-17370643D01*
X16383928Y-17384929D01*
X16355357Y-17399214D01*
X16326786Y-17399214D01*
X16298214Y-17384929D01*
X16283928Y-17370643D01*
X16269643Y-17342072D01*
X16255357Y-17284929D01*
X16255357Y-17213500D01*
X16269643Y-17156357D01*
X16283928Y-17127786D01*
X16298214Y-17113500D01*
X16326786Y-17099214D01*
X16526786Y-17099214D02*
X16712500Y-17099214D01*
X16612500Y-17213500D01*
X16655357Y-17213500D01*
X16683928Y-17227786D01*
X16698214Y-17242072D01*
X16712500Y-17270643D01*
X16712500Y-17342072D01*
X16698214Y-17370643D01*
X16683928Y-17384929D01*
X16655357Y-17399214D01*
X16569643Y-17399214D01*
X16541071Y-17384929D01*
X16526786Y-17370643D01*
X16855357Y-17399214D02*
X16912500Y-17399214D01*
X16941071Y-17384929D01*
X16955357Y-17370643D01*
X16983928Y-17327786D01*
X16998214Y-17270643D01*
X16998214Y-17156357D01*
X16983928Y-17127786D01*
X16969643Y-17113500D01*
X16941071Y-17099214D01*
X16883928Y-17099214D01*
X16855357Y-17113500D01*
X16841071Y-17127786D01*
X16826786Y-17156357D01*
X16826786Y-17227786D01*
X16841071Y-17256357D01*
X16855357Y-17270643D01*
X16883928Y-17284929D01*
X16941071Y-17284929D01*
X16969643Y-17270643D01*
X16983928Y-17256357D01*
X16998214Y-17227786D01*
X17255357Y-17199214D02*
X17255357Y-17399214D01*
X17183928Y-17084929D02*
X17112500Y-17299214D01*
X17298214Y-17299214D01*
X17398214Y-17099214D02*
X17398214Y-17156357D01*
X17512500Y-17099214D02*
X17512500Y-17156357D01*
X17955357Y-17513500D02*
X17941071Y-17499214D01*
X17912500Y-17456357D01*
X17898214Y-17427786D01*
X17883928Y-17384929D01*
X17869643Y-17313500D01*
X17869643Y-17256357D01*
X17883928Y-17184929D01*
X17898214Y-17142072D01*
X17912500Y-17113500D01*
X17941071Y-17070643D01*
X17955357Y-17056357D01*
X18212500Y-17099214D02*
X18069643Y-17099214D01*
X18055357Y-17242072D01*
X18069643Y-17227786D01*
X18098214Y-17213500D01*
X18169643Y-17213500D01*
X18198214Y-17227786D01*
X18212500Y-17242072D01*
X18226786Y-17270643D01*
X18226786Y-17342072D01*
X18212500Y-17370643D01*
X18198214Y-17384929D01*
X18169643Y-17399214D01*
X18098214Y-17399214D01*
X18069643Y-17384929D01*
X18055357Y-17370643D01*
X18369643Y-17399214D02*
X18426786Y-17399214D01*
X18455357Y-17384929D01*
X18469643Y-17370643D01*
X18498214Y-17327786D01*
X18512500Y-17270643D01*
X18512500Y-17156357D01*
X18498214Y-17127786D01*
X18483928Y-17113500D01*
X18455357Y-17099214D01*
X18398214Y-17099214D01*
X18369643Y-17113500D01*
X18355357Y-17127786D01*
X18341071Y-17156357D01*
X18341071Y-17227786D01*
X18355357Y-17256357D01*
X18369643Y-17270643D01*
X18398214Y-17284929D01*
X18455357Y-17284929D01*
X18483928Y-17270643D01*
X18498214Y-17256357D01*
X18512500Y-17227786D01*
X18869643Y-17399214D02*
X18869643Y-17099214D01*
X18998214Y-17399214D02*
X18998214Y-17242072D01*
X18983928Y-17213500D01*
X18955357Y-17199214D01*
X18912500Y-17199214D01*
X18883928Y-17213500D01*
X18869643Y-17227786D01*
X19183928Y-17399214D02*
X19155357Y-17384929D01*
X19141071Y-17370643D01*
X19126786Y-17342072D01*
X19126786Y-17256357D01*
X19141071Y-17227786D01*
X19155357Y-17213500D01*
X19183928Y-17199214D01*
X19226786Y-17199214D01*
X19255357Y-17213500D01*
X19269643Y-17227786D01*
X19283928Y-17256357D01*
X19283928Y-17342072D01*
X19269643Y-17370643D01*
X19255357Y-17384929D01*
X19226786Y-17399214D01*
X19183928Y-17399214D01*
X19455357Y-17399214D02*
X19426786Y-17384929D01*
X19412500Y-17356357D01*
X19412500Y-17099214D01*
X19683928Y-17384929D02*
X19655357Y-17399214D01*
X19598214Y-17399214D01*
X19569643Y-17384929D01*
X19555357Y-17356357D01*
X19555357Y-17242072D01*
X19569643Y-17213500D01*
X19598214Y-17199214D01*
X19655357Y-17199214D01*
X19683928Y-17213500D01*
X19698214Y-17242072D01*
X19698214Y-17270643D01*
X19555357Y-17299214D01*
X19812500Y-17384929D02*
X19841071Y-17399214D01*
X19898214Y-17399214D01*
X19926786Y-17384929D01*
X19941071Y-17356357D01*
X19941071Y-17342072D01*
X19926786Y-17313500D01*
X19898214Y-17299214D01*
X19855357Y-17299214D01*
X19826786Y-17284929D01*
X19812500Y-17256357D01*
X19812500Y-17242072D01*
X19826786Y-17213500D01*
X19855357Y-17199214D01*
X19898214Y-17199214D01*
X19926786Y-17213500D01*
X20041071Y-17513500D02*
X20055357Y-17499214D01*
X20083928Y-17456357D01*
X20098214Y-17427786D01*
X20112500Y-17384929D01*
X20126786Y-17313500D01*
X20126786Y-17256357D01*
X20112500Y-17184929D01*
X20098214Y-17142072D01*
X20083928Y-17113500D01*
X20055357Y-17070643D01*
X20041071Y-17056357D01*
X12642500Y-17714500D02*
X12697500Y-17659500D01*
X12642500Y-17604500D01*
X12587500Y-17659500D01*
X12642500Y-17714500D01*
X13141071Y-17795214D02*
X12969643Y-17795214D01*
X13055357Y-17795214D02*
X13055357Y-17495214D01*
X13026786Y-17538072D01*
X12998214Y-17566643D01*
X12969643Y-17580929D01*
X13269643Y-17766643D02*
X13283928Y-17780929D01*
X13269643Y-17795214D01*
X13255357Y-17780929D01*
X13269643Y-17766643D01*
X13269643Y-17795214D01*
X13569643Y-17795214D02*
X13398214Y-17795214D01*
X13483928Y-17795214D02*
X13483928Y-17495214D01*
X13455357Y-17538072D01*
X13426786Y-17566643D01*
X13398214Y-17580929D01*
X13755357Y-17495214D02*
X13783928Y-17495214D01*
X13812500Y-17509500D01*
X13826786Y-17523786D01*
X13841071Y-17552357D01*
X13855357Y-17609500D01*
X13855357Y-17680929D01*
X13841071Y-17738072D01*
X13826786Y-17766643D01*
X13812500Y-17780929D01*
X13783928Y-17795214D01*
X13755357Y-17795214D01*
X13726786Y-17780929D01*
X13712500Y-17766643D01*
X13698214Y-17738072D01*
X13683928Y-17680929D01*
X13683928Y-17609500D01*
X13698214Y-17552357D01*
X13712500Y-17523786D01*
X13726786Y-17509500D01*
X13755357Y-17495214D01*
X14041071Y-17495214D02*
X14069643Y-17495214D01*
X14098214Y-17509500D01*
X14112500Y-17523786D01*
X14126786Y-17552357D01*
X14141071Y-17609500D01*
X14141071Y-17680929D01*
X14126786Y-17738072D01*
X14112500Y-17766643D01*
X14098214Y-17780929D01*
X14069643Y-17795214D01*
X14041071Y-17795214D01*
X14012500Y-17780929D01*
X13998214Y-17766643D01*
X13983928Y-17738072D01*
X13969643Y-17680929D01*
X13969643Y-17609500D01*
X13983928Y-17552357D01*
X13998214Y-17523786D01*
X14012500Y-17509500D01*
X14041071Y-17495214D01*
X14269643Y-17795214D02*
X14269643Y-17595214D01*
X14269643Y-17623786D02*
X14283928Y-17609500D01*
X14312500Y-17595214D01*
X14355357Y-17595214D01*
X14383928Y-17609500D01*
X14398214Y-17638072D01*
X14398214Y-17795214D01*
X14398214Y-17638072D02*
X14412500Y-17609500D01*
X14441071Y-17595214D01*
X14483928Y-17595214D01*
X14512500Y-17609500D01*
X14526786Y-17638072D01*
X14526786Y-17795214D01*
X14669643Y-17795214D02*
X14669643Y-17595214D01*
X14669643Y-17623786D02*
X14683928Y-17609500D01*
X14712500Y-17595214D01*
X14755357Y-17595214D01*
X14783928Y-17609500D01*
X14798214Y-17638072D01*
X14798214Y-17795214D01*
X14798214Y-17638072D02*
X14812500Y-17609500D01*
X14841071Y-17595214D01*
X14883928Y-17595214D01*
X14912500Y-17609500D01*
X14926786Y-17638072D01*
X14926786Y-17795214D01*
X15512500Y-17480929D02*
X15255357Y-17866643D01*
X15898214Y-17495214D02*
X15926786Y-17495214D01*
X15955357Y-17509500D01*
X15969643Y-17523786D01*
X15983928Y-17552357D01*
X15998214Y-17609500D01*
X15998214Y-17680929D01*
X15983928Y-17738072D01*
X15969643Y-17766643D01*
X15955357Y-17780929D01*
X15926786Y-17795214D01*
X15898214Y-17795214D01*
X15869643Y-17780929D01*
X15855357Y-17766643D01*
X15841071Y-17738072D01*
X15826786Y-17680929D01*
X15826786Y-17609500D01*
X15841071Y-17552357D01*
X15855357Y-17523786D01*
X15869643Y-17509500D01*
X15898214Y-17495214D01*
X16126786Y-17766643D02*
X16141071Y-17780929D01*
X16126786Y-17795214D01*
X16112500Y-17780929D01*
X16126786Y-17766643D01*
X16126786Y-17795214D01*
X16326786Y-17495214D02*
X16355357Y-17495214D01*
X16383928Y-17509500D01*
X16398214Y-17523786D01*
X16412500Y-17552357D01*
X16426786Y-17609500D01*
X16426786Y-17680929D01*
X16412500Y-17738072D01*
X16398214Y-17766643D01*
X16383928Y-17780929D01*
X16355357Y-17795214D01*
X16326786Y-17795214D01*
X16298214Y-17780929D01*
X16283928Y-17766643D01*
X16269643Y-17738072D01*
X16255357Y-17680929D01*
X16255357Y-17609500D01*
X16269643Y-17552357D01*
X16283928Y-17523786D01*
X16298214Y-17509500D01*
X16326786Y-17495214D01*
X16683928Y-17595214D02*
X16683928Y-17795214D01*
X16612500Y-17480929D02*
X16541071Y-17695214D01*
X16726786Y-17695214D01*
X16812500Y-17495214D02*
X16998214Y-17495214D01*
X16898214Y-17609500D01*
X16941071Y-17609500D01*
X16969643Y-17623786D01*
X16983928Y-17638072D01*
X16998214Y-17666643D01*
X16998214Y-17738072D01*
X16983928Y-17766643D01*
X16969643Y-17780929D01*
X16941071Y-17795214D01*
X16855357Y-17795214D01*
X16826786Y-17780929D01*
X16812500Y-17766643D01*
X17098214Y-17495214D02*
X17283928Y-17495214D01*
X17183928Y-17609500D01*
X17226786Y-17609500D01*
X17255357Y-17623786D01*
X17269643Y-17638072D01*
X17283928Y-17666643D01*
X17283928Y-17738072D01*
X17269643Y-17766643D01*
X17255357Y-17780929D01*
X17226786Y-17795214D01*
X17141071Y-17795214D01*
X17112500Y-17780929D01*
X17098214Y-17766643D01*
X17398214Y-17495214D02*
X17398214Y-17552357D01*
X17512500Y-17495214D02*
X17512500Y-17552357D01*
X17955357Y-17909500D02*
X17941071Y-17895214D01*
X17912500Y-17852357D01*
X17898214Y-17823786D01*
X17883928Y-17780929D01*
X17869643Y-17709500D01*
X17869643Y-17652357D01*
X17883928Y-17580929D01*
X17898214Y-17538072D01*
X17912500Y-17509500D01*
X17941071Y-17466643D01*
X17955357Y-17452357D01*
X18126786Y-17495214D02*
X18155357Y-17495214D01*
X18183928Y-17509500D01*
X18198214Y-17523786D01*
X18212500Y-17552357D01*
X18226786Y-17609500D01*
X18226786Y-17680929D01*
X18212500Y-17738072D01*
X18198214Y-17766643D01*
X18183928Y-17780929D01*
X18155357Y-17795214D01*
X18126786Y-17795214D01*
X18098214Y-17780929D01*
X18083928Y-17766643D01*
X18069643Y-17738072D01*
X18055357Y-17680929D01*
X18055357Y-17609500D01*
X18069643Y-17552357D01*
X18083928Y-17523786D01*
X18098214Y-17509500D01*
X18126786Y-17495214D01*
X18583928Y-17795214D02*
X18583928Y-17495214D01*
X18712500Y-17795214D02*
X18712500Y-17638072D01*
X18698214Y-17609500D01*
X18669643Y-17595214D01*
X18626786Y-17595214D01*
X18598214Y-17609500D01*
X18583928Y-17623786D01*
X18898214Y-17795214D02*
X18869643Y-17780929D01*
X18855357Y-17766643D01*
X18841071Y-17738072D01*
X18841071Y-17652357D01*
X18855357Y-17623786D01*
X18869643Y-17609500D01*
X18898214Y-17595214D01*
X18941071Y-17595214D01*
X18969643Y-17609500D01*
X18983928Y-17623786D01*
X18998214Y-17652357D01*
X18998214Y-17738072D01*
X18983928Y-17766643D01*
X18969643Y-17780929D01*
X18941071Y-17795214D01*
X18898214Y-17795214D01*
X19169643Y-17795214D02*
X19141071Y-17780929D01*
X19126786Y-17752357D01*
X19126786Y-17495214D01*
X19398214Y-17780929D02*
X19369643Y-17795214D01*
X19312500Y-17795214D01*
X19283928Y-17780929D01*
X19269643Y-17752357D01*
X19269643Y-17638072D01*
X19283928Y-17609500D01*
X19312500Y-17595214D01*
X19369643Y-17595214D01*
X19398214Y-17609500D01*
X19412500Y-17638072D01*
X19412500Y-17666643D01*
X19269643Y-17695214D01*
X19526786Y-17780929D02*
X19555357Y-17795214D01*
X19612500Y-17795214D01*
X19641071Y-17780929D01*
X19655357Y-17752357D01*
X19655357Y-17738072D01*
X19641071Y-17709500D01*
X19612500Y-17695214D01*
X19569643Y-17695214D01*
X19541071Y-17680929D01*
X19526786Y-17652357D01*
X19526786Y-17638072D01*
X19541071Y-17609500D01*
X19569643Y-17595214D01*
X19612500Y-17595214D01*
X19641071Y-17609500D01*
X20012500Y-17680929D02*
X20241071Y-17680929D01*
X20126786Y-17795214D02*
X20126786Y-17566643D01*
X20769643Y-17795214D02*
X20598214Y-17795214D01*
X20683928Y-17795214D02*
X20683928Y-17495214D01*
X20655357Y-17538072D01*
X20626786Y-17566643D01*
X20598214Y-17580929D01*
X21026786Y-17595214D02*
X21026786Y-17795214D01*
X20955357Y-17480929D02*
X20883928Y-17695214D01*
X21069643Y-17695214D01*
X21398214Y-17780929D02*
X21426786Y-17795214D01*
X21483928Y-17795214D01*
X21512500Y-17780929D01*
X21526786Y-17752357D01*
X21526786Y-17738072D01*
X21512500Y-17709500D01*
X21483928Y-17695214D01*
X21441071Y-17695214D01*
X21412500Y-17680929D01*
X21398214Y-17652357D01*
X21398214Y-17638072D01*
X21412500Y-17609500D01*
X21441071Y-17595214D01*
X21483928Y-17595214D01*
X21512500Y-17609500D01*
X21698214Y-17795214D02*
X21669643Y-17780929D01*
X21655357Y-17752357D01*
X21655357Y-17495214D01*
X21855357Y-17795214D02*
X21826786Y-17780929D01*
X21812500Y-17766643D01*
X21798214Y-17738072D01*
X21798214Y-17652357D01*
X21812500Y-17623786D01*
X21826786Y-17609500D01*
X21855357Y-17595214D01*
X21898214Y-17595214D01*
X21926786Y-17609500D01*
X21941071Y-17623786D01*
X21955357Y-17652357D01*
X21955357Y-17738072D01*
X21941071Y-17766643D01*
X21926786Y-17780929D01*
X21898214Y-17795214D01*
X21855357Y-17795214D01*
X22041071Y-17595214D02*
X22155357Y-17595214D01*
X22083928Y-17495214D02*
X22083928Y-17752357D01*
X22098214Y-17780929D01*
X22126786Y-17795214D01*
X22155357Y-17795214D01*
X22241071Y-17780929D02*
X22269643Y-17795214D01*
X22326786Y-17795214D01*
X22355357Y-17780929D01*
X22369643Y-17752357D01*
X22369643Y-17738072D01*
X22355357Y-17709500D01*
X22326786Y-17695214D01*
X22283928Y-17695214D01*
X22255357Y-17680929D01*
X22241071Y-17652357D01*
X22241071Y-17638072D01*
X22255357Y-17609500D01*
X22283928Y-17595214D01*
X22326786Y-17595214D01*
X22355357Y-17609500D01*
X22469643Y-17909500D02*
X22483928Y-17895214D01*
X22512500Y-17852357D01*
X22526786Y-17823786D01*
X22541071Y-17780929D01*
X22555357Y-17709500D01*
X22555357Y-17652357D01*
X22541071Y-17580929D01*
X22526786Y-17538072D01*
X22512500Y-17509500D01*
X22483928Y-17466643D01*
X22469643Y-17452357D01*
X12512500Y-17963000D02*
X12697500Y-18148000D01*
X12697500Y-17963000D02*
X12512500Y-18148000D01*
X12697500Y-18055500D02*
G75*
G03*
X12697500Y-18055500I-92500J0D01*
G01*
X13141071Y-18191214D02*
X12969643Y-18191214D01*
X13055357Y-18191214D02*
X13055357Y-17891214D01*
X13026786Y-17934072D01*
X12998214Y-17962643D01*
X12969643Y-17976929D01*
X13269643Y-18162643D02*
X13283928Y-18176929D01*
X13269643Y-18191214D01*
X13255357Y-18176929D01*
X13269643Y-18162643D01*
X13269643Y-18191214D01*
X13455357Y-18019786D02*
X13426786Y-18005500D01*
X13412500Y-17991214D01*
X13398214Y-17962643D01*
X13398214Y-17948357D01*
X13412500Y-17919786D01*
X13426786Y-17905500D01*
X13455357Y-17891214D01*
X13512500Y-17891214D01*
X13541071Y-17905500D01*
X13555357Y-17919786D01*
X13569643Y-17948357D01*
X13569643Y-17962643D01*
X13555357Y-17991214D01*
X13541071Y-18005500D01*
X13512500Y-18019786D01*
X13455357Y-18019786D01*
X13426786Y-18034072D01*
X13412500Y-18048357D01*
X13398214Y-18076929D01*
X13398214Y-18134072D01*
X13412500Y-18162643D01*
X13426786Y-18176929D01*
X13455357Y-18191214D01*
X13512500Y-18191214D01*
X13541071Y-18176929D01*
X13555357Y-18162643D01*
X13569643Y-18134072D01*
X13569643Y-18076929D01*
X13555357Y-18048357D01*
X13541071Y-18034072D01*
X13512500Y-18019786D01*
X13841071Y-17891214D02*
X13698214Y-17891214D01*
X13683928Y-18034072D01*
X13698214Y-18019786D01*
X13726786Y-18005500D01*
X13798214Y-18005500D01*
X13826786Y-18019786D01*
X13841071Y-18034072D01*
X13855357Y-18062643D01*
X13855357Y-18134072D01*
X13841071Y-18162643D01*
X13826786Y-18176929D01*
X13798214Y-18191214D01*
X13726786Y-18191214D01*
X13698214Y-18176929D01*
X13683928Y-18162643D01*
X14041071Y-17891214D02*
X14069643Y-17891214D01*
X14098214Y-17905500D01*
X14112500Y-17919786D01*
X14126786Y-17948357D01*
X14141071Y-18005500D01*
X14141071Y-18076929D01*
X14126786Y-18134072D01*
X14112500Y-18162643D01*
X14098214Y-18176929D01*
X14069643Y-18191214D01*
X14041071Y-18191214D01*
X14012500Y-18176929D01*
X13998214Y-18162643D01*
X13983928Y-18134072D01*
X13969643Y-18076929D01*
X13969643Y-18005500D01*
X13983928Y-17948357D01*
X13998214Y-17919786D01*
X14012500Y-17905500D01*
X14041071Y-17891214D01*
X14269643Y-18191214D02*
X14269643Y-17991214D01*
X14269643Y-18019786D02*
X14283928Y-18005500D01*
X14312500Y-17991214D01*
X14355357Y-17991214D01*
X14383928Y-18005500D01*
X14398214Y-18034072D01*
X14398214Y-18191214D01*
X14398214Y-18034072D02*
X14412500Y-18005500D01*
X14441071Y-17991214D01*
X14483928Y-17991214D01*
X14512500Y-18005500D01*
X14526786Y-18034072D01*
X14526786Y-18191214D01*
X14669643Y-18191214D02*
X14669643Y-17991214D01*
X14669643Y-18019786D02*
X14683928Y-18005500D01*
X14712500Y-17991214D01*
X14755357Y-17991214D01*
X14783928Y-18005500D01*
X14798214Y-18034072D01*
X14798214Y-18191214D01*
X14798214Y-18034072D02*
X14812500Y-18005500D01*
X14841071Y-17991214D01*
X14883928Y-17991214D01*
X14912500Y-18005500D01*
X14926786Y-18034072D01*
X14926786Y-18191214D01*
X15512500Y-17876929D02*
X15255357Y-18262643D01*
X15898214Y-17891214D02*
X15926786Y-17891214D01*
X15955357Y-17905500D01*
X15969643Y-17919786D01*
X15983928Y-17948357D01*
X15998214Y-18005500D01*
X15998214Y-18076929D01*
X15983928Y-18134072D01*
X15969643Y-18162643D01*
X15955357Y-18176929D01*
X15926786Y-18191214D01*
X15898214Y-18191214D01*
X15869643Y-18176929D01*
X15855357Y-18162643D01*
X15841071Y-18134072D01*
X15826786Y-18076929D01*
X15826786Y-18005500D01*
X15841071Y-17948357D01*
X15855357Y-17919786D01*
X15869643Y-17905500D01*
X15898214Y-17891214D01*
X16126786Y-18162643D02*
X16141071Y-18176929D01*
X16126786Y-18191214D01*
X16112500Y-18176929D01*
X16126786Y-18162643D01*
X16126786Y-18191214D01*
X16326786Y-17891214D02*
X16355357Y-17891214D01*
X16383928Y-17905500D01*
X16398214Y-17919786D01*
X16412500Y-17948357D01*
X16426786Y-18005500D01*
X16426786Y-18076929D01*
X16412500Y-18134072D01*
X16398214Y-18162643D01*
X16383928Y-18176929D01*
X16355357Y-18191214D01*
X16326786Y-18191214D01*
X16298214Y-18176929D01*
X16283928Y-18162643D01*
X16269643Y-18134072D01*
X16255357Y-18076929D01*
X16255357Y-18005500D01*
X16269643Y-17948357D01*
X16283928Y-17919786D01*
X16298214Y-17905500D01*
X16326786Y-17891214D01*
X16526786Y-17891214D02*
X16726786Y-17891214D01*
X16598214Y-18191214D01*
X16826786Y-17919786D02*
X16841071Y-17905500D01*
X16869643Y-17891214D01*
X16941071Y-17891214D01*
X16969643Y-17905500D01*
X16983928Y-17919786D01*
X16998214Y-17948357D01*
X16998214Y-17976929D01*
X16983928Y-18019786D01*
X16812500Y-18191214D01*
X16998214Y-18191214D01*
X17169643Y-18019786D02*
X17141071Y-18005500D01*
X17126786Y-17991214D01*
X17112500Y-17962643D01*
X17112500Y-17948357D01*
X17126786Y-17919786D01*
X17141071Y-17905500D01*
X17169643Y-17891214D01*
X17226786Y-17891214D01*
X17255357Y-17905500D01*
X17269643Y-17919786D01*
X17283928Y-17948357D01*
X17283928Y-17962643D01*
X17269643Y-17991214D01*
X17255357Y-18005500D01*
X17226786Y-18019786D01*
X17169643Y-18019786D01*
X17141071Y-18034072D01*
X17126786Y-18048357D01*
X17112500Y-18076929D01*
X17112500Y-18134072D01*
X17126786Y-18162643D01*
X17141071Y-18176929D01*
X17169643Y-18191214D01*
X17226786Y-18191214D01*
X17255357Y-18176929D01*
X17269643Y-18162643D01*
X17283928Y-18134072D01*
X17283928Y-18076929D01*
X17269643Y-18048357D01*
X17255357Y-18034072D01*
X17226786Y-18019786D01*
X17398214Y-17891214D02*
X17398214Y-17948357D01*
X17512500Y-17891214D02*
X17512500Y-17948357D01*
X17955357Y-18305500D02*
X17941071Y-18291214D01*
X17912500Y-18248357D01*
X17898214Y-18219786D01*
X17883928Y-18176929D01*
X17869643Y-18105500D01*
X17869643Y-18048357D01*
X17883928Y-17976929D01*
X17898214Y-17934072D01*
X17912500Y-17905500D01*
X17941071Y-17862643D01*
X17955357Y-17848357D01*
X18198214Y-17891214D02*
X18141071Y-17891214D01*
X18112500Y-17905500D01*
X18098214Y-17919786D01*
X18069643Y-17962643D01*
X18055357Y-18019786D01*
X18055357Y-18134072D01*
X18069643Y-18162643D01*
X18083928Y-18176929D01*
X18112500Y-18191214D01*
X18169643Y-18191214D01*
X18198214Y-18176929D01*
X18212500Y-18162643D01*
X18226786Y-18134072D01*
X18226786Y-18062643D01*
X18212500Y-18034072D01*
X18198214Y-18019786D01*
X18169643Y-18005500D01*
X18112500Y-18005500D01*
X18083928Y-18019786D01*
X18069643Y-18034072D01*
X18055357Y-18062643D01*
X18583928Y-18191214D02*
X18583928Y-17891214D01*
X18712500Y-18191214D02*
X18712500Y-18034072D01*
X18698214Y-18005500D01*
X18669643Y-17991214D01*
X18626786Y-17991214D01*
X18598214Y-18005500D01*
X18583928Y-18019786D01*
X18898214Y-18191214D02*
X18869643Y-18176929D01*
X18855357Y-18162643D01*
X18841071Y-18134072D01*
X18841071Y-18048357D01*
X18855357Y-18019786D01*
X18869643Y-18005500D01*
X18898214Y-17991214D01*
X18941071Y-17991214D01*
X18969643Y-18005500D01*
X18983928Y-18019786D01*
X18998214Y-18048357D01*
X18998214Y-18134072D01*
X18983928Y-18162643D01*
X18969643Y-18176929D01*
X18941071Y-18191214D01*
X18898214Y-18191214D01*
X19169643Y-18191214D02*
X19141071Y-18176929D01*
X19126786Y-18148357D01*
X19126786Y-17891214D01*
X19398214Y-18176929D02*
X19369643Y-18191214D01*
X19312500Y-18191214D01*
X19283928Y-18176929D01*
X19269643Y-18148357D01*
X19269643Y-18034072D01*
X19283928Y-18005500D01*
X19312500Y-17991214D01*
X19369643Y-17991214D01*
X19398214Y-18005500D01*
X19412500Y-18034072D01*
X19412500Y-18062643D01*
X19269643Y-18091214D01*
X19526786Y-18176929D02*
X19555357Y-18191214D01*
X19612500Y-18191214D01*
X19641071Y-18176929D01*
X19655357Y-18148357D01*
X19655357Y-18134072D01*
X19641071Y-18105500D01*
X19612500Y-18091214D01*
X19569643Y-18091214D01*
X19541071Y-18076929D01*
X19526786Y-18048357D01*
X19526786Y-18034072D01*
X19541071Y-18005500D01*
X19569643Y-17991214D01*
X19612500Y-17991214D01*
X19641071Y-18005500D01*
X19755357Y-18305500D02*
X19769643Y-18291214D01*
X19798214Y-18248357D01*
X19812500Y-18219786D01*
X19826786Y-18176929D01*
X19841071Y-18105500D01*
X19841071Y-18048357D01*
X19826786Y-17976929D01*
X19812500Y-17934072D01*
X19798214Y-17905500D01*
X19769643Y-17862643D01*
X19755357Y-17848357D01*
M02*
