M48
; DRILL file {KiCad 5.1.10-88a1d61d58~88~ubuntu20.04.1} date Wed Jun 30 15:24:33 2021
; FORMAT={-:-/ absolute / metric / decimal}
; #@! TF.CreationDate,2021-06-30T15:24:33-04:00
; #@! TF.GenerationSoftware,Kicad,Pcbnew,5.1.10-88a1d61d58~88~ubuntu20.04.1
; #@! TF.FileFunction,Plated,1,4,PTH
FMAT,2
METRIC
T1C0.400
T2C0.800
T3C0.900
T4C1.000
T5C1.100
T6C1.850
%
G90
G05
T1
X135.509Y-131.445
X135.509Y-133.985
X135.636Y-136.525
X137.287Y-149.479
X139.7Y-92.964
X140.157Y-137.82
X140.462Y-133.413
X143.192Y-142.177
X144.463Y-136.588
X144.463Y-139.7
X145.097Y-142.113
X145.351Y-128.588
X145.669Y-97.663
X145.987Y-141.16
X146.05Y-149.606
X146.685Y-103.505
X146.685Y-128.524
X147.002Y-142.177
X147.828Y-87.63
X147.891Y-133.413
X148.031Y-135.585
X149.352Y-94.107
X149.923Y-112.397
X150.495Y-149.606
X152.781Y-123.571
X153.162Y-127.0
X153.416Y-129.921
X153.924Y-138.43
X153.924Y-141.605
X154.94Y-147.955
X155.321Y-145.415
X156.469Y-122.042
X157.226Y-95.186
X157.861Y-118.745
X159.449Y-91.123
X159.829Y-109.093
X160.147Y-113.602
X161.29Y-103.505
X162.306Y-98.615
X162.369Y-90.868
X162.433Y-123.825
X165.1Y-113.985
X167.831Y-100.076
X168.021Y-103.505
X168.148Y-121.285
X168.402Y-90.866
X170.053Y-121.221
X170.18Y-99.758
X171.45Y-123.063
X175.26Y-98.425
X176.022Y-96.584
X176.213Y-89.725
X176.8Y-91.696
X177.165Y-133.096
X177.668Y-117.558
X178.625Y-86.995
X178.886Y-112.181
X178.943Y-122.047
X179.07Y-109.537
X180.086Y-112.395
X180.213Y-117.221
X181.936Y-116.641
X185.547Y-108.966
X186.182Y-105.981
X186.817Y-140.843
X187.579Y-88.646
X187.706Y-141.732
X188.976Y-109.855
X188.976Y-130.556
X189.23Y-142.367
X189.484Y-99.187
X190.749Y-92.144
X190.818Y-114.173
X191.516Y-133.223
X191.516Y-136.271
X191.897Y-147.701
X192.532Y-140.716
X192.532Y-142.621
X193.294Y-99.187
X193.294Y-122.047
X193.802Y-147.701
X195.58Y-149.352
X196.85Y-127.635
X196.85Y-129.032
X196.85Y-130.429
X197.278Y-124.968
X197.294Y-102.555
X197.294Y-105.981
X197.675Y-85.852
X197.866Y-107.315
X198.882Y-88.646
X198.882Y-111.252
X198.882Y-124.968
X200.781Y-124.968
X202.438Y-129.032
X202.438Y-130.429
X202.438Y-131.826
X203.835Y-124.714
X207.518Y-130.556
X208.026Y-122.428
X208.026Y-126.492
X208.026Y-127.635
T2
X191.81Y-76.835
X194.31Y-76.835
X200.025Y-82.359
X205.025Y-82.359
X207.01Y-92.71
X207.01Y-95.25
X207.01Y-97.79
X207.01Y-103.505
X207.01Y-106.045
X207.01Y-108.585
X207.01Y-114.3
X207.01Y-116.84
X207.01Y-119.38
T3
X184.15Y-146.05
X184.15Y-148.59
T4
X130.302Y-83.82
X130.302Y-86.36
X130.302Y-88.9
X130.302Y-91.44
X130.302Y-121.92
X130.302Y-124.46
X130.302Y-127.0
X130.302Y-129.54
X130.81Y-139.7
X130.81Y-142.24
X130.81Y-144.78
X130.81Y-147.32
X137.2Y-86.24
X137.2Y-107.95
X139.7Y-86.24
X139.7Y-107.95
X142.2Y-86.24
X142.2Y-107.95
X146.685Y-74.295
X149.225Y-74.295
X151.765Y-74.295
X156.845Y-74.295
X159.385Y-74.295
X161.925Y-74.295
X166.41Y-86.24
X166.41Y-107.95
X166.41Y-129.54
X168.91Y-86.24
X168.91Y-107.95
X168.91Y-129.54
X171.41Y-86.24
X171.41Y-107.95
X171.41Y-129.54
X182.88Y-74.93
X182.88Y-77.47
X183.642Y-83.82
X183.642Y-86.36
X183.642Y-88.9
X183.642Y-91.44
X183.642Y-111.76
X183.642Y-114.3
X183.642Y-116.84
X183.642Y-119.38
X183.642Y-121.92
X183.642Y-124.46
X183.642Y-127.0
X183.642Y-129.54
X184.15Y-139.065
X184.15Y-141.605
X195.62Y-99.06
X195.62Y-120.65
X198.12Y-99.06
X198.12Y-120.65
X200.62Y-99.06
X200.62Y-120.65
X207.01Y-74.93
X207.01Y-77.47
X207.01Y-144.78
X207.01Y-147.32
T6
X137.285Y-117.22
X137.285Y-121.92
X137.285Y-126.62
X142.115Y-117.22
X142.115Y-121.92
X142.115Y-126.62
T5
X134.9Y-78.39G85X134.9Y-79.09
G05
X134.9Y-100.1G85X134.9Y-100.8
G05
X144.5Y-78.39G85X144.5Y-79.09
G05
X144.5Y-100.1G85X144.5Y-100.8
G05
X164.11Y-78.39G85X164.11Y-79.09
G05
X164.11Y-100.1G85X164.11Y-100.8
G05
X164.11Y-121.69G85X164.11Y-122.39
G05
X173.71Y-78.39G85X173.71Y-79.09
G05
X173.71Y-100.1G85X173.71Y-100.8
G05
X173.71Y-121.69G85X173.71Y-122.39
G05
X193.32Y-91.21G85X193.32Y-91.91
G05
X193.32Y-112.8G85X193.32Y-113.5
G05
X202.92Y-91.21G85X202.92Y-91.91
G05
X202.92Y-112.8G85X202.92Y-113.5
G05
T0
M30
