%FSLAX45Y45*%
G04 Gerber Fmt 4.5, Leading zero omitted, Abs format (unit mm)*
G04 Created by KiCad (PCBNEW 5.1.10-88a1d61d58~88~ubuntu20.04.1) date 2021-06-29 09:02:51*
%MOMM*%
%LPD*%
G01*
G04 APERTURE LIST*
%TA.AperFunction,Profile*%
%ADD10C,0.050000*%
%TD*%
%ADD11C,0.200000*%
%ADD12C,0.300000*%
G04 APERTURE END LIST*
D10*
X21082000Y-14859000D02*
G75*
G02*
X20828000Y-15113000I-254000J0D01*
G01*
X18415000Y-15113000D02*
G75*
G02*
X18161000Y-14859000I0J254000D01*
G01*
X17907000Y-13525500D02*
G75*
G02*
X18161000Y-13779500I0J-254000D01*
G01*
X15621000Y-13779500D02*
G75*
G02*
X15875000Y-13525500I254000J0D01*
G01*
X15621000Y-14859000D02*
G75*
G02*
X15367000Y-15113000I-254000J0D01*
G01*
X12954000Y-15113000D02*
G75*
G02*
X12700000Y-14859000I0J254000D01*
G01*
X12700000Y-7366000D02*
G75*
G02*
X12954000Y-7112000I254000J0D01*
G01*
X20828000Y-7112000D02*
G75*
G02*
X21082000Y-7366000I0J-254000D01*
G01*
X21082000Y-14859000D02*
X21082000Y-13208000D01*
X18415000Y-15113000D02*
X20828000Y-15113000D01*
X18161000Y-13779500D02*
X18161000Y-14859000D01*
X15621000Y-14859000D02*
X15621000Y-13779500D01*
X12954000Y-15113000D02*
X15367000Y-15113000D01*
X12700000Y-7366000D02*
X12700000Y-14859000D01*
X17907000Y-13525500D02*
X15875000Y-13525500D01*
X21082000Y-7366000D02*
X21082000Y-13208000D01*
X12954000Y-7112000D02*
X20828000Y-7112000D01*
D11*
D12*
X12983928Y-15581214D02*
X12983928Y-15281214D01*
X13055357Y-15281214D01*
X13098214Y-15295500D01*
X13126786Y-15324071D01*
X13141071Y-15352643D01*
X13155357Y-15409786D01*
X13155357Y-15452643D01*
X13141071Y-15509786D01*
X13126786Y-15538357D01*
X13098214Y-15566929D01*
X13055357Y-15581214D01*
X12983928Y-15581214D01*
X13283928Y-15581214D02*
X13283928Y-15381214D01*
X13283928Y-15438357D02*
X13298214Y-15409786D01*
X13312500Y-15395500D01*
X13341071Y-15381214D01*
X13369643Y-15381214D01*
X13469643Y-15581214D02*
X13469643Y-15381214D01*
X13469643Y-15281214D02*
X13455357Y-15295500D01*
X13469643Y-15309786D01*
X13483928Y-15295500D01*
X13469643Y-15281214D01*
X13469643Y-15309786D01*
X13655357Y-15581214D02*
X13626786Y-15566929D01*
X13612500Y-15538357D01*
X13612500Y-15281214D01*
X13812500Y-15581214D02*
X13783928Y-15566929D01*
X13769643Y-15538357D01*
X13769643Y-15281214D01*
X14155357Y-15581214D02*
X14155357Y-15281214D01*
X14255357Y-15495500D01*
X14355357Y-15281214D01*
X14355357Y-15581214D01*
X14626786Y-15581214D02*
X14626786Y-15424071D01*
X14612500Y-15395500D01*
X14583928Y-15381214D01*
X14526786Y-15381214D01*
X14498214Y-15395500D01*
X14626786Y-15566929D02*
X14598214Y-15581214D01*
X14526786Y-15581214D01*
X14498214Y-15566929D01*
X14483928Y-15538357D01*
X14483928Y-15509786D01*
X14498214Y-15481214D01*
X14526786Y-15466929D01*
X14598214Y-15466929D01*
X14626786Y-15452643D01*
X14769643Y-15381214D02*
X14769643Y-15681214D01*
X14769643Y-15395500D02*
X14798214Y-15381214D01*
X14855357Y-15381214D01*
X14883928Y-15395500D01*
X14898214Y-15409786D01*
X14912500Y-15438357D01*
X14912500Y-15524071D01*
X14898214Y-15552643D01*
X14883928Y-15566929D01*
X14855357Y-15581214D01*
X14798214Y-15581214D01*
X14769643Y-15566929D01*
X15041071Y-15552643D02*
X15055357Y-15566929D01*
X15041071Y-15581214D01*
X15026786Y-15566929D01*
X15041071Y-15552643D01*
X15041071Y-15581214D01*
X15041071Y-15395500D02*
X15055357Y-15409786D01*
X15041071Y-15424071D01*
X15026786Y-15409786D01*
X15041071Y-15395500D01*
X15041071Y-15424071D01*
M02*
