G04 #@! TF.GenerationSoftware,KiCad,Pcbnew,5.1.10-88a1d61d58~88~ubuntu20.04.1*
G04 #@! TF.CreationDate,2021-06-29T09:02:15-04:00*
G04 #@! TF.ProjectId,whooshy_sound,77686f6f-7368-4795-9f73-6f756e642e6b,0*
G04 #@! TF.SameCoordinates,Original*
G04 #@! TF.FileFunction,Paste,Top*
G04 #@! TF.FilePolarity,Positive*
%FSLAX46Y46*%
G04 Gerber Fmt 4.6, Leading zero omitted, Abs format (unit mm)*
G04 Created by KiCad (PCBNEW 5.1.10-88a1d61d58~88~ubuntu20.04.1) date 2021-06-29 09:02:15*
%MOMM*%
%LPD*%
G01*
G04 APERTURE LIST*
%ADD10R,0.900000X0.800000*%
%ADD11R,4.200000X1.500000*%
%ADD12R,2.000000X1.500000*%
%ADD13R,2.000000X3.800000*%
%ADD14R,1.220000X0.650000*%
%ADD15R,0.900000X1.200000*%
%ADD16R,1.100000X1.100000*%
G04 APERTURE END LIST*
G36*
G01*
X191603500Y-105895000D02*
X191603500Y-106195000D01*
G75*
G02*
X191453500Y-106345000I-150000J0D01*
G01*
X189803500Y-106345000D01*
G75*
G02*
X189653500Y-106195000I0J150000D01*
G01*
X189653500Y-105895000D01*
G75*
G02*
X189803500Y-105745000I150000J0D01*
G01*
X191453500Y-105745000D01*
G75*
G02*
X191603500Y-105895000I0J-150000D01*
G01*
G37*
G36*
G01*
X191603500Y-104625000D02*
X191603500Y-104925000D01*
G75*
G02*
X191453500Y-105075000I-150000J0D01*
G01*
X189803500Y-105075000D01*
G75*
G02*
X189653500Y-104925000I0J150000D01*
G01*
X189653500Y-104625000D01*
G75*
G02*
X189803500Y-104475000I150000J0D01*
G01*
X191453500Y-104475000D01*
G75*
G02*
X191603500Y-104625000I0J-150000D01*
G01*
G37*
G36*
G01*
X191603500Y-103355000D02*
X191603500Y-103655000D01*
G75*
G02*
X191453500Y-103805000I-150000J0D01*
G01*
X189803500Y-103805000D01*
G75*
G02*
X189653500Y-103655000I0J150000D01*
G01*
X189653500Y-103355000D01*
G75*
G02*
X189803500Y-103205000I150000J0D01*
G01*
X191453500Y-103205000D01*
G75*
G02*
X191603500Y-103355000I0J-150000D01*
G01*
G37*
G36*
G01*
X191603500Y-102085000D02*
X191603500Y-102385000D01*
G75*
G02*
X191453500Y-102535000I-150000J0D01*
G01*
X189803500Y-102535000D01*
G75*
G02*
X189653500Y-102385000I0J150000D01*
G01*
X189653500Y-102085000D01*
G75*
G02*
X189803500Y-101935000I150000J0D01*
G01*
X191453500Y-101935000D01*
G75*
G02*
X191603500Y-102085000I0J-150000D01*
G01*
G37*
G36*
G01*
X196553500Y-102085000D02*
X196553500Y-102385000D01*
G75*
G02*
X196403500Y-102535000I-150000J0D01*
G01*
X194753500Y-102535000D01*
G75*
G02*
X194603500Y-102385000I0J150000D01*
G01*
X194603500Y-102085000D01*
G75*
G02*
X194753500Y-101935000I150000J0D01*
G01*
X196403500Y-101935000D01*
G75*
G02*
X196553500Y-102085000I0J-150000D01*
G01*
G37*
G36*
G01*
X196553500Y-103355000D02*
X196553500Y-103655000D01*
G75*
G02*
X196403500Y-103805000I-150000J0D01*
G01*
X194753500Y-103805000D01*
G75*
G02*
X194603500Y-103655000I0J150000D01*
G01*
X194603500Y-103355000D01*
G75*
G02*
X194753500Y-103205000I150000J0D01*
G01*
X196403500Y-103205000D01*
G75*
G02*
X196553500Y-103355000I0J-150000D01*
G01*
G37*
G36*
G01*
X196553500Y-104625000D02*
X196553500Y-104925000D01*
G75*
G02*
X196403500Y-105075000I-150000J0D01*
G01*
X194753500Y-105075000D01*
G75*
G02*
X194603500Y-104925000I0J150000D01*
G01*
X194603500Y-104625000D01*
G75*
G02*
X194753500Y-104475000I150000J0D01*
G01*
X196403500Y-104475000D01*
G75*
G02*
X196553500Y-104625000I0J-150000D01*
G01*
G37*
G36*
G01*
X196553500Y-105895000D02*
X196553500Y-106195000D01*
G75*
G02*
X196403500Y-106345000I-150000J0D01*
G01*
X194753500Y-106345000D01*
G75*
G02*
X194603500Y-106195000I0J150000D01*
G01*
X194603500Y-105895000D01*
G75*
G02*
X194753500Y-105745000I150000J0D01*
G01*
X196403500Y-105745000D01*
G75*
G02*
X196553500Y-105895000I0J-150000D01*
G01*
G37*
G36*
G01*
X167537000Y-93830000D02*
X167537000Y-94130000D01*
G75*
G02*
X167387000Y-94280000I-150000J0D01*
G01*
X165737000Y-94280000D01*
G75*
G02*
X165587000Y-94130000I0J150000D01*
G01*
X165587000Y-93830000D01*
G75*
G02*
X165737000Y-93680000I150000J0D01*
G01*
X167387000Y-93680000D01*
G75*
G02*
X167537000Y-93830000I0J-150000D01*
G01*
G37*
G36*
G01*
X167537000Y-92560000D02*
X167537000Y-92860000D01*
G75*
G02*
X167387000Y-93010000I-150000J0D01*
G01*
X165737000Y-93010000D01*
G75*
G02*
X165587000Y-92860000I0J150000D01*
G01*
X165587000Y-92560000D01*
G75*
G02*
X165737000Y-92410000I150000J0D01*
G01*
X167387000Y-92410000D01*
G75*
G02*
X167537000Y-92560000I0J-150000D01*
G01*
G37*
G36*
G01*
X167537000Y-91290000D02*
X167537000Y-91590000D01*
G75*
G02*
X167387000Y-91740000I-150000J0D01*
G01*
X165737000Y-91740000D01*
G75*
G02*
X165587000Y-91590000I0J150000D01*
G01*
X165587000Y-91290000D01*
G75*
G02*
X165737000Y-91140000I150000J0D01*
G01*
X167387000Y-91140000D01*
G75*
G02*
X167537000Y-91290000I0J-150000D01*
G01*
G37*
G36*
G01*
X167537000Y-90020000D02*
X167537000Y-90320000D01*
G75*
G02*
X167387000Y-90470000I-150000J0D01*
G01*
X165737000Y-90470000D01*
G75*
G02*
X165587000Y-90320000I0J150000D01*
G01*
X165587000Y-90020000D01*
G75*
G02*
X165737000Y-89870000I150000J0D01*
G01*
X167387000Y-89870000D01*
G75*
G02*
X167537000Y-90020000I0J-150000D01*
G01*
G37*
G36*
G01*
X172487000Y-90020000D02*
X172487000Y-90320000D01*
G75*
G02*
X172337000Y-90470000I-150000J0D01*
G01*
X170687000Y-90470000D01*
G75*
G02*
X170537000Y-90320000I0J150000D01*
G01*
X170537000Y-90020000D01*
G75*
G02*
X170687000Y-89870000I150000J0D01*
G01*
X172337000Y-89870000D01*
G75*
G02*
X172487000Y-90020000I0J-150000D01*
G01*
G37*
G36*
G01*
X172487000Y-91290000D02*
X172487000Y-91590000D01*
G75*
G02*
X172337000Y-91740000I-150000J0D01*
G01*
X170687000Y-91740000D01*
G75*
G02*
X170537000Y-91590000I0J150000D01*
G01*
X170537000Y-91290000D01*
G75*
G02*
X170687000Y-91140000I150000J0D01*
G01*
X172337000Y-91140000D01*
G75*
G02*
X172487000Y-91290000I0J-150000D01*
G01*
G37*
G36*
G01*
X172487000Y-92560000D02*
X172487000Y-92860000D01*
G75*
G02*
X172337000Y-93010000I-150000J0D01*
G01*
X170687000Y-93010000D01*
G75*
G02*
X170537000Y-92860000I0J150000D01*
G01*
X170537000Y-92560000D01*
G75*
G02*
X170687000Y-92410000I150000J0D01*
G01*
X172337000Y-92410000D01*
G75*
G02*
X172487000Y-92560000I0J-150000D01*
G01*
G37*
G36*
G01*
X172487000Y-93830000D02*
X172487000Y-94130000D01*
G75*
G02*
X172337000Y-94280000I-150000J0D01*
G01*
X170687000Y-94280000D01*
G75*
G02*
X170537000Y-94130000I0J150000D01*
G01*
X170537000Y-93830000D01*
G75*
G02*
X170687000Y-93680000I150000J0D01*
G01*
X172337000Y-93680000D01*
G75*
G02*
X172487000Y-93830000I0J-150000D01*
G01*
G37*
G36*
G01*
X167600500Y-114912000D02*
X167600500Y-115212000D01*
G75*
G02*
X167450500Y-115362000I-150000J0D01*
G01*
X165800500Y-115362000D01*
G75*
G02*
X165650500Y-115212000I0J150000D01*
G01*
X165650500Y-114912000D01*
G75*
G02*
X165800500Y-114762000I150000J0D01*
G01*
X167450500Y-114762000D01*
G75*
G02*
X167600500Y-114912000I0J-150000D01*
G01*
G37*
G36*
G01*
X167600500Y-113642000D02*
X167600500Y-113942000D01*
G75*
G02*
X167450500Y-114092000I-150000J0D01*
G01*
X165800500Y-114092000D01*
G75*
G02*
X165650500Y-113942000I0J150000D01*
G01*
X165650500Y-113642000D01*
G75*
G02*
X165800500Y-113492000I150000J0D01*
G01*
X167450500Y-113492000D01*
G75*
G02*
X167600500Y-113642000I0J-150000D01*
G01*
G37*
G36*
G01*
X167600500Y-112372000D02*
X167600500Y-112672000D01*
G75*
G02*
X167450500Y-112822000I-150000J0D01*
G01*
X165800500Y-112822000D01*
G75*
G02*
X165650500Y-112672000I0J150000D01*
G01*
X165650500Y-112372000D01*
G75*
G02*
X165800500Y-112222000I150000J0D01*
G01*
X167450500Y-112222000D01*
G75*
G02*
X167600500Y-112372000I0J-150000D01*
G01*
G37*
G36*
G01*
X167600500Y-111102000D02*
X167600500Y-111402000D01*
G75*
G02*
X167450500Y-111552000I-150000J0D01*
G01*
X165800500Y-111552000D01*
G75*
G02*
X165650500Y-111402000I0J150000D01*
G01*
X165650500Y-111102000D01*
G75*
G02*
X165800500Y-110952000I150000J0D01*
G01*
X167450500Y-110952000D01*
G75*
G02*
X167600500Y-111102000I0J-150000D01*
G01*
G37*
G36*
G01*
X172550500Y-111102000D02*
X172550500Y-111402000D01*
G75*
G02*
X172400500Y-111552000I-150000J0D01*
G01*
X170750500Y-111552000D01*
G75*
G02*
X170600500Y-111402000I0J150000D01*
G01*
X170600500Y-111102000D01*
G75*
G02*
X170750500Y-110952000I150000J0D01*
G01*
X172400500Y-110952000D01*
G75*
G02*
X172550500Y-111102000I0J-150000D01*
G01*
G37*
G36*
G01*
X172550500Y-112372000D02*
X172550500Y-112672000D01*
G75*
G02*
X172400500Y-112822000I-150000J0D01*
G01*
X170750500Y-112822000D01*
G75*
G02*
X170600500Y-112672000I0J150000D01*
G01*
X170600500Y-112372000D01*
G75*
G02*
X170750500Y-112222000I150000J0D01*
G01*
X172400500Y-112222000D01*
G75*
G02*
X172550500Y-112372000I0J-150000D01*
G01*
G37*
G36*
G01*
X172550500Y-113642000D02*
X172550500Y-113942000D01*
G75*
G02*
X172400500Y-114092000I-150000J0D01*
G01*
X170750500Y-114092000D01*
G75*
G02*
X170600500Y-113942000I0J150000D01*
G01*
X170600500Y-113642000D01*
G75*
G02*
X170750500Y-113492000I150000J0D01*
G01*
X172400500Y-113492000D01*
G75*
G02*
X172550500Y-113642000I0J-150000D01*
G01*
G37*
G36*
G01*
X172550500Y-114912000D02*
X172550500Y-115212000D01*
G75*
G02*
X172400500Y-115362000I-150000J0D01*
G01*
X170750500Y-115362000D01*
G75*
G02*
X170600500Y-115212000I0J150000D01*
G01*
X170600500Y-114912000D01*
G75*
G02*
X170750500Y-114762000I150000J0D01*
G01*
X172400500Y-114762000D01*
G75*
G02*
X172550500Y-114912000I0J-150000D01*
G01*
G37*
G36*
G01*
X179366500Y-128212001D02*
X179366500Y-127311999D01*
G75*
G02*
X179616499Y-127062000I249999J0D01*
G01*
X180141501Y-127062000D01*
G75*
G02*
X180391500Y-127311999I0J-249999D01*
G01*
X180391500Y-128212001D01*
G75*
G02*
X180141501Y-128462000I-249999J0D01*
G01*
X179616499Y-128462000D01*
G75*
G02*
X179366500Y-128212001I0J249999D01*
G01*
G37*
G36*
G01*
X177541500Y-128212001D02*
X177541500Y-127311999D01*
G75*
G02*
X177791499Y-127062000I249999J0D01*
G01*
X178316501Y-127062000D01*
G75*
G02*
X178566500Y-127311999I0J-249999D01*
G01*
X178566500Y-128212001D01*
G75*
G02*
X178316501Y-128462000I-249999J0D01*
G01*
X177791499Y-128462000D01*
G75*
G02*
X177541500Y-128212001I0J249999D01*
G01*
G37*
G36*
G01*
X175128500Y-128212001D02*
X175128500Y-127311999D01*
G75*
G02*
X175378499Y-127062000I249999J0D01*
G01*
X175903501Y-127062000D01*
G75*
G02*
X176153500Y-127311999I0J-249999D01*
G01*
X176153500Y-128212001D01*
G75*
G02*
X175903501Y-128462000I-249999J0D01*
G01*
X175378499Y-128462000D01*
G75*
G02*
X175128500Y-128212001I0J249999D01*
G01*
G37*
G36*
G01*
X173303500Y-128212001D02*
X173303500Y-127311999D01*
G75*
G02*
X173553499Y-127062000I249999J0D01*
G01*
X174078501Y-127062000D01*
G75*
G02*
X174328500Y-127311999I0J-249999D01*
G01*
X174328500Y-128212001D01*
G75*
G02*
X174078501Y-128462000I-249999J0D01*
G01*
X173553499Y-128462000D01*
G75*
G02*
X173303500Y-128212001I0J249999D01*
G01*
G37*
G36*
G01*
X170137500Y-132137999D02*
X170137500Y-133038001D01*
G75*
G02*
X169887501Y-133288000I-249999J0D01*
G01*
X169362499Y-133288000D01*
G75*
G02*
X169112500Y-133038001I0J249999D01*
G01*
X169112500Y-132137999D01*
G75*
G02*
X169362499Y-131888000I249999J0D01*
G01*
X169887501Y-131888000D01*
G75*
G02*
X170137500Y-132137999I0J-249999D01*
G01*
G37*
G36*
G01*
X171962500Y-132137999D02*
X171962500Y-133038001D01*
G75*
G02*
X171712501Y-133288000I-249999J0D01*
G01*
X171187499Y-133288000D01*
G75*
G02*
X170937500Y-133038001I0J249999D01*
G01*
X170937500Y-132137999D01*
G75*
G02*
X171187499Y-131888000I249999J0D01*
G01*
X171712501Y-131888000D01*
G75*
G02*
X171962500Y-132137999I0J-249999D01*
G01*
G37*
D10*
X173641000Y-131887000D03*
X175641000Y-130937000D03*
X175641000Y-132837000D03*
X180435000Y-131887000D03*
X178435000Y-132837000D03*
X178435000Y-130937000D03*
D11*
X195072000Y-133201000D03*
X195072000Y-136801000D03*
G36*
G01*
X150255000Y-130780000D02*
X150055000Y-130780000D01*
G75*
G02*
X149955000Y-130680000I0J100000D01*
G01*
X149955000Y-129255000D01*
G75*
G02*
X150055000Y-129155000I100000J0D01*
G01*
X150255000Y-129155000D01*
G75*
G02*
X150355000Y-129255000I0J-100000D01*
G01*
X150355000Y-130680000D01*
G75*
G02*
X150255000Y-130780000I-100000J0D01*
G01*
G37*
G36*
G01*
X150905000Y-130780000D02*
X150705000Y-130780000D01*
G75*
G02*
X150605000Y-130680000I0J100000D01*
G01*
X150605000Y-129255000D01*
G75*
G02*
X150705000Y-129155000I100000J0D01*
G01*
X150905000Y-129155000D01*
G75*
G02*
X151005000Y-129255000I0J-100000D01*
G01*
X151005000Y-130680000D01*
G75*
G02*
X150905000Y-130780000I-100000J0D01*
G01*
G37*
G36*
G01*
X151555000Y-130780000D02*
X151355000Y-130780000D01*
G75*
G02*
X151255000Y-130680000I0J100000D01*
G01*
X151255000Y-129255000D01*
G75*
G02*
X151355000Y-129155000I100000J0D01*
G01*
X151555000Y-129155000D01*
G75*
G02*
X151655000Y-129255000I0J-100000D01*
G01*
X151655000Y-130680000D01*
G75*
G02*
X151555000Y-130780000I-100000J0D01*
G01*
G37*
G36*
G01*
X152205000Y-130780000D02*
X152005000Y-130780000D01*
G75*
G02*
X151905000Y-130680000I0J100000D01*
G01*
X151905000Y-129255000D01*
G75*
G02*
X152005000Y-129155000I100000J0D01*
G01*
X152205000Y-129155000D01*
G75*
G02*
X152305000Y-129255000I0J-100000D01*
G01*
X152305000Y-130680000D01*
G75*
G02*
X152205000Y-130780000I-100000J0D01*
G01*
G37*
G36*
G01*
X152205000Y-135005000D02*
X152005000Y-135005000D01*
G75*
G02*
X151905000Y-134905000I0J100000D01*
G01*
X151905000Y-133480000D01*
G75*
G02*
X152005000Y-133380000I100000J0D01*
G01*
X152205000Y-133380000D01*
G75*
G02*
X152305000Y-133480000I0J-100000D01*
G01*
X152305000Y-134905000D01*
G75*
G02*
X152205000Y-135005000I-100000J0D01*
G01*
G37*
G36*
G01*
X151555000Y-135005000D02*
X151355000Y-135005000D01*
G75*
G02*
X151255000Y-134905000I0J100000D01*
G01*
X151255000Y-133480000D01*
G75*
G02*
X151355000Y-133380000I100000J0D01*
G01*
X151555000Y-133380000D01*
G75*
G02*
X151655000Y-133480000I0J-100000D01*
G01*
X151655000Y-134905000D01*
G75*
G02*
X151555000Y-135005000I-100000J0D01*
G01*
G37*
G36*
G01*
X150905000Y-135005000D02*
X150705000Y-135005000D01*
G75*
G02*
X150605000Y-134905000I0J100000D01*
G01*
X150605000Y-133480000D01*
G75*
G02*
X150705000Y-133380000I100000J0D01*
G01*
X150905000Y-133380000D01*
G75*
G02*
X151005000Y-133480000I0J-100000D01*
G01*
X151005000Y-134905000D01*
G75*
G02*
X150905000Y-135005000I-100000J0D01*
G01*
G37*
G36*
G01*
X150255000Y-135005000D02*
X150055000Y-135005000D01*
G75*
G02*
X149955000Y-134905000I0J100000D01*
G01*
X149955000Y-133480000D01*
G75*
G02*
X150055000Y-133380000I100000J0D01*
G01*
X150255000Y-133380000D01*
G75*
G02*
X150355000Y-133480000I0J-100000D01*
G01*
X150355000Y-134905000D01*
G75*
G02*
X150255000Y-135005000I-100000J0D01*
G01*
G37*
G36*
G01*
X141320000Y-138845000D02*
X141120000Y-138845000D01*
G75*
G02*
X141020000Y-138745000I0J100000D01*
G01*
X141020000Y-137470000D01*
G75*
G02*
X141120000Y-137370000I100000J0D01*
G01*
X141320000Y-137370000D01*
G75*
G02*
X141420000Y-137470000I0J-100000D01*
G01*
X141420000Y-138745000D01*
G75*
G02*
X141320000Y-138845000I-100000J0D01*
G01*
G37*
G36*
G01*
X141970000Y-138845000D02*
X141770000Y-138845000D01*
G75*
G02*
X141670000Y-138745000I0J100000D01*
G01*
X141670000Y-137470000D01*
G75*
G02*
X141770000Y-137370000I100000J0D01*
G01*
X141970000Y-137370000D01*
G75*
G02*
X142070000Y-137470000I0J-100000D01*
G01*
X142070000Y-138745000D01*
G75*
G02*
X141970000Y-138845000I-100000J0D01*
G01*
G37*
G36*
G01*
X142620000Y-138845000D02*
X142420000Y-138845000D01*
G75*
G02*
X142320000Y-138745000I0J100000D01*
G01*
X142320000Y-137470000D01*
G75*
G02*
X142420000Y-137370000I100000J0D01*
G01*
X142620000Y-137370000D01*
G75*
G02*
X142720000Y-137470000I0J-100000D01*
G01*
X142720000Y-138745000D01*
G75*
G02*
X142620000Y-138845000I-100000J0D01*
G01*
G37*
G36*
G01*
X143270000Y-138845000D02*
X143070000Y-138845000D01*
G75*
G02*
X142970000Y-138745000I0J100000D01*
G01*
X142970000Y-137470000D01*
G75*
G02*
X143070000Y-137370000I100000J0D01*
G01*
X143270000Y-137370000D01*
G75*
G02*
X143370000Y-137470000I0J-100000D01*
G01*
X143370000Y-138745000D01*
G75*
G02*
X143270000Y-138845000I-100000J0D01*
G01*
G37*
G36*
G01*
X143920000Y-138845000D02*
X143720000Y-138845000D01*
G75*
G02*
X143620000Y-138745000I0J100000D01*
G01*
X143620000Y-137470000D01*
G75*
G02*
X143720000Y-137370000I100000J0D01*
G01*
X143920000Y-137370000D01*
G75*
G02*
X144020000Y-137470000I0J-100000D01*
G01*
X144020000Y-138745000D01*
G75*
G02*
X143920000Y-138845000I-100000J0D01*
G01*
G37*
G36*
G01*
X144570000Y-138845000D02*
X144370000Y-138845000D01*
G75*
G02*
X144270000Y-138745000I0J100000D01*
G01*
X144270000Y-137470000D01*
G75*
G02*
X144370000Y-137370000I100000J0D01*
G01*
X144570000Y-137370000D01*
G75*
G02*
X144670000Y-137470000I0J-100000D01*
G01*
X144670000Y-138745000D01*
G75*
G02*
X144570000Y-138845000I-100000J0D01*
G01*
G37*
G36*
G01*
X145220000Y-138845000D02*
X145020000Y-138845000D01*
G75*
G02*
X144920000Y-138745000I0J100000D01*
G01*
X144920000Y-137470000D01*
G75*
G02*
X145020000Y-137370000I100000J0D01*
G01*
X145220000Y-137370000D01*
G75*
G02*
X145320000Y-137470000I0J-100000D01*
G01*
X145320000Y-138745000D01*
G75*
G02*
X145220000Y-138845000I-100000J0D01*
G01*
G37*
G36*
G01*
X145870000Y-138845000D02*
X145670000Y-138845000D01*
G75*
G02*
X145570000Y-138745000I0J100000D01*
G01*
X145570000Y-137470000D01*
G75*
G02*
X145670000Y-137370000I100000J0D01*
G01*
X145870000Y-137370000D01*
G75*
G02*
X145970000Y-137470000I0J-100000D01*
G01*
X145970000Y-138745000D01*
G75*
G02*
X145870000Y-138845000I-100000J0D01*
G01*
G37*
G36*
G01*
X146520000Y-138845000D02*
X146320000Y-138845000D01*
G75*
G02*
X146220000Y-138745000I0J100000D01*
G01*
X146220000Y-137470000D01*
G75*
G02*
X146320000Y-137370000I100000J0D01*
G01*
X146520000Y-137370000D01*
G75*
G02*
X146620000Y-137470000I0J-100000D01*
G01*
X146620000Y-138745000D01*
G75*
G02*
X146520000Y-138845000I-100000J0D01*
G01*
G37*
G36*
G01*
X147170000Y-138845000D02*
X146970000Y-138845000D01*
G75*
G02*
X146870000Y-138745000I0J100000D01*
G01*
X146870000Y-137470000D01*
G75*
G02*
X146970000Y-137370000I100000J0D01*
G01*
X147170000Y-137370000D01*
G75*
G02*
X147270000Y-137470000I0J-100000D01*
G01*
X147270000Y-138745000D01*
G75*
G02*
X147170000Y-138845000I-100000J0D01*
G01*
G37*
G36*
G01*
X147170000Y-144570000D02*
X146970000Y-144570000D01*
G75*
G02*
X146870000Y-144470000I0J100000D01*
G01*
X146870000Y-143195000D01*
G75*
G02*
X146970000Y-143095000I100000J0D01*
G01*
X147170000Y-143095000D01*
G75*
G02*
X147270000Y-143195000I0J-100000D01*
G01*
X147270000Y-144470000D01*
G75*
G02*
X147170000Y-144570000I-100000J0D01*
G01*
G37*
G36*
G01*
X146520000Y-144570000D02*
X146320000Y-144570000D01*
G75*
G02*
X146220000Y-144470000I0J100000D01*
G01*
X146220000Y-143195000D01*
G75*
G02*
X146320000Y-143095000I100000J0D01*
G01*
X146520000Y-143095000D01*
G75*
G02*
X146620000Y-143195000I0J-100000D01*
G01*
X146620000Y-144470000D01*
G75*
G02*
X146520000Y-144570000I-100000J0D01*
G01*
G37*
G36*
G01*
X145870000Y-144570000D02*
X145670000Y-144570000D01*
G75*
G02*
X145570000Y-144470000I0J100000D01*
G01*
X145570000Y-143195000D01*
G75*
G02*
X145670000Y-143095000I100000J0D01*
G01*
X145870000Y-143095000D01*
G75*
G02*
X145970000Y-143195000I0J-100000D01*
G01*
X145970000Y-144470000D01*
G75*
G02*
X145870000Y-144570000I-100000J0D01*
G01*
G37*
G36*
G01*
X145220000Y-144570000D02*
X145020000Y-144570000D01*
G75*
G02*
X144920000Y-144470000I0J100000D01*
G01*
X144920000Y-143195000D01*
G75*
G02*
X145020000Y-143095000I100000J0D01*
G01*
X145220000Y-143095000D01*
G75*
G02*
X145320000Y-143195000I0J-100000D01*
G01*
X145320000Y-144470000D01*
G75*
G02*
X145220000Y-144570000I-100000J0D01*
G01*
G37*
G36*
G01*
X144570000Y-144570000D02*
X144370000Y-144570000D01*
G75*
G02*
X144270000Y-144470000I0J100000D01*
G01*
X144270000Y-143195000D01*
G75*
G02*
X144370000Y-143095000I100000J0D01*
G01*
X144570000Y-143095000D01*
G75*
G02*
X144670000Y-143195000I0J-100000D01*
G01*
X144670000Y-144470000D01*
G75*
G02*
X144570000Y-144570000I-100000J0D01*
G01*
G37*
G36*
G01*
X143920000Y-144570000D02*
X143720000Y-144570000D01*
G75*
G02*
X143620000Y-144470000I0J100000D01*
G01*
X143620000Y-143195000D01*
G75*
G02*
X143720000Y-143095000I100000J0D01*
G01*
X143920000Y-143095000D01*
G75*
G02*
X144020000Y-143195000I0J-100000D01*
G01*
X144020000Y-144470000D01*
G75*
G02*
X143920000Y-144570000I-100000J0D01*
G01*
G37*
G36*
G01*
X143270000Y-144570000D02*
X143070000Y-144570000D01*
G75*
G02*
X142970000Y-144470000I0J100000D01*
G01*
X142970000Y-143195000D01*
G75*
G02*
X143070000Y-143095000I100000J0D01*
G01*
X143270000Y-143095000D01*
G75*
G02*
X143370000Y-143195000I0J-100000D01*
G01*
X143370000Y-144470000D01*
G75*
G02*
X143270000Y-144570000I-100000J0D01*
G01*
G37*
G36*
G01*
X142620000Y-144570000D02*
X142420000Y-144570000D01*
G75*
G02*
X142320000Y-144470000I0J100000D01*
G01*
X142320000Y-143195000D01*
G75*
G02*
X142420000Y-143095000I100000J0D01*
G01*
X142620000Y-143095000D01*
G75*
G02*
X142720000Y-143195000I0J-100000D01*
G01*
X142720000Y-144470000D01*
G75*
G02*
X142620000Y-144570000I-100000J0D01*
G01*
G37*
G36*
G01*
X141970000Y-144570000D02*
X141770000Y-144570000D01*
G75*
G02*
X141670000Y-144470000I0J100000D01*
G01*
X141670000Y-143195000D01*
G75*
G02*
X141770000Y-143095000I100000J0D01*
G01*
X141970000Y-143095000D01*
G75*
G02*
X142070000Y-143195000I0J-100000D01*
G01*
X142070000Y-144470000D01*
G75*
G02*
X141970000Y-144570000I-100000J0D01*
G01*
G37*
G36*
G01*
X141320000Y-144570000D02*
X141120000Y-144570000D01*
G75*
G02*
X141020000Y-144470000I0J100000D01*
G01*
X141020000Y-143195000D01*
G75*
G02*
X141120000Y-143095000I100000J0D01*
G01*
X141320000Y-143095000D01*
G75*
G02*
X141420000Y-143195000I0J-100000D01*
G01*
X141420000Y-144470000D01*
G75*
G02*
X141320000Y-144570000I-100000J0D01*
G01*
G37*
D12*
X195555000Y-147715000D03*
X195555000Y-143115000D03*
X195555000Y-145415000D03*
D13*
X189255000Y-145415000D03*
D14*
X192706000Y-129982000D03*
X192706000Y-129032000D03*
X192706000Y-128082000D03*
X195326000Y-128082000D03*
X195326000Y-129032000D03*
X195326000Y-129982000D03*
D10*
X153305000Y-121031000D03*
X155305000Y-120081000D03*
X155305000Y-121981000D03*
G36*
G01*
X191732000Y-86210000D02*
X191732000Y-86510000D01*
G75*
G02*
X191582000Y-86660000I-150000J0D01*
G01*
X189932000Y-86660000D01*
G75*
G02*
X189782000Y-86510000I0J150000D01*
G01*
X189782000Y-86210000D01*
G75*
G02*
X189932000Y-86060000I150000J0D01*
G01*
X191582000Y-86060000D01*
G75*
G02*
X191732000Y-86210000I0J-150000D01*
G01*
G37*
G36*
G01*
X191732000Y-84940000D02*
X191732000Y-85240000D01*
G75*
G02*
X191582000Y-85390000I-150000J0D01*
G01*
X189932000Y-85390000D01*
G75*
G02*
X189782000Y-85240000I0J150000D01*
G01*
X189782000Y-84940000D01*
G75*
G02*
X189932000Y-84790000I150000J0D01*
G01*
X191582000Y-84790000D01*
G75*
G02*
X191732000Y-84940000I0J-150000D01*
G01*
G37*
G36*
G01*
X191732000Y-83670000D02*
X191732000Y-83970000D01*
G75*
G02*
X191582000Y-84120000I-150000J0D01*
G01*
X189932000Y-84120000D01*
G75*
G02*
X189782000Y-83970000I0J150000D01*
G01*
X189782000Y-83670000D01*
G75*
G02*
X189932000Y-83520000I150000J0D01*
G01*
X191582000Y-83520000D01*
G75*
G02*
X191732000Y-83670000I0J-150000D01*
G01*
G37*
G36*
G01*
X191732000Y-82400000D02*
X191732000Y-82700000D01*
G75*
G02*
X191582000Y-82850000I-150000J0D01*
G01*
X189932000Y-82850000D01*
G75*
G02*
X189782000Y-82700000I0J150000D01*
G01*
X189782000Y-82400000D01*
G75*
G02*
X189932000Y-82250000I150000J0D01*
G01*
X191582000Y-82250000D01*
G75*
G02*
X191732000Y-82400000I0J-150000D01*
G01*
G37*
G36*
G01*
X196682000Y-82400000D02*
X196682000Y-82700000D01*
G75*
G02*
X196532000Y-82850000I-150000J0D01*
G01*
X194882000Y-82850000D01*
G75*
G02*
X194732000Y-82700000I0J150000D01*
G01*
X194732000Y-82400000D01*
G75*
G02*
X194882000Y-82250000I150000J0D01*
G01*
X196532000Y-82250000D01*
G75*
G02*
X196682000Y-82400000I0J-150000D01*
G01*
G37*
G36*
G01*
X196682000Y-83670000D02*
X196682000Y-83970000D01*
G75*
G02*
X196532000Y-84120000I-150000J0D01*
G01*
X194882000Y-84120000D01*
G75*
G02*
X194732000Y-83970000I0J150000D01*
G01*
X194732000Y-83670000D01*
G75*
G02*
X194882000Y-83520000I150000J0D01*
G01*
X196532000Y-83520000D01*
G75*
G02*
X196682000Y-83670000I0J-150000D01*
G01*
G37*
G36*
G01*
X196682000Y-84940000D02*
X196682000Y-85240000D01*
G75*
G02*
X196532000Y-85390000I-150000J0D01*
G01*
X194882000Y-85390000D01*
G75*
G02*
X194732000Y-85240000I0J150000D01*
G01*
X194732000Y-84940000D01*
G75*
G02*
X194882000Y-84790000I150000J0D01*
G01*
X196532000Y-84790000D01*
G75*
G02*
X196682000Y-84940000I0J-150000D01*
G01*
G37*
G36*
G01*
X196682000Y-86210000D02*
X196682000Y-86510000D01*
G75*
G02*
X196532000Y-86660000I-150000J0D01*
G01*
X194882000Y-86660000D01*
G75*
G02*
X194732000Y-86510000I0J150000D01*
G01*
X194732000Y-86210000D01*
G75*
G02*
X194882000Y-86060000I150000J0D01*
G01*
X196532000Y-86060000D01*
G75*
G02*
X196682000Y-86210000I0J-150000D01*
G01*
G37*
G36*
G01*
X139022500Y-147504999D02*
X139022500Y-148405001D01*
G75*
G02*
X138772501Y-148655000I-249999J0D01*
G01*
X138247499Y-148655000D01*
G75*
G02*
X137997500Y-148405001I0J249999D01*
G01*
X137997500Y-147504999D01*
G75*
G02*
X138247499Y-147255000I249999J0D01*
G01*
X138772501Y-147255000D01*
G75*
G02*
X139022500Y-147504999I0J-249999D01*
G01*
G37*
G36*
G01*
X140847500Y-147504999D02*
X140847500Y-148405001D01*
G75*
G02*
X140597501Y-148655000I-249999J0D01*
G01*
X140072499Y-148655000D01*
G75*
G02*
X139822500Y-148405001I0J249999D01*
G01*
X139822500Y-147504999D01*
G75*
G02*
X140072499Y-147255000I249999J0D01*
G01*
X140597501Y-147255000D01*
G75*
G02*
X140847500Y-147504999I0J-249999D01*
G01*
G37*
G36*
G01*
X186812500Y-107765001D02*
X186812500Y-106864999D01*
G75*
G02*
X187062499Y-106615000I249999J0D01*
G01*
X187587501Y-106615000D01*
G75*
G02*
X187837500Y-106864999I0J-249999D01*
G01*
X187837500Y-107765001D01*
G75*
G02*
X187587501Y-108015000I-249999J0D01*
G01*
X187062499Y-108015000D01*
G75*
G02*
X186812500Y-107765001I0J249999D01*
G01*
G37*
G36*
G01*
X184987500Y-107765001D02*
X184987500Y-106864999D01*
G75*
G02*
X185237499Y-106615000I249999J0D01*
G01*
X185762501Y-106615000D01*
G75*
G02*
X186012500Y-106864999I0J-249999D01*
G01*
X186012500Y-107765001D01*
G75*
G02*
X185762501Y-108015000I-249999J0D01*
G01*
X185237499Y-108015000D01*
G75*
G02*
X184987500Y-107765001I0J249999D01*
G01*
G37*
G36*
G01*
X185932500Y-101784999D02*
X185932500Y-102685001D01*
G75*
G02*
X185682501Y-102935000I-249999J0D01*
G01*
X185157499Y-102935000D01*
G75*
G02*
X184907500Y-102685001I0J249999D01*
G01*
X184907500Y-101784999D01*
G75*
G02*
X185157499Y-101535000I249999J0D01*
G01*
X185682501Y-101535000D01*
G75*
G02*
X185932500Y-101784999I0J-249999D01*
G01*
G37*
G36*
G01*
X187757500Y-101784999D02*
X187757500Y-102685001D01*
G75*
G02*
X187507501Y-102935000I-249999J0D01*
G01*
X186982499Y-102935000D01*
G75*
G02*
X186732500Y-102685001I0J249999D01*
G01*
X186732500Y-101784999D01*
G75*
G02*
X186982499Y-101535000I249999J0D01*
G01*
X187507501Y-101535000D01*
G75*
G02*
X187757500Y-101784999I0J-249999D01*
G01*
G37*
G36*
G01*
X185932500Y-99244999D02*
X185932500Y-100145001D01*
G75*
G02*
X185682501Y-100395000I-249999J0D01*
G01*
X185157499Y-100395000D01*
G75*
G02*
X184907500Y-100145001I0J249999D01*
G01*
X184907500Y-99244999D01*
G75*
G02*
X185157499Y-98995000I249999J0D01*
G01*
X185682501Y-98995000D01*
G75*
G02*
X185932500Y-99244999I0J-249999D01*
G01*
G37*
G36*
G01*
X187757500Y-99244999D02*
X187757500Y-100145001D01*
G75*
G02*
X187507501Y-100395000I-249999J0D01*
G01*
X186982499Y-100395000D01*
G75*
G02*
X186732500Y-100145001I0J249999D01*
G01*
X186732500Y-99244999D01*
G75*
G02*
X186982499Y-98995000I249999J0D01*
G01*
X187507501Y-98995000D01*
G75*
G02*
X187757500Y-99244999I0J-249999D01*
G01*
G37*
G36*
G01*
X185932500Y-104324999D02*
X185932500Y-105225001D01*
G75*
G02*
X185682501Y-105475000I-249999J0D01*
G01*
X185157499Y-105475000D01*
G75*
G02*
X184907500Y-105225001I0J249999D01*
G01*
X184907500Y-104324999D01*
G75*
G02*
X185157499Y-104075000I249999J0D01*
G01*
X185682501Y-104075000D01*
G75*
G02*
X185932500Y-104324999I0J-249999D01*
G01*
G37*
G36*
G01*
X187757500Y-104324999D02*
X187757500Y-105225001D01*
G75*
G02*
X187507501Y-105475000I-249999J0D01*
G01*
X186982499Y-105475000D01*
G75*
G02*
X186732500Y-105225001I0J249999D01*
G01*
X186732500Y-104324999D01*
G75*
G02*
X186982499Y-104075000I249999J0D01*
G01*
X187507501Y-104075000D01*
G75*
G02*
X187757500Y-104324999I0J-249999D01*
G01*
G37*
G36*
G01*
X199267500Y-104324999D02*
X199267500Y-105225001D01*
G75*
G02*
X199017501Y-105475000I-249999J0D01*
G01*
X198492499Y-105475000D01*
G75*
G02*
X198242500Y-105225001I0J249999D01*
G01*
X198242500Y-104324999D01*
G75*
G02*
X198492499Y-104075000I249999J0D01*
G01*
X199017501Y-104075000D01*
G75*
G02*
X199267500Y-104324999I0J-249999D01*
G01*
G37*
G36*
G01*
X201092500Y-104324999D02*
X201092500Y-105225001D01*
G75*
G02*
X200842501Y-105475000I-249999J0D01*
G01*
X200317499Y-105475000D01*
G75*
G02*
X200067500Y-105225001I0J249999D01*
G01*
X200067500Y-104324999D01*
G75*
G02*
X200317499Y-104075000I249999J0D01*
G01*
X200842501Y-104075000D01*
G75*
G02*
X201092500Y-104324999I0J-249999D01*
G01*
G37*
G36*
G01*
X161882500Y-96704999D02*
X161882500Y-97605001D01*
G75*
G02*
X161632501Y-97855000I-249999J0D01*
G01*
X161107499Y-97855000D01*
G75*
G02*
X160857500Y-97605001I0J249999D01*
G01*
X160857500Y-96704999D01*
G75*
G02*
X161107499Y-96455000I249999J0D01*
G01*
X161632501Y-96455000D01*
G75*
G02*
X161882500Y-96704999I0J-249999D01*
G01*
G37*
G36*
G01*
X163707500Y-96704999D02*
X163707500Y-97605001D01*
G75*
G02*
X163457501Y-97855000I-249999J0D01*
G01*
X162932499Y-97855000D01*
G75*
G02*
X162682500Y-97605001I0J249999D01*
G01*
X162682500Y-96704999D01*
G75*
G02*
X162932499Y-96455000I249999J0D01*
G01*
X163457501Y-96455000D01*
G75*
G02*
X163707500Y-96704999I0J-249999D01*
G01*
G37*
G36*
G01*
X162682500Y-95065001D02*
X162682500Y-94164999D01*
G75*
G02*
X162932499Y-93915000I249999J0D01*
G01*
X163457501Y-93915000D01*
G75*
G02*
X163707500Y-94164999I0J-249999D01*
G01*
X163707500Y-95065001D01*
G75*
G02*
X163457501Y-95315000I-249999J0D01*
G01*
X162932499Y-95315000D01*
G75*
G02*
X162682500Y-95065001I0J249999D01*
G01*
G37*
G36*
G01*
X160857500Y-95065001D02*
X160857500Y-94164999D01*
G75*
G02*
X161107499Y-93915000I249999J0D01*
G01*
X161632501Y-93915000D01*
G75*
G02*
X161882500Y-94164999I0J-249999D01*
G01*
X161882500Y-95065001D01*
G75*
G02*
X161632501Y-95315000I-249999J0D01*
G01*
X161107499Y-95315000D01*
G75*
G02*
X160857500Y-95065001I0J249999D01*
G01*
G37*
G36*
G01*
X162602500Y-89985001D02*
X162602500Y-89084999D01*
G75*
G02*
X162852499Y-88835000I249999J0D01*
G01*
X163377501Y-88835000D01*
G75*
G02*
X163627500Y-89084999I0J-249999D01*
G01*
X163627500Y-89985001D01*
G75*
G02*
X163377501Y-90235000I-249999J0D01*
G01*
X162852499Y-90235000D01*
G75*
G02*
X162602500Y-89985001I0J249999D01*
G01*
G37*
G36*
G01*
X160777500Y-89985001D02*
X160777500Y-89084999D01*
G75*
G02*
X161027499Y-88835000I249999J0D01*
G01*
X161552501Y-88835000D01*
G75*
G02*
X161802500Y-89084999I0J-249999D01*
G01*
X161802500Y-89985001D01*
G75*
G02*
X161552501Y-90235000I-249999J0D01*
G01*
X161027499Y-90235000D01*
G75*
G02*
X160777500Y-89985001I0J249999D01*
G01*
G37*
G36*
G01*
X161802500Y-91624999D02*
X161802500Y-92525001D01*
G75*
G02*
X161552501Y-92775000I-249999J0D01*
G01*
X161027499Y-92775000D01*
G75*
G02*
X160777500Y-92525001I0J249999D01*
G01*
X160777500Y-91624999D01*
G75*
G02*
X161027499Y-91375000I249999J0D01*
G01*
X161552501Y-91375000D01*
G75*
G02*
X161802500Y-91624999I0J-249999D01*
G01*
G37*
G36*
G01*
X163627500Y-91624999D02*
X163627500Y-92525001D01*
G75*
G02*
X163377501Y-92775000I-249999J0D01*
G01*
X162852499Y-92775000D01*
G75*
G02*
X162602500Y-92525001I0J249999D01*
G01*
X162602500Y-91624999D01*
G75*
G02*
X162852499Y-91375000I249999J0D01*
G01*
X163377501Y-91375000D01*
G75*
G02*
X163627500Y-91624999I0J-249999D01*
G01*
G37*
G36*
G01*
X175772500Y-90354999D02*
X175772500Y-91255001D01*
G75*
G02*
X175522501Y-91505000I-249999J0D01*
G01*
X174997499Y-91505000D01*
G75*
G02*
X174747500Y-91255001I0J249999D01*
G01*
X174747500Y-90354999D01*
G75*
G02*
X174997499Y-90105000I249999J0D01*
G01*
X175522501Y-90105000D01*
G75*
G02*
X175772500Y-90354999I0J-249999D01*
G01*
G37*
G36*
G01*
X177597500Y-90354999D02*
X177597500Y-91255001D01*
G75*
G02*
X177347501Y-91505000I-249999J0D01*
G01*
X176822499Y-91505000D01*
G75*
G02*
X176572500Y-91255001I0J249999D01*
G01*
X176572500Y-90354999D01*
G75*
G02*
X176822499Y-90105000I249999J0D01*
G01*
X177347501Y-90105000D01*
G75*
G02*
X177597500Y-90354999I0J-249999D01*
G01*
G37*
G36*
G01*
X175772500Y-87814999D02*
X175772500Y-88715001D01*
G75*
G02*
X175522501Y-88965000I-249999J0D01*
G01*
X174997499Y-88965000D01*
G75*
G02*
X174747500Y-88715001I0J249999D01*
G01*
X174747500Y-87814999D01*
G75*
G02*
X174997499Y-87565000I249999J0D01*
G01*
X175522501Y-87565000D01*
G75*
G02*
X175772500Y-87814999I0J-249999D01*
G01*
G37*
G36*
G01*
X177597500Y-87814999D02*
X177597500Y-88715001D01*
G75*
G02*
X177347501Y-88965000I-249999J0D01*
G01*
X176822499Y-88965000D01*
G75*
G02*
X176572500Y-88715001I0J249999D01*
G01*
X176572500Y-87814999D01*
G75*
G02*
X176822499Y-87565000I249999J0D01*
G01*
X177347501Y-87565000D01*
G75*
G02*
X177597500Y-87814999I0J-249999D01*
G01*
G37*
G36*
G01*
X176572500Y-86175001D02*
X176572500Y-85274999D01*
G75*
G02*
X176822499Y-85025000I249999J0D01*
G01*
X177347501Y-85025000D01*
G75*
G02*
X177597500Y-85274999I0J-249999D01*
G01*
X177597500Y-86175001D01*
G75*
G02*
X177347501Y-86425000I-249999J0D01*
G01*
X176822499Y-86425000D01*
G75*
G02*
X176572500Y-86175001I0J249999D01*
G01*
G37*
G36*
G01*
X174747500Y-86175001D02*
X174747500Y-85274999D01*
G75*
G02*
X174997499Y-85025000I249999J0D01*
G01*
X175522501Y-85025000D01*
G75*
G02*
X175772500Y-85274999I0J-249999D01*
G01*
X175772500Y-86175001D01*
G75*
G02*
X175522501Y-86425000I-249999J0D01*
G01*
X174997499Y-86425000D01*
G75*
G02*
X174747500Y-86175001I0J249999D01*
G01*
G37*
G36*
G01*
X176280500Y-115754999D02*
X176280500Y-116655001D01*
G75*
G02*
X176030501Y-116905000I-249999J0D01*
G01*
X175505499Y-116905000D01*
G75*
G02*
X175255500Y-116655001I0J249999D01*
G01*
X175255500Y-115754999D01*
G75*
G02*
X175505499Y-115505000I249999J0D01*
G01*
X176030501Y-115505000D01*
G75*
G02*
X176280500Y-115754999I0J-249999D01*
G01*
G37*
G36*
G01*
X178105500Y-115754999D02*
X178105500Y-116655001D01*
G75*
G02*
X177855501Y-116905000I-249999J0D01*
G01*
X177330499Y-116905000D01*
G75*
G02*
X177080500Y-116655001I0J249999D01*
G01*
X177080500Y-115754999D01*
G75*
G02*
X177330499Y-115505000I249999J0D01*
G01*
X177855501Y-115505000D01*
G75*
G02*
X178105500Y-115754999I0J-249999D01*
G01*
G37*
G36*
G01*
X176280500Y-103054999D02*
X176280500Y-103955001D01*
G75*
G02*
X176030501Y-104205000I-249999J0D01*
G01*
X175505499Y-104205000D01*
G75*
G02*
X175255500Y-103955001I0J249999D01*
G01*
X175255500Y-103054999D01*
G75*
G02*
X175505499Y-102805000I249999J0D01*
G01*
X176030501Y-102805000D01*
G75*
G02*
X176280500Y-103054999I0J-249999D01*
G01*
G37*
G36*
G01*
X178105500Y-103054999D02*
X178105500Y-103955001D01*
G75*
G02*
X177855501Y-104205000I-249999J0D01*
G01*
X177330499Y-104205000D01*
G75*
G02*
X177080500Y-103955001I0J249999D01*
G01*
X177080500Y-103054999D01*
G75*
G02*
X177330499Y-102805000I249999J0D01*
G01*
X177855501Y-102805000D01*
G75*
G02*
X178105500Y-103054999I0J-249999D01*
G01*
G37*
G36*
G01*
X177122500Y-100514999D02*
X177122500Y-101415001D01*
G75*
G02*
X176872501Y-101665000I-249999J0D01*
G01*
X176347499Y-101665000D01*
G75*
G02*
X176097500Y-101415001I0J249999D01*
G01*
X176097500Y-100514999D01*
G75*
G02*
X176347499Y-100265000I249999J0D01*
G01*
X176872501Y-100265000D01*
G75*
G02*
X177122500Y-100514999I0J-249999D01*
G01*
G37*
G36*
G01*
X178947500Y-100514999D02*
X178947500Y-101415001D01*
G75*
G02*
X178697501Y-101665000I-249999J0D01*
G01*
X178172499Y-101665000D01*
G75*
G02*
X177922500Y-101415001I0J249999D01*
G01*
X177922500Y-100514999D01*
G75*
G02*
X178172499Y-100265000I249999J0D01*
G01*
X178697501Y-100265000D01*
G75*
G02*
X178947500Y-100514999I0J-249999D01*
G01*
G37*
G36*
G01*
X177160500Y-114115001D02*
X177160500Y-113214999D01*
G75*
G02*
X177410499Y-112965000I249999J0D01*
G01*
X177935501Y-112965000D01*
G75*
G02*
X178185500Y-113214999I0J-249999D01*
G01*
X178185500Y-114115001D01*
G75*
G02*
X177935501Y-114365000I-249999J0D01*
G01*
X177410499Y-114365000D01*
G75*
G02*
X177160500Y-114115001I0J249999D01*
G01*
G37*
G36*
G01*
X175335500Y-114115001D02*
X175335500Y-113214999D01*
G75*
G02*
X175585499Y-112965000I249999J0D01*
G01*
X176110501Y-112965000D01*
G75*
G02*
X176360500Y-113214999I0J-249999D01*
G01*
X176360500Y-114115001D01*
G75*
G02*
X176110501Y-114365000I-249999J0D01*
G01*
X175585499Y-114365000D01*
G75*
G02*
X175335500Y-114115001I0J249999D01*
G01*
G37*
G36*
G01*
X177160500Y-111575001D02*
X177160500Y-110674999D01*
G75*
G02*
X177410499Y-110425000I249999J0D01*
G01*
X177935501Y-110425000D01*
G75*
G02*
X178185500Y-110674999I0J-249999D01*
G01*
X178185500Y-111575001D01*
G75*
G02*
X177935501Y-111825000I-249999J0D01*
G01*
X177410499Y-111825000D01*
G75*
G02*
X177160500Y-111575001I0J249999D01*
G01*
G37*
G36*
G01*
X175335500Y-111575001D02*
X175335500Y-110674999D01*
G75*
G02*
X175585499Y-110425000I249999J0D01*
G01*
X176110501Y-110425000D01*
G75*
G02*
X176360500Y-110674999I0J-249999D01*
G01*
X176360500Y-111575001D01*
G75*
G02*
X176110501Y-111825000I-249999J0D01*
G01*
X175585499Y-111825000D01*
G75*
G02*
X175335500Y-111575001I0J249999D01*
G01*
G37*
G36*
G01*
X177160500Y-109035001D02*
X177160500Y-108134999D01*
G75*
G02*
X177410499Y-107885000I249999J0D01*
G01*
X177935501Y-107885000D01*
G75*
G02*
X178185500Y-108134999I0J-249999D01*
G01*
X178185500Y-109035001D01*
G75*
G02*
X177935501Y-109285000I-249999J0D01*
G01*
X177410499Y-109285000D01*
G75*
G02*
X177160500Y-109035001I0J249999D01*
G01*
G37*
G36*
G01*
X175335500Y-109035001D02*
X175335500Y-108134999D01*
G75*
G02*
X175585499Y-107885000I249999J0D01*
G01*
X176110501Y-107885000D01*
G75*
G02*
X176360500Y-108134999I0J-249999D01*
G01*
X176360500Y-109035001D01*
G75*
G02*
X176110501Y-109285000I-249999J0D01*
G01*
X175585499Y-109285000D01*
G75*
G02*
X175335500Y-109035001I0J249999D01*
G01*
G37*
G36*
G01*
X177160500Y-106495001D02*
X177160500Y-105594999D01*
G75*
G02*
X177410499Y-105345000I249999J0D01*
G01*
X177935501Y-105345000D01*
G75*
G02*
X178185500Y-105594999I0J-249999D01*
G01*
X178185500Y-106495001D01*
G75*
G02*
X177935501Y-106745000I-249999J0D01*
G01*
X177410499Y-106745000D01*
G75*
G02*
X177160500Y-106495001I0J249999D01*
G01*
G37*
G36*
G01*
X175335500Y-106495001D02*
X175335500Y-105594999D01*
G75*
G02*
X175585499Y-105345000I249999J0D01*
G01*
X176110501Y-105345000D01*
G75*
G02*
X176360500Y-105594999I0J-249999D01*
G01*
X176360500Y-106495001D01*
G75*
G02*
X176110501Y-106745000I-249999J0D01*
G01*
X175585499Y-106745000D01*
G75*
G02*
X175335500Y-106495001I0J249999D01*
G01*
G37*
G36*
G01*
X159835001Y-83523500D02*
X158934999Y-83523500D01*
G75*
G02*
X158685000Y-83273501I0J249999D01*
G01*
X158685000Y-82748499D01*
G75*
G02*
X158934999Y-82498500I249999J0D01*
G01*
X159835001Y-82498500D01*
G75*
G02*
X160085000Y-82748499I0J-249999D01*
G01*
X160085000Y-83273501D01*
G75*
G02*
X159835001Y-83523500I-249999J0D01*
G01*
G37*
G36*
G01*
X159835001Y-85348500D02*
X158934999Y-85348500D01*
G75*
G02*
X158685000Y-85098501I0J249999D01*
G01*
X158685000Y-84573499D01*
G75*
G02*
X158934999Y-84323500I249999J0D01*
G01*
X159835001Y-84323500D01*
G75*
G02*
X160085000Y-84573499I0J-249999D01*
G01*
X160085000Y-85098501D01*
G75*
G02*
X159835001Y-85348500I-249999J0D01*
G01*
G37*
G36*
G01*
X162619000Y-115512001D02*
X162619000Y-114611999D01*
G75*
G02*
X162868999Y-114362000I249999J0D01*
G01*
X163394001Y-114362000D01*
G75*
G02*
X163644000Y-114611999I0J-249999D01*
G01*
X163644000Y-115512001D01*
G75*
G02*
X163394001Y-115762000I-249999J0D01*
G01*
X162868999Y-115762000D01*
G75*
G02*
X162619000Y-115512001I0J249999D01*
G01*
G37*
G36*
G01*
X160794000Y-115512001D02*
X160794000Y-114611999D01*
G75*
G02*
X161043999Y-114362000I249999J0D01*
G01*
X161569001Y-114362000D01*
G75*
G02*
X161819000Y-114611999I0J-249999D01*
G01*
X161819000Y-115512001D01*
G75*
G02*
X161569001Y-115762000I-249999J0D01*
G01*
X161043999Y-115762000D01*
G75*
G02*
X160794000Y-115512001I0J249999D01*
G01*
G37*
G36*
G01*
X161819000Y-106991999D02*
X161819000Y-107892001D01*
G75*
G02*
X161569001Y-108142000I-249999J0D01*
G01*
X161043999Y-108142000D01*
G75*
G02*
X160794000Y-107892001I0J249999D01*
G01*
X160794000Y-106991999D01*
G75*
G02*
X161043999Y-106742000I249999J0D01*
G01*
X161569001Y-106742000D01*
G75*
G02*
X161819000Y-106991999I0J-249999D01*
G01*
G37*
G36*
G01*
X163644000Y-106991999D02*
X163644000Y-107892001D01*
G75*
G02*
X163394001Y-108142000I-249999J0D01*
G01*
X162868999Y-108142000D01*
G75*
G02*
X162619000Y-107892001I0J249999D01*
G01*
X162619000Y-106991999D01*
G75*
G02*
X162868999Y-106742000I249999J0D01*
G01*
X163394001Y-106742000D01*
G75*
G02*
X163644000Y-106991999I0J-249999D01*
G01*
G37*
G36*
G01*
X161819000Y-104451999D02*
X161819000Y-105352001D01*
G75*
G02*
X161569001Y-105602000I-249999J0D01*
G01*
X161043999Y-105602000D01*
G75*
G02*
X160794000Y-105352001I0J249999D01*
G01*
X160794000Y-104451999D01*
G75*
G02*
X161043999Y-104202000I249999J0D01*
G01*
X161569001Y-104202000D01*
G75*
G02*
X161819000Y-104451999I0J-249999D01*
G01*
G37*
G36*
G01*
X163644000Y-104451999D02*
X163644000Y-105352001D01*
G75*
G02*
X163394001Y-105602000I-249999J0D01*
G01*
X162868999Y-105602000D01*
G75*
G02*
X162619000Y-105352001I0J249999D01*
G01*
X162619000Y-104451999D01*
G75*
G02*
X162868999Y-104202000I249999J0D01*
G01*
X163394001Y-104202000D01*
G75*
G02*
X163644000Y-104451999I0J-249999D01*
G01*
G37*
G36*
G01*
X161739000Y-112071999D02*
X161739000Y-112972001D01*
G75*
G02*
X161489001Y-113222000I-249999J0D01*
G01*
X160963999Y-113222000D01*
G75*
G02*
X160714000Y-112972001I0J249999D01*
G01*
X160714000Y-112071999D01*
G75*
G02*
X160963999Y-111822000I249999J0D01*
G01*
X161489001Y-111822000D01*
G75*
G02*
X161739000Y-112071999I0J-249999D01*
G01*
G37*
G36*
G01*
X163564000Y-112071999D02*
X163564000Y-112972001D01*
G75*
G02*
X163314001Y-113222000I-249999J0D01*
G01*
X162788999Y-113222000D01*
G75*
G02*
X162539000Y-112972001I0J249999D01*
G01*
X162539000Y-112071999D01*
G75*
G02*
X162788999Y-111822000I249999J0D01*
G01*
X163314001Y-111822000D01*
G75*
G02*
X163564000Y-112071999I0J-249999D01*
G01*
G37*
G36*
G01*
X161739000Y-109531999D02*
X161739000Y-110432001D01*
G75*
G02*
X161489001Y-110682000I-249999J0D01*
G01*
X160963999Y-110682000D01*
G75*
G02*
X160714000Y-110432001I0J249999D01*
G01*
X160714000Y-109531999D01*
G75*
G02*
X160963999Y-109282000I249999J0D01*
G01*
X161489001Y-109282000D01*
G75*
G02*
X161739000Y-109531999I0J-249999D01*
G01*
G37*
G36*
G01*
X163564000Y-109531999D02*
X163564000Y-110432001D01*
G75*
G02*
X163314001Y-110682000I-249999J0D01*
G01*
X162788999Y-110682000D01*
G75*
G02*
X162539000Y-110432001I0J249999D01*
G01*
X162539000Y-109531999D01*
G75*
G02*
X162788999Y-109282000I249999J0D01*
G01*
X163314001Y-109282000D01*
G75*
G02*
X163564000Y-109531999I0J-249999D01*
G01*
G37*
G36*
G01*
X149675001Y-83547000D02*
X148774999Y-83547000D01*
G75*
G02*
X148525000Y-83297001I0J249999D01*
G01*
X148525000Y-82771999D01*
G75*
G02*
X148774999Y-82522000I249999J0D01*
G01*
X149675001Y-82522000D01*
G75*
G02*
X149925000Y-82771999I0J-249999D01*
G01*
X149925000Y-83297001D01*
G75*
G02*
X149675001Y-83547000I-249999J0D01*
G01*
G37*
G36*
G01*
X149675001Y-85372000D02*
X148774999Y-85372000D01*
G75*
G02*
X148525000Y-85122001I0J249999D01*
G01*
X148525000Y-84596999D01*
G75*
G02*
X148774999Y-84347000I249999J0D01*
G01*
X149675001Y-84347000D01*
G75*
G02*
X149925000Y-84596999I0J-249999D01*
G01*
X149925000Y-85122001D01*
G75*
G02*
X149675001Y-85372000I-249999J0D01*
G01*
G37*
G36*
G01*
X195029500Y-122866999D02*
X195029500Y-123767001D01*
G75*
G02*
X194779501Y-124017000I-249999J0D01*
G01*
X194254499Y-124017000D01*
G75*
G02*
X194004500Y-123767001I0J249999D01*
G01*
X194004500Y-122866999D01*
G75*
G02*
X194254499Y-122617000I249999J0D01*
G01*
X194779501Y-122617000D01*
G75*
G02*
X195029500Y-122866999I0J-249999D01*
G01*
G37*
G36*
G01*
X196854500Y-122866999D02*
X196854500Y-123767001D01*
G75*
G02*
X196604501Y-124017000I-249999J0D01*
G01*
X196079499Y-124017000D01*
G75*
G02*
X195829500Y-123767001I0J249999D01*
G01*
X195829500Y-122866999D01*
G75*
G02*
X196079499Y-122617000I249999J0D01*
G01*
X196604501Y-122617000D01*
G75*
G02*
X196854500Y-122866999I0J-249999D01*
G01*
G37*
G36*
G01*
X195876500Y-126307001D02*
X195876500Y-125406999D01*
G75*
G02*
X196126499Y-125157000I249999J0D01*
G01*
X196651501Y-125157000D01*
G75*
G02*
X196901500Y-125406999I0J-249999D01*
G01*
X196901500Y-126307001D01*
G75*
G02*
X196651501Y-126557000I-249999J0D01*
G01*
X196126499Y-126557000D01*
G75*
G02*
X195876500Y-126307001I0J249999D01*
G01*
G37*
G36*
G01*
X194051500Y-126307001D02*
X194051500Y-125406999D01*
G75*
G02*
X194301499Y-125157000I249999J0D01*
G01*
X194826501Y-125157000D01*
G75*
G02*
X195076500Y-125406999I0J-249999D01*
G01*
X195076500Y-126307001D01*
G75*
G02*
X194826501Y-126557000I-249999J0D01*
G01*
X194301499Y-126557000D01*
G75*
G02*
X194051500Y-126307001I0J249999D01*
G01*
G37*
G36*
G01*
X200448500Y-130371001D02*
X200448500Y-129470999D01*
G75*
G02*
X200698499Y-129221000I249999J0D01*
G01*
X201223501Y-129221000D01*
G75*
G02*
X201473500Y-129470999I0J-249999D01*
G01*
X201473500Y-130371001D01*
G75*
G02*
X201223501Y-130621000I-249999J0D01*
G01*
X200698499Y-130621000D01*
G75*
G02*
X200448500Y-130371001I0J249999D01*
G01*
G37*
G36*
G01*
X198623500Y-130371001D02*
X198623500Y-129470999D01*
G75*
G02*
X198873499Y-129221000I249999J0D01*
G01*
X199398501Y-129221000D01*
G75*
G02*
X199648500Y-129470999I0J-249999D01*
G01*
X199648500Y-130371001D01*
G75*
G02*
X199398501Y-130621000I-249999J0D01*
G01*
X198873499Y-130621000D01*
G75*
G02*
X198623500Y-130371001I0J249999D01*
G01*
G37*
G36*
G01*
X202941500Y-137483001D02*
X202941500Y-136582999D01*
G75*
G02*
X203191499Y-136333000I249999J0D01*
G01*
X203716501Y-136333000D01*
G75*
G02*
X203966500Y-136582999I0J-249999D01*
G01*
X203966500Y-137483001D01*
G75*
G02*
X203716501Y-137733000I-249999J0D01*
G01*
X203191499Y-137733000D01*
G75*
G02*
X202941500Y-137483001I0J249999D01*
G01*
G37*
G36*
G01*
X204766500Y-137483001D02*
X204766500Y-136582999D01*
G75*
G02*
X205016499Y-136333000I249999J0D01*
G01*
X205541501Y-136333000D01*
G75*
G02*
X205791500Y-136582999I0J-249999D01*
G01*
X205791500Y-137483001D01*
G75*
G02*
X205541501Y-137733000I-249999J0D01*
G01*
X205016499Y-137733000D01*
G75*
G02*
X204766500Y-137483001I0J249999D01*
G01*
G37*
G36*
G01*
X160458999Y-121534500D02*
X161359001Y-121534500D01*
G75*
G02*
X161609000Y-121784499I0J-249999D01*
G01*
X161609000Y-122309501D01*
G75*
G02*
X161359001Y-122559500I-249999J0D01*
G01*
X160458999Y-122559500D01*
G75*
G02*
X160209000Y-122309501I0J249999D01*
G01*
X160209000Y-121784499D01*
G75*
G02*
X160458999Y-121534500I249999J0D01*
G01*
G37*
G36*
G01*
X160458999Y-119709500D02*
X161359001Y-119709500D01*
G75*
G02*
X161609000Y-119959499I0J-249999D01*
G01*
X161609000Y-120484501D01*
G75*
G02*
X161359001Y-120734500I-249999J0D01*
G01*
X160458999Y-120734500D01*
G75*
G02*
X160209000Y-120484501I0J249999D01*
G01*
X160209000Y-119959499D01*
G75*
G02*
X160458999Y-119709500I249999J0D01*
G01*
G37*
G36*
G01*
X186239999Y-76242500D02*
X187140001Y-76242500D01*
G75*
G02*
X187390000Y-76492499I0J-249999D01*
G01*
X187390000Y-77017501D01*
G75*
G02*
X187140001Y-77267500I-249999J0D01*
G01*
X186239999Y-77267500D01*
G75*
G02*
X185990000Y-77017501I0J249999D01*
G01*
X185990000Y-76492499D01*
G75*
G02*
X186239999Y-76242500I249999J0D01*
G01*
G37*
G36*
G01*
X186239999Y-74417500D02*
X187140001Y-74417500D01*
G75*
G02*
X187390000Y-74667499I0J-249999D01*
G01*
X187390000Y-75192501D01*
G75*
G02*
X187140001Y-75442500I-249999J0D01*
G01*
X186239999Y-75442500D01*
G75*
G02*
X185990000Y-75192501I0J249999D01*
G01*
X185990000Y-74667499D01*
G75*
G02*
X186239999Y-74417500I249999J0D01*
G01*
G37*
G36*
G01*
X187001999Y-85132500D02*
X187902001Y-85132500D01*
G75*
G02*
X188152000Y-85382499I0J-249999D01*
G01*
X188152000Y-85907501D01*
G75*
G02*
X187902001Y-86157500I-249999J0D01*
G01*
X187001999Y-86157500D01*
G75*
G02*
X186752000Y-85907501I0J249999D01*
G01*
X186752000Y-85382499D01*
G75*
G02*
X187001999Y-85132500I249999J0D01*
G01*
G37*
G36*
G01*
X187001999Y-83307500D02*
X187902001Y-83307500D01*
G75*
G02*
X188152000Y-83557499I0J-249999D01*
G01*
X188152000Y-84082501D01*
G75*
G02*
X187902001Y-84332500I-249999J0D01*
G01*
X187001999Y-84332500D01*
G75*
G02*
X186752000Y-84082501I0J249999D01*
G01*
X186752000Y-83557499D01*
G75*
G02*
X187001999Y-83307500I249999J0D01*
G01*
G37*
G36*
G01*
X201337500Y-85984501D02*
X201337500Y-85084499D01*
G75*
G02*
X201587499Y-84834500I249999J0D01*
G01*
X202112501Y-84834500D01*
G75*
G02*
X202362500Y-85084499I0J-249999D01*
G01*
X202362500Y-85984501D01*
G75*
G02*
X202112501Y-86234500I-249999J0D01*
G01*
X201587499Y-86234500D01*
G75*
G02*
X201337500Y-85984501I0J249999D01*
G01*
G37*
G36*
G01*
X199512500Y-85984501D02*
X199512500Y-85084499D01*
G75*
G02*
X199762499Y-84834500I249999J0D01*
G01*
X200287501Y-84834500D01*
G75*
G02*
X200537500Y-85084499I0J-249999D01*
G01*
X200537500Y-85984501D01*
G75*
G02*
X200287501Y-86234500I-249999J0D01*
G01*
X199762499Y-86234500D01*
G75*
G02*
X199512500Y-85984501I0J249999D01*
G01*
G37*
G36*
G01*
X204347500Y-85084499D02*
X204347500Y-85984501D01*
G75*
G02*
X204097501Y-86234500I-249999J0D01*
G01*
X203572499Y-86234500D01*
G75*
G02*
X203322500Y-85984501I0J249999D01*
G01*
X203322500Y-85084499D01*
G75*
G02*
X203572499Y-84834500I249999J0D01*
G01*
X204097501Y-84834500D01*
G75*
G02*
X204347500Y-85084499I0J-249999D01*
G01*
G37*
G36*
G01*
X206172500Y-85084499D02*
X206172500Y-85984501D01*
G75*
G02*
X205922501Y-86234500I-249999J0D01*
G01*
X205397499Y-86234500D01*
G75*
G02*
X205147500Y-85984501I0J249999D01*
G01*
X205147500Y-85084499D01*
G75*
G02*
X205397499Y-84834500I249999J0D01*
G01*
X205922501Y-84834500D01*
G75*
G02*
X206172500Y-85084499I0J-249999D01*
G01*
G37*
G36*
G01*
X159602500Y-125094750D02*
X159602500Y-125857250D01*
G75*
G02*
X159383750Y-126076000I-218750J0D01*
G01*
X158946250Y-126076000D01*
G75*
G02*
X158727500Y-125857250I0J218750D01*
G01*
X158727500Y-125094750D01*
G75*
G02*
X158946250Y-124876000I218750J0D01*
G01*
X159383750Y-124876000D01*
G75*
G02*
X159602500Y-125094750I0J-218750D01*
G01*
G37*
G36*
G01*
X161727500Y-125094750D02*
X161727500Y-125857250D01*
G75*
G02*
X161508750Y-126076000I-218750J0D01*
G01*
X161071250Y-126076000D01*
G75*
G02*
X160852500Y-125857250I0J218750D01*
G01*
X160852500Y-125094750D01*
G75*
G02*
X161071250Y-124876000I218750J0D01*
G01*
X161508750Y-124876000D01*
G75*
G02*
X161727500Y-125094750I0J-218750D01*
G01*
G37*
G36*
G01*
X199968500Y-140589250D02*
X199968500Y-139826750D01*
G75*
G02*
X200187250Y-139608000I218750J0D01*
G01*
X200624750Y-139608000D01*
G75*
G02*
X200843500Y-139826750I0J-218750D01*
G01*
X200843500Y-140589250D01*
G75*
G02*
X200624750Y-140808000I-218750J0D01*
G01*
X200187250Y-140808000D01*
G75*
G02*
X199968500Y-140589250I0J218750D01*
G01*
G37*
G36*
G01*
X197843500Y-140589250D02*
X197843500Y-139826750D01*
G75*
G02*
X198062250Y-139608000I218750J0D01*
G01*
X198499750Y-139608000D01*
G75*
G02*
X198718500Y-139826750I0J-218750D01*
G01*
X198718500Y-140589250D01*
G75*
G02*
X198499750Y-140808000I-218750J0D01*
G01*
X198062250Y-140808000D01*
G75*
G02*
X197843500Y-140589250I0J218750D01*
G01*
G37*
G36*
G01*
X153452500Y-145796250D02*
X153452500Y-145033750D01*
G75*
G02*
X153671250Y-144815000I218750J0D01*
G01*
X154108750Y-144815000D01*
G75*
G02*
X154327500Y-145033750I0J-218750D01*
G01*
X154327500Y-145796250D01*
G75*
G02*
X154108750Y-146015000I-218750J0D01*
G01*
X153671250Y-146015000D01*
G75*
G02*
X153452500Y-145796250I0J218750D01*
G01*
G37*
G36*
G01*
X151327500Y-145796250D02*
X151327500Y-145033750D01*
G75*
G02*
X151546250Y-144815000I218750J0D01*
G01*
X151983750Y-144815000D01*
G75*
G02*
X152202500Y-145033750I0J-218750D01*
G01*
X152202500Y-145796250D01*
G75*
G02*
X151983750Y-146015000I-218750J0D01*
G01*
X151546250Y-146015000D01*
G75*
G02*
X151327500Y-145796250I0J218750D01*
G01*
G37*
G36*
G01*
X199968500Y-143383250D02*
X199968500Y-142620750D01*
G75*
G02*
X200187250Y-142402000I218750J0D01*
G01*
X200624750Y-142402000D01*
G75*
G02*
X200843500Y-142620750I0J-218750D01*
G01*
X200843500Y-143383250D01*
G75*
G02*
X200624750Y-143602000I-218750J0D01*
G01*
X200187250Y-143602000D01*
G75*
G02*
X199968500Y-143383250I0J218750D01*
G01*
G37*
G36*
G01*
X197843500Y-143383250D02*
X197843500Y-142620750D01*
G75*
G02*
X198062250Y-142402000I218750J0D01*
G01*
X198499750Y-142402000D01*
G75*
G02*
X198718500Y-142620750I0J-218750D01*
G01*
X198718500Y-143383250D01*
G75*
G02*
X198499750Y-143602000I-218750J0D01*
G01*
X198062250Y-143602000D01*
G75*
G02*
X197843500Y-143383250I0J218750D01*
G01*
G37*
D15*
X174625000Y-96520000D03*
X177925000Y-96520000D03*
X177800000Y-93345000D03*
X174500000Y-93345000D03*
D16*
X207518000Y-129159000D03*
X207518000Y-131959000D03*
X204470000Y-131953000D03*
X204470000Y-129153000D03*
X202184000Y-126365000D03*
X202184000Y-123565000D03*
X199136000Y-123565000D03*
X199136000Y-126365000D03*
D15*
X208280000Y-140335000D03*
X204980000Y-140335000D03*
G36*
G01*
X151265000Y-127475000D02*
X151265000Y-126525000D01*
G75*
G02*
X151515000Y-126275000I250000J0D01*
G01*
X152015000Y-126275000D01*
G75*
G02*
X152265000Y-126525000I0J-250000D01*
G01*
X152265000Y-127475000D01*
G75*
G02*
X152015000Y-127725000I-250000J0D01*
G01*
X151515000Y-127725000D01*
G75*
G02*
X151265000Y-127475000I0J250000D01*
G01*
G37*
G36*
G01*
X149365000Y-127475000D02*
X149365000Y-126525000D01*
G75*
G02*
X149615000Y-126275000I250000J0D01*
G01*
X150115000Y-126275000D01*
G75*
G02*
X150365000Y-126525000I0J-250000D01*
G01*
X150365000Y-127475000D01*
G75*
G02*
X150115000Y-127725000I-250000J0D01*
G01*
X149615000Y-127725000D01*
G75*
G02*
X149365000Y-127475000I0J250000D01*
G01*
G37*
G36*
G01*
X144280000Y-148430000D02*
X144280000Y-147480000D01*
G75*
G02*
X144530000Y-147230000I250000J0D01*
G01*
X145030000Y-147230000D01*
G75*
G02*
X145280000Y-147480000I0J-250000D01*
G01*
X145280000Y-148430000D01*
G75*
G02*
X145030000Y-148680000I-250000J0D01*
G01*
X144530000Y-148680000D01*
G75*
G02*
X144280000Y-148430000I0J250000D01*
G01*
G37*
G36*
G01*
X142380000Y-148430000D02*
X142380000Y-147480000D01*
G75*
G02*
X142630000Y-147230000I250000J0D01*
G01*
X143130000Y-147230000D01*
G75*
G02*
X143380000Y-147480000I0J-250000D01*
G01*
X143380000Y-148430000D01*
G75*
G02*
X143130000Y-148680000I-250000J0D01*
G01*
X142630000Y-148680000D01*
G75*
G02*
X142380000Y-148430000I0J250000D01*
G01*
G37*
G36*
G01*
X152189600Y-142207000D02*
X152189600Y-141257000D01*
G75*
G02*
X152439600Y-141007000I250000J0D01*
G01*
X152939600Y-141007000D01*
G75*
G02*
X153189600Y-141257000I0J-250000D01*
G01*
X153189600Y-142207000D01*
G75*
G02*
X152939600Y-142457000I-250000J0D01*
G01*
X152439600Y-142457000D01*
G75*
G02*
X152189600Y-142207000I0J250000D01*
G01*
G37*
G36*
G01*
X150289600Y-142207000D02*
X150289600Y-141257000D01*
G75*
G02*
X150539600Y-141007000I250000J0D01*
G01*
X151039600Y-141007000D01*
G75*
G02*
X151289600Y-141257000I0J-250000D01*
G01*
X151289600Y-142207000D01*
G75*
G02*
X151039600Y-142457000I-250000J0D01*
G01*
X150539600Y-142457000D01*
G75*
G02*
X150289600Y-142207000I0J250000D01*
G01*
G37*
G36*
G01*
X152225200Y-138854200D02*
X152225200Y-137904200D01*
G75*
G02*
X152475200Y-137654200I250000J0D01*
G01*
X152975200Y-137654200D01*
G75*
G02*
X153225200Y-137904200I0J-250000D01*
G01*
X153225200Y-138854200D01*
G75*
G02*
X152975200Y-139104200I-250000J0D01*
G01*
X152475200Y-139104200D01*
G75*
G02*
X152225200Y-138854200I0J250000D01*
G01*
G37*
G36*
G01*
X150325200Y-138854200D02*
X150325200Y-137904200D01*
G75*
G02*
X150575200Y-137654200I250000J0D01*
G01*
X151075200Y-137654200D01*
G75*
G02*
X151325200Y-137904200I0J-250000D01*
G01*
X151325200Y-138854200D01*
G75*
G02*
X151075200Y-139104200I-250000J0D01*
G01*
X150575200Y-139104200D01*
G75*
G02*
X150325200Y-138854200I0J250000D01*
G01*
G37*
G36*
G01*
X137639600Y-137294600D02*
X137639600Y-138244600D01*
G75*
G02*
X137389600Y-138494600I-250000J0D01*
G01*
X136889600Y-138494600D01*
G75*
G02*
X136639600Y-138244600I0J250000D01*
G01*
X136639600Y-137294600D01*
G75*
G02*
X136889600Y-137044600I250000J0D01*
G01*
X137389600Y-137044600D01*
G75*
G02*
X137639600Y-137294600I0J-250000D01*
G01*
G37*
G36*
G01*
X139539600Y-137294600D02*
X139539600Y-138244600D01*
G75*
G02*
X139289600Y-138494600I-250000J0D01*
G01*
X138789600Y-138494600D01*
G75*
G02*
X138539600Y-138244600I0J250000D01*
G01*
X138539600Y-137294600D01*
G75*
G02*
X138789600Y-137044600I250000J0D01*
G01*
X139289600Y-137044600D01*
G75*
G02*
X139539600Y-137294600I0J-250000D01*
G01*
G37*
G36*
G01*
X200160000Y-102710000D02*
X200160000Y-101760000D01*
G75*
G02*
X200410000Y-101510000I250000J0D01*
G01*
X200910000Y-101510000D01*
G75*
G02*
X201160000Y-101760000I0J-250000D01*
G01*
X201160000Y-102710000D01*
G75*
G02*
X200910000Y-102960000I-250000J0D01*
G01*
X200410000Y-102960000D01*
G75*
G02*
X200160000Y-102710000I0J250000D01*
G01*
G37*
G36*
G01*
X198260000Y-102710000D02*
X198260000Y-101760000D01*
G75*
G02*
X198510000Y-101510000I250000J0D01*
G01*
X199010000Y-101510000D01*
G75*
G02*
X199260000Y-101760000I0J-250000D01*
G01*
X199260000Y-102710000D01*
G75*
G02*
X199010000Y-102960000I-250000J0D01*
G01*
X198510000Y-102960000D01*
G75*
G02*
X198260000Y-102710000I0J250000D01*
G01*
G37*
G36*
G01*
X176268000Y-118270000D02*
X176268000Y-119220000D01*
G75*
G02*
X176018000Y-119470000I-250000J0D01*
G01*
X175518000Y-119470000D01*
G75*
G02*
X175268000Y-119220000I0J250000D01*
G01*
X175268000Y-118270000D01*
G75*
G02*
X175518000Y-118020000I250000J0D01*
G01*
X176018000Y-118020000D01*
G75*
G02*
X176268000Y-118270000I0J-250000D01*
G01*
G37*
G36*
G01*
X178168000Y-118270000D02*
X178168000Y-119220000D01*
G75*
G02*
X177918000Y-119470000I-250000J0D01*
G01*
X177418000Y-119470000D01*
G75*
G02*
X177168000Y-119220000I0J250000D01*
G01*
X177168000Y-118270000D01*
G75*
G02*
X177418000Y-118020000I250000J0D01*
G01*
X177918000Y-118020000D01*
G75*
G02*
X178168000Y-118270000I0J-250000D01*
G01*
G37*
G36*
G01*
X199840000Y-94836000D02*
X199840000Y-93886000D01*
G75*
G02*
X200090000Y-93636000I250000J0D01*
G01*
X200590000Y-93636000D01*
G75*
G02*
X200840000Y-93886000I0J-250000D01*
G01*
X200840000Y-94836000D01*
G75*
G02*
X200590000Y-95086000I-250000J0D01*
G01*
X200090000Y-95086000D01*
G75*
G02*
X199840000Y-94836000I0J250000D01*
G01*
G37*
G36*
G01*
X197940000Y-94836000D02*
X197940000Y-93886000D01*
G75*
G02*
X198190000Y-93636000I250000J0D01*
G01*
X198690000Y-93636000D01*
G75*
G02*
X198940000Y-93886000I0J-250000D01*
G01*
X198940000Y-94836000D01*
G75*
G02*
X198690000Y-95086000I-250000J0D01*
G01*
X198190000Y-95086000D01*
G75*
G02*
X197940000Y-94836000I0J250000D01*
G01*
G37*
G36*
G01*
X162631500Y-118077000D02*
X162631500Y-117127000D01*
G75*
G02*
X162881500Y-116877000I250000J0D01*
G01*
X163381500Y-116877000D01*
G75*
G02*
X163631500Y-117127000I0J-250000D01*
G01*
X163631500Y-118077000D01*
G75*
G02*
X163381500Y-118327000I-250000J0D01*
G01*
X162881500Y-118327000D01*
G75*
G02*
X162631500Y-118077000I0J250000D01*
G01*
G37*
G36*
G01*
X160731500Y-118077000D02*
X160731500Y-117127000D01*
G75*
G02*
X160981500Y-116877000I250000J0D01*
G01*
X161481500Y-116877000D01*
G75*
G02*
X161731500Y-117127000I0J-250000D01*
G01*
X161731500Y-118077000D01*
G75*
G02*
X161481500Y-118327000I-250000J0D01*
G01*
X160981500Y-118327000D01*
G75*
G02*
X160731500Y-118077000I0J250000D01*
G01*
G37*
G36*
G01*
X200030500Y-115473500D02*
X200030500Y-114523500D01*
G75*
G02*
X200280500Y-114273500I250000J0D01*
G01*
X200780500Y-114273500D01*
G75*
G02*
X201030500Y-114523500I0J-250000D01*
G01*
X201030500Y-115473500D01*
G75*
G02*
X200780500Y-115723500I-250000J0D01*
G01*
X200280500Y-115723500D01*
G75*
G02*
X200030500Y-115473500I0J250000D01*
G01*
G37*
G36*
G01*
X198130500Y-115473500D02*
X198130500Y-114523500D01*
G75*
G02*
X198380500Y-114273500I250000J0D01*
G01*
X198880500Y-114273500D01*
G75*
G02*
X199130500Y-114523500I0J-250000D01*
G01*
X199130500Y-115473500D01*
G75*
G02*
X198880500Y-115723500I-250000J0D01*
G01*
X198380500Y-115723500D01*
G75*
G02*
X198130500Y-115473500I0J250000D01*
G01*
G37*
G36*
G01*
X137660000Y-134780000D02*
X137660000Y-135730000D01*
G75*
G02*
X137410000Y-135980000I-250000J0D01*
G01*
X136910000Y-135980000D01*
G75*
G02*
X136660000Y-135730000I0J250000D01*
G01*
X136660000Y-134780000D01*
G75*
G02*
X136910000Y-134530000I250000J0D01*
G01*
X137410000Y-134530000D01*
G75*
G02*
X137660000Y-134780000I0J-250000D01*
G01*
G37*
G36*
G01*
X139560000Y-134780000D02*
X139560000Y-135730000D01*
G75*
G02*
X139310000Y-135980000I-250000J0D01*
G01*
X138810000Y-135980000D01*
G75*
G02*
X138560000Y-135730000I0J250000D01*
G01*
X138560000Y-134780000D01*
G75*
G02*
X138810000Y-134530000I250000J0D01*
G01*
X139310000Y-134530000D01*
G75*
G02*
X139560000Y-134780000I0J-250000D01*
G01*
G37*
G36*
G01*
X137660000Y-132240000D02*
X137660000Y-133190000D01*
G75*
G02*
X137410000Y-133440000I-250000J0D01*
G01*
X136910000Y-133440000D01*
G75*
G02*
X136660000Y-133190000I0J250000D01*
G01*
X136660000Y-132240000D01*
G75*
G02*
X136910000Y-131990000I250000J0D01*
G01*
X137410000Y-131990000D01*
G75*
G02*
X137660000Y-132240000I0J-250000D01*
G01*
G37*
G36*
G01*
X139560000Y-132240000D02*
X139560000Y-133190000D01*
G75*
G02*
X139310000Y-133440000I-250000J0D01*
G01*
X138810000Y-133440000D01*
G75*
G02*
X138560000Y-133190000I0J250000D01*
G01*
X138560000Y-132240000D01*
G75*
G02*
X138810000Y-131990000I250000J0D01*
G01*
X139310000Y-131990000D01*
G75*
G02*
X139560000Y-132240000I0J-250000D01*
G01*
G37*
G36*
G01*
X137665000Y-129700000D02*
X137665000Y-130650000D01*
G75*
G02*
X137415000Y-130900000I-250000J0D01*
G01*
X136915000Y-130900000D01*
G75*
G02*
X136665000Y-130650000I0J250000D01*
G01*
X136665000Y-129700000D01*
G75*
G02*
X136915000Y-129450000I250000J0D01*
G01*
X137415000Y-129450000D01*
G75*
G02*
X137665000Y-129700000I0J-250000D01*
G01*
G37*
G36*
G01*
X139565000Y-129700000D02*
X139565000Y-130650000D01*
G75*
G02*
X139315000Y-130900000I-250000J0D01*
G01*
X138815000Y-130900000D01*
G75*
G02*
X138565000Y-130650000I0J250000D01*
G01*
X138565000Y-129700000D01*
G75*
G02*
X138815000Y-129450000I250000J0D01*
G01*
X139315000Y-129450000D01*
G75*
G02*
X139565000Y-129700000I0J-250000D01*
G01*
G37*
G36*
G01*
X144330000Y-129700000D02*
X144330000Y-130650000D01*
G75*
G02*
X144080000Y-130900000I-250000J0D01*
G01*
X143580000Y-130900000D01*
G75*
G02*
X143330000Y-130650000I0J250000D01*
G01*
X143330000Y-129700000D01*
G75*
G02*
X143580000Y-129450000I250000J0D01*
G01*
X144080000Y-129450000D01*
G75*
G02*
X144330000Y-129700000I0J-250000D01*
G01*
G37*
G36*
G01*
X146230000Y-129700000D02*
X146230000Y-130650000D01*
G75*
G02*
X145980000Y-130900000I-250000J0D01*
G01*
X145480000Y-130900000D01*
G75*
G02*
X145230000Y-130650000I0J250000D01*
G01*
X145230000Y-129700000D01*
G75*
G02*
X145480000Y-129450000I250000J0D01*
G01*
X145980000Y-129450000D01*
G75*
G02*
X146230000Y-129700000I0J-250000D01*
G01*
G37*
G36*
G01*
X144330000Y-132875000D02*
X144330000Y-133825000D01*
G75*
G02*
X144080000Y-134075000I-250000J0D01*
G01*
X143580000Y-134075000D01*
G75*
G02*
X143330000Y-133825000I0J250000D01*
G01*
X143330000Y-132875000D01*
G75*
G02*
X143580000Y-132625000I250000J0D01*
G01*
X144080000Y-132625000D01*
G75*
G02*
X144330000Y-132875000I0J-250000D01*
G01*
G37*
G36*
G01*
X146230000Y-132875000D02*
X146230000Y-133825000D01*
G75*
G02*
X145980000Y-134075000I-250000J0D01*
G01*
X145480000Y-134075000D01*
G75*
G02*
X145230000Y-133825000I0J250000D01*
G01*
X145230000Y-132875000D01*
G75*
G02*
X145480000Y-132625000I250000J0D01*
G01*
X145980000Y-132625000D01*
G75*
G02*
X146230000Y-132875000I0J-250000D01*
G01*
G37*
G36*
G01*
X196270500Y-110777000D02*
X196270500Y-111727000D01*
G75*
G02*
X196020500Y-111977000I-250000J0D01*
G01*
X195520500Y-111977000D01*
G75*
G02*
X195270500Y-111727000I0J250000D01*
G01*
X195270500Y-110777000D01*
G75*
G02*
X195520500Y-110527000I250000J0D01*
G01*
X196020500Y-110527000D01*
G75*
G02*
X196270500Y-110777000I0J-250000D01*
G01*
G37*
G36*
G01*
X198170500Y-110777000D02*
X198170500Y-111727000D01*
G75*
G02*
X197920500Y-111977000I-250000J0D01*
G01*
X197420500Y-111977000D01*
G75*
G02*
X197170500Y-111727000I0J250000D01*
G01*
X197170500Y-110777000D01*
G75*
G02*
X197420500Y-110527000I250000J0D01*
G01*
X197920500Y-110527000D01*
G75*
G02*
X198170500Y-110777000I0J-250000D01*
G01*
G37*
G36*
G01*
X189415000Y-110777000D02*
X189415000Y-111727000D01*
G75*
G02*
X189165000Y-111977000I-250000J0D01*
G01*
X188665000Y-111977000D01*
G75*
G02*
X188415000Y-111727000I0J250000D01*
G01*
X188415000Y-110777000D01*
G75*
G02*
X188665000Y-110527000I250000J0D01*
G01*
X189165000Y-110527000D01*
G75*
G02*
X189415000Y-110777000I0J-250000D01*
G01*
G37*
G36*
G01*
X191315000Y-110777000D02*
X191315000Y-111727000D01*
G75*
G02*
X191065000Y-111977000I-250000J0D01*
G01*
X190565000Y-111977000D01*
G75*
G02*
X190315000Y-111727000I0J250000D01*
G01*
X190315000Y-110777000D01*
G75*
G02*
X190565000Y-110527000I250000J0D01*
G01*
X191065000Y-110527000D01*
G75*
G02*
X191315000Y-110777000I0J-250000D01*
G01*
G37*
G36*
G01*
X170619000Y-96807000D02*
X170619000Y-97757000D01*
G75*
G02*
X170369000Y-98007000I-250000J0D01*
G01*
X169869000Y-98007000D01*
G75*
G02*
X169619000Y-97757000I0J250000D01*
G01*
X169619000Y-96807000D01*
G75*
G02*
X169869000Y-96557000I250000J0D01*
G01*
X170369000Y-96557000D01*
G75*
G02*
X170619000Y-96807000I0J-250000D01*
G01*
G37*
G36*
G01*
X172519000Y-96807000D02*
X172519000Y-97757000D01*
G75*
G02*
X172269000Y-98007000I-250000J0D01*
G01*
X171769000Y-98007000D01*
G75*
G02*
X171519000Y-97757000I0J250000D01*
G01*
X171519000Y-96807000D01*
G75*
G02*
X171769000Y-96557000I250000J0D01*
G01*
X172269000Y-96557000D01*
G75*
G02*
X172519000Y-96807000I0J-250000D01*
G01*
G37*
G36*
G01*
X166235000Y-96743500D02*
X166235000Y-97693500D01*
G75*
G02*
X165985000Y-97943500I-250000J0D01*
G01*
X165485000Y-97943500D01*
G75*
G02*
X165235000Y-97693500I0J250000D01*
G01*
X165235000Y-96743500D01*
G75*
G02*
X165485000Y-96493500I250000J0D01*
G01*
X165985000Y-96493500D01*
G75*
G02*
X166235000Y-96743500I0J-250000D01*
G01*
G37*
G36*
G01*
X168135000Y-96743500D02*
X168135000Y-97693500D01*
G75*
G02*
X167885000Y-97943500I-250000J0D01*
G01*
X167385000Y-97943500D01*
G75*
G02*
X167135000Y-97693500I0J250000D01*
G01*
X167135000Y-96743500D01*
G75*
G02*
X167385000Y-96493500I250000J0D01*
G01*
X167885000Y-96493500D01*
G75*
G02*
X168135000Y-96743500I0J-250000D01*
G01*
G37*
G36*
G01*
X170621500Y-118270000D02*
X170621500Y-119220000D01*
G75*
G02*
X170371500Y-119470000I-250000J0D01*
G01*
X169871500Y-119470000D01*
G75*
G02*
X169621500Y-119220000I0J250000D01*
G01*
X169621500Y-118270000D01*
G75*
G02*
X169871500Y-118020000I250000J0D01*
G01*
X170371500Y-118020000D01*
G75*
G02*
X170621500Y-118270000I0J-250000D01*
G01*
G37*
G36*
G01*
X172521500Y-118270000D02*
X172521500Y-119220000D01*
G75*
G02*
X172271500Y-119470000I-250000J0D01*
G01*
X171771500Y-119470000D01*
G75*
G02*
X171521500Y-119220000I0J250000D01*
G01*
X171521500Y-118270000D01*
G75*
G02*
X171771500Y-118020000I250000J0D01*
G01*
X172271500Y-118020000D01*
G75*
G02*
X172521500Y-118270000I0J-250000D01*
G01*
G37*
G36*
G01*
X166176500Y-118270000D02*
X166176500Y-119220000D01*
G75*
G02*
X165926500Y-119470000I-250000J0D01*
G01*
X165426500Y-119470000D01*
G75*
G02*
X165176500Y-119220000I0J250000D01*
G01*
X165176500Y-118270000D01*
G75*
G02*
X165426500Y-118020000I250000J0D01*
G01*
X165926500Y-118020000D01*
G75*
G02*
X166176500Y-118270000I0J-250000D01*
G01*
G37*
G36*
G01*
X168076500Y-118270000D02*
X168076500Y-119220000D01*
G75*
G02*
X167826500Y-119470000I-250000J0D01*
G01*
X167326500Y-119470000D01*
G75*
G02*
X167076500Y-119220000I0J250000D01*
G01*
X167076500Y-118270000D01*
G75*
G02*
X167326500Y-118020000I250000J0D01*
G01*
X167826500Y-118020000D01*
G75*
G02*
X168076500Y-118270000I0J-250000D01*
G01*
G37*
G36*
G01*
X196270500Y-88234500D02*
X196270500Y-89184500D01*
G75*
G02*
X196020500Y-89434500I-250000J0D01*
G01*
X195520500Y-89434500D01*
G75*
G02*
X195270500Y-89184500I0J250000D01*
G01*
X195270500Y-88234500D01*
G75*
G02*
X195520500Y-87984500I250000J0D01*
G01*
X196020500Y-87984500D01*
G75*
G02*
X196270500Y-88234500I0J-250000D01*
G01*
G37*
G36*
G01*
X198170500Y-88234500D02*
X198170500Y-89184500D01*
G75*
G02*
X197920500Y-89434500I-250000J0D01*
G01*
X197420500Y-89434500D01*
G75*
G02*
X197170500Y-89184500I0J250000D01*
G01*
X197170500Y-88234500D01*
G75*
G02*
X197420500Y-87984500I250000J0D01*
G01*
X197920500Y-87984500D01*
G75*
G02*
X198170500Y-88234500I0J-250000D01*
G01*
G37*
G36*
G01*
X189349000Y-88234500D02*
X189349000Y-89184500D01*
G75*
G02*
X189099000Y-89434500I-250000J0D01*
G01*
X188599000Y-89434500D01*
G75*
G02*
X188349000Y-89184500I0J250000D01*
G01*
X188349000Y-88234500D01*
G75*
G02*
X188599000Y-87984500I250000J0D01*
G01*
X189099000Y-87984500D01*
G75*
G02*
X189349000Y-88234500I0J-250000D01*
G01*
G37*
G36*
G01*
X191249000Y-88234500D02*
X191249000Y-89184500D01*
G75*
G02*
X190999000Y-89434500I-250000J0D01*
G01*
X190499000Y-89434500D01*
G75*
G02*
X190249000Y-89184500I0J250000D01*
G01*
X190249000Y-88234500D01*
G75*
G02*
X190499000Y-87984500I250000J0D01*
G01*
X190999000Y-87984500D01*
G75*
G02*
X191249000Y-88234500I0J-250000D01*
G01*
G37*
G36*
G01*
X158336000Y-120642000D02*
X157386000Y-120642000D01*
G75*
G02*
X157136000Y-120392000I0J250000D01*
G01*
X157136000Y-119892000D01*
G75*
G02*
X157386000Y-119642000I250000J0D01*
G01*
X158336000Y-119642000D01*
G75*
G02*
X158586000Y-119892000I0J-250000D01*
G01*
X158586000Y-120392000D01*
G75*
G02*
X158336000Y-120642000I-250000J0D01*
G01*
G37*
G36*
G01*
X158336000Y-122542000D02*
X157386000Y-122542000D01*
G75*
G02*
X157136000Y-122292000I0J250000D01*
G01*
X157136000Y-121792000D01*
G75*
G02*
X157386000Y-121542000I250000J0D01*
G01*
X158336000Y-121542000D01*
G75*
G02*
X158586000Y-121792000I0J-250000D01*
G01*
X158586000Y-122292000D01*
G75*
G02*
X158336000Y-122542000I-250000J0D01*
G01*
G37*
G36*
G01*
X156787000Y-125951000D02*
X156787000Y-125001000D01*
G75*
G02*
X157037000Y-124751000I250000J0D01*
G01*
X157537000Y-124751000D01*
G75*
G02*
X157787000Y-125001000I0J-250000D01*
G01*
X157787000Y-125951000D01*
G75*
G02*
X157537000Y-126201000I-250000J0D01*
G01*
X157037000Y-126201000D01*
G75*
G02*
X156787000Y-125951000I0J250000D01*
G01*
G37*
G36*
G01*
X154887000Y-125951000D02*
X154887000Y-125001000D01*
G75*
G02*
X155137000Y-124751000I250000J0D01*
G01*
X155637000Y-124751000D01*
G75*
G02*
X155887000Y-125001000I0J-250000D01*
G01*
X155887000Y-125951000D01*
G75*
G02*
X155637000Y-126201000I-250000J0D01*
G01*
X155137000Y-126201000D01*
G75*
G02*
X154887000Y-125951000I0J250000D01*
G01*
G37*
G36*
G01*
X207551000Y-124971000D02*
X208501000Y-124971000D01*
G75*
G02*
X208751000Y-125221000I0J-250000D01*
G01*
X208751000Y-125721000D01*
G75*
G02*
X208501000Y-125971000I-250000J0D01*
G01*
X207551000Y-125971000D01*
G75*
G02*
X207301000Y-125721000I0J250000D01*
G01*
X207301000Y-125221000D01*
G75*
G02*
X207551000Y-124971000I250000J0D01*
G01*
G37*
G36*
G01*
X207551000Y-123071000D02*
X208501000Y-123071000D01*
G75*
G02*
X208751000Y-123321000I0J-250000D01*
G01*
X208751000Y-123821000D01*
G75*
G02*
X208501000Y-124071000I-250000J0D01*
G01*
X207551000Y-124071000D01*
G75*
G02*
X207301000Y-123821000I0J250000D01*
G01*
X207301000Y-123321000D01*
G75*
G02*
X207551000Y-123071000I250000J0D01*
G01*
G37*
G36*
G01*
X204757000Y-124971000D02*
X205707000Y-124971000D01*
G75*
G02*
X205957000Y-125221000I0J-250000D01*
G01*
X205957000Y-125721000D01*
G75*
G02*
X205707000Y-125971000I-250000J0D01*
G01*
X204757000Y-125971000D01*
G75*
G02*
X204507000Y-125721000I0J250000D01*
G01*
X204507000Y-125221000D01*
G75*
G02*
X204757000Y-124971000I250000J0D01*
G01*
G37*
G36*
G01*
X204757000Y-123071000D02*
X205707000Y-123071000D01*
G75*
G02*
X205957000Y-123321000I0J-250000D01*
G01*
X205957000Y-123821000D01*
G75*
G02*
X205707000Y-124071000I-250000J0D01*
G01*
X204757000Y-124071000D01*
G75*
G02*
X204507000Y-123821000I0J250000D01*
G01*
X204507000Y-123321000D01*
G75*
G02*
X204757000Y-123071000I250000J0D01*
G01*
G37*
G36*
G01*
X199636000Y-133002000D02*
X199636000Y-133952000D01*
G75*
G02*
X199386000Y-134202000I-250000J0D01*
G01*
X198886000Y-134202000D01*
G75*
G02*
X198636000Y-133952000I0J250000D01*
G01*
X198636000Y-133002000D01*
G75*
G02*
X198886000Y-132752000I250000J0D01*
G01*
X199386000Y-132752000D01*
G75*
G02*
X199636000Y-133002000I0J-250000D01*
G01*
G37*
G36*
G01*
X201536000Y-133002000D02*
X201536000Y-133952000D01*
G75*
G02*
X201286000Y-134202000I-250000J0D01*
G01*
X200786000Y-134202000D01*
G75*
G02*
X200536000Y-133952000I0J250000D01*
G01*
X200536000Y-133002000D01*
G75*
G02*
X200786000Y-132752000I250000J0D01*
G01*
X201286000Y-132752000D01*
G75*
G02*
X201536000Y-133002000I0J-250000D01*
G01*
G37*
G36*
G01*
X200536000Y-137508000D02*
X200536000Y-136558000D01*
G75*
G02*
X200786000Y-136308000I250000J0D01*
G01*
X201286000Y-136308000D01*
G75*
G02*
X201536000Y-136558000I0J-250000D01*
G01*
X201536000Y-137508000D01*
G75*
G02*
X201286000Y-137758000I-250000J0D01*
G01*
X200786000Y-137758000D01*
G75*
G02*
X200536000Y-137508000I0J250000D01*
G01*
G37*
G36*
G01*
X198636000Y-137508000D02*
X198636000Y-136558000D01*
G75*
G02*
X198886000Y-136308000I250000J0D01*
G01*
X199386000Y-136308000D01*
G75*
G02*
X199636000Y-136558000I0J-250000D01*
G01*
X199636000Y-137508000D01*
G75*
G02*
X199386000Y-137758000I-250000J0D01*
G01*
X198886000Y-137758000D01*
G75*
G02*
X198636000Y-137508000I0J250000D01*
G01*
G37*
G36*
G01*
X189354000Y-128557000D02*
X189354000Y-129507000D01*
G75*
G02*
X189104000Y-129757000I-250000J0D01*
G01*
X188604000Y-129757000D01*
G75*
G02*
X188354000Y-129507000I0J250000D01*
G01*
X188354000Y-128557000D01*
G75*
G02*
X188604000Y-128307000I250000J0D01*
G01*
X189104000Y-128307000D01*
G75*
G02*
X189354000Y-128557000I0J-250000D01*
G01*
G37*
G36*
G01*
X191254000Y-128557000D02*
X191254000Y-129507000D01*
G75*
G02*
X191004000Y-129757000I-250000J0D01*
G01*
X190504000Y-129757000D01*
G75*
G02*
X190254000Y-129507000I0J250000D01*
G01*
X190254000Y-128557000D01*
G75*
G02*
X190504000Y-128307000I250000J0D01*
G01*
X191004000Y-128307000D01*
G75*
G02*
X191254000Y-128557000I0J-250000D01*
G01*
G37*
G36*
G01*
X190696000Y-135222000D02*
X190696000Y-134272000D01*
G75*
G02*
X190946000Y-134022000I250000J0D01*
G01*
X191446000Y-134022000D01*
G75*
G02*
X191696000Y-134272000I0J-250000D01*
G01*
X191696000Y-135222000D01*
G75*
G02*
X191446000Y-135472000I-250000J0D01*
G01*
X190946000Y-135472000D01*
G75*
G02*
X190696000Y-135222000I0J250000D01*
G01*
G37*
G36*
G01*
X188796000Y-135222000D02*
X188796000Y-134272000D01*
G75*
G02*
X189046000Y-134022000I250000J0D01*
G01*
X189546000Y-134022000D01*
G75*
G02*
X189796000Y-134272000I0J-250000D01*
G01*
X189796000Y-135222000D01*
G75*
G02*
X189546000Y-135472000I-250000J0D01*
G01*
X189046000Y-135472000D01*
G75*
G02*
X188796000Y-135222000I0J250000D01*
G01*
G37*
G36*
G01*
X148725000Y-148430000D02*
X148725000Y-147480000D01*
G75*
G02*
X148975000Y-147230000I250000J0D01*
G01*
X149475000Y-147230000D01*
G75*
G02*
X149725000Y-147480000I0J-250000D01*
G01*
X149725000Y-148430000D01*
G75*
G02*
X149475000Y-148680000I-250000J0D01*
G01*
X148975000Y-148680000D01*
G75*
G02*
X148725000Y-148430000I0J250000D01*
G01*
G37*
G36*
G01*
X146825000Y-148430000D02*
X146825000Y-147480000D01*
G75*
G02*
X147075000Y-147230000I250000J0D01*
G01*
X147575000Y-147230000D01*
G75*
G02*
X147825000Y-147480000I0J-250000D01*
G01*
X147825000Y-148430000D01*
G75*
G02*
X147575000Y-148680000I-250000J0D01*
G01*
X147075000Y-148680000D01*
G75*
G02*
X146825000Y-148430000I0J250000D01*
G01*
G37*
G36*
G01*
X153165000Y-148430000D02*
X153165000Y-147480000D01*
G75*
G02*
X153415000Y-147230000I250000J0D01*
G01*
X153915000Y-147230000D01*
G75*
G02*
X154165000Y-147480000I0J-250000D01*
G01*
X154165000Y-148430000D01*
G75*
G02*
X153915000Y-148680000I-250000J0D01*
G01*
X153415000Y-148680000D01*
G75*
G02*
X153165000Y-148430000I0J250000D01*
G01*
G37*
G36*
G01*
X151265000Y-148430000D02*
X151265000Y-147480000D01*
G75*
G02*
X151515000Y-147230000I250000J0D01*
G01*
X152015000Y-147230000D01*
G75*
G02*
X152265000Y-147480000I0J-250000D01*
G01*
X152265000Y-148430000D01*
G75*
G02*
X152015000Y-148680000I-250000J0D01*
G01*
X151515000Y-148680000D01*
G75*
G02*
X151265000Y-148430000I0J250000D01*
G01*
G37*
G36*
G01*
X190635000Y-141191000D02*
X190635000Y-140241000D01*
G75*
G02*
X190885000Y-139991000I250000J0D01*
G01*
X191385000Y-139991000D01*
G75*
G02*
X191635000Y-140241000I0J-250000D01*
G01*
X191635000Y-141191000D01*
G75*
G02*
X191385000Y-141441000I-250000J0D01*
G01*
X190885000Y-141441000D01*
G75*
G02*
X190635000Y-141191000I0J250000D01*
G01*
G37*
G36*
G01*
X188735000Y-141191000D02*
X188735000Y-140241000D01*
G75*
G02*
X188985000Y-139991000I250000J0D01*
G01*
X189485000Y-139991000D01*
G75*
G02*
X189735000Y-140241000I0J-250000D01*
G01*
X189735000Y-141191000D01*
G75*
G02*
X189485000Y-141441000I-250000J0D01*
G01*
X188985000Y-141441000D01*
G75*
G02*
X188735000Y-141191000I0J250000D01*
G01*
G37*
G36*
G01*
X198153000Y-147831000D02*
X199103000Y-147831000D01*
G75*
G02*
X199353000Y-148081000I0J-250000D01*
G01*
X199353000Y-148581000D01*
G75*
G02*
X199103000Y-148831000I-250000J0D01*
G01*
X198153000Y-148831000D01*
G75*
G02*
X197903000Y-148581000I0J250000D01*
G01*
X197903000Y-148081000D01*
G75*
G02*
X198153000Y-147831000I250000J0D01*
G01*
G37*
G36*
G01*
X198153000Y-145931000D02*
X199103000Y-145931000D01*
G75*
G02*
X199353000Y-146181000I0J-250000D01*
G01*
X199353000Y-146681000D01*
G75*
G02*
X199103000Y-146931000I-250000J0D01*
G01*
X198153000Y-146931000D01*
G75*
G02*
X197903000Y-146681000I0J250000D01*
G01*
X197903000Y-146181000D01*
G75*
G02*
X198153000Y-145931000I250000J0D01*
G01*
G37*
M02*
