G04 #@! TF.GenerationSoftware,KiCad,Pcbnew,5.1.10-88a1d61d58~90~ubuntu20.04.1*
G04 #@! TF.CreationDate,2021-07-20T14:54:31-04:00*
G04 #@! TF.ProjectId,whooshy_sound,77686f6f-7368-4795-9f73-6f756e642e6b,0.1*
G04 #@! TF.SameCoordinates,Original*
G04 #@! TF.FileFunction,Legend,Bot*
G04 #@! TF.FilePolarity,Positive*
%FSLAX46Y46*%
G04 Gerber Fmt 4.6, Leading zero omitted, Abs format (unit mm)*
G04 Created by KiCad (PCBNEW 5.1.10-88a1d61d58~90~ubuntu20.04.1) date 2021-07-20 14:54:31*
%MOMM*%
%LPD*%
G01*
G04 APERTURE LIST*
%ADD10C,0.120000*%
%ADD11C,0.150000*%
%ADD12C,1.800000*%
%ADD13R,1.800000X1.800000*%
%ADD14O,1.700000X1.700000*%
%ADD15R,1.700000X1.700000*%
%ADD16C,1.600000*%
%ADD17C,2.500000*%
%ADD18O,2.720000X3.240000*%
%ADD19C,1.440000*%
G04 APERTURE END LIST*
D10*
X186650000Y-147320000D02*
G75*
G03*
X186650000Y-147320000I-2500000J0D01*
G01*
X185695000Y-149880000D02*
X182605000Y-149880000D01*
X184150462Y-144330000D02*
G75*
G03*
X182605170Y-149880000I-462J-2990000D01*
G01*
X184149538Y-144330000D02*
G75*
G02*
X185694830Y-149880000I462J-2990000D01*
G01*
X133985000Y-115570000D02*
X133985000Y-128270000D01*
X145415000Y-115570000D02*
X133985000Y-115570000D01*
X145415000Y-128270000D02*
X145415000Y-115570000D01*
X133985000Y-128270000D02*
X145415000Y-128270000D01*
X167250000Y-128660000D02*
X168080000Y-128660000D01*
X169700000Y-128660000D02*
X170230000Y-128660000D01*
X172600000Y-128660000D02*
X173780000Y-128660000D01*
X164040000Y-128660000D02*
X164040000Y-123940000D01*
X173780000Y-120130000D02*
X173780000Y-117070000D01*
X173790000Y-128660000D02*
X173790000Y-123940000D01*
X164040000Y-120130000D02*
X164040000Y-117070000D01*
X164040000Y-128660000D02*
X165530000Y-128660000D01*
X164040000Y-117070000D02*
X173780000Y-117070000D01*
X167250000Y-107070000D02*
X168080000Y-107070000D01*
X169700000Y-107070000D02*
X170230000Y-107070000D01*
X172600000Y-107070000D02*
X173780000Y-107070000D01*
X164040000Y-107070000D02*
X164040000Y-102350000D01*
X173780000Y-98540000D02*
X173780000Y-95480000D01*
X173790000Y-107070000D02*
X173790000Y-102350000D01*
X164040000Y-98540000D02*
X164040000Y-95480000D01*
X164040000Y-107070000D02*
X165530000Y-107070000D01*
X164040000Y-95480000D02*
X173780000Y-95480000D01*
X167250000Y-85360000D02*
X168080000Y-85360000D01*
X169700000Y-85360000D02*
X170230000Y-85360000D01*
X172600000Y-85360000D02*
X173780000Y-85360000D01*
X164040000Y-85360000D02*
X164040000Y-80640000D01*
X173780000Y-76830000D02*
X173780000Y-73770000D01*
X173790000Y-85360000D02*
X173790000Y-80640000D01*
X164040000Y-76830000D02*
X164040000Y-73770000D01*
X164040000Y-85360000D02*
X165530000Y-85360000D01*
X164040000Y-73770000D02*
X173780000Y-73770000D01*
X138040000Y-107070000D02*
X138870000Y-107070000D01*
X140490000Y-107070000D02*
X141020000Y-107070000D01*
X143390000Y-107070000D02*
X144570000Y-107070000D01*
X134830000Y-107070000D02*
X134830000Y-102350000D01*
X144570000Y-98540000D02*
X144570000Y-95480000D01*
X144580000Y-107070000D02*
X144580000Y-102350000D01*
X134830000Y-98540000D02*
X134830000Y-95480000D01*
X134830000Y-107070000D02*
X136320000Y-107070000D01*
X134830000Y-95480000D02*
X144570000Y-95480000D01*
X138040000Y-85360000D02*
X138870000Y-85360000D01*
X140490000Y-85360000D02*
X141020000Y-85360000D01*
X143390000Y-85360000D02*
X144570000Y-85360000D01*
X134830000Y-85360000D02*
X134830000Y-80640000D01*
X144570000Y-76830000D02*
X144570000Y-73770000D01*
X144580000Y-85360000D02*
X144580000Y-80640000D01*
X134830000Y-76830000D02*
X134830000Y-73770000D01*
X134830000Y-85360000D02*
X136320000Y-85360000D01*
X134830000Y-73770000D02*
X144570000Y-73770000D01*
X196460000Y-98180000D02*
X197290000Y-98180000D01*
X198910000Y-98180000D02*
X199440000Y-98180000D01*
X201810000Y-98180000D02*
X202990000Y-98180000D01*
X193250000Y-98180000D02*
X193250000Y-93460000D01*
X202990000Y-89650000D02*
X202990000Y-86590000D01*
X203000000Y-98180000D02*
X203000000Y-93460000D01*
X193250000Y-89650000D02*
X193250000Y-86590000D01*
X193250000Y-98180000D02*
X194740000Y-98180000D01*
X193250000Y-86590000D02*
X202990000Y-86590000D01*
X196460000Y-119770000D02*
X197290000Y-119770000D01*
X198910000Y-119770000D02*
X199440000Y-119770000D01*
X201810000Y-119770000D02*
X202990000Y-119770000D01*
X193250000Y-119770000D02*
X193250000Y-115050000D01*
X202990000Y-111240000D02*
X202990000Y-108180000D01*
X203000000Y-119770000D02*
X203000000Y-115050000D01*
X193250000Y-111240000D02*
X193250000Y-108180000D01*
X193250000Y-119770000D02*
X194740000Y-119770000D01*
X193250000Y-108180000D02*
X202990000Y-108180000D01*
D11*
X189333095Y-147772380D02*
X189333095Y-146772380D01*
X189095000Y-146772380D01*
X188952142Y-146820000D01*
X188856904Y-146915238D01*
X188809285Y-147010476D01*
X188761666Y-147200952D01*
X188761666Y-147343809D01*
X188809285Y-147534285D01*
X188856904Y-147629523D01*
X188952142Y-147724761D01*
X189095000Y-147772380D01*
X189333095Y-147772380D01*
X188190238Y-147200952D02*
X188285476Y-147153333D01*
X188333095Y-147105714D01*
X188380714Y-147010476D01*
X188380714Y-146962857D01*
X188333095Y-146867619D01*
X188285476Y-146820000D01*
X188190238Y-146772380D01*
X187999761Y-146772380D01*
X187904523Y-146820000D01*
X187856904Y-146867619D01*
X187809285Y-146962857D01*
X187809285Y-147010476D01*
X187856904Y-147105714D01*
X187904523Y-147153333D01*
X187999761Y-147200952D01*
X188190238Y-147200952D01*
X188285476Y-147248571D01*
X188333095Y-147296190D01*
X188380714Y-147391428D01*
X188380714Y-147581904D01*
X188333095Y-147677142D01*
X188285476Y-147724761D01*
X188190238Y-147772380D01*
X187999761Y-147772380D01*
X187904523Y-147724761D01*
X187856904Y-147677142D01*
X187809285Y-147581904D01*
X187809285Y-147391428D01*
X187856904Y-147296190D01*
X187904523Y-147248571D01*
X187999761Y-147200952D01*
X141033333Y-115212761D02*
X140890476Y-115260380D01*
X140652380Y-115260380D01*
X140557142Y-115212761D01*
X140509523Y-115165142D01*
X140461904Y-115069904D01*
X140461904Y-114974666D01*
X140509523Y-114879428D01*
X140557142Y-114831809D01*
X140652380Y-114784190D01*
X140842857Y-114736571D01*
X140938095Y-114688952D01*
X140985714Y-114641333D01*
X141033333Y-114546095D01*
X141033333Y-114450857D01*
X140985714Y-114355619D01*
X140938095Y-114308000D01*
X140842857Y-114260380D01*
X140604761Y-114260380D01*
X140461904Y-114308000D01*
X140128571Y-114260380D02*
X139890476Y-115260380D01*
X139700000Y-114546095D01*
X139509523Y-115260380D01*
X139271428Y-114260380D01*
X138366666Y-115260380D02*
X138938095Y-115260380D01*
X138652380Y-115260380D02*
X138652380Y-114260380D01*
X138747619Y-114403238D01*
X138842857Y-114498476D01*
X138938095Y-114546095D01*
X169981428Y-116022380D02*
X170314761Y-115546190D01*
X170552857Y-116022380D02*
X170552857Y-115022380D01*
X170171904Y-115022380D01*
X170076666Y-115070000D01*
X170029047Y-115117619D01*
X169981428Y-115212857D01*
X169981428Y-115355714D01*
X170029047Y-115450952D01*
X170076666Y-115498571D01*
X170171904Y-115546190D01*
X170552857Y-115546190D01*
X169695714Y-115022380D02*
X169362380Y-116022380D01*
X169029047Y-115022380D01*
X168171904Y-116022380D02*
X168743333Y-116022380D01*
X168457619Y-116022380D02*
X168457619Y-115022380D01*
X168552857Y-115165238D01*
X168648095Y-115260476D01*
X168743333Y-115308095D01*
X167552857Y-115022380D02*
X167457619Y-115022380D01*
X167362380Y-115070000D01*
X167314761Y-115117619D01*
X167267142Y-115212857D01*
X167219523Y-115403333D01*
X167219523Y-115641428D01*
X167267142Y-115831904D01*
X167314761Y-115927142D01*
X167362380Y-115974761D01*
X167457619Y-116022380D01*
X167552857Y-116022380D01*
X167648095Y-115974761D01*
X167695714Y-115927142D01*
X167743333Y-115831904D01*
X167790952Y-115641428D01*
X167790952Y-115403333D01*
X167743333Y-115212857D01*
X167695714Y-115117619D01*
X167648095Y-115070000D01*
X167552857Y-115022380D01*
X169505238Y-94432380D02*
X169838571Y-93956190D01*
X170076666Y-94432380D02*
X170076666Y-93432380D01*
X169695714Y-93432380D01*
X169600476Y-93480000D01*
X169552857Y-93527619D01*
X169505238Y-93622857D01*
X169505238Y-93765714D01*
X169552857Y-93860952D01*
X169600476Y-93908571D01*
X169695714Y-93956190D01*
X170076666Y-93956190D01*
X169219523Y-93432380D02*
X168886190Y-94432380D01*
X168552857Y-93432380D01*
X168171904Y-94432380D02*
X167981428Y-94432380D01*
X167886190Y-94384761D01*
X167838571Y-94337142D01*
X167743333Y-94194285D01*
X167695714Y-94003809D01*
X167695714Y-93622857D01*
X167743333Y-93527619D01*
X167790952Y-93480000D01*
X167886190Y-93432380D01*
X168076666Y-93432380D01*
X168171904Y-93480000D01*
X168219523Y-93527619D01*
X168267142Y-93622857D01*
X168267142Y-93860952D01*
X168219523Y-93956190D01*
X168171904Y-94003809D01*
X168076666Y-94051428D01*
X167886190Y-94051428D01*
X167790952Y-94003809D01*
X167743333Y-93956190D01*
X167695714Y-93860952D01*
X169505238Y-72842380D02*
X169838571Y-72366190D01*
X170076666Y-72842380D02*
X170076666Y-71842380D01*
X169695714Y-71842380D01*
X169600476Y-71890000D01*
X169552857Y-71937619D01*
X169505238Y-72032857D01*
X169505238Y-72175714D01*
X169552857Y-72270952D01*
X169600476Y-72318571D01*
X169695714Y-72366190D01*
X170076666Y-72366190D01*
X169219523Y-71842380D02*
X168886190Y-72842380D01*
X168552857Y-71842380D01*
X168076666Y-72270952D02*
X168171904Y-72223333D01*
X168219523Y-72175714D01*
X168267142Y-72080476D01*
X168267142Y-72032857D01*
X168219523Y-71937619D01*
X168171904Y-71890000D01*
X168076666Y-71842380D01*
X167886190Y-71842380D01*
X167790952Y-71890000D01*
X167743333Y-71937619D01*
X167695714Y-72032857D01*
X167695714Y-72080476D01*
X167743333Y-72175714D01*
X167790952Y-72223333D01*
X167886190Y-72270952D01*
X168076666Y-72270952D01*
X168171904Y-72318571D01*
X168219523Y-72366190D01*
X168267142Y-72461428D01*
X168267142Y-72651904D01*
X168219523Y-72747142D01*
X168171904Y-72794761D01*
X168076666Y-72842380D01*
X167886190Y-72842380D01*
X167790952Y-72794761D01*
X167743333Y-72747142D01*
X167695714Y-72651904D01*
X167695714Y-72461428D01*
X167743333Y-72366190D01*
X167790952Y-72318571D01*
X167886190Y-72270952D01*
X140295238Y-94432380D02*
X140628571Y-93956190D01*
X140866666Y-94432380D02*
X140866666Y-93432380D01*
X140485714Y-93432380D01*
X140390476Y-93480000D01*
X140342857Y-93527619D01*
X140295238Y-93622857D01*
X140295238Y-93765714D01*
X140342857Y-93860952D01*
X140390476Y-93908571D01*
X140485714Y-93956190D01*
X140866666Y-93956190D01*
X140009523Y-93432380D02*
X139676190Y-94432380D01*
X139342857Y-93432380D01*
X139104761Y-93432380D02*
X138438095Y-93432380D01*
X138866666Y-94432380D01*
X140295238Y-72842380D02*
X140628571Y-72366190D01*
X140866666Y-72842380D02*
X140866666Y-71842380D01*
X140485714Y-71842380D01*
X140390476Y-71890000D01*
X140342857Y-71937619D01*
X140295238Y-72032857D01*
X140295238Y-72175714D01*
X140342857Y-72270952D01*
X140390476Y-72318571D01*
X140485714Y-72366190D01*
X140866666Y-72366190D01*
X140009523Y-71842380D02*
X139676190Y-72842380D01*
X139342857Y-71842380D01*
X138533333Y-71842380D02*
X139009523Y-71842380D01*
X139057142Y-72318571D01*
X139009523Y-72270952D01*
X138914285Y-72223333D01*
X138676190Y-72223333D01*
X138580952Y-72270952D01*
X138533333Y-72318571D01*
X138485714Y-72413809D01*
X138485714Y-72651904D01*
X138533333Y-72747142D01*
X138580952Y-72794761D01*
X138676190Y-72842380D01*
X138914285Y-72842380D01*
X139009523Y-72794761D01*
X139057142Y-72747142D01*
X198715238Y-85542380D02*
X199048571Y-85066190D01*
X199286666Y-85542380D02*
X199286666Y-84542380D01*
X198905714Y-84542380D01*
X198810476Y-84590000D01*
X198762857Y-84637619D01*
X198715238Y-84732857D01*
X198715238Y-84875714D01*
X198762857Y-84970952D01*
X198810476Y-85018571D01*
X198905714Y-85066190D01*
X199286666Y-85066190D01*
X198429523Y-84542380D02*
X198096190Y-85542380D01*
X197762857Y-84542380D01*
X197000952Y-84875714D02*
X197000952Y-85542380D01*
X197239047Y-84494761D02*
X197477142Y-85209047D01*
X196858095Y-85209047D01*
X198715238Y-107132380D02*
X199048571Y-106656190D01*
X199286666Y-107132380D02*
X199286666Y-106132380D01*
X198905714Y-106132380D01*
X198810476Y-106180000D01*
X198762857Y-106227619D01*
X198715238Y-106322857D01*
X198715238Y-106465714D01*
X198762857Y-106560952D01*
X198810476Y-106608571D01*
X198905714Y-106656190D01*
X199286666Y-106656190D01*
X198429523Y-106132380D02*
X198096190Y-107132380D01*
X197762857Y-106132380D01*
X197477142Y-106227619D02*
X197429523Y-106180000D01*
X197334285Y-106132380D01*
X197096190Y-106132380D01*
X197000952Y-106180000D01*
X196953333Y-106227619D01*
X196905714Y-106322857D01*
X196905714Y-106418095D01*
X196953333Y-106560952D01*
X197524761Y-107132380D01*
X196905714Y-107132380D01*
%LPC*%
D12*
X184150000Y-146050000D03*
D13*
X184150000Y-148590000D03*
D14*
X184150000Y-141605000D03*
D15*
X184150000Y-139065000D03*
D16*
X194310000Y-76835000D03*
X191810000Y-76835000D03*
D14*
X130810000Y-147320000D03*
X130810000Y-144780000D03*
X130810000Y-142240000D03*
D15*
X130810000Y-139700000D03*
D17*
X142115000Y-117220000D03*
X142115000Y-121920000D03*
X142115000Y-126620000D03*
X137285000Y-117220000D03*
X137285000Y-121920000D03*
X137285000Y-126620000D03*
D18*
X173710000Y-122040000D03*
X164110000Y-122040000D03*
D12*
X166410000Y-129540000D03*
X168910000Y-129540000D03*
D13*
X171410000Y-129540000D03*
D18*
X173710000Y-100450000D03*
X164110000Y-100450000D03*
D12*
X166410000Y-107950000D03*
X168910000Y-107950000D03*
D13*
X171410000Y-107950000D03*
D18*
X173710000Y-78740000D03*
X164110000Y-78740000D03*
D12*
X166410000Y-86240000D03*
X168910000Y-86240000D03*
D13*
X171410000Y-86240000D03*
D18*
X144500000Y-100450000D03*
X134900000Y-100450000D03*
D12*
X137200000Y-107950000D03*
X139700000Y-107950000D03*
D13*
X142200000Y-107950000D03*
D19*
X207010000Y-119380000D03*
X207010000Y-116840000D03*
X207010000Y-114300000D03*
D18*
X144500000Y-78740000D03*
X134900000Y-78740000D03*
D12*
X137200000Y-86240000D03*
X139700000Y-86240000D03*
D13*
X142200000Y-86240000D03*
D18*
X202920000Y-91560000D03*
X193320000Y-91560000D03*
D12*
X195620000Y-99060000D03*
X198120000Y-99060000D03*
D13*
X200620000Y-99060000D03*
D19*
X207010000Y-97790000D03*
X207010000Y-95250000D03*
X207010000Y-92710000D03*
D18*
X202920000Y-113150000D03*
X193320000Y-113150000D03*
D12*
X195620000Y-120650000D03*
X198120000Y-120650000D03*
D13*
X200620000Y-120650000D03*
D19*
X207010000Y-108585000D03*
X207010000Y-106045000D03*
X207010000Y-103505000D03*
D14*
X183642000Y-129540000D03*
X183642000Y-127000000D03*
X183642000Y-124460000D03*
X183642000Y-121920000D03*
X183642000Y-119380000D03*
X183642000Y-116840000D03*
X183642000Y-114300000D03*
D15*
X183642000Y-111760000D03*
D14*
X130302000Y-129540000D03*
X130302000Y-127000000D03*
X130302000Y-124460000D03*
D15*
X130302000Y-121920000D03*
D14*
X183642000Y-91440000D03*
X183642000Y-88900000D03*
X183642000Y-86360000D03*
D15*
X183642000Y-83820000D03*
D14*
X130302000Y-91440000D03*
X130302000Y-88900000D03*
X130302000Y-86360000D03*
D15*
X130302000Y-83820000D03*
D14*
X207010000Y-147320000D03*
D15*
X207010000Y-144780000D03*
D14*
X151765000Y-74295000D03*
X149225000Y-74295000D03*
D15*
X146685000Y-74295000D03*
D14*
X161925000Y-74295000D03*
X159385000Y-74295000D03*
D15*
X156845000Y-74295000D03*
D14*
X182880000Y-77470000D03*
D15*
X182880000Y-74930000D03*
D14*
X207010000Y-77470000D03*
D15*
X207010000Y-74930000D03*
D16*
X205025000Y-82359500D03*
X200025000Y-82359500D03*
M02*
