G04 #@! TF.GenerationSoftware,KiCad,Pcbnew,5.1.10-88a1d61d58~88~ubuntu20.04.1*
G04 #@! TF.CreationDate,2021-06-29T09:02:15-04:00*
G04 #@! TF.ProjectId,whooshy_sound,77686f6f-7368-4795-9f73-6f756e642e6b,0*
G04 #@! TF.SameCoordinates,Original*
G04 #@! TF.FileFunction,Soldermask,Bot*
G04 #@! TF.FilePolarity,Negative*
%FSLAX46Y46*%
G04 Gerber Fmt 4.6, Leading zero omitted, Abs format (unit mm)*
G04 Created by KiCad (PCBNEW 5.1.10-88a1d61d58~88~ubuntu20.04.1) date 2021-06-29 09:02:15*
%MOMM*%
%LPD*%
G01*
G04 APERTURE LIST*
%ADD10C,1.800000*%
%ADD11R,1.800000X1.800000*%
%ADD12O,1.700000X1.700000*%
%ADD13R,1.700000X1.700000*%
%ADD14C,1.600000*%
%ADD15C,2.500000*%
%ADD16O,2.720000X3.240000*%
%ADD17C,1.440000*%
G04 APERTURE END LIST*
D10*
X184150000Y-146050000D03*
D11*
X184150000Y-148590000D03*
D12*
X184150000Y-141605000D03*
D13*
X184150000Y-139065000D03*
D14*
X194310000Y-76835000D03*
X191810000Y-76835000D03*
D12*
X130810000Y-147320000D03*
X130810000Y-144780000D03*
X130810000Y-142240000D03*
D13*
X130810000Y-139700000D03*
D15*
X137285000Y-126620000D03*
X137285000Y-121920000D03*
X137285000Y-117220000D03*
X142115000Y-126620000D03*
X142115000Y-121920000D03*
X142115000Y-117220000D03*
D16*
X173710000Y-122040000D03*
X164110000Y-122040000D03*
D10*
X166410000Y-129540000D03*
X168910000Y-129540000D03*
D11*
X171410000Y-129540000D03*
D16*
X173710000Y-100450000D03*
X164110000Y-100450000D03*
D10*
X166410000Y-107950000D03*
X168910000Y-107950000D03*
D11*
X171410000Y-107950000D03*
D16*
X173710000Y-78740000D03*
X164110000Y-78740000D03*
D10*
X166410000Y-86240000D03*
X168910000Y-86240000D03*
D11*
X171410000Y-86240000D03*
D16*
X144500000Y-100450000D03*
X134900000Y-100450000D03*
D10*
X137200000Y-107950000D03*
X139700000Y-107950000D03*
D11*
X142200000Y-107950000D03*
D17*
X207010000Y-119380000D03*
X207010000Y-116840000D03*
X207010000Y-114300000D03*
D16*
X144500000Y-78740000D03*
X134900000Y-78740000D03*
D10*
X137200000Y-86240000D03*
X139700000Y-86240000D03*
D11*
X142200000Y-86240000D03*
D16*
X202920000Y-91560000D03*
X193320000Y-91560000D03*
D10*
X195620000Y-99060000D03*
X198120000Y-99060000D03*
D11*
X200620000Y-99060000D03*
D17*
X207010000Y-97790000D03*
X207010000Y-95250000D03*
X207010000Y-92710000D03*
D16*
X202920000Y-113150000D03*
X193320000Y-113150000D03*
D10*
X195620000Y-120650000D03*
X198120000Y-120650000D03*
D11*
X200620000Y-120650000D03*
D17*
X207010000Y-108585000D03*
X207010000Y-106045000D03*
X207010000Y-103505000D03*
D12*
X183642000Y-129540000D03*
X183642000Y-127000000D03*
X183642000Y-124460000D03*
X183642000Y-121920000D03*
X183642000Y-119380000D03*
X183642000Y-116840000D03*
X183642000Y-114300000D03*
D13*
X183642000Y-111760000D03*
D12*
X130302000Y-129540000D03*
X130302000Y-127000000D03*
X130302000Y-124460000D03*
D13*
X130302000Y-121920000D03*
D12*
X183642000Y-91440000D03*
X183642000Y-88900000D03*
X183642000Y-86360000D03*
D13*
X183642000Y-83820000D03*
D12*
X130302000Y-91440000D03*
X130302000Y-88900000D03*
X130302000Y-86360000D03*
D13*
X130302000Y-83820000D03*
D12*
X207010000Y-147320000D03*
D13*
X207010000Y-144780000D03*
D12*
X151765000Y-74295000D03*
X149225000Y-74295000D03*
D13*
X146685000Y-74295000D03*
D12*
X161925000Y-74295000D03*
X159385000Y-74295000D03*
D13*
X156845000Y-74295000D03*
D12*
X182880000Y-77470000D03*
D13*
X182880000Y-74930000D03*
D12*
X207010000Y-77470000D03*
D13*
X207010000Y-74930000D03*
D14*
X205025000Y-82359500D03*
X200025000Y-82359500D03*
M02*
