%FSLAX45Y45*%
G04 Gerber Fmt 4.5, Leading zero omitted, Abs format (unit mm)*
G04 Created by KiCad (PCBNEW 5.1.10-88a1d61d58~88~ubuntu20.04.1) date 2021-06-29 16:33:35*
%MOMM*%
%LPD*%
G01*
G04 APERTURE LIST*
%TA.AperFunction,Profile*%
%ADD10C,0.050000*%
%TD*%
%ADD11C,0.200000*%
%ADD12C,0.300000*%
G04 APERTURE END LIST*
D10*
X11379200Y-4762500D02*
G75*
G02*
X11988800Y-4762500I304800J444500D01*
G01*
X11988800Y-4762500D02*
X11379200Y-4762500D01*
X13561000Y-5080000D02*
G75*
G03*
X13561000Y-5080000I-480000J0D01*
G01*
X15212000Y-5080000D02*
G75*
G03*
X15212000Y-5080000I-480000J0D01*
G01*
X10767000Y-5080000D02*
G75*
G03*
X10767000Y-5080000I-480000J0D01*
G01*
X9116000Y-5080000D02*
G75*
G03*
X9116000Y-5080000I-480000J0D01*
G01*
X15240000Y-3556000D02*
G75*
G02*
X15748000Y-4064000I0J-508000D01*
G01*
X15748000Y-5588000D02*
G75*
G02*
X15240000Y-6096000I-508000J0D01*
G01*
X8128000Y-6096000D02*
G75*
G02*
X7620000Y-5588000I0J508000D01*
G01*
X7620000Y-4064000D02*
G75*
G02*
X8128000Y-3556000I508000J0D01*
G01*
X15240000Y-3556000D02*
X8128000Y-3556000D01*
X15748000Y-5588000D02*
X15748000Y-4064000D01*
X8128000Y-6096000D02*
X15240000Y-6096000D01*
X7620000Y-4064000D02*
X7620000Y-5588000D01*
D11*
X11664000Y-5631500D02*
X11704000Y-5671500D01*
X11704000Y-5631500D02*
X11664000Y-5671500D01*
D12*
X7903928Y-6564214D02*
X7903928Y-6264214D01*
X7975357Y-6264214D01*
X8018214Y-6278500D01*
X8046786Y-6307071D01*
X8061071Y-6335643D01*
X8075357Y-6392786D01*
X8075357Y-6435643D01*
X8061071Y-6492786D01*
X8046786Y-6521357D01*
X8018214Y-6549929D01*
X7975357Y-6564214D01*
X7903928Y-6564214D01*
X8203928Y-6564214D02*
X8203928Y-6364214D01*
X8203928Y-6421357D02*
X8218214Y-6392786D01*
X8232500Y-6378500D01*
X8261071Y-6364214D01*
X8289643Y-6364214D01*
X8389643Y-6564214D02*
X8389643Y-6364214D01*
X8389643Y-6264214D02*
X8375357Y-6278500D01*
X8389643Y-6292786D01*
X8403928Y-6278500D01*
X8389643Y-6264214D01*
X8389643Y-6292786D01*
X8575357Y-6564214D02*
X8546786Y-6549929D01*
X8532500Y-6521357D01*
X8532500Y-6264214D01*
X8732500Y-6564214D02*
X8703928Y-6549929D01*
X8689643Y-6521357D01*
X8689643Y-6264214D01*
X9075357Y-6564214D02*
X9075357Y-6264214D01*
X9175357Y-6478500D01*
X9275357Y-6264214D01*
X9275357Y-6564214D01*
X9546786Y-6564214D02*
X9546786Y-6407071D01*
X9532500Y-6378500D01*
X9503928Y-6364214D01*
X9446786Y-6364214D01*
X9418214Y-6378500D01*
X9546786Y-6549929D02*
X9518214Y-6564214D01*
X9446786Y-6564214D01*
X9418214Y-6549929D01*
X9403928Y-6521357D01*
X9403928Y-6492786D01*
X9418214Y-6464214D01*
X9446786Y-6449929D01*
X9518214Y-6449929D01*
X9546786Y-6435643D01*
X9689643Y-6364214D02*
X9689643Y-6664214D01*
X9689643Y-6378500D02*
X9718214Y-6364214D01*
X9775357Y-6364214D01*
X9803928Y-6378500D01*
X9818214Y-6392786D01*
X9832500Y-6421357D01*
X9832500Y-6507071D01*
X9818214Y-6535643D01*
X9803928Y-6549929D01*
X9775357Y-6564214D01*
X9718214Y-6564214D01*
X9689643Y-6549929D01*
X9961071Y-6535643D02*
X9975357Y-6549929D01*
X9961071Y-6564214D01*
X9946786Y-6549929D01*
X9961071Y-6535643D01*
X9961071Y-6564214D01*
X9961071Y-6378500D02*
X9975357Y-6392786D01*
X9961071Y-6407071D01*
X9946786Y-6392786D01*
X9961071Y-6378500D01*
X9961071Y-6407071D01*
X7577500Y-7038500D02*
X7617500Y-7078500D01*
X7617500Y-7038500D02*
X7577500Y-7078500D01*
X7961071Y-6894214D02*
X7989643Y-6894214D01*
X8018214Y-6908500D01*
X8032500Y-6922786D01*
X8046786Y-6951357D01*
X8061071Y-7008500D01*
X8061071Y-7079929D01*
X8046786Y-7137071D01*
X8032500Y-7165643D01*
X8018214Y-7179929D01*
X7989643Y-7194214D01*
X7961071Y-7194214D01*
X7932500Y-7179929D01*
X7918214Y-7165643D01*
X7903928Y-7137071D01*
X7889643Y-7079929D01*
X7889643Y-7008500D01*
X7903928Y-6951357D01*
X7918214Y-6922786D01*
X7932500Y-6908500D01*
X7961071Y-6894214D01*
X8189643Y-7165643D02*
X8203928Y-7179929D01*
X8189643Y-7194214D01*
X8175357Y-7179929D01*
X8189643Y-7165643D01*
X8189643Y-7194214D01*
X8461071Y-6994214D02*
X8461071Y-7194214D01*
X8389643Y-6879929D02*
X8318214Y-7094214D01*
X8503928Y-7094214D01*
X8675357Y-6894214D02*
X8703928Y-6894214D01*
X8732500Y-6908500D01*
X8746786Y-6922786D01*
X8761071Y-6951357D01*
X8775357Y-7008500D01*
X8775357Y-7079929D01*
X8761071Y-7137071D01*
X8746786Y-7165643D01*
X8732500Y-7179929D01*
X8703928Y-7194214D01*
X8675357Y-7194214D01*
X8646786Y-7179929D01*
X8632500Y-7165643D01*
X8618214Y-7137071D01*
X8603928Y-7079929D01*
X8603928Y-7008500D01*
X8618214Y-6951357D01*
X8632500Y-6922786D01*
X8646786Y-6908500D01*
X8675357Y-6894214D01*
X8961071Y-6894214D02*
X8989643Y-6894214D01*
X9018214Y-6908500D01*
X9032500Y-6922786D01*
X9046786Y-6951357D01*
X9061071Y-7008500D01*
X9061071Y-7079929D01*
X9046786Y-7137071D01*
X9032500Y-7165643D01*
X9018214Y-7179929D01*
X8989643Y-7194214D01*
X8961071Y-7194214D01*
X8932500Y-7179929D01*
X8918214Y-7165643D01*
X8903928Y-7137071D01*
X8889643Y-7079929D01*
X8889643Y-7008500D01*
X8903928Y-6951357D01*
X8918214Y-6922786D01*
X8932500Y-6908500D01*
X8961071Y-6894214D01*
X9189643Y-7194214D02*
X9189643Y-6994214D01*
X9189643Y-7022786D02*
X9203928Y-7008500D01*
X9232500Y-6994214D01*
X9275357Y-6994214D01*
X9303928Y-7008500D01*
X9318214Y-7037071D01*
X9318214Y-7194214D01*
X9318214Y-7037071D02*
X9332500Y-7008500D01*
X9361071Y-6994214D01*
X9403928Y-6994214D01*
X9432500Y-7008500D01*
X9446786Y-7037071D01*
X9446786Y-7194214D01*
X9589643Y-7194214D02*
X9589643Y-6994214D01*
X9589643Y-7022786D02*
X9603928Y-7008500D01*
X9632500Y-6994214D01*
X9675357Y-6994214D01*
X9703928Y-7008500D01*
X9718214Y-7037071D01*
X9718214Y-7194214D01*
X9718214Y-7037071D02*
X9732500Y-7008500D01*
X9761071Y-6994214D01*
X9803928Y-6994214D01*
X9832500Y-7008500D01*
X9846786Y-7037071D01*
X9846786Y-7194214D01*
X10432500Y-6879929D02*
X10175357Y-7265643D01*
X10818214Y-6894214D02*
X10846786Y-6894214D01*
X10875357Y-6908500D01*
X10889643Y-6922786D01*
X10903928Y-6951357D01*
X10918214Y-7008500D01*
X10918214Y-7079929D01*
X10903928Y-7137071D01*
X10889643Y-7165643D01*
X10875357Y-7179929D01*
X10846786Y-7194214D01*
X10818214Y-7194214D01*
X10789643Y-7179929D01*
X10775357Y-7165643D01*
X10761071Y-7137071D01*
X10746786Y-7079929D01*
X10746786Y-7008500D01*
X10761071Y-6951357D01*
X10775357Y-6922786D01*
X10789643Y-6908500D01*
X10818214Y-6894214D01*
X11046786Y-7165643D02*
X11061071Y-7179929D01*
X11046786Y-7194214D01*
X11032500Y-7179929D01*
X11046786Y-7165643D01*
X11046786Y-7194214D01*
X11246786Y-6894214D02*
X11275357Y-6894214D01*
X11303928Y-6908500D01*
X11318214Y-6922786D01*
X11332500Y-6951357D01*
X11346786Y-7008500D01*
X11346786Y-7079929D01*
X11332500Y-7137071D01*
X11318214Y-7165643D01*
X11303928Y-7179929D01*
X11275357Y-7194214D01*
X11246786Y-7194214D01*
X11218214Y-7179929D01*
X11203928Y-7165643D01*
X11189643Y-7137071D01*
X11175357Y-7079929D01*
X11175357Y-7008500D01*
X11189643Y-6951357D01*
X11203928Y-6922786D01*
X11218214Y-6908500D01*
X11246786Y-6894214D01*
X11632500Y-7194214D02*
X11461071Y-7194214D01*
X11546786Y-7194214D02*
X11546786Y-6894214D01*
X11518214Y-6937071D01*
X11489643Y-6965643D01*
X11461071Y-6979929D01*
X11903928Y-6894214D02*
X11761071Y-6894214D01*
X11746786Y-7037071D01*
X11761071Y-7022786D01*
X11789643Y-7008500D01*
X11861071Y-7008500D01*
X11889643Y-7022786D01*
X11903928Y-7037071D01*
X11918214Y-7065643D01*
X11918214Y-7137071D01*
X11903928Y-7165643D01*
X11889643Y-7179929D01*
X11861071Y-7194214D01*
X11789643Y-7194214D01*
X11761071Y-7179929D01*
X11746786Y-7165643D01*
X12018214Y-6894214D02*
X12218214Y-6894214D01*
X12089643Y-7194214D01*
X12318214Y-6894214D02*
X12318214Y-6951357D01*
X12432500Y-6894214D02*
X12432500Y-6951357D01*
X12875357Y-7308500D02*
X12861071Y-7294214D01*
X12832500Y-7251357D01*
X12818214Y-7222786D01*
X12803928Y-7179929D01*
X12789643Y-7108500D01*
X12789643Y-7051357D01*
X12803928Y-6979929D01*
X12818214Y-6937071D01*
X12832500Y-6908500D01*
X12861071Y-6865643D01*
X12875357Y-6851357D01*
X13146786Y-7194214D02*
X12975357Y-7194214D01*
X13061071Y-7194214D02*
X13061071Y-6894214D01*
X13032500Y-6937071D01*
X13003928Y-6965643D01*
X12975357Y-6979929D01*
X13503928Y-7194214D02*
X13503928Y-6894214D01*
X13632500Y-7194214D02*
X13632500Y-7037071D01*
X13618214Y-7008500D01*
X13589643Y-6994214D01*
X13546786Y-6994214D01*
X13518214Y-7008500D01*
X13503928Y-7022786D01*
X13818214Y-7194214D02*
X13789643Y-7179929D01*
X13775357Y-7165643D01*
X13761071Y-7137071D01*
X13761071Y-7051357D01*
X13775357Y-7022786D01*
X13789643Y-7008500D01*
X13818214Y-6994214D01*
X13861071Y-6994214D01*
X13889643Y-7008500D01*
X13903928Y-7022786D01*
X13918214Y-7051357D01*
X13918214Y-7137071D01*
X13903928Y-7165643D01*
X13889643Y-7179929D01*
X13861071Y-7194214D01*
X13818214Y-7194214D01*
X14089643Y-7194214D02*
X14061071Y-7179929D01*
X14046786Y-7151357D01*
X14046786Y-6894214D01*
X14318214Y-7179929D02*
X14289643Y-7194214D01*
X14232500Y-7194214D01*
X14203928Y-7179929D01*
X14189643Y-7151357D01*
X14189643Y-7037071D01*
X14203928Y-7008500D01*
X14232500Y-6994214D01*
X14289643Y-6994214D01*
X14318214Y-7008500D01*
X14332500Y-7037071D01*
X14332500Y-7065643D01*
X14189643Y-7094214D01*
X14432500Y-7308500D02*
X14446786Y-7294214D01*
X14475357Y-7251357D01*
X14489643Y-7222786D01*
X14503928Y-7179929D01*
X14518214Y-7108500D01*
X14518214Y-7051357D01*
X14503928Y-6979929D01*
X14489643Y-6937071D01*
X14475357Y-6908500D01*
X14446786Y-6865643D01*
X14432500Y-6851357D01*
M02*
